<?xml version="1.0" encoding="UTF-8" standalone="no"?>
<!-- Created with Inkscape (http://www.inkscape.org/) -->
<svg
   xmlns:dc="http://purl.org/dc/elements/1.1/"
   xmlns:cc="http://creativecommons.org/ns#"
   xmlns:rdf="http://www.w3.org/1999/02/22-rdf-syntax-ns#"
   xmlns:svg="http://www.w3.org/2000/svg"
   xmlns="http://www.w3.org/2000/svg"
   xmlns:xlink="http://www.w3.org/1999/xlink"
   xmlns:sodipodi="http://sodipodi.sourceforge.net/DTD/sodipodi-0.dtd"
   xmlns:inkscape="http://www.inkscape.org/namespaces/inkscape"
   width="800"
   height="600"
   id="svg3361"
   sodipodi:version="0.32"
   inkscape:version="0.46"
   version="1.0"
   sodipodi:docname="Anatomy_of_the_Human_Ear.svg"
   inkscape:output_extension="org.inkscape.output.svg.inkscape">
  <defs
     id="defs3363">
    <inkscape:perspective
       sodipodi:type="inkscape:persp3d"
       inkscape:vp_x="0 : 526.18109 : 1"
       inkscape:vp_y="0 : 1000 : 0"
       inkscape:vp_z="744.09448 : 526.18109 : 1"
       inkscape:persp3d-origin="372.04724 : 350.78739 : 1"
       id="perspective3369" />
    <inkscape:perspective
       id="perspective2390"
       inkscape:vp_z="744.09448 : 526.18109 : 1"
       inkscape:vp_x="0 : 526.18109 : 1"
       sodipodi:type="inkscape:persp3d"
       inkscape:vp_y="0 : 1000 : 0"
       inkscape:persp3d-origin="372.04724 : 350.78739 : 1" />
    <inkscape:perspective
       id="perspective10"
       inkscape:vp_z="744.09448 : 526.18109 : 1"
       inkscape:vp_x="0 : 526.18109 : 1"
       sodipodi:type="inkscape:persp3d"
       inkscape:vp_y="0 : 1000 : 0"
       inkscape:persp3d-origin="372.04724 : 350.78739 : 1" />
    <linearGradient
       id="linearGradient2493"
       inkscape:collect="always">
      <stop
         id="stop2495"
         offset="0"
         style="stop-color:#fce94f;stop-opacity:1;" />
      <stop
         id="stop2497"
         offset="1"
         style="stop-color:#fce94f;stop-opacity:0;" />
    </linearGradient>
    <linearGradient
       id="linearGradient3313"
       inkscape:collect="always">
      <stop
         id="stop3315"
         offset="0"
         style="stop-color:#edd400;stop-opacity:1;" />
      <stop
         id="stop3317"
         offset="1"
         style="stop-color:#edd400;stop-opacity:0;" />
    </linearGradient>
    <linearGradient
       id="linearGradient3321"
       inkscape:collect="always">
      <stop
         id="stop3323"
         offset="0"
         style="stop-color:#edd400;stop-opacity:1;" />
      <stop
         id="stop3325"
         offset="1"
         style="stop-color:#edd400;stop-opacity:0;" />
    </linearGradient>
    <linearGradient
       id="linearGradient3329"
       inkscape:collect="always">
      <stop
         id="stop3331"
         offset="0"
         style="stop-color:#9fe859;stop-opacity:1;" />
      <stop
         id="stop3333"
         offset="1"
         style="stop-color:#9fe859;stop-opacity:0;" />
    </linearGradient>
    <linearGradient
       id="linearGradient3353"
       inkscape:collect="always">
      <stop
         id="stop3355"
         offset="0"
         style="stop-color:#cc0000;stop-opacity:1;" />
      <stop
         id="stop3357"
         offset="1"
         style="stop-color:#cc0000;stop-opacity:0;" />
    </linearGradient>
    <linearGradient
       inkscape:collect="always"
       xlink:href="#linearGradient2493"
       id="linearGradient4018"
       gradientUnits="userSpaceOnUse"
       x1="371.42856"
       y1="254.85715"
       x2="187.14285"
       y2="-13.714286"
       gradientTransform="translate(10.250329,3.7269073)" />
    <linearGradient
       inkscape:collect="always"
       xlink:href="#linearGradient3329"
       id="linearGradient4037"
       gradientUnits="userSpaceOnUse"
       x1="321.73358"
       y1="313.69278"
       x2="188.89853"
       y2="316.35541"
       gradientTransform="translate(10.250329,3.7269073)" />
    <linearGradient
       inkscape:collect="always"
       xlink:href="#linearGradient3313"
       id="linearGradient4042"
       gradientUnits="userSpaceOnUse"
       x1="661.14484"
       y1="286.41864"
       x2="733.87585"
       y2="264.19528"
       gradientTransform="translate(10.250329,3.7269073)" />
    <linearGradient
       inkscape:collect="always"
       xlink:href="#linearGradient3353"
       id="linearGradient4045"
       gradientUnits="userSpaceOnUse"
       x1="509.62198"
       y1="324.29938"
       x2="637.40625"
       y2="450.56845"
       gradientTransform="translate(10.250329,3.7269073)" />
    <linearGradient
       inkscape:collect="always"
       xlink:href="#linearGradient3321"
       id="linearGradient4048"
       gradientUnits="userSpaceOnUse"
       x1="567.5"
       y1="231.68492"
       x2="706.6521"
       y2="231.68492"
       gradientTransform="translate(10.250329,3.7269073)" />
  </defs>
  <sodipodi:namedview
     id="base"
     pagecolor="#ffffff"
     bordercolor="#666666"
     borderopacity="1.0"
     gridtolerance="10000"
     guidetolerance="10"
     objecttolerance="10"
     inkscape:pageopacity="0.0"
     inkscape:pageshadow="2"
     inkscape:zoom="0.70710678"
     inkscape:cx="457.93981"
     inkscape:cy="324.93709"
     inkscape:document-units="px"
     inkscape:current-layer="layer3"
     showgrid="false"
     inkscape:window-width="1280"
     inkscape:window-height="728"
     inkscape:window-x="0"
     inkscape:window-y="24" />
  <metadata
     id="metadata3366">
    <rdf:RDF>
      <cc:Work
         rdf:about="">
        <dc:format>image/svg+xml</dc:format>
        <dc:type
           rdf:resource="http://purl.org/dc/dcmitype/StillImage" />
      </cc:Work>
    </rdf:RDF>
  </metadata>
  <g
     inkscape:label="Ear"
     inkscape:groupmode="layer"
     id="layer1"
     sodipodi:insensitive="true">
    <path
       style="fill:url(#linearGradient4048);fill-opacity:1;stroke:none;stroke-width:2;stroke-linecap:butt;stroke-linejoin:round;stroke-miterlimit:4;stroke-dasharray:none;stroke-dashoffset:0;stroke-opacity:1"
       d="M 579.89319,229.11977 C 579.89319,229.11977 621.6789,232.69119 673.10747,223.04834 C 724.53605,213.40548 719.35747,223.94119 712.9289,225.36977 C 706.50033,226.79834 608.28605,241.26262 585.60747,251.79834 C 577.9289,245.90548 577.75033,242.51262 577.75033,242.51262 L 579.89319,229.11977 z"
       id="path2517" />
    <path
       style="fill:url(#linearGradient4045);fill-opacity:1;stroke:none;stroke-width:2;stroke-linecap:butt;stroke-linejoin:round;stroke-miterlimit:4;stroke-dasharray:none;stroke-dashoffset:0;stroke-opacity:1"
       d="M 629.34757,460.86134 C 629.34757,460.86134 616.84693,432.32453 587.55251,403.28265 C 558.25809,374.24076 539.31773,364.13923 539.31773,364.13923 C 539.31773,364.13923 504.97254,368.93746 490.32533,355.80548 C 494.36594,347.97679 500.67939,327.01613 468.85959,291.40825 C 454.21237,280.54911 441.58547,275.49835 441.58547,275.49835 C 448.15146,273.73058 448.404,268.93236 444.36339,263.12398 C 440.32278,257.3156 430.22125,238.62778 435.52455,234.33463 C 440.82785,230.04148 459.76821,222.46534 473.65781,227.5161 C 487.54741,232.56687 482.74918,241.15316 486.28472,245.19377 C 489.82025,249.23438 502.44716,258.07322 502.44716,258.07322 L 508.25554,269.94251 L 516.58929,270.70012 L 526.69082,264.38667 L 546.13626,269.94251 L 554.72255,276.76104 L 555.48017,282.56942 C 555.48017,282.56942 547.90402,284.33718 546.13626,283.57957 C 542.85326,288.63033 530.98397,294.69125 530.98397,294.69125 C 530.98397,294.69125 522.39767,309.591 523.15529,315.14684 C 523.9129,320.70268 524.92305,344.18872 550.93448,349.49202 C 576.94591,354.79532 547.65148,340.40065 567.09692,361.61385 C 586.54236,382.82706 630.98907,420.45524 630.98907,420.45524 L 667.6071,465.15449 L 629.34757,460.86134 z"
       id="path2501"
       sodipodi:nodetypes="csccccsssscccccccccsssccc" />
    <path
       style="fill:url(#linearGradient4042);fill-opacity:1;stroke:none;stroke-width:2;stroke-linecap:butt;stroke-linejoin:round;stroke-miterlimit:4;stroke-dasharray:none;stroke-dashoffset:0;stroke-opacity:1"
       d="M 641.72194,270.57385 C 646.14136,274.74073 657.50557,287.24137 657.50557,287.24137 L 664.07157,298.10051 L 668.86979,312.74772 C 668.86979,312.74772 684.40089,291.15571 710.28604,285.34734 C 736.1712,279.53896 753.21753,274.99327 753.21753,274.99327 L 735.66613,262.11383 L 700.56333,271.71028 L 656.36915,273.73058 L 641.72194,270.57385 z"
       id="path2473" />
    <path
       style="fill:#729fcf"
       d="M 450.40658,231.82066 C 446.7099,234.32689 453.15215,240.24016 448.00033,241.25816 C 441.89454,245.07248 443.86576,253.37398 447.93783,258.03941 C 449.07467,259.94357 452.88513,264.28847 448.45225,264.73653 C 443.65471,266.09712 447.43885,272.46816 451.46908,270.85191 C 455.22536,269.97459 455.13476,274.65645 453.40658,276.72691 C 451.64459,282.49991 459.87465,284.16325 462.84408,287.44566 C 466.89513,289.51198 467.09909,284.10743 467.90658,281.60191 C 470.17485,276.77254 476.56074,284.48899 478.28158,279.00816 C 479.28501,273.89487 473.91794,271.04698 469.56283,271.22691 C 466.31169,269.37728 471.32565,265.91579 471.96908,263.66441 C 475.81047,255.72791 467.67671,248.97702 462.25033,244.57066 C 457.81392,241.03452 456.4923,234.50441 451.87533,231.47691 C 451.36517,231.52182 450.76941,231.2769 450.40658,231.82066 z"
       id="path54" />
    <path
       style="fill:#ad7fa8;fill-opacity:1"
       d="M 561.59408,166.22691 C 549.2831,166.85488 538.13515,175.18488 532.75033,186.00816 C 528.10369,186.37959 527.42944,188.37035 524.77265,190.51709 C 519.43091,197.75315 519.09893,207.88327 523.68783,215.47691 C 512.64704,214.89542 499.55139,215.19179 491.37533,223.57066 C 484.59811,232.069 491.75712,243.98315 500.28158,248.00816 C 509.18532,253.71638 520.12362,252.61237 529.84408,255.03941 C 530.80977,258.13438 524.21464,263.36643 525.45745,265.22272 C 535.98879,266.78005 549.84128,268.12413 555.18783,278.72691 C 556.84217,282.35542 552.49524,285.36302 549.09607,283.72638 C 543.85439,283.26845 541.00179,289.68854 535.96908,291.19566 C 529.12103,294.65198 525.76827,302.81562 524.25033,309.97691 C 521.32981,323.8624 528.17603,338.58427 540.40649,345.48254 C 547.54039,350.26852 558.8472,351.32687 565.12232,350.64541 C 587.70661,360.36705 613.63394,369.22877 638.03158,360.78941 C 654.75611,355.99557 668.53565,341.12026 669.21908,323.22691 C 671.23034,289.09748 638.16004,257.28812 604.00033,262.16441 C 597.85519,262.70205 589.87758,266.4426 586.25033,269.00816 C 590.72915,265.23125 586.44045,259.01019 584.87533,254.75816 C 581.90342,248.64905 576.37072,244.08012 572.81283,238.53941 C 573.00047,236.53664 571.50155,232.7568 571.28158,232.16441 C 573.99802,234.68345 573.41608,241.78077 578.43783,240.53941 C 581.05832,236.59055 579.27874,230.94412 581.15658,226.47691 C 583.36494,219.57646 589.86246,214.52027 590.68783,207.00816 C 594.63933,192.9942 590.06439,175.62696 576.25033,168.94566 C 571.80802,166.43048 566.61893,166.08925 561.59408,166.22691 z M 564.31283,178.88316 C 571.44557,177.4872 578.34871,183.50595 577.87533,190.82066 C 578.35308,197.04392 574.56467,202.30136 573.18783,208.10191 C 572.04912,199.61781 570.44438,188.58448 561.06283,185.28941 C 557.6212,183.91504 553.93508,183.38303 550.21908,183.16441 C 554.47388,180.51882 559.32392,179.03913 564.31283,178.88316 z M 545.37533,194.78941 C 555.33196,193.93182 564.32026,203.05614 563.25033,213.07066 C 563.1507,217.64505 563.43653,222.49637 565.90658,226.44566 C 556.86348,221.76517 544.4594,220.15809 540.15658,209.47691 C 538.17476,205.05427 538.19181,199.91157 539.96908,195.38316 C 542.69861,196.05587 542.37879,194.8335 545.37533,194.78941 z M 534.84408,221.32066 C 536.62916,223.22709 540.87403,227.48203 540.71908,227.57066 C 538.62585,225.19767 536.21219,223.0737 534.18783,220.60191 L 534.84408,221.32066 z M 516.15658,225.91441 C 524.93574,226.1596 539.89754,229.64237 544.33515,238.11084 C 550.626,239.38291 542.71613,228.90389 544.81283,233.41441 C 546.28589,236.28386 547.71341,240.63214 546.81283,243.16441 C 533.06529,241.93297 517.77524,244.71254 505.40658,237.66441 C 502.40013,236.09201 497.41574,230.16741 502.53158,228.07066 C 506.78293,226.23543 511.55038,226.07444 516.15658,225.91441 z M 603.53158,288.25816 C 619.59634,287.61761 636.8862,300.84893 635.71908,317.94566 C 636.63284,328.56833 629.75254,339.62479 618.87533,341.28941 C 608.61317,341.85906 597.69162,345.91618 587.71908,341.10191 C 574.83271,336.33119 571.11332,320.69709 573.43783,308.41441 C 572.76939,304.81769 571.30136,301.3417 571.37533,297.60191 C 571.62424,300.49588 572.78988,303.22342 573.53158,306.07066 C 579.5483,295.08552 590.66452,287.4644 603.53158,288.25816 z M 540.62533,320.66441 C 547.31885,321.31762 551.686,329.51245 549.25033,335.50816 C 546.35057,338.25418 543.20727,334.20416 540.59408,332.69566 C 537.57819,330.38295 534.35383,321.17263 540.62533,320.66441 z"
       id="path18"
       sodipodi:nodetypes="ccccccccccccccccccccccccccccccccccccccccccccccccccccccccccccc" />
    <path
       style="fill:url(#linearGradient4037);fill-opacity:1"
       d="M 215.78158,282.00816 C 203.22596,283.95155 187.97378,285.87043 180.43783,297.38316 C 174.91401,308.11692 182.28904,319.90658 188.46908,328.60191 C 194.27756,336.46279 200.55562,344.31061 206.96908,351.50816 C 228.36319,360.18118 252.40585,359.62565 274.37533,354.10191 C 299.46382,347.9381 323.64518,338.07477 349.62064,336.16139 C 380.7744,333.22687 412.79923,335.03 442.23451,346.18636 C 451.63677,348.98342 461.32754,352.24846 471.28158,350.75816 C 462.6008,345.40095 452.65239,341.50384 446.87533,332.47691 C 440.12039,322.40768 432.98428,310.41725 435.62533,297.97691 C 437.53293,293.68688 442.14194,291.66765 445.84408,289.22691 C 424.23457,282.50203 401.78065,289.45265 380.05368,291.1841 C 330.11248,298.07285 278.07124,300.59047 229.29605,286.39673 C 224.70623,285.123 220.34174,283.12548 215.78158,282.00816 z"
       id="path58" />
    <path
       style="fill:#5c3566"
       d="M 540.40658,320.07066 C 534.36386,321.38901 536.48676,329.16742 539.15658,332.72691 C 541.2882,337.7187 549.90046,340.19967 551.59408,333.66441 C 552.04549,327.8062 546.31361,320.49583 540.40658,320.07066 z"
       id="path12" />
    <path
       d="M 674.75033,467.64691 C 675.13033,467.64691 675.34033,467.81691 675.21033,468.01691 C 674.80033,468.69691 673.00033,468.41691 670.70033,467.31691 C 666.59033,465.36691 663.05033,462.23691 655.90033,454.26691 C 654.79933,453.03691 651.33933,448.64691 648.21033,444.50691 C 635.95033,428.27691 632.72033,424.59691 624.05033,416.90591 C 621.57133,414.70691 619.03033,412.38591 618.41033,411.75691 C 617.78033,411.12691 612.71033,406.72691 607.13933,401.97691 C 593.59933,390.44691 579.83933,378.34691 575.92933,374.52691 C 573.15933,371.83691 557.3379,351.88262 557.3289,351.20262 C 557.3289,351.03262 558.3889,351.01262 559.6789,351.16262 C 561.3789,351.35262 560.75033,349.3112 562.5489,352.16262 C 566.8389,358.22262 576.45033,370.20691 580.45033,373.85691 C 587.65033,380.44691 604.63933,395.41691 614.26933,403.67691 C 616.54033,405.62691 618.83033,407.67691 619.34933,408.22691 C 619.86033,408.78691 622.76933,411.37691 625.80933,413.99691 C 634.78033,421.71791 644.21933,432.64691 656.21933,449.20791 C 657.94033,451.58791 659.44933,453.61691 659.57933,453.72791 C 659.70933,453.82791 660.96933,455.40791 662.37933,457.23791 C 667.13033,463.36691 672.21033,467.64691 674.75033,467.64691 z"
       id="path16"
       sodipodi:nodetypes="cscccssccsscccsccscc" />
    <path
       d="M 653.94033,433.74691 C 658.36033,439.57691 664.19033,449.26791 663.62933,449.82691 C 663.52933,449.91791 662.78933,449.18691 661.96933,448.18691 C 661.15033,447.19691 658.88933,444.26691 656.94933,441.68691 C 645.21933,426.06691 629.61933,410.19691 614.16933,398.15691 C 605.31933,391.26691 597.17933,383.95691 588.30933,374.93691 C 582.19033,368.72691 577.21933,362.67691 578.23033,362.67691 C 578.41933,362.67691 581.36033,365.26691 584.75933,368.42691 C 588.15933,371.58691 592.13933,375.17691 593.61933,376.41691 C 595.08933,377.65691 598.46933,380.62691 601.13933,383.02691 C 605.57033,387.01691 608.69033,389.65691 620.07033,399.10691 C 634.26033,410.89691 644.84033,421.70691 653.94033,433.74691 z"
       id="path20" />
    <path
       sodipodi:nodetypes="csssssscccccccccccccssssccsccccscc"
       d="M 634.08033,310.38691 C 634.82033,312.75691 634.95033,313.98691 634.93033,318.09691 C 634.91033,322.33691 634.77033,323.39691 633.91033,325.99691 C 631.79033,332.39691 627.80933,336.76691 622.43033,338.57691 C 620.32133,339.28691 616.71033,339.64691 616.71033,339.14691 C 616.71033,339.02691 617.20033,338.30691 617.80033,337.54691 C 618.40133,336.78691 619.43033,334.71691 620.11133,332.95691 C 620.41133,332.16691 620.65133,331.47691 620.83133,330.82691 C 621.25133,329.39691 621.42133,328.11691 621.52033,326.11691 C 621.74133,321.75691 621.35033,319.97691 619.29133,315.74691 C 617.53133,312.13691 615.06133,309.68691 611.11133,307.61691 C 608.22033,306.10691 606.57133,305.63691 603.11133,305.33691 C 598.29133,304.92691 592.25133,307.67691 589.25133,311.65691 C 586.19133,315.70691 585.17133,321.42691 586.85133,325.05691 C 588.08133,327.69691 590.38133,330.04691 592.49233,330.79691 C 595.11233,331.73691 598.47133,331.65691 600.53233,330.60691 C 603.17233,329.25691 602.90233,328.85691 599.51133,329.08691 C 596.13133,329.32691 594.48233,328.72691 592.39133,326.50691 C 590.54133,324.53691 589.96133,323.04691 589.93133,320.20691 C 589.89133,315.71691 592.15233,312.17691 596.48233,309.97691 C 598.28233,309.06691 599.09133,308.87691 601.39133,308.87691 C 608.56133,308.87691 615.02133,312.69691 617.77133,318.56691 C 618.70233,320.55691 618.78233,321.11691 618.78233,325.44691 C 618.78233,328.30691 619.13633,329.92566 618.83733,330.98566 C 618.65733,331.62566 617.99233,331.76691 617.54233,332.68691 C 615.25233,337.33691 611.11233,340.43691 605.41233,341.77691 C 602.47233,342.47691 597.04233,342.48691 593.92233,341.80691 C 586.77233,340.24691 581.53233,336.21691 578.41233,329.88691 C 575.88233,324.74691 575.14133,321.55691 575.17233,315.83691 C 575.19333,311.26691 575.27233,310.73691 576.42233,307.67691 C 578.14233,303.08691 580.31233,299.90691 583.82233,296.81691 C 590.55133,290.90691 598.24233,288.63691 607.44233,289.85691 C 614.75233,290.82691 618.29233,292.32691 625.04233,297.31691 C 629.32033,300.47691 632.38033,304.91691 634.08033,310.38691 z"
       id="path22"
       style="fill:#ad7fa8" />
    <path
       d="M 569.91033,148.95691 C 576.97033,147.79691 586.43033,147.81691 585.25033,148.99691 C 585.06033,149.18691 582.01033,149.93691 578.46033,150.66691 C 562.70033,153.91691 550.54033,158.68691 540.15033,165.70691 C 533.57033,170.15691 530.92933,172.31691 524.73033,178.31691 C 514.96933,187.75691 507.66933,192.96691 495.98033,198.81691 C 490.54933,201.53691 478.79033,206.45691 472.62033,208.59691 C 469.83033,209.56691 467.20033,210.51691 466.79033,210.70691 C 463.60033,212.21691 441.16033,218.31691 433.87033,219.64691 C 415.53033,223.01691 402.26033,224.65691 387.78033,225.35691 C 379.21933,225.76691 377.17033,225.76691 368.54033,225.33691 C 357.76933,224.80691 348.33033,223.48691 341.41033,221.55691 C 339.29033,220.95691 337.22033,220.46691 336.82033,220.46691 C 334.26933,220.46691 317.75033,212.70691 314.64033,210.04691 C 314.31033,209.76691 312.33033,208.28691 310.24033,206.74691 C 292.73033,193.86691 279.26033,174.75691 267.66033,146.35691 C 263.44033,136.03691 254.36033,109.31691 245.91033,82.396907 C 243.93033,76.086907 241.48033,68.316907 240.46033,65.136907 C 239.45033,61.956907 238.61033,58.986907 238.61033,58.536907 C 238.61033,58.086907 238.20033,56.296907 237.70033,54.546907 C 235.23033,45.926907 232.80033,35.416907 233.18033,35.036907 C 233.62033,34.596907 234.62033,36.286907 236.55033,40.746907 C 237.68033,43.376907 238.61033,45.786907 238.61033,46.106907 C 238.61033,46.636907 244.21033,62.076907 245.02033,63.776907 C 245.80033,65.416907 255.06033,92.086907 263.63033,117.38691 C 270.17033,136.69691 273.86033,145.77691 280.20033,158.21691 C 288.88033,175.22691 299.65033,189.05691 312.10033,199.15691 C 319.08033,204.81691 324.36033,208.01691 332.03033,211.22691 C 345.13033,216.71691 355.99033,218.56691 376.30933,218.77691 C 388.55933,218.90691 392.69033,218.72691 403.20933,217.64691 C 412.56933,216.67691 430.39933,213.71691 434.24933,212.49691 C 434.96933,212.25691 436.06933,212.01691 436.67933,211.94691 C 438.50933,211.72691 451.78033,208.21691 457.78933,206.34691 C 464.53933,204.24691 475.13933,200.40691 477.60933,199.16691 C 478.58833,198.66691 479.38833,198.33691 479.38833,198.42691 C 479.38833,198.94691 492.16833,193.10691 497.63833,190.08691 C 504.36833,186.36691 508.97933,182.93691 517.95833,174.95691 C 535.19033,159.63691 549.96033,152.24691 569.91033,148.95691 z"
       id="path28" />
    <path
       style="fill:#204a87"
       d="M 524.06283,264.75816 C 521.57657,266.21164 519.44305,268.34979 518.75033,271.00816 C 515.1861,275.18749 509.60707,279.85602 512.9289,286.13316 C 512.56858,288.94833 512.95596,291.37416 515.46908,292.63316 C 517.82521,297.22136 522.15748,293.06639 526.00033,294.16441 C 533.51629,294.86338 540.13909,289.69735 545.71908,285.38316 C 548.24607,283.47999 553.63111,286.54891 555.46908,282.32066 C 557.70464,276.71978 550.90843,272.54572 546.84408,270.19566 C 539.89468,266.59516 531.6108,264.544 524.06283,264.75816 z M 526.65658,274.22691 C 528.00679,278.37036 534.43601,276.99137 537.43783,280.03941 C 537.53116,281.93411 532.34423,283.87366 530.00033,284.66441 C 526.76922,285.36699 521.4399,286.59677 519.28158,283.66441 C 519.63064,279.65861 524.37933,276.86412 526.65658,274.22691 z M 541.53158,276.28941 C 541.69804,276.3988 541.13436,276.476 541.53158,276.28941 z"
       id="path38"
       sodipodi:nodetypes="cccccccccccccccc" />
    <path
       d="M 551.91033,331.64691 C 552.03033,334.07691 551.97132,334.93698 551.34033,335.96691 C 549.29854,339.2996 545.60792,339.25328 542.7164,337.29655 C 538.35409,334.34453 535.07133,329.74691 535.07133,324.70691 C 535.08133,319.59691 539.49133,317.18691 544.38133,319.62691 C 548.79033,321.81691 551.66033,326.40691 551.91033,331.64691 z M 548.90033,334.61691 C 550.07033,333.30691 549.98033,331.59691 548.58933,328.95691 C 546.66933,325.27691 542.99933,322.04691 540.74933,322.04691 C 540.31933,322.04691 539.59933,322.40691 539.15933,322.84691 C 536.89933,325.11691 540.53933,333.37691 544.63833,335.26691 C 546.47033,336.10691 547.74033,335.91691 548.90033,334.61691 z"
       id="path40"
       sodipodi:nodetypes="csscccccsscc" />
    <path
       d="M 545.36033,276.08691 C 546.29033,277.11691 545.80933,277.75691 544.25033,277.57691 C 543.11033,277.44691 542.87033,277.59691 541.81033,279.14691 C 539.54033,282.43691 534.51033,285.62691 529.63033,286.86691 C 526.49033,287.66691 521.74033,287.60691 519.84033,286.73691 C 517.83033,285.82691 517.21033,284.99691 517.26033,283.27691 C 517.31033,281.09691 518.78133,279.01691 523.59033,274.32691 C 527.70033,270.30691 528.04033,270.06691 529.17033,270.28691 C 530.77033,270.58691 532.82033,271.86691 532.82033,272.55691 C 532.82033,272.94691 532.23033,273.19691 530.92933,273.36691 C 529.20933,273.59691 528.32933,274.04691 528.76933,274.48691 C 528.86033,274.57691 530.12033,274.95691 531.57033,275.34691 C 533.03033,275.72691 535.15033,276.54691 536.29033,277.15691 L 538.37033,278.28691 L 538.98033,277.25691 C 539.30933,276.68691 539.58933,275.78691 539.58933,275.24691 C 539.58933,274.35691 539.71933,274.26691 541.11033,274.26691 C 542.79033,274.26691 544.30033,274.91691 545.36033,276.08691 z M 528.13033,284.97691 C 531.81033,284.03691 536.58033,281.37691 536.58033,280.25691 C 536.58033,279.40691 528.95033,277.30691 525.80033,277.28691 C 524.44133,277.27691 524.02033,277.49691 522.54033,278.99691 C 519.82033,281.75691 519.31033,284.16691 521.24033,285.09691 C 522.48033,285.68691 525.55033,285.63691 528.13033,284.97691 z"
       id="path42" />
    <path
       style="fill:#3465a4"
       d="M 471.81283,245.97691 C 468.47707,245.56406 464.81568,250.09388 468.62533,252.00816 C 473.40803,256.65354 471.30426,263.72937 467.78158,268.28941 C 466.98539,274.08951 476.23837,271.34892 477.09408,276.75816 C 477.80293,279.52186 475.24288,282.74642 478.75926,284.64209 C 483.70983,286.86366 485.45636,291.60696 488.34408,295.75816 C 493.92659,303.3345 504.04472,300.56504 511.52265,297.39209 C 515.20498,297.72308 519.49908,294.46313 516.06283,291.53941 C 512.18186,286.89187 507.01625,290.80602 502.88426,293.0528 C 496.55902,293.57179 494.03419,285.60341 492.06283,280.97691 C 489.90625,276.05444 482.92674,274.37263 483.93783,268.10191 C 483.42684,264.88701 483.02855,260.61672 487.21908,259.94566 C 491.44743,259.08579 490.85235,253.50056 486.75033,253.1679 C 483.1796,253.46278 480.45695,251.23702 478.37533,248.50816 C 476.56054,247.00701 474.25597,245.70442 471.81283,245.97691 z"
       id="path48"
       sodipodi:nodetypes="ccccccccccccccc" />
    <path
       sodipodi:nodetypes="ccccccccccccccccccccccccccccccccccccccccccccccccccscssccccccccccccccccccccccccccccccccccccccccsscssccccccccccccccccccccccccccccccccscccccccccccccccccccccccccccccccccccccccccccccccccccccccsscccccccccsccccccccccccccccccccccccccccccccscccccccccccccccccccccccccccccccccccccccccccccccccccccccccccccccccccccccccccccccccccccccccccccccccccccccscccccccccccccccsccccccccccccccccccccccccccccccccccccccccccccccsccccccccccccccccccccccccccccccccccccccccccccc"
       id="path32"
       d="M 572.12033,167.10691 C 571.80279,168.29709 572.06641,169.52221 570.09186,168.78826 C 564.20071,167.76189 557.94588,167.88756 552.39796,170.32145 C 542.60424,174.15376 535.26406,182.86434 532.01802,192.74206 C 530.09401,198.2747 529.34704,204.38152 530.70133,210.12691 C 532.08278,215.47412 535.76387,219.7694 539.70925,223.45743 C 544.50107,228.32674 548.79028,234.36995 549.11746,241.43447 C 548.98803,242.49943 550.49129,242.16273 551.15149,242.5498 C 555.93356,243.78389 561.29807,245.31709 564.02794,249.80451 C 564.65047,250.2294 565.26205,254.29645 564.34705,252.78219 C 561.77993,248.57712 557.13811,245.95212 552.27107,245.55066 C 540.11708,244.4644 527.81296,245.39491 515.72572,243.48258 C 509.27986,242.45195 502.26858,239.74421 499.02004,233.68641 C 497.37058,231.18319 498.37334,227.6487 501.18419,226.51354 C 506.04202,224.18306 511.60097,224.00288 516.89803,223.93345 C 523.46943,224.13181 530.29851,225.27148 535.95303,228.80557 C 538.78785,230.90933 541.81128,232.98716 543.93316,235.84172 C 543.64125,238.26086 541.76786,234.97167 540.31645,234.29521 C 535.28466,229.9095 528.91859,227.16648 522.27881,226.50371 C 516.57023,225.98401 510.68096,225.63702 505.07539,227.07178 C 502.74865,227.51893 500.03217,229.95673 501.94327,232.35808 C 503.7835,235.11293 506.57213,237.2193 509.50876,238.70472 C 515.59406,241.18419 522.3158,240.99309 528.7661,241.33578 C 533.58141,241.41867 538.40333,241.65105 543.21703,241.45914 C 545.36371,240.53589 542.94394,236.86461 542.85124,235.00305 C 541.55754,230.05325 537.09129,227.01219 533.89356,223.32969 C 528.73504,218.1763 526.84292,210.65135 526.96275,203.54176 C 527.14196,194.38618 530.76485,185.37322 537.0553,178.7044 C 542.76503,172.28719 550.37326,167.00287 559.11686,166.12982 C 563.45865,165.63627 567.91035,165.90718 572.12033,167.10691 z M 575.64034,180.32692 C 580.15479,184.53181 580.60503,191.37777 579.21374,197.04983 C 578.13273,200.96071 576.09098,204.53344 575.17752,208.50572 C 574.58375,210.66529 574.07253,212.84646 573.52035,215.0169 C 570.14057,208.73286 570.83369,201.22654 568.13161,194.71795 C 566.1289,189.53236 560.80924,186.62752 555.55853,185.7951 C 553.04927,185.26014 550.43746,185.30596 547.92234,184.95945 C 547.25822,184.42067 545.77459,184.32469 546.63184,183.26667 C 553.37735,177.93754 562.54947,175.66323 570.96895,177.50459 C 572.76368,177.97554 574.33465,179.03244 575.64034,180.32692 z M 575.34036,199.4869 C 577.06713,194.48265 578.06622,188.45932 574.97631,183.76598 C 572.82883,180.32721 568.62566,178.86622 564.71602,179.12964 C 560.96677,179.28534 557.09177,180.05967 553.83549,181.96292 C 555.86324,182.97313 558.56195,182.86814 560.66815,184.05213 C 565.2565,185.95733 568.89678,189.6544 571.0857,194.07816 C 572.38593,196.36111 573.21941,198.85773 573.90033,201.37941 C 574.39516,202.81139 575.08085,199.75018 575.34036,199.4869 z M 619.29031,315.7469 C 621.02425,318.90713 621.90853,322.51129 621.51933,326.11691 C 621.45179,327.29925 621.13382,330.75392 620.78203,331.7395 C 620.55092,332.38698 620.58941,330.95634 619.6754,330.67585 C 618.74836,330.77783 618.46678,331.33869 618.47105,330.71939 C 618.47772,329.75348 618.79561,327.45236 618.77888,326.44242 C 618.72921,323.44337 619.01588,320.13437 617.21096,317.49074 C 613.52179,311.05714 605.38565,307.76952 598.21814,309.22896 C 593.6968,310.69946 589.85393,314.84758 589.93231,319.78877 C 589.54085,323.5884 592.03786,327.24904 595.46596,328.71941 C 597.55761,329.79483 600.55378,328.34392 602.26111,329.47207 C 599.16858,332.09635 594.25326,332.0425 590.89188,329.95488 C 587.41384,327.5471 585.33915,323.17804 586.19899,318.96181 C 586.92661,313.46182 590.80528,308.64404 595.96576,306.64457 C 601.69836,304.03195 608.50003,305.50505 613.49764,309.03806 C 615.99587,310.69819 618.00631,313.03741 619.29031,315.7469 z M 561.75033,259.07692 C 560.70857,261.09597 557.98398,261.94796 555.86059,262.62788 C 552.20147,263.75421 548.30824,263.96677 544.56745,263.1032 C 538.84765,262.08266 534.02711,258.61533 528.62234,256.72675 C 523.72232,255.49745 518.60203,255.67949 513.64025,254.77808 C 504.40911,253.31029 495.06199,248.64859 490.14369,240.41041 C 488.40099,237.47338 487.35254,234.06398 487.75033,230.62691 C 488.73033,230.65691 489.71033,230.68691 490.69033,230.71692 C 490.44627,237.21916 495.21179,242.7114 500.52399,245.84809 C 506.84138,249.66268 514.2273,251.15105 521.51639,251.55496 C 525.89329,251.86411 530.48773,252.41331 534.11443,255.11932 C 538.91386,258.57579 544.70126,261.0751 550.7254,260.63619 C 554.36846,260.62437 557.93147,259.84768 561.47032,259.0816 L 561.75033,259.07691 L 561.75033,259.07692 z M 533.06039,184.88325 C 531.84246,187.03143 529.06284,187.85585 527.37728,189.68497 C 523.37529,193.20832 522.23425,198.84796 522.28563,203.95773 C 522.39666,208.94666 524.47562,213.7045 527.51933,217.59691 C 527.98592,219.01273 524.64672,217.16926 523.66955,217.51044 C 515.15287,216.73077 506.27228,217.39204 498.35889,220.83267 C 494.38097,222.55309 490.72267,226.11739 490.69033,230.71691 C 489.71033,230.68691 488.73033,230.65691 487.75033,230.6269 C 487.50803,225.88546 490.45978,221.46417 494.5255,219.21662 C 500.6491,215.60715 507.77409,214.13804 514.77037,213.40675 C 517.48982,213.70768 521.34247,213.30955 519.30769,209.69329 C 518.34021,204.95849 517.99857,199.71952 520.47975,195.36569 C 522.8374,190.52469 527.37608,187.17529 532.16666,184.98323 C 532.43953,184.93078 532.77913,184.70923 533.06039,184.88325 z M 557.33035,278.86692 C 558.20006,281.56281 556.41266,285.00631 553.81644,285.75007 C 553.01783,285.97886 550.6525,285.92229 549.44103,285.75913 C 549.06486,285.70847 549.83994,285.26722 550.05556,284.62451 C 549.90757,283.78071 548.76153,282.64676 549.20359,282.70513 C 549.68338,282.76848 551.57463,282.86896 552.40783,282.56816 C 555.50658,281.44948 553.48371,277.52879 551.62425,276.03329 C 545.45138,270.29156 536.97123,268.00662 528.81233,266.87392 C 527.57135,266.60317 525.80008,267.05828 524.64035,266.58263 C 524.14544,265.98961 521.63604,265.63182 522.39163,265.02894 C 524.84088,263.47092 528.00096,260.77598 528.68858,257.83109 C 528.96622,256.61751 529.77656,255.2232 529.71591,257.45314 C 529.90429,259.66584 528.85511,261.64198 528.01834,263.60691 C 534.99709,264.60329 542.18226,265.55168 548.37391,269.17355 C 552.24084,271.33442 556.12935,274.39676 557.33035,278.86692 z M 770.49032,269.23692 C 773.51147,269.36584 768.19572,271.9477 767.02595,272.29823 C 756.75077,276.1956 745.97839,278.55071 735.32462,281.1536 C 721.38158,284.46992 707.32447,287.86086 694.23741,293.83263 C 688.71042,296.53637 682.80774,299.09652 678.80273,303.96918 C 675.56754,307.72807 672.56367,311.86012 670.82488,316.53629 C 670.31591,320.03708 670.74162,323.62873 670.04546,327.12354 C 667.9216,341.39674 658.57152,354.37336 645.61115,360.76702 C 633.54504,366.97201 619.45022,368.61892 606.1488,366.30612 C 592.64208,364.12249 579.64494,359.38139 567.49346,353.15941 C 564.36537,351.4503 560.70285,352.50301 557.33995,351.852 C 550.76739,351.17095 544.27521,349.24351 538.71485,345.60883 C 535.24736,343.40236 531.80564,341.01862 529.31787,337.68585 C 525.79919,333.38613 523.22445,328.25068 521.91702,322.85131 C 520.74464,315.92139 521.21105,308.47365 524.62846,302.20609 C 525.74263,299.85456 527.38345,297.83076 529.09731,295.89692 C 526.96748,295.71653 524.83651,295.43503 522.81938,294.7228 C 520.00863,293.95274 519.01773,296.99358 516.8306,297.70288 C 513.76743,298.22651 510.64936,298.54336 507.68833,299.56691 C 507.25719,298.74833 507.1418,298.10577 507.45315,297.66835 C 509.86738,295.89272 514.78933,297.09703 515.13132,293.53995 C 513.42497,291.16585 509.9539,290.13922 507.41253,291.83576 C 505.26125,293.2182 501.99158,294.59918 499.33072,293.76907 C 499.24733,292.77545 499.96217,292.391 500.46695,292.20845 C 501.14539,291.96308 502.53292,292.2657 503.47978,292.02816 C 505.90155,290.90619 507.8411,288.59273 510.693,288.50122 C 512.27087,288.31835 512.37956,286.67109 514.12311,287.11604 C 513.66481,289.29764 516.1646,290.47514 517.62938,292.00695 C 519.40406,294.08706 522.44921,291.25365 524.98317,292.13865 C 527.67127,292.28113 530.51413,292.57601 532.86255,290.9891 C 537.13276,289.25703 541.19892,286.82605 544.57195,283.67485 C 545.25235,283.25464 545.66775,281.95754 546.54463,282.18748 C 547.67488,282.59838 549.51959,282.44659 550.14878,283.11751 C 550.09197,284.00731 550.03516,284.89711 549.97836,285.78691 C 548.96211,285.79453 547.8444,285.50795 546.88962,285.69377 C 543.42477,288.93853 539.61927,291.8796 535.23505,293.77656 C 532.54758,295.46808 531.17787,298.52355 529.49743,301.10754 C 525.73697,307.40682 525.22182,315.07321 526.11266,322.20265 C 527.62538,331.97593 534.64118,340.23889 543.22361,344.79881 C 547.8191,347.22187 553.03059,348.31139 558.17033,348.75691 C 559.77231,349.01072 558.93205,348.36373 558.09235,347.71695 C 555.67545,346.22134 558.52694,345.52744 559.89609,346.50941 C 569.80482,350.22967 579.46518,354.64596 589.62854,357.66944 C 602.84637,361.71598 617.06013,363.79577 630.70706,360.70114 C 641.9968,358.27679 653.24531,352.86585 660.09655,343.25197 C 667.13751,333.67891 668.73314,320.977 666.18448,309.56111 C 662.71367,294.04413 652.38606,280.44547 639.08422,271.92962 C 632.03523,267.33588 623.77353,264.91432 615.48077,263.89233 C 607.74779,263.3313 599.7515,264.15496 592.72625,267.62975 C 583.82017,271.87686 575.91283,279.57747 573.64839,289.43522 C 572.79504,293.39579 573.0647,297.587 574.26034,301.44691 C 577.12559,297.09713 580.95182,293.31506 585.41398,290.61936 C 590.54035,287.70613 596.41666,286.20571 602.31302,286.27908 C 605.89032,286.20984 609.57374,286.0604 612.96183,287.41025 C 620.83584,289.36595 627.82234,294.28897 632.82061,300.61076 C 635.67123,305.08363 637.62984,310.23197 637.63663,315.59301 C 638.13488,323.29181 636.6439,331.7608 630.84241,337.29428 C 626.15654,341.82496 619.57499,343.85647 613.15555,343.92142 C 610.14662,344.00354 607.22821,344.70747 604.29773,345.28316 C 597.59518,345.99742 590.62325,345.11453 584.63982,341.87214 C 578.60494,339.09024 574.61179,333.29378 572.60404,327.12085 C 570.68546,321.50371 570.30869,315.40519 571.42276,309.58129 C 571.52461,306.79174 569.98793,304.26415 569.75168,301.49755 C 567.83009,289.91349 572.93422,277.89524 581.63785,270.251 C 583.16564,268.52116 586.17909,267.55412 586.28235,264.95039 C 585.18374,258.8925 582.22892,253.29941 578.31159,248.58737 C 576.14037,245.75593 573.60924,243.21887 571.42018,240.40816 C 570.31318,237.58541 570.65136,234.23552 568.68046,231.68269 C 566.24637,227.7189 561.3493,226.70244 557.37133,224.96876 C 553.40472,223.40777 549.51591,221.62647 545.77787,219.58527 C 540.47725,215.36353 536.42244,209.00211 536.6516,202.02807 C 536.74751,194.97347 541.36728,187.6898 546.69308,183.224 C 547.24322,183.70179 548.42289,184.23237 548.24535,184.85654 C 546.19172,187.29201 543.66754,190.11461 542.61832,193.18963 C 539.92961,198.69197 540.23928,205.5169 543.64117,210.64352 C 546.69563,215.59743 551.72125,218.85213 556.89694,221.2524 C 558.65482,221.97522 560.80636,223.51339 562.4027,223.56863 C 561.29714,217.93852 561.99818,212.15779 561.39225,206.48618 C 560.26159,202.11552 557.1007,198.03325 552.58012,196.87073 C 549.19696,195.85605 545.61723,195.531 542.12331,195.92118 C 538.33426,196.34432 538.23099,193.48109 545.03967,193.24302 C 549.08669,193.10151 553.34951,193.38439 556.78134,195.75181 C 562.2818,199.31144 565.53508,205.92634 565.25964,212.44621 C 565.15057,217.66986 565.29811,223.69242 569.40714,227.50599 C 572.56898,229.86778 574.7656,233.2818 575.90905,237.03519 C 576.12008,238.72443 578.14231,239.51113 577.60533,237.10459 C 577.99831,232.66171 578.48286,228.15788 579.82792,223.89039 C 581.54088,219.88198 584.92324,216.85211 586.63195,212.82319 C 590.05422,204.90474 590.91482,195.80356 588.84109,187.41592 C 586.54529,178.9863 579.14553,171.67161 570.79472,168.99486 C 571.14472,168.01825 570.23512,166.27775 573.30231,167.47313 C 580.38621,170.23394 586.77124,175.46549 589.44479,182.68668 C 593.26279,192.43217 593.69168,203.58392 590.14996,213.47321 C 588.76598,216.41286 586.95363,219.13709 584.9608,221.68645 C 582.66574,225.84941 581.20291,230.50394 581.18766,235.2884 C 581.07021,237.93987 581.03122,240.5941 580.95236,243.24691 C 584.41421,247.75861 588.02337,252.31902 589.65936,257.86691 C 590.61108,259.47079 590.35572,262.55787 591.92063,263.28652 C 596.13608,262.20136 600.20481,260.41686 604.60396,260.12412 C 613.54506,259.32107 622.80421,260.041 631.10131,263.69115 C 635.74737,265.6591 640.18831,268.31598 645.27747,268.99519 C 658.17496,271.41555 671.37909,272.83648 684.48713,271.47801 C 706.03996,269.37994 727.10075,263.82072 747.54819,256.84027 C 748.58541,256.41861 752.70845,255.20807 749.56926,256.7162 C 739.55807,261.15944 729.28678,265.01421 718.92715,268.56348 C 698.94659,274.94373 677.67323,277.36531 656.78476,275.28749 C 654.20603,275.09766 651.64436,274.74649 649.0823,274.4069 C 653.83985,279.31052 658.785,284.15399 662.15931,290.16382 C 665.21329,295.16374 667.5417,300.57791 669.15744,306.20613 C 670.36491,307.77657 671.94197,303.69325 673.21788,302.84367 C 676.11935,299.39962 680.03986,297.12338 683.74391,294.66326 C 693.81325,288.8078 705.10552,285.54101 716.19159,282.20557 C 734.08287,277.085 752.17646,272.57233 770.49032,269.23692 z M 634.93032,318.09691 C 635.1677,314.08627 634.38532,310.06737 632.55251,306.48144 C 630.30637,301.47191 626.11796,297.7143 621.53601,294.85861 C 615.64451,290.75807 608.27801,289.39526 601.21321,289.57616 C 591.9357,289.94231 583.07888,295.42 578.38907,303.38969 C 576.53257,306.84891 574.93835,310.64559 575.1786,314.65271 C 574.92804,319.7308 575.77178,324.89049 578.17836,329.41061 C 580.90781,335.59161 586.67111,340.20647 593.25553,341.65343 C 598.08643,342.63672 603.27512,342.67339 607.96685,341.02068 C 612.84651,339.37778 617.36013,335.01517 618.55408,329.95441 C 619.42353,330.2749 621.49119,330.30648 620.70283,332.02691 C 619.56026,334.52035 618.85145,336.91432 616.70933,339.14691 C 619.37903,339.78132 622.39273,338.71816 624.84691,337.54299 C 630.61371,334.47767 634.05653,328.10455 634.82551,321.77426 C 634.91619,320.55079 634.92188,319.32307 634.93032,318.09691 z M 622.01034,444.50691 C 625.38921,450.21271 628.47845,456.14181 630.76633,462.37332 C 631.05064,464.72616 628.8849,460.6104 628.49275,459.94267 C 624.89863,453.68581 621.23016,447.46639 617.46315,441.31403 C 609.88676,430.52631 601.44986,420.35796 592.649,410.55153 C 583.62157,400.27678 572.8298,391.80619 562.2966,383.15945 C 556.4688,378.29014 550.20254,373.99854 544.15698,369.4128 C 542.2605,368.09667 540.35575,366.59385 538.29702,365.6058 C 527.23106,366.21925 515.94764,367.41203 505.05209,364.76053 C 499.62055,363.50362 494.8703,360.4968 490.47134,357.1869 C 488.42568,358.86023 485.96817,359.86611 483.56258,360.87066 C 485.17288,362.87322 488.1446,364.03241 490.50661,365.31138 C 500.94066,370.3235 512.68195,371.758 524.14404,371.68324 C 530.40077,371.76584 537.03822,371.46355 542.69637,374.61762 C 545.21197,375.98871 548.00155,376.83154 550.20401,378.7286 C 558.69467,384.75487 565.72857,392.48739 573.16239,399.70826 C 581.40334,408.03669 589.81027,416.21738 597.68268,424.89897 C 604.85739,433.33757 611.60193,442.23398 616.94351,451.9608 C 618.00989,454.1111 619.47375,456.73397 619.10033,459.02691 C 614.62798,452.38856 609.8492,445.9497 605.0439,439.54577 C 598.8823,431.47157 592.56411,423.45164 585.06603,416.55901 C 575.53696,407.56912 566.19765,398.38182 556.7689,389.28795 C 551.26374,384.12025 545.29425,379.08479 538.12305,376.45038 C 531.70854,374.35138 524.88983,375.40535 518.27915,374.84414 C 507.16961,374.39449 495.75893,373.00702 485.79893,367.72799 C 483.05839,366.34453 480.67402,364.3984 478.37572,362.39535 C 475.86066,361.93246 473.18302,363.15273 470.57089,363.05127 C 466.78017,363.40845 462.96801,363.41014 459.18032,363.03691 C 459.34166,365.50921 459.04535,368.12121 457.36301,370.07473 C 453.57559,374.89098 447.64106,377.10871 442.2795,379.66799 C 438.83257,381.23948 435.17903,382.30105 431.56319,383.38097 C 425.68442,384.27418 419.8392,385.45348 413.88401,385.75304 C 396.03598,387.19069 378.04571,385.4177 360.59627,381.5579 C 352.18853,379.68708 343.42694,379.58884 334.94388,381.02006 C 325.71122,382.24587 316.35479,384.54564 307.01818,382.98787 C 300.84571,381.93563 295.36507,377.33652 293.3256,371.41715 C 292.45461,369.40263 293.22527,367.036 292.70439,365.09254 C 281.34074,368.42661 270.20611,372.69023 258.58533,375.11941 C 250.36411,376.68586 241.90635,376.29949 233.62116,375.50271 C 223.17391,374.20387 213.09535,370.87334 203.29918,367.12676 C 197.16814,364.6058 190.94838,362.11302 185.38033,358.4669 C 189.85147,359.35951 194.06335,361.23047 198.3999,362.60295 C 212.65628,367.49508 227.48922,371.17036 242.61011,371.67729 C 257.68832,371.96214 271.96511,366.51579 286.1979,362.28673 C 298.14555,358.68525 309.99326,354.74425 322.0098,351.37626 C 338.58157,347.03082 355.53664,343.68486 372.71423,343.31404 C 385.18924,342.98391 397.8211,343.48115 409.93848,346.71668 C 423.73985,350.11215 437.27361,354.62562 451.2557,357.26039 C 461.52277,358.8143 472.23871,359.47237 482.31943,356.47816 C 486.63967,355.71566 489.47094,351.87491 490.90776,348.00211 C 492.24242,344.09096 491.84218,339.81794 491.32311,335.79016 C 489.1462,325.05855 484.03362,315.10111 477.82141,306.16373 C 473.22828,299.87383 467.63929,294.36478 461.84326,289.18976 C 451.07648,280.36099 437.24617,274.59789 423.15295,275.51807 C 411.46362,276.38649 399.91397,278.50627 388.29777,280.00759 C 364.32293,283.29414 340.15056,286.12713 315.90834,285.1359 C 295.30147,284.4502 274.7672,281.537 254.81978,276.30184 C 240.89911,272.80165 227.18171,268.51804 213.73974,263.48453 C 205.75343,260.59349 197.61375,258.16411 189.41111,255.97239 C 188.05636,255.59383 186.72103,255.15142 185.38033,254.72691 C 195.75767,255.12576 206.00312,257.18753 215.89972,260.28296 C 221.81414,262.0486 227.58598,264.27981 233.53033,265.93691 C 232.52815,263.13463 230.90696,260.4892 230.66433,257.44519 C 229.82993,249.50782 231.80734,241.63999 233.14812,233.86579 C 235.96308,218.60669 238.58554,203.16031 238.02085,187.58266 C 237.85938,178.16431 235.50879,168.97414 233.76408,159.76691 C 230.08327,142.29027 225.73298,124.96406 221.74049,107.55742 C 217.16199,87.692182 212.22216,67.913628 207.43277,48.099076 C 206.32777,43.041067 204.89706,38.024576 204.28864,32.87628 C 204.73181,30.197927 206.66094,34.445955 207.15096,35.492938 C 211.19235,44.974394 213.78272,54.991662 216.61712,64.878922 C 222.20095,85.047416 226.74248,105.48811 232.4389,125.62661 C 235.62495,137.56295 238.52207,149.59623 240.31882,161.8293 C 242.11688,171.99055 243.78711,182.25085 243.49285,192.6074 C 243.46978,211.41074 239.40644,229.85934 236.67146,248.37763 C 236.0824,253.22367 235.27474,258.75336 238.46834,262.92304 C 240.82703,266.0945 244.94202,267.00647 248.40762,268.45822 C 262.45737,273.23201 277.19126,275.59653 291.8714,277.45051 C 307.40318,279.52154 323.1082,279.4486 338.74212,279.16496 C 349.53629,278.68062 360.26434,277.28181 371.00723,276.18215 C 384.94788,274.71098 398.81752,272.66799 412.72196,270.90768 C 419.76596,270.1647 426.96743,270.06293 433.94984,271.38388 C 436.90375,271.79328 439.5964,273.44682 442.60102,273.4644 C 445.46043,273.04184 445.11843,269.25056 444.18066,267.28584 C 442.64134,263.50106 440.06034,260.25079 438.48326,256.47462 C 436.02249,251.06708 433.49369,245.59896 432.19325,239.77627 C 431.48432,236.17518 433.79736,232.79745 436.75133,230.96691 C 442.3938,227.49264 449.03971,226.154 455.50075,225.0855 C 463.23281,223.95914 471.42711,223.73375 478.7854,226.7163 C 482.3306,228.26018 485.12197,231.58062 485.41024,235.52441 C 485.79328,239.27868 486.13176,243.49202 489.21424,246.12629 C 493.62618,250.34469 499.61306,252.47563 503.94388,256.7754 C 506.64936,259.72318 506.54106,264.3229 509.66149,267.0021 C 512.52082,269.71962 516.80017,268.40145 519.78873,266.6524 C 521.33402,266.02094 522.7603,263.80797 524.20591,265.60027 C 525.46382,266.11565 525.19154,266.66243 524.12043,267.2256 C 522.35901,268.34084 520.97386,269.8333 520.58516,271.90424 C 518.51908,274.93742 515.28067,277.08482 513.54384,280.33839 C 512.66216,282.64136 513.84936,284.8806 514.11193,287.12269 C 513.12772,287.35814 512.4404,288.98183 512.04264,288.47356 C 511.80387,288.16846 511.87903,285.98896 511.81094,285.35191 C 510.27712,282.6901 510.02067,278.93387 512.45307,276.7009 C 513.50533,275.13461 516.13013,273.65137 516.34759,272.14691 C 513.98152,272.52708 511.54002,273.06343 509.16795,272.32816 C 506.73055,271.88743 504.73788,270.10465 504.24561,267.6392 C 503.03454,263.71452 501.31915,259.83117 498.24576,256.99464 C 495.43519,253.94722 491.8448,251.85011 488.45782,249.54091 C 484.09194,246.37931 482.38564,241.03748 481.29883,235.99941 C 481.03646,233.47587 479.5387,231.13278 477.0982,230.22894 C 473.10682,228.90006 468.81828,228.83171 464.65631,228.48497 C 460.81745,228.45506 456.88681,228.27825 453.12033,229.08691 C 453.51672,231.64536 455.14871,233.94265 456.31374,236.25341 C 458.77322,240.77822 462.63483,244.33229 466.61032,247.5169 C 469.23944,246.13338 472.30182,245.05532 475.25477,246.06987 C 478.95098,246.98198 479.81337,251.93383 483.73785,252.40027 C 489.34829,252.59554 487.56245,254.84916 483.60472,254.47455 C 480.51777,254.18236 478.91511,251.49045 476.76444,249.77997 C 474.72127,247.93618 471.31637,247.12825 469.10177,249.12441 C 469.6989,251.01011 472.51375,252.96099 473.00933,255.46691 C 473.84221,259.17225 473.48083,263.33092 471.13539,266.44505 C 469.70324,267.74041 468.90248,270.37188 471.64431,270.48481 C 474.53761,271.12728 477.63969,272.50076 478.74973,275.47645 C 480.78564,278.02921 476.91818,281.30835 479.52898,283.21191 C 482.16613,285.30353 485.53118,286.79466 486.96033,290.06691 C 489.1201,294.26217 492.6059,298.4659 497.62894,298.95482 C 500.83458,299.33135 505.22904,298.14307 508.28104,297.1912 C 508.84181,298.45041 509.62441,298.11266 508.00944,299.42809 C 504.64491,300.6418 499.05467,301.33188 495.54276,300.95022 C 492.96936,300.00174 490.2044,298.91337 488.4107,296.73595 C 486.46812,294.67919 485.28669,292.07783 483.65533,289.81191 C 481.5269,287.92118 479.17226,286.26842 477.18066,284.20739 C 475.32408,282.33992 472.80266,281.32337 470.25827,280.84534 C 466.92415,280.97389 466.70747,285.35596 468.75058,287.23417 C 470.8619,290.1268 474.8946,291.52426 475.90129,295.18074 C 475.57294,298.01101 478.29934,299.3867 479.66231,301.48744 C 486.6003,310.87324 492.56997,321.30465 495.15877,332.78175 C 496.3497,339.10787 497.15677,346.03159 494.36001,352.06112 C 493.88351,353.0379 493.37357,353.99798 492.88134,354.9669 C 496.41935,358.51532 500.8251,361.29795 505.77419,362.33271 C 514.84455,364.14242 524.14716,363.14487 533.26944,362.35362 C 536.43582,362.27785 540.05618,361.93885 542.59849,364.22831 C 548.63091,368.51924 554.23158,373.38629 560.22799,377.7155 C 569.33059,385.34254 578.37409,393.05872 587.01843,401.20474 C 598.26751,412.31227 608.54696,424.42103 617.65441,437.34378 C 619.24478,439.64494 620.47733,442.16725 622.01034,444.50691 z M 473.00033,278.3769 C 474.3956,279.2154 477.26175,279.68969 476.28273,277.08281 C 475.65396,273.73222 471.92537,273.4976 469.21887,273.2343 C 466.90619,272.77531 465.73915,270.05372 466.79685,268.00048 C 468.16451,265.28559 470.84759,263.16788 470.95033,259.87972 C 471.30564,256.70018 468.98847,254.02612 467.20146,251.6532 C 464.22122,248.72558 460.66466,246.37728 458.18372,242.94998 C 455.71539,240.09636 454.13313,236.625 451.82958,233.66253 C 450.12113,234.31503 452.39908,237.782 452.30933,239.48691 C 452.01732,242.28442 448.93685,242.52405 447.51079,244.41485 C 445.45728,246.77678 445.6669,250.27454 447.2036,252.84938 C 448.83058,256.39212 451.93757,259.29798 452.63445,263.23191 C 453.41538,266.61516 447.06739,265.51187 448.55299,268.45582 C 450.71482,269.59835 454.11164,267.67835 455.60688,270.35355 C 457.72232,272.52349 456.09255,275.43383 455.19533,277.72816 C 454.63418,280.36504 458.16795,281.31573 459.73689,282.77973 C 461.40679,283.36847 464.63579,287.88001 465.14194,284.36919 C 465.23532,281.32973 467.18409,277.84292 470.56547,277.79595 C 471.41204,277.78196 472.2145,278.10188 473.00033,278.3769 z M 454.94033,363.70692 C 454.34678,361.70902 451.15888,362.68848 449.51045,361.94471 C 433.33542,358.91873 417.85024,353.05718 401.70986,349.88829 C 391.28399,347.97328 380.62127,348.20076 370.07315,348.58078 C 351.00772,349.48274 332.29571,353.74765 313.93219,358.71983 C 307.99175,360.64246 301.87346,362.06627 296.06033,364.34691 C 295.33657,367.09131 296.58347,370.04408 297.95015,372.41705 C 299.83322,376.15974 304.30883,377.04003 308.10151,377.31217 C 315.70836,377.53154 323.22174,375.97597 330.72593,374.94217 C 339.40805,373.56926 348.29961,372.61385 357.0285,374.17046 C 368.40165,376.23869 379.80177,378.37027 391.36392,379.04114 C 403.91159,379.81489 416.59918,379.33328 428.92196,376.71066 C 434.00631,376.07622 438.81188,374.22713 443.58576,372.45425 C 447.33563,370.80691 451.40302,369.1974 454.09865,365.9797 C 454.58243,365.32286 454.94385,364.53678 454.94033,363.70692 z M 454.08032,273.45692 C 455.43779,270.43138 450.44911,271.0981 448.90581,272.02894 C 448.10073,273.12736 447.25047,274.29647 446.28033,275.31691 C 448.0999,276.18379 449.91957,277.05046 451.73934,277.91691 C 452.481,276.4105 453.19985,274.88912 454.08032,273.45692 z M 449.17034,263.89692 C 449.38142,261.28068 447.48074,259.07054 446.2694,256.89281 C 444.00787,253.33285 442.36046,248.54254 444.59783,244.59441 C 445.79294,242.43397 448.25414,241.42896 449.62883,239.47098 C 450.24083,236.8401 448.08973,234.58375 447.54319,232.11549 C 446.30308,228.97888 442.49699,232.64753 440.40598,233.207 C 437.76346,234.48454 435.18786,237.26285 436.07334,240.41435 C 437.40505,248.55612 441.91733,255.6385 446.06497,262.59924 C 446.68786,263.66606 447.97586,265.45567 449.17034,263.89692 z M 500.45034,292.19691 C 500.56045,294.2579 499.198,294.03043 497.70848,293.00546 C 494.01453,291.42868 492.66912,287.43077 491.32531,283.99535 C 490.10849,280.69474 487.62497,278.13159 484.88479,276.02815 C 481.92175,273.84817 482.13025,269.833 481.80033,266.55691 C 481.66907,263.98933 481.33316,260.51693 484.17705,259.24246 C 485.66075,258.35948 490.00226,257.15203 487.32038,255.11011 C 485.93267,254.39658 482.88289,255.14354 483.67551,252.92852 C 484.5798,251.71155 488.39966,253.0816 489.69288,254.01416 C 492.35836,255.89643 490.60564,259.68411 487.93321,260.45795 C 486.68752,261.06886 485.42464,261.64396 484.17034,262.23692 C 484.52243,265.61786 484.63672,269.11073 485.86017,272.30783 C 487.78987,275.10013 491.79096,276.08572 492.75914,279.63126 C 494.11713,283.72024 494.87402,288.50499 498.55168,291.26363 C 499.12378,291.67777 499.73397,292.09234 500.45034,292.19691 z" />
    <path
       style="fill:#4e9a06"
       d="M 444.06283,291.88316 C 435.11305,292.32156 432.47624,303.20816 434.50848,310.49455 C 437.97612,324.3635 446.76434,337.74226 459.46908,344.75816 C 464.57396,347.09722 472.52268,350.05801 476.96908,345.19566 C 480.41137,332.31572 472.84816,319.79969 467.09408,308.82066 C 462.09655,300.78597 454.40003,291.63851 444.06283,291.88316 z"
       id="path56" />
    <path
       sodipodi:nodetypes="cccccccccccsccssccccssccscccscsccccsccccccccccccccsscscsccccsscscscccsssccscscccccssscccccscccccccccccccccccssscscccssccccccsssscscccscscscccccsccsscccccccccscccccsscccscccccccccccccccccsccscccsccccsccccccccccccccscccccccsccscccccccsssccccsscscc"
       d="M 481.83033,339.16691 C 481.84033,343.75691 481.78033,344.18691 480.80033,346.17691 C 477.43033,353.03691 469.46033,355.32691 457.01033,353.02691 C 451.56033,352.02691 446.61133,350.62691 436.50033,347.24691 C 423.30033,342.82691 414.72033,340.97691 399.63033,339.29691 C 391.52033,338.39691 374.56033,337.90691 364.65133,338.29691 C 343.42133,339.13691 322.79133,342.92691 300.84033,350.02691 C 281.48033,356.28691 264.35033,360.38691 251.90033,361.72691 C 245.52033,362.41691 233.34033,362.52691 228.70033,361.93691 C 220.76033,360.93691 215.95033,359.74691 204.00033,355.82691 C 193.24033,352.28691 190.39033,351.05691 175.29033,343.37691 C 168.22033,339.77691 161.60033,336.55691 160.58033,336.21691 C 158.24033,335.43691 153.60033,335.40691 151.06033,336.15691 C 146.97033,337.37691 143.66033,340.73691 142.45033,344.89691 C 140.77033,350.65691 142.67033,356.47691 149.73033,367.24691 C 153.29033,372.67691 154.81033,376.10691 155.50033,380.26691 C 155.73033,381.66691 156.06033,387.54691 156.23033,393.33691 C 156.57033,405.00691 156.76033,406.18691 159.21033,412.01691 C 162.23033,419.21691 162.61033,424.06691 160.96033,434.34691 C 157.39033,456.64691 158.74033,469.23691 164.90033,471.07591 C 168.03033,472.01591 171.04033,470.18591 175.27033,464.77591 C 176.64033,463.02591 177.82033,461.64591 177.89033,461.72591 C 177.97033,461.79591 178.52033,464.05591 179.13033,466.72591 C 183.04033,484.08591 185.65033,504.24591 186.93033,527.08591 C 187.57033,538.41591 187.05033,557.60591 186.00033,561.52491 C 185.63033,562.90491 184.61033,563.18491 184.32033,561.99491 C 183.94033,560.37591 183.68033,557.75591 183.12033,549.65491 C 182.38033,539.11491 182.35033,538.77491 180.82033,524.45591 C 179.31033,510.23491 175.89033,483.12591 175.55033,482.73491 C 175.48033,482.64491 174.77033,483.26491 173.96033,484.09491 C 167.55033,490.69491 157.62033,494.38491 146.23033,494.38491 C 136.57033,494.38491 129.14033,491.88491 121.80033,486.15491 C 108.53033,475.81491 99.330329,459.01491 93.220329,433.99491 C 90.800329,424.10491 87.910329,408.68491 86.650329,398.98491 C 86.440329,397.32491 85.670329,391.40491 84.940329,385.81491 C 84.220329,380.22491 83.260329,374.47491 82.820329,373.02491 C 82.380329,371.57491 79.320329,363.95491 76.010329,356.09491 C 64.430329,328.54491 60.750329,317.70491 58.460329,304.36491 C 57.010329,295.97491 56.720329,292.27491 56.740329,282.54491 C 56.760329,270.66491 57.420329,264.24491 60.180329,248.99491 C 60.400329,247.79491 59.320329,231.01491 58.610329,224.47491 C 58.340329,221.95491 57.260329,213.97491 56.210329,206.73491 C 50.510329,167.20491 49.750329,159.94491 49.950329,146.16491 C 50.160329,131.04491 52.020329,120.47491 56.470329,109.10491 C 60.810329,98.044907 69.540329,86.594907 75.340329,84.344907 C 75.860329,84.144907 77.450329,83.284907 78.890329,82.444907 C 87.530329,77.364907 96.430329,75.104907 107.69033,75.114907 C 117.38033,75.134907 124.31033,76.604907 131.96033,80.284907 C 141.70033,84.984907 148.57033,92.264907 154.51033,104.20491 C 155.79033,106.79491 157.40033,110.30491 158.08033,112.00491 C 159.44033,115.44491 160.36033,116.63491 160.36033,114.98491 C 160.36033,112.73491 153.14033,66.634907 152.66033,65.864907 C 152.42033,65.484907 150.26033,51.204907 149.45033,44.694907 C 148.57033,37.544907 148.47033,34.114907 149.17033,34.314907 C 149.91033,34.534907 151.94033,38.884907 153.61033,43.834907 C 156.58033,52.604907 163.00033,80.154907 163.00033,84.144907 C 163.00033,84.824907 163.42033,87.794907 163.93033,90.754907 C 168.14033,115.01491 170.17033,136.98491 168.95033,145.03491 C 168.70033,146.69491 168.52033,148.83491 168.54033,149.79491 C 168.62033,153.00491 170.41033,156.01491 173.38033,157.90491 C 174.08033,158.35491 174.08033,158.37491 173.36033,158.94491 C 172.96033,159.26491 171.90033,159.52491 170.97033,159.52491 C 166.97033,159.52491 164.75033,157.03491 161.73033,149.17491 C 159.77033,144.05491 158.61033,140.23491 157.53033,135.33491 C 155.83033,127.62491 153.48033,122.88491 149.50033,119.23491 C 144.84033,114.94491 139.59033,114.14491 133.69033,116.83491 C 125.51033,120.56491 123.78033,129.32491 127.64033,147.48491 C 128.23033,150.27491 129.13033,154.33491 129.64033,156.51491 C 134.83033,178.86491 136.26033,186.53491 139.31033,208.61491 C 141.58033,225.04491 142.72033,232.35491 143.29033,234.22491 C 144.86033,239.37491 148.06033,242.78491 157.73033,249.60491 C 160.31033,251.42491 162.60033,253.12491 162.81033,253.36491 C 163.01033,253.61491 164.37033,254.81491 165.82033,256.03491 C 167.27033,257.24491 170.35033,259.97491 172.67033,262.09491 C 175.40033,264.56491 177.74033,266.34491 179.26033,267.08491 C 182.41033,268.62491 187.60033,269.93491 194.22033,270.86491 C 204.25033,272.28491 206.08033,272.78491 219.62033,277.84491 C 231.18033,282.16491 240.56033,285.04491 249.60033,287.03491 C 271.27033,291.82491 298.71033,294.62491 324.01933,294.61491 C 343.95933,294.61491 355.78033,293.45491 381.75933,288.93491 C 399.30933,285.88491 406.78033,284.96491 418.25933,284.44491 C 436.83933,283.59491 449.15933,286.81491 459.62933,295.26491 C 462.78933,297.82491 466.32933,301.31491 467.02933,302.56491 C 467.30833,303.07491 468.61933,305.08491 469.92833,307.02491 C 474.12833,313.25491 478.65833,323.08491 480.78833,330.62491 C 481.67033,333.74691 481.82033,334.99691 481.83033,339.16691 z M 473.46033,345.35691 C 475.53033,344.77691 475.82033,343.97691 475.81033,338.78691 C 475.79033,332.14691 474.26033,327.32691 468.38033,315.39691 C 464.40133,307.32691 460.44133,302.05691 455.45033,298.19691 C 452.41033,295.83691 450.91033,295.02691 448.36033,294.34691 C 438.62033,291.74691 433.58933,299.87691 437.04933,312.61691 C 439.53933,321.79691 447.54933,333.84691 454.96933,339.55691 C 461.19033,344.35691 468.65033,346.69691 473.46033,345.35691 z M 462.44033,348.96691 L 465.29033,349.19691 L 462.46033,347.92691 C 453.31033,343.80691 445.94033,336.36691 439.76033,324.98691 C 437.54033,320.89691 434.90133,314.39691 433.84033,310.38691 C 432.65133,305.90691 432.62033,299.66691 433.77033,297.15691 C 434.76033,294.97691 436.93033,292.52691 439.06033,291.16691 L 440.68033,290.13691 L 438.12033,289.55691 C 429.65033,287.63691 422.87033,287.79691 402.08033,290.43691 C 346.22033,297.53691 338.85033,298.22691 315.17033,298.56691 C 291.78033,298.91691 282.02033,298.32691 261.38033,295.31691 C 243.36033,292.69691 231.30033,289.67691 216.04033,283.96691 C 204.77033,279.74691 202.66033,279.14691 194.97033,278.02691 C 191.97033,277.59691 187.40033,276.74691 184.82033,276.15691 C 182.23033,275.56691 178.29033,274.88691 176.07033,274.65691 C 170.83033,274.11691 161.00033,274.21691 157.16033,274.85691 C 147.73033,276.42691 141.77033,277.26691 139.11033,277.40691 C 135.59033,277.59691 131.78033,277.13691 130.34033,276.35691 C 129.37033,275.82691 129.46033,275.80691 132.20033,275.78691 C 136.56033,275.76691 143.44033,274.44691 148.89033,272.58691 C 154.56033,270.64691 159.16033,269.50691 162.62033,269.19691 C 167.74033,268.72691 168.21033,268.61691 168.46033,267.84691 C 168.60033,267.40691 168.38033,266.60691 167.92033,265.85691 C 167.10033,264.52691 162.69033,260.37691 160.17033,258.55691 C 159.35033,257.95691 157.31033,256.31691 155.66033,254.90691 C 151.08033,251.01691 150.55033,250.91691 148.86033,253.65691 C 147.49033,255.86691 145.39033,258.01691 143.81033,258.83691 C 140.59033,260.49691 138.64033,260.79691 129.14033,261.07691 C 119.18033,261.37691 117.86033,261.62691 114.42033,263.90691 C 112.75033,265.01691 112.58033,265.05691 112.58033,264.32691 C 112.58033,264.03691 113.34033,263.12691 114.27033,262.30691 C 116.73033,260.14691 119.72033,259.32691 127.63033,258.64691 C 138.44033,257.71691 141.89033,256.18691 143.39033,251.64691 C 144.00033,249.79691 143.41033,248.18691 140.45033,243.61691 C 137.69033,239.36691 136.87033,237.60691 136.12033,234.35691 C 135.45033,231.44691 133.51033,217.25691 132.88033,210.59691 L 132.42033,205.79691 L 129.87033,205.79691 C 123.44033,205.79691 116.67033,208.08691 110.54033,212.34691 C 106.77033,214.96691 100.14033,221.37691 96.490329,225.94691 C 94.820329,228.02691 93.190329,229.95691 92.850329,230.23691 C 91.080329,231.70691 92.120329,228.48691 94.930329,223.79691 C 95.960329,222.08691 96.930329,220.59691 97.080329,220.48691 C 97.230329,220.37691 98.300329,219.09691 99.460329,217.64691 C 107.74033,207.30691 118.05033,200.82691 128.59033,199.35691 L 131.83033,198.90691 L 131.59033,196.23691 C 131.46033,194.76691 131.10033,191.62691 130.81033,189.25691 C 130.51033,186.88691 130.26033,184.70691 130.26033,184.41691 C 130.26033,183.67691 126.73033,184.09691 122.42033,185.33691 C 115.55033,187.31691 109.18033,191.08691 103.72033,196.38691 C 102.37033,197.68691 101.18033,198.65691 101.05033,198.53691 C 100.61033,198.09691 104.27033,193.51691 107.74033,190.16691 C 111.53033,186.50691 115.56033,183.58691 119.63033,181.56691 C 122.46033,180.16691 123.81033,179.70691 126.94033,179.08691 L 129.07033,178.66691 L 127.81033,173.89691 C 126.24033,167.96691 121.65033,153.83691 119.66033,148.79691 C 117.59033,143.57691 113.29033,135.10691 110.83033,131.39691 L 108.77033,128.29691 L 106.07033,128.30691 C 100.16033,128.31691 95.610329,130.14691 91.690329,134.09691 C 89.070329,136.74691 87.630329,139.01691 87.000329,141.48691 C 86.820329,142.19691 86.410329,143.71691 86.100329,144.84691 C 85.150329,148.24691 84.750329,153.23691 84.740329,161.59691 C 84.730329,177.89691 82.390329,195.20691 77.760329,213.21691 C 72.970583,228.55703 67.787967,243.65032 63.870329,259.32691 C 57.540329,290.05691 63.710329,318.91691 84.230329,354.50691 C 85.750329,357.15691 87.000329,359.44691 87.000329,359.59691 C 87.000329,359.75691 87.580329,360.97691 88.290329,362.31691 C 89.120329,363.88691 89.930329,366.34691 90.580329,369.26691 C 92.460329,377.73691 96.370329,388.46691 100.23033,395.75691 C 105.24033,405.20791 112.22033,413.63691 119.62033,419.16791 C 120.90033,420.12791 121.87033,420.98691 121.77033,421.08791 C 121.40033,421.45791 117.97033,420.49691 115.40033,419.31691 C 108.06033,415.92691 100.47033,408.03691 93.910329,396.97691 C 90.610329,391.43691 90.710329,391.55691 90.970329,393.52691 C 91.370329,396.70691 94.570329,414.76691 95.700329,420.23691 C 101.17033,446.79791 108.46033,463.51691 119.34033,474.44691 C 123.75033,478.86691 126.82033,481.11691 130.57033,482.66791 C 136.78033,485.21791 144.95033,486.24691 151.52033,485.30791 C 159.37033,484.18791 165.34033,481.16791 168.92033,476.49691 C 170.87033,473.95791 170.88033,473.55791 168.95033,474.48691 C 168.01033,474.94691 166.25033,475.35691 164.79033,475.46691 C 162.60033,475.61591 162.00033,475.51691 160.21033,474.63691 C 156.36033,472.75691 154.77033,469.88691 153.95033,463.32591 C 153.35033,458.58691 153.66033,448.24591 154.73033,436.98591 C 155.63033,427.54691 155.77033,420.37691 155.13033,416.92591 C 154.88033,415.62591 154.15033,412.91591 153.51033,410.90491 C 152.37033,407.36491 152.33033,407.04591 152.25033,399.54491 C 152.21033,395.30491 151.98033,390.68491 151.74033,389.28491 C 151.36033,386.98491 149.67033,381.05491 149.16033,380.20491 C 149.09033,380.08491 148.88033,380.32491 148.65033,380.78491 L 145.98033,380.28491 C 146.70033,379.19491 147.17033,378.02491 147.19033,377.02491 C 147.19033,376.53491 145.85033,374.08491 144.20033,371.57491 C 140.57033,366.01491 138.03033,360.76491 136.98033,356.61491 C 136.34033,354.09491 136.23033,352.72491 136.36033,349.34491 C 136.56033,344.57491 137.50033,341.78491 140.41033,337.46491 C 142.62033,334.18491 148.47033,328.39491 152.84033,325.16491 C 158.11033,321.27491 161.18033,318.28491 163.49033,314.76491 C 166.30033,310.49491 167.42033,308.20491 168.09033,305.29491 C 168.84033,302.07491 168.84033,295.11491 168.09033,291.54491 C 167.77033,290.00491 167.51033,288.60491 167.51033,288.42491 C 167.51033,287.72491 168.74033,289.16491 169.61033,290.88491 C 171.23033,294.07491 171.74033,297.22491 171.55033,302.67491 C 171.21033,311.89491 168.93033,316.35491 159.69033,325.80491 L 156.21033,329.38491 L 158.72033,329.67491 C 163.14033,330.17491 168.72033,332.35491 179.59033,337.83491 C 192.87033,344.52491 195.70033,345.71491 207.58033,349.61491 C 223.85033,354.95491 228.72033,355.92491 240.50033,356.10491 C 249.44033,356.24491 255.10033,355.78491 263.82033,354.22491 C 274.37033,352.32491 285.43033,349.47491 298.62033,345.23491 C 326.01033,336.43491 347.65033,332.96491 375.05933,332.95491 C 398.61033,332.95491 417.16033,335.68491 435.19033,341.79491 C 447.58033,346.00691 457.30033,348.55691 462.44033,348.96691 z M 148.97033,111.20691 C 149.86033,111.72691 150.58033,111.96691 150.58033,111.74691 C 150.58033,111.03691 147.91033,106.00691 145.90033,102.90691 C 138.29033,91.206907 127.33033,84.116907 112.96033,81.576907 C 111.28033,81.286907 107.47033,81.096907 103.55033,81.106907 C 94.350329,81.146907 90.220329,82.056907 82.300329,85.786907 C 81.060329,86.366907 79.020329,87.296907 77.780329,87.836907 C 71.210329,90.736907 62.790329,105.29691 58.980329,120.36691 C 56.420329,130.51691 55.220329,141.71691 55.520329,152.74691 C 55.720329,160.03691 56.380329,167.30691 57.280329,171.93691 C 57.500329,173.07691 58.260329,177.47691 58.970329,181.71691 C 60.600329,191.50691 61.870329,200.47691 65.190329,225.92691 C 65.600329,229.02691 65.940329,231.65691 65.960329,231.75691 C 66.010329,232.03691 67.650329,228.42691 69.980329,222.91691 C 71.120329,220.22691 72.860329,215.67691 73.840329,212.79691 C 76.600227,207.0257 77.893748,200.94028 79.100329,194.59691 C 80.750329,185.06691 81.250329,177.11691 81.530329,156.13691 C 81.650329,147.24691 81.800329,144.83691 82.420329,142.02691 C 83.970329,134.89691 86.630329,129.06691 89.710329,126.03691 C 91.780329,123.99691 95.360329,122.01691 97.630329,121.65691 C 99.970329,121.27691 98.680329,120.65691 95.190329,120.47691 C 92.720329,120.34691 91.600329,120.47691 89.770329,121.09691 C 85.550329,122.52691 80.223376,127.57089 77.020329,131.06691 C 73.563534,134.83988 72.126606,140.79336 71.580329,146.56691 C 71.380329,149.06691 71.120329,151.39691 70.980329,151.74691 C 70.330329,153.45691 69.540329,151.58691 68.900329,146.79691 C 67.42869,136.25256 70.492868,126.35361 77.860329,120.57691 C 82.240329,117.00691 87.370329,115.03691 92.220329,115.05691 C 102.07033,115.09691 110.02033,121.60691 119.17033,137.12691 C 119.43033,137.56691 119.55033,136.14691 119.57033,132.36691 C 119.59033,127.99691 119.76033,126.40691 120.44033,123.96691 C 122.11033,117.97691 124.97033,114.50691 130.49033,111.79691 C 137.04033,108.57691 144.10033,108.35691 148.97033,111.20691 z"
       id="path52" />
    <path
       d="M 145.98033,380.28691 L 148.65033,380.78691 C 148.53033,381.01691 148.40033,381.29691 148.27033,381.61691 C 147.15033,384.47691 145.76033,386.35691 143.89033,387.54691 C 141.29033,389.18691 139.85033,389.49691 135.48033,389.33691 C 130.72033,389.15691 128.42033,388.19691 125.21033,385.03691 C 122.39033,382.26691 119.67033,376.67691 118.40033,371.05691 C 117.46033,366.87691 116.34033,356.86691 116.34033,352.62691 C 116.34033,348.64691 115.75033,347.05691 113.37033,344.65691 C 112.21033,343.48691 109.16033,341.09691 106.58033,339.34691 C 100.91033,335.48691 95.840329,330.59691 92.900329,326.14691 C 90.680329,322.77691 87.610329,316.66691 87.170329,314.71691 C 87.070329,314.24691 86.710329,312.89691 86.290329,311.36691 L 88.950329,310.63691 C 89.280329,311.74691 89.640329,312.86691 90.030329,313.95691 C 93.480329,323.72691 97.500329,328.45691 107.48033,334.46691 C 110.74033,336.42691 114.42033,338.68691 115.64033,339.48691 C 121.10033,343.03691 121.97033,345.12691 122.53033,356.09691 C 123.16033,368.20691 124.37033,373.82691 127.27033,378.10691 C 129.13033,380.83691 130.02033,381.62691 132.67033,382.83691 C 134.55033,383.69691 135.37033,383.84691 138.12033,383.82691 C 139.91033,383.81691 141.80033,383.63691 142.32033,383.43691 C 143.68033,382.91691 145.04033,381.67691 145.98033,380.28691 z"
       id="path60" />
    <path
       d="M 145.60033,411.95691 C 147.10033,412.20691 148.32033,412.48591 148.32033,412.57591 C 148.32033,413.40591 141.72033,413.94591 137.99033,413.41691 C 130.59033,412.36591 123.20033,408.13691 116.89033,401.32591 C 111.98033,396.02591 107.08033,388.63691 108.48033,388.63691 C 108.70033,388.63691 111.28033,391.04691 114.21033,393.99691 C 121.12033,400.94691 125.19033,403.98691 132.49033,407.63691 C 135.95033,409.36691 141.99033,411.35691 145.60033,411.95691 z"
       id="path62" />
    <path
       d="M 88.950329,310.63691 L 86.290329,311.36691 C 86.150329,310.85691 86.000329,310.32691 85.850329,309.81691 C 84.560329,305.23691 83.170329,298.97691 82.050329,292.70691 C 81.360329,288.80691 81.210329,286.54691 81.190329,279.53691 C 81.170329,270.36691 81.650329,266.42691 83.500329,260.72691 C 84.750329,256.88691 87.270329,251.77691 88.150329,251.30691 C 89.060329,250.82691 89.060329,250.82691 88.080329,253.68691 C 87.650329,254.96691 87.160329,256.95691 87.000329,258.09691 C 86.840329,259.22691 86.400329,262.02691 86.030329,264.29691 C 85.100329,269.97691 85.110329,285.35691 86.040329,292.89691 C 86.400329,295.78691 86.830329,299.51691 87.000329,301.16691 C 87.280329,303.99691 87.970329,307.30691 88.950329,310.63691 z"
       id="path64" />
    <path
       d="M 62.470329,578.72691 C 63.860329,578.79691 62.620329,578.85691 59.720329,578.85691 C 56.830329,578.85691 55.690329,578.79691 57.200329,578.72691 C 58.710329,578.65691 61.080329,578.65691 62.470329,578.72691 z"
       id="path66" />
    <path
       sodipodi:nodetypes="csssssscc"
       style="fill:url(#linearGradient4018);fill-opacity:1;stroke:none;stroke-width:2;stroke-linecap:butt;stroke-linejoin:round;stroke-miterlimit:4;stroke-dasharray:none;stroke-dashoffset:0;stroke-opacity:1"
       d="M 230.96462,43.584049 C 243.82176,102.15548 273.28079,221.98216 338.28079,228.41074 C 403.28079,234.83931 422.44004,224.21651 423.10748,233.22691 C 423.82176,242.86977 436.6789,260.01262 433.10747,263.58405 C 429.53604,267.15548 379.53604,266.4412 337.39319,271.4412 C 295.25033,276.4412 245.25033,262.86977 247.39319,247.86977 C 249.53604,232.86977 260.25033,190.72691 253.82176,172.86977 C 247.39319,155.01262 217.39319,40.726907 217.39319,40.726907 L 230.96462,43.584049 z"
       id="path2483" />
    <path
       style="fill:#fce94f;fill-opacity:1;stroke:none;stroke-width:2;stroke-linecap:butt;stroke-linejoin:round;stroke-miterlimit:4;stroke-dasharray:none;stroke-dashoffset:0;stroke-opacity:1"
       d="M 300.07176,365.01262 C 349.53604,353.22691 375.33961,343.22691 446.05391,364.65548 C 441.23248,371.97691 418.46462,379.83405 382.21462,375.54834 C 345.96462,371.26262 327.75033,368.40548 315.25033,372.86977 C 302.75033,377.33405 299.89319,365.1912 300.07176,365.01262 z"
       id="path2511"
       sodipodi:nodetypes="ccssc" />
    <path
       style="fill:#000000;fill-opacity:1;stroke:none;stroke-width:2;stroke-linecap:butt;stroke-linejoin:round;stroke-miterlimit:4;stroke-dasharray:none;stroke-dashoffset:0;stroke-opacity:1"
       d="M 581.23906,227.5161 C 597.14896,233.07194 697.38535,217.70774 707.00305,215.64681 C 721.14519,212.61636 719.88249,215.14173 708.0132,218.17219 C 696.95879,220.99459 607.75556,235.84986 580.48144,231.30418"
       id="path2513"
       sodipodi:nodetypes="cssc" />
    <path
       sodipodi:nodetypes="cssc"
       id="path2515"
       d="M 584.89938,254.83096 C 598.3689,244.70355 698.53449,228.88434 708.32367,227.92548 C 722.71797,226.51554 720.74763,224.49324 708.51872,225.21256 C 697.12938,225.88251 607.62994,238.83414 583.02656,251.45218"
       style="fill:#000000;fill-opacity:1;stroke:none;stroke-width:2;stroke-linecap:butt;stroke-linejoin:round;stroke-miterlimit:4;stroke-dasharray:none;stroke-dashoffset:0;stroke-opacity:1" />
  </g>
  <g
     inkscape:groupmode="layer"
     id="layer4"
     inkscape:label="Arrows"
     style="display:inline">
    <path
       transform="translate(216.26565,34.837469)"
       d="M 458.79866,251.93932 A 1.9571706,1.9571706 0 1 1 454.88432,251.93932 A 1.9571706,1.9571706 0 1 1 458.79866,251.93932 z"
       sodipodi:ry="1.9571706"
       sodipodi:rx="1.9571706"
       sodipodi:cy="251.93932"
       sodipodi:cx="456.84149"
       id="path3717"
       style="fill:#000000;fill-opacity:1;stroke:#000000;stroke-width:2;stroke-linecap:butt;stroke-linejoin:round;stroke-miterlimit:4;stroke-dasharray:none;stroke-dashoffset:0;stroke-opacity:1"
       sodipodi:type="arc" />
    <path
       id="path3724"
       d="M 672.85714,286.42857 L 700.61406,319.26836"
       style="fill:#000000;fill-opacity:1;stroke:#000000;stroke-width:2;stroke-linecap:butt;stroke-linejoin:round;stroke-miterlimit:4;stroke-dasharray:none;stroke-dashoffset:0;stroke-opacity:1"
       sodipodi:nodetypes="cc" />
    <path
       transform="translate(168.90851,100.56068)"
       d="M 458.79866,251.93932 A 1.9571706,1.9571706 0 1 1 454.88432,251.93932 A 1.9571706,1.9571706 0 1 1 458.79866,251.93932 z"
       sodipodi:ry="1.9571706"
       sodipodi:rx="1.9571706"
       sodipodi:cy="251.93932"
       sodipodi:cx="456.84149"
       id="path3764"
       style="fill:#000000;fill-opacity:1;stroke:#000000;stroke-width:2;stroke-linecap:butt;stroke-linejoin:round;stroke-miterlimit:4;stroke-dasharray:none;stroke-dashoffset:0;stroke-opacity:1"
       sodipodi:type="arc" />
    <path
       id="path3766"
       d="M 625.34585,352.5776 L 671.60548,379.2856"
       style="fill:#000000;fill-opacity:1;stroke:#000000;stroke-width:2;stroke-linecap:butt;stroke-linejoin:round;stroke-miterlimit:4;stroke-dasharray:none;stroke-dashoffset:0;stroke-opacity:1" />
    <path
       sodipodi:nodetypes="cc"
       id="path3675"
       d="M 586.39356,200.48467 L 685.40047,129.62313"
       style="fill:#cc0000;fill-opacity:1;stroke:#000000;stroke-width:2;stroke-linecap:butt;stroke-linejoin:round;stroke-miterlimit:4;stroke-dasharray:none;stroke-dashoffset:0;stroke-opacity:1" />
    <path
       transform="translate(127.80137,-50.153602)"
       d="M 458.79866,251.93932 A 1.9571706,1.9571706 0 1 1 454.88432,251.93932 A 1.9571706,1.9571706 0 1 1 458.79866,251.93932 z"
       sodipodi:ry="1.9571706"
       sodipodi:rx="1.9571706"
       sodipodi:cy="251.93932"
       sodipodi:cx="456.84149"
       id="path3701"
       style="fill:#000000;fill-opacity:1;stroke:#000000;stroke-width:2;stroke-linecap:butt;stroke-linejoin:round;stroke-miterlimit:4;stroke-dasharray:none;stroke-dashoffset:0;stroke-opacity:1"
       sodipodi:type="arc" />
    <path
       transform="translate(142.68405,-13.573928)"
       d="M 458.79866,251.93932 A 1.9571706,1.9571706 0 1 1 454.88432,251.93932 A 1.9571706,1.9571706 0 1 1 458.79866,251.93932 z"
       sodipodi:ry="1.9571706"
       sodipodi:rx="1.9571706"
       sodipodi:cy="251.93932"
       sodipodi:cx="456.84149"
       id="path3707"
       style="fill:#000000;fill-opacity:1;stroke:#000000;stroke-width:2;stroke-linecap:butt;stroke-linejoin:round;stroke-miterlimit:4;stroke-dasharray:none;stroke-dashoffset:0;stroke-opacity:1"
       sodipodi:type="arc" />
    <path
       id="path3709"
       d="M 599.273,238.36539 L 655.589,200.73721"
       style="fill:#000000;fill-opacity:1;stroke:#000000;stroke-width:2;stroke-linecap:butt;stroke-linejoin:round;stroke-miterlimit:4;stroke-dasharray:none;stroke-dashoffset:0;stroke-opacity:1" />
    <path
       transform="translate(79.811882,21.036488)"
       d="M 458.79866,251.93932 A 1.9571706,1.9571706 0 1 1 454.88432,251.93932 A 1.9571706,1.9571706 0 1 1 458.79866,251.93932 z"
       sodipodi:ry="1.9571706"
       sodipodi:rx="1.9571706"
       sodipodi:cy="251.93932"
       sodipodi:cx="456.84149"
       id="path3681"
       style="fill:#000000;fill-opacity:1;stroke:#000000;stroke-width:2;stroke-linecap:butt;stroke-linejoin:round;stroke-miterlimit:4;stroke-dasharray:none;stroke-dashoffset:0;stroke-opacity:1"
       sodipodi:type="arc" />
    <path
       sodipodi:nodetypes="cc"
       id="path3752"
       d="M 487.52029,109.89488 L 536.28122,271.91443"
       style="fill:#000000;fill-opacity:1;stroke:#000000;stroke-width:2;stroke-linecap:butt;stroke-linejoin:round;stroke-miterlimit:4;stroke-dasharray:none;stroke-dashoffset:0;stroke-opacity:1" />
    <path
       sodipodi:nodetypes="cc"
       id="path3671"
       d="M 456.58895,252.00245 L 369.56684,186.55777"
       style="fill:#cc0000;fill-opacity:1;stroke:#000000;stroke-width:2;stroke-linecap:butt;stroke-linejoin:round;stroke-miterlimit:4;stroke-dasharray:none;stroke-dashoffset:0;stroke-opacity:1" />
    <path
       id="path3673"
       d="M 479.31738,256.54813 L 456.56596,171.63867"
       style="fill:#cc0000;fill-opacity:1;stroke:#000000;stroke-width:2;stroke-linecap:butt;stroke-linejoin:round;stroke-miterlimit:4;stroke-dasharray:none;stroke-dashoffset:0;stroke-opacity:1" />
    <path
       transform="translate(-0.126269,-6.31345e-2)"
       d="M 458.79866,251.93932 A 1.9571706,1.9571706 0 1 1 454.88432,251.93932 A 1.9571706,1.9571706 0 1 1 458.79866,251.93932 z"
       sodipodi:ry="1.9571706"
       sodipodi:rx="1.9571706"
       sodipodi:cy="251.93932"
       sodipodi:cx="456.84149"
       id="path3677"
       style="fill:#000000;fill-opacity:1;stroke:#000000;stroke-width:2;stroke-linecap:butt;stroke-linejoin:round;stroke-miterlimit:4;stroke-dasharray:none;stroke-dashoffset:0;stroke-opacity:1"
       sodipodi:type="arc" />
    <path
       transform="translate(22.475892,5.5558361)"
       d="M 458.79866,251.93932 A 1.9571706,1.9571706 0 1 1 454.88432,251.93932 A 1.9571706,1.9571706 0 1 1 458.79866,251.93932 z"
       sodipodi:ry="1.9571706"
       sodipodi:rx="1.9571706"
       sodipodi:cy="251.93932"
       sodipodi:cx="456.84149"
       id="path3679"
       style="fill:#000000;fill-opacity:1;stroke:#000000;stroke-width:2;stroke-linecap:butt;stroke-linejoin:round;stroke-miterlimit:4;stroke-dasharray:none;stroke-dashoffset:0;stroke-opacity:1"
       sodipodi:type="arc" />
    <path
       transform="translate(1.9085093,66.096398)"
       d="M 458.79866,251.93932 A 1.9571706,1.9571706 0 1 1 454.88432,251.93932 A 1.9571706,1.9571706 0 1 1 458.79866,251.93932 z"
       sodipodi:ry="1.9571706"
       sodipodi:rx="1.9571706"
       sodipodi:cy="251.93932"
       sodipodi:cx="456.84149"
       id="path3732"
       style="fill:#000000;fill-opacity:1;stroke:#000000;stroke-width:2;stroke-linecap:butt;stroke-linejoin:round;stroke-miterlimit:4;stroke-dasharray:none;stroke-dashoffset:0;stroke-opacity:1"
       sodipodi:type="arc" />
    <path
       sodipodi:nodetypes="cc"
       id="path3734"
       d="M 458.57143,318.03571 L 332.28219,481.1803"
       style="fill:#000000;fill-opacity:1;stroke:#000000;stroke-width:2;stroke-linecap:butt;stroke-linejoin:round;stroke-miterlimit:4;stroke-dasharray:none;stroke-dashoffset:0;stroke-opacity:1" />
    <path
       id="path3772"
       d="M 543.41156,330.94587 L 535.42881,512.60808"
       style="fill:#000000;fill-opacity:1;stroke:#000000;stroke-width:2;stroke-linecap:butt;stroke-linejoin:round;stroke-miterlimit:4;stroke-dasharray:none;stroke-dashoffset:0;stroke-opacity:1"
       sodipodi:nodetypes="cc" />
    <path
       transform="translate(86.923624,77.592341)"
       d="M 458.79866,251.93932 A 1.9571706,1.9571706 0 1 1 454.88432,251.93932 A 1.9571706,1.9571706 0 1 1 458.79866,251.93932 z"
       sodipodi:ry="1.9571706"
       sodipodi:rx="1.9571706"
       sodipodi:cy="251.93932"
       sodipodi:cx="456.84149"
       id="path3780"
       style="fill:#000000;fill-opacity:1;stroke:#000000;stroke-width:2;stroke-linecap:butt;stroke-linejoin:round;stroke-miterlimit:4;stroke-dasharray:none;stroke-dashoffset:0;stroke-opacity:1"
       sodipodi:type="arc" />
    <path
       id="path3726"
       d="M 608.61691,415.14208 L 594.97985,476.25631"
       style="fill:#000000;fill-opacity:1;stroke:#000000;stroke-width:2;stroke-linecap:butt;stroke-linejoin:round;stroke-miterlimit:4;stroke-dasharray:none;stroke-dashoffset:0;stroke-opacity:1" />
    <path
       transform="translate(151.84601,163.37319)"
       d="M 458.79866,251.93932 A 1.9571706,1.9571706 0 1 1 454.88432,251.93932 A 1.9571706,1.9571706 0 1 1 458.79866,251.93932 z"
       sodipodi:ry="1.9571706"
       sodipodi:rx="1.9571706"
       sodipodi:cy="251.93932"
       sodipodi:cx="456.84149"
       id="path3762"
       style="fill:#000000;fill-opacity:1;stroke:#000000;stroke-width:2;stroke-linecap:butt;stroke-linejoin:round;stroke-miterlimit:4;stroke-dasharray:none;stroke-dashoffset:0;stroke-opacity:1"
       sodipodi:type="arc" />
    <path
       id="path3748"
       d="M 257.08382,384.83751 L 312.64221,324.22835"
       style="fill:#000000;fill-opacity:1;stroke:#000000;stroke-width:2;stroke-linecap:butt;stroke-linejoin:round;stroke-miterlimit:4;stroke-dasharray:none;stroke-dashoffset:0;stroke-opacity:1" />
    <path
       transform="translate(-144.83062,72.794115)"
       d="M 458.79866,251.93932 A 1.9571706,1.9571706 0 1 1 454.88432,251.93932 A 1.9571706,1.9571706 0 1 1 458.79866,251.93932 z"
       sodipodi:ry="1.9571706"
       sodipodi:rx="1.9571706"
       sodipodi:cy="251.93932"
       sodipodi:cx="456.84149"
       id="path3750"
       style="fill:#000000;fill-opacity:1;stroke:#000000;stroke-width:2;stroke-linecap:butt;stroke-linejoin:round;stroke-miterlimit:4;stroke-dasharray:none;stroke-dashoffset:0;stroke-opacity:1"
       sodipodi:type="arc" />
    <text
       xml:space="preserve"
       style="font-size:20;font-style:normal;font-variant:normal;font-weight:normal;font-stretch:normal;text-align:start;line-height:100%;writing-mode:lr-tb;text-anchor:start;fill:#000000;fill-opacity:1;stroke:none;stroke-width:1px;stroke-linecap:butt;stroke-linejoin:miter;stroke-opacity:1;font-family:DejaVu Sans;-inkscape-font-specification:DejaVu Sans"
       x="435"
       y="433"
       id="text4104"
       sodipodi:linespacing="100%"><tspan
         sodipodi:role="line"
         id="tspan4106"
         x="435"
         y="433" /></text>
    <text
       xml:space="preserve"
       style="font-size:20px;font-style:normal;font-variant:normal;font-weight:normal;font-stretch:normal;text-align:start;line-height:100%;writing-mode:lr-tb;text-anchor:start;fill:#000000;fill-opacity:1;stroke:none;stroke-width:1px;stroke-linecap:butt;stroke-linejoin:miter;stroke-opacity:1;font-family:DejaVu Sans;-inkscape-font-specification:DejaVu Sans"
       x="418"
       y="426.5"
       id="text4108"
       sodipodi:linespacing="100%"><tspan
         sodipodi:role="line"
         id="tspan4110"
         x="418"
         y="426.5">Tympanic</tspan><tspan
         sodipodi:role="line"
         x="418"
         y="446.5"
         id="tspan4112">Cavity</tspan></text>
    <path
       style="opacity:1;fill:#000000;fill-opacity:1;stroke:#000000;stroke-width:2;stroke-linecap:butt;stroke-linejoin:round;stroke-miterlimit:4;stroke-dasharray:none;stroke-dashoffset:0;stroke-opacity:1"
       d="M 471,409.5 L 512.5,347"
       id="path4114" />
    <path
       transform="translate(56.518032,94.562903)"
       d="M 458.79866,251.93932 A 1.9571706,1.9571706 0 1 1 454.88432,251.93932 A 1.9571706,1.9571706 0 1 1 458.79866,251.93932 z"
       sodipodi:ry="1.9571706"
       sodipodi:rx="1.9571706"
       sodipodi:cy="251.93932"
       sodipodi:cx="456.84149"
       id="path4116"
       style="fill:#000000;fill-opacity:1;stroke:#000000;stroke-width:2;stroke-linecap:butt;stroke-linejoin:round;stroke-miterlimit:4;stroke-dasharray:none;stroke-dashoffset:0;stroke-opacity:1;display:inline"
       sodipodi:type="arc" />
  </g>
  <g
     inkscape:groupmode="layer"
     id="layer3"
     inkscape:label="Labels">
    <text
       sodipodi:linespacing="100%"
       id="text3683"
       y="162.6344"
       x="425.23108"
       style="font-size:20px;font-style:normal;font-variant:normal;font-weight:normal;font-stretch:normal;text-align:start;line-height:100%;writing-mode:lr-tb;text-anchor:start;fill:#000000;fill-opacity:1;stroke:none;stroke-width:1px;stroke-linecap:butt;stroke-linejoin:miter;stroke-opacity:1;font-family:DejaVu Sans;-inkscape-font-specification:DejaVu Sans"
       xml:space="preserve"><tspan
         y="162.6344"
         x="425.23108"
         id="tspan3685"
         sodipodi:role="line">Incus</tspan></text>
    <text
       sodipodi:linespacing="100%"
       id="text3687"
       y="179.8024"
       x="322.62997"
       style="font-size:20px;font-style:normal;font-variant:normal;font-weight:normal;font-stretch:normal;text-align:start;line-height:100%;writing-mode:lr-tb;text-anchor:start;fill:#000000;fill-opacity:1;stroke:none;stroke-width:1px;stroke-linecap:butt;stroke-linejoin:miter;stroke-opacity:1;font-family:DejaVu Sans;-inkscape-font-specification:DejaVu Sans"
       xml:space="preserve"><tspan
         y="179.8024"
         x="322.62997"
         id="tspan3689"
         sodipodi:role="line">Malleus</tspan></text>
    <text
       sodipodi:linespacing="100%"
       id="text3691"
       y="116.53033"
       x="767.74127"
       style="font-size:20px;font-style:normal;font-variant:normal;font-weight:normal;font-stretch:normal;text-align:end;line-height:100%;writing-mode:lr-tb;text-anchor:end;fill:#000000;fill-opacity:1;stroke:none;stroke-width:1px;stroke-linecap:butt;stroke-linejoin:miter;stroke-opacity:1;font-family:DejaVu Sans;-inkscape-font-specification:DejaVu Sans"
       xml:space="preserve"><tspan
         y="116.53033"
         x="767.74127"
         id="tspan3693"
         sodipodi:role="line">Semicircular</tspan><tspan
         id="tspan3695"
         y="136.53033"
         x="767.74127"
         sodipodi:role="line">Canals</tspan></text>
    <text
       sodipodi:linespacing="100%"
       id="text3703"
       y="183.76767"
       x="658.85168"
       style="font-size:20px;font-style:normal;font-variant:normal;font-weight:normal;font-stretch:normal;text-align:start;line-height:100%;writing-mode:lr-tb;text-anchor:start;fill:#000000;fill-opacity:1;stroke:none;stroke-width:1px;stroke-linecap:butt;stroke-linejoin:miter;stroke-opacity:1;font-family:DejaVu Sans;-inkscape-font-specification:DejaVu Sans"
       xml:space="preserve"><tspan
         y="183.76767"
         x="658.85168"
         id="tspan3705"
         sodipodi:role="line">Vestibular</tspan><tspan
         y="203.76767"
         x="658.85168"
         sodipodi:role="line"
         id="tspan4102">Nerve</tspan></text>
    <text
       sodipodi:linespacing="100%"
       id="text3711"
       y="335.43539"
       x="700.08661"
       style="font-size:20px;font-style:normal;font-variant:normal;font-weight:normal;font-stretch:normal;text-align:start;line-height:100%;writing-mode:lr-tb;text-anchor:start;fill:#000000;fill-opacity:1;stroke:none;stroke-width:1px;stroke-linecap:butt;stroke-linejoin:miter;stroke-opacity:1;font-family:DejaVu Sans;-inkscape-font-specification:DejaVu Sans"
       xml:space="preserve"><tspan
         y="335.43539"
         x="700.08661"
         id="tspan3713"
         sodipodi:role="line">Cochlear</tspan><tspan
         id="tspan3715"
         y="355.43539"
         x="700.08661"
         sodipodi:role="line">Nerve</tspan></text>
    <text
       sodipodi:linespacing="100%"
       id="text3728"
       y="497.4086"
       x="560.19043"
       style="font-size:20px;font-style:normal;font-variant:normal;font-weight:normal;font-stretch:normal;text-align:start;line-height:100%;writing-mode:lr-tb;text-anchor:start;fill:#000000;fill-opacity:1;stroke:none;stroke-width:1px;stroke-linecap:butt;stroke-linejoin:miter;stroke-opacity:1;font-family:DejaVu Sans;-inkscape-font-specification:DejaVu Sans"
       xml:space="preserve"><tspan
         y="497.4086"
         x="560.19043"
         id="tspan3730"
         sodipodi:role="line">Eustachian Tube</tspan></text>
    <text
       sodipodi:linespacing="100%"
       id="text3736"
       y="500.63956"
       x="324.94171"
       style="font-size:20px;font-style:normal;font-variant:normal;font-weight:normal;font-stretch:normal;text-align:center;line-height:100%;writing-mode:lr-tb;text-anchor:middle;fill:#000000;fill-opacity:1;stroke:none;stroke-width:1px;stroke-linecap:butt;stroke-linejoin:miter;stroke-opacity:1;font-family:DejaVu Sans;-inkscape-font-specification:DejaVu Sans"
       xml:space="preserve"><tspan
         y="500.63956"
         x="324.94171"
         id="tspan3738"
         sodipodi:role="line">Tympanic</tspan><tspan
         id="tspan3740"
         y="520.63959"
         x="324.94171"
         sodipodi:role="line">Membrane</tspan></text>
    <text
       sodipodi:linespacing="100%"
       id="text3742"
       y="410.0304"
       x="253.40614"
       style="font-size:20px;font-style:normal;font-variant:normal;font-weight:normal;font-stretch:normal;text-align:center;line-height:100%;writing-mode:lr-tb;text-anchor:middle;fill:#000000;fill-opacity:1;stroke:none;stroke-width:1px;stroke-linecap:butt;stroke-linejoin:miter;stroke-opacity:1;font-family:DejaVu Sans;-inkscape-font-specification:DejaVu Sans"
       xml:space="preserve"><tspan
         y="410.0304"
         x="253.40614"
         id="tspan3744"
         sodipodi:role="line">External</tspan><tspan
         id="tspan3746"
         y="430.0304"
         x="253.40614"
         sodipodi:role="line">Auditory Canal</tspan></text>
    <text
       sodipodi:linespacing="100%"
       id="text3754"
       y="62.668442"
       x="481.18634"
       style="font-size:20px;font-style:normal;font-variant:normal;font-weight:normal;font-stretch:normal;text-align:center;line-height:100%;writing-mode:lr-tb;text-anchor:middle;fill:#000000;fill-opacity:1;stroke:none;stroke-width:1px;stroke-linecap:butt;stroke-linejoin:miter;stroke-opacity:1;font-family:DejaVu Sans;-inkscape-font-specification:DejaVu Sans"
       xml:space="preserve"><tspan
         y="62.668442"
         x="481.18634"
         id="tspan3756"
         sodipodi:role="line">Stapes</tspan><tspan
         id="tspan3758"
         y="82.668442"
         x="484.36993"
         sodipodi:role="line">(attached to </tspan><tspan
         id="tspan3760"
         y="102.66844"
         x="481.18634"
         sodipodi:role="line">oval window)</tspan></text>
    <text
       sodipodi:linespacing="100%"
       id="text3768"
       y="391.82202"
       x="674.13623"
       style="font-size:20px;font-style:normal;font-variant:normal;font-weight:normal;font-stretch:normal;text-align:start;line-height:100%;writing-mode:lr-tb;text-anchor:start;fill:#000000;fill-opacity:1;stroke:none;stroke-width:1px;stroke-linecap:butt;stroke-linejoin:miter;stroke-opacity:1;font-family:DejaVu Sans;-inkscape-font-specification:DejaVu Sans"
       xml:space="preserve"><tspan
         y="391.82202"
         x="674.13623"
         id="tspan3770"
         sodipodi:role="line">Cochlea</tspan></text>
    <text
       sodipodi:linespacing="100%"
       id="text3774"
       y="531.25024"
       x="534.1004"
       style="font-size:20px;font-style:normal;font-variant:normal;font-weight:normal;font-stretch:normal;text-align:center;line-height:100%;writing-mode:lr-tb;text-anchor:middle;fill:#000000;fill-opacity:1;stroke:none;stroke-width:1px;stroke-linecap:butt;stroke-linejoin:miter;stroke-opacity:1;font-family:DejaVu Sans;-inkscape-font-specification:DejaVu Sans"
       xml:space="preserve"><tspan
         y="531.25024"
         x="534.1004"
         id="tspan3776"
         sodipodi:role="line">Round</tspan><tspan
         id="tspan3778"
         y="551.25024"
         x="534.1004"
         sodipodi:role="line">Window</tspan></text>
  </g>
</svg>
