<?xml version="1.0" encoding="UTF-8" standalone="no"?>
<!-- Created with Inkscape (http://www.inkscape.org/) -->

<svg
   xmlns:dc="http://purl.org/dc/elements/1.1/"
   xmlns:cc="http://creativecommons.org/ns#"
   xmlns:rdf="http://www.w3.org/1999/02/22-rdf-syntax-ns#"
   xmlns:svg="http://www.w3.org/2000/svg"
   xmlns="http://www.w3.org/2000/svg"
   xmlns:sodipodi="http://sodipodi.sourceforge.net/DTD/sodipodi-0.dtd"
   xmlns:inkscape="http://www.inkscape.org/namespaces/inkscape"
   width="56.534756mm"
   height="67.001228mm"
   viewBox="0 0 56.534756 67.001228"
   version="1.1"
   id="svg3014"
   inkscape:version="0.92.3 (2405546, 2018-03-11)"
   sodipodi:docname="auditory_pathway.svg">
  <defs
     id="defs3008">
    <clipPath
       clipPathUnits="userSpaceOnUse"
       id="clipPath156">
      <path
         d="m 218.681,561.546 c 0,0 8.169,-20.183 -2.643,-33.158 l -4.565,0.961 c 0,0 10.812,18.742 -8.89,26.189"
         id="path154"
         inkscape:connector-curvature="0" />
    </clipPath>
    <linearGradient
       x1="0"
       y1="0"
       x2="1"
       y2="0"
       gradientUnits="userSpaceOnUse"
       gradientTransform="matrix(1.46,13.8707,-13.8707,1.46,210.3877,533.2535)"
       spreadMethod="pad"
       id="linearGradient166">
      <stop
         style="stop-opacity:1;stop-color:#ffffff"
         offset="0"
         id="stop162" />
      <stop
         style="stop-opacity:1;stop-color:#cecdcc"
         offset="1"
         id="stop164" />
    </linearGradient>
    <clipPath
       clipPathUnits="userSpaceOnUse"
       id="clipPath178">
      <path
         d="m 226.666,534.948 c 0.661,0.286 0.976,0.79 0.976,0.79 -0.252,0.188 -0.976,0.157 -0.976,0.157 z m -5.48,-3.589 c 0.314,0.064 1.071,-0.19 1.385,-0.315 0.316,-0.125 0.636,0.124 0.914,0.347 0.472,0.378 0.756,1.196 0.756,1.196 0,0 -1.418,-0.158 -1.795,-0.346 -0.378,-0.189 -1.134,-0.567 -1.827,-0.755 0,0 0.252,-0.19 0.567,-0.127 z m 3.464,3.119 c 0.064,0.377 0,1.166 0,1.166 -0.756,-0.128 -1.889,-0.696 -1.889,-0.696 0.819,-0.502 1.889,-0.47 1.889,-0.47 z m -3.904,5.762 c 0.251,-0.502 0.314,-2.204 0.314,-2.204 0.882,0.125 1.543,-0.22 1.984,-0.472 0.441,-0.252 1.417,-0.095 1.417,-0.095 -0.881,3.338 -4.031,3.843 -4.031,3.843 0,0 0.063,-0.568 0.316,-1.072 z m -2.898,1.324 c -1.387,0 -2.582,-0.694 -2.898,-1.324 -0.315,-0.628 0.063,-1.321 0.252,-1.575 0.189,-0.252 1.134,-0.187 1.134,-0.187 -0.189,1.385 1.512,3.086 1.512,3.086 z m -4.43,0 c 0,0 1.175,1.595 4.241,2.015 0,0 -0.945,2.016 -2.519,1.26 -1.575,-0.756 -1.722,-3.275 -1.722,-3.275 z m -17.952,-15.811 c 0.582,2.181 3.78,4.99 6.737,5.574 2.956,0.58 5.944,-2.173 5.944,-2.173 0,0 0.315,2.142 1.512,4.033 1.197,1.889 2.394,4.03 2.205,5.165 -0.189,1.134 -0.882,5.772 1.511,7.809 2.061,1.752 4.661,1.198 6.426,-2.645 0,0 3.034,-0.278 5.29,-3.15 0.693,-0.88 1.26,-2.677 1.26,-2.677 0,0 3.527,0.472 3.779,-1.607 0.252,-2.077 -3.37,-3.087 -3.685,-3.212 0,0 -0.756,-2.11 -1.984,-3.086 -0.575,-0.455 -0.983,-0.822 -1.386,-1.258 -0.756,-0.819 -1.638,-0.945 -2.329,-0.945 -0.694,0 -0.694,0 -0.694,0 0,0 -0.693,-1.575 -2.016,-2.016 0,0 -0.062,-0.568 0.253,-0.946 0.314,-0.378 1.007,-1.07 0.692,-1.575 -0.315,-0.503 -0.629,-0.755 -0.818,-0.44 -0.189,0.315 -0.567,0.757 -0.945,0.757 -0.378,0 -1.071,-0.19 -1.26,-0.504 -0.19,-0.316 -0.441,-0.819 -0.19,-0.946 0.252,-0.126 0.631,-0.504 0.631,-0.755 0,-0.251 0.062,-0.882 -0.252,-1.073 -0.315,-0.187 -0.441,-0.187 -0.693,-0.061 -0.252,0.126 -1.008,0.504 -1.196,0.315 -0.19,-0.189 -1.575,-1.764 -3.15,-2.646 -1.575,-0.881 -9.448,-5.354 -14.11,-0.379 -0.988,1.057 -1.49,2.339 -1.49,2.339 -0.637,1.165 -0.623,3.921 -0.042,6.102"
         id="path176"
         inkscape:connector-curvature="0" />
    </clipPath>
    <clipPath
       clipPathUnits="userSpaceOnUse"
       id="clipPath186">
      <path
         d="m 208.582,534.325 14.497,-9.573 c 0,0 -10.666,-16.001 -18.873,-16.821 -8.205,-0.82 -17.368,16.138 -14.223,20.103 3.146,3.965 18.599,6.291 18.599,6.291"
         id="path184"
         inkscape:connector-curvature="0" />
    </clipPath>
    <linearGradient
       x1="0"
       y1="0"
       x2="1"
       y2="0"
       gradientUnits="userSpaceOnUse"
       gradientTransform="matrix(-8.342,-10.2567,10.2567,-8.342,212.8717,530.9085)"
       spreadMethod="pad"
       id="linearGradient194">
      <stop
         style="stop-opacity:1;stop-color:#ffffff"
         offset="0"
         id="stop190" />
      <stop
         style="stop-opacity:1;stop-color:#f9b891"
         offset="1"
         id="stop192" />
    </linearGradient>
    <clipPath
       clipPathUnits="userSpaceOnUse"
       id="clipPath204">
      <path
         d="m 208.582,534.325 14.497,-9.573 c 0,0 -10.666,-16.001 -18.873,-16.821 -8.205,-0.82 -17.368,16.138 -14.223,20.103 3.146,3.965 18.599,6.291 18.599,6.291"
         id="path202"
         inkscape:connector-curvature="0" />
    </clipPath>
    <clipPath
       clipPathUnits="userSpaceOnUse"
       id="clipPath290">
      <path
         d="m 67.221,561.546 c 0,0 -8.169,-20.183 2.643,-33.158 l 4.565,0.961 c 0,0 -10.812,18.742 8.89,26.189"
         id="path288"
         inkscape:connector-curvature="0" />
    </clipPath>
    <clipPath
       clipPathUnits="userSpaceOnUse"
       id="clipPath298">
      <path
         d="M 62.685,423.384 H 559.437 V 719.99 H 62.685 Z"
         id="path296"
         inkscape:connector-curvature="0" />
    </clipPath>
    <linearGradient
       x1="0"
       y1="0"
       x2="1"
       y2="0"
       gradientUnits="userSpaceOnUse"
       gradientTransform="matrix(-1.46,13.8707,13.8707,1.46,75.5138,533.2535)"
       spreadMethod="pad"
       id="linearGradient306">
      <stop
         style="stop-opacity:1;stop-color:#ffffff"
         offset="0"
         id="stop302" />
      <stop
         style="stop-opacity:1;stop-color:#cecdcc"
         offset="1"
         id="stop304" />
    </linearGradient>
    <clipPath
       clipPathUnits="userSpaceOnUse"
       id="clipPath316">
      <path
         d="M 62.685,423.384 H 559.437 V 719.99 H 62.685 Z"
         id="path314"
         inkscape:connector-curvature="0" />
    </clipPath>
    <clipPath
       clipPathUnits="userSpaceOnUse"
       id="clipPath1300">
      <path
         d="m 59.236,535.895 c 0,0 -0.724,0.031 -0.976,-0.157 0,0 0.315,-0.504 0.976,-0.79 z m 6.047,-4.409 c -0.693,0.188 -1.449,0.566 -1.826,0.755 -0.378,0.188 -1.795,0.346 -1.795,0.346 0,0 0.283,-0.818 0.755,-1.196 0.278,-0.223 0.598,-0.472 0.914,-0.347 0.314,0.125 1.07,0.379 1.385,0.315 0.315,-0.063 0.567,0.127 0.567,0.127 z m -2.142,3.462 c 0,0 -1.133,0.568 -1.889,0.696 0,0 -0.063,-0.789 0,-1.166 0,0 1.071,-0.032 1.889,0.47 z m 2.332,6.364 c 0,0 -3.15,-0.505 -4.032,-3.843 0,0 0.976,-0.157 1.417,0.095 0.441,0.252 1.102,0.597 1.984,0.472 0,0 0.063,1.702 0.315,2.204 0.252,0.504 0.316,1.072 0.316,1.072 z m 4.093,-2.834 c 0,0 0.945,-0.065 1.134,0.187 0.189,0.254 0.567,0.947 0.252,1.575 -0.316,0.63 -1.511,1.324 -2.898,1.324 0,0 1.701,-1.701 1.512,-3.086 z m 1.197,6.361 c -1.575,0.756 -2.519,-1.26 -2.519,-1.26 3.065,-0.42 4.24,-2.015 4.24,-2.015 0,0 -0.147,2.519 -1.721,3.275 z m 19.631,-25.188 c 0,0 -0.501,-1.282 -1.49,-2.339 -4.662,-4.975 -12.535,-0.502 -14.109,0.379 -1.576,0.882 -2.961,2.457 -3.15,2.646 -0.189,0.189 -0.945,-0.189 -1.197,-0.315 -0.252,-0.126 -0.379,-0.126 -0.693,0.061 -0.314,0.191 -0.252,0.822 -0.252,1.073 0,0.251 0.378,0.629 0.63,0.755 0.252,0.127 0,0.63 -0.189,0.946 -0.189,0.314 -0.881,0.504 -1.26,0.504 -0.377,0 -0.756,-0.442 -0.944,-0.757 -0.19,-0.315 -0.505,-0.063 -0.819,0.44 -0.315,0.505 0.377,1.197 0.692,1.575 0.315,0.378 0.253,0.946 0.253,0.946 -1.323,0.441 -2.016,2.016 -2.016,2.016 0,0 0,0 -0.693,0 -0.693,0 -1.574,0.126 -2.33,0.945 -0.404,0.436 -0.811,0.803 -1.386,1.258 -1.228,0.976 -1.984,3.086 -1.984,3.086 -0.315,0.125 -3.937,1.135 -3.685,3.212 0.252,2.079 3.779,1.607 3.779,1.607 0,0 0.567,1.797 1.26,2.677 2.256,2.872 5.29,3.15 5.29,3.15 1.765,3.843 4.364,4.397 6.426,2.645 2.393,-2.037 1.7,-6.675 1.511,-7.809 -0.188,-1.135 1.008,-3.276 2.205,-5.165 1.197,-1.891 1.511,-4.033 1.511,-4.033 0,0 2.989,2.753 5.945,2.173 2.957,-0.584 6.156,-3.393 6.737,-5.574 0.581,-2.181 0.595,-4.937 -0.042,-6.102"
         id="path1298"
         inkscape:connector-curvature="0" />
    </clipPath>
    <clipPath
       clipPathUnits="userSpaceOnUse"
       id="clipPath1308">
      <path
         d="m 77.32,534.325 -14.497,-9.573 c 0,0 10.667,-16.001 18.872,-16.821 8.206,-0.82 17.369,16.138 14.224,20.103 -3.145,3.965 -18.599,6.291 -18.599,6.291"
         id="path1306"
         inkscape:connector-curvature="0" />
    </clipPath>
    <linearGradient
       x1="0"
       y1="0"
       x2="1"
       y2="0"
       gradientUnits="userSpaceOnUse"
       gradientTransform="matrix(8.3422,-10.257,-10.257,-8.3422,73.0304,530.9075)"
       spreadMethod="pad"
       id="linearGradient1316">
      <stop
         style="stop-opacity:1;stop-color:#ffffff"
         offset="0"
         id="stop1312" />
      <stop
         style="stop-opacity:1;stop-color:#f9b891"
         offset="1"
         id="stop1314" />
    </linearGradient>
    <clipPath
       clipPathUnits="userSpaceOnUse"
       id="clipPath1326">
      <path
         d="m 77.32,534.325 -14.497,-9.573 c 0,0 10.667,-16.001 18.872,-16.821 8.206,-0.82 17.369,16.138 14.224,20.103 -3.145,3.965 -18.599,6.291 -18.599,6.291"
         id="path1324"
         inkscape:connector-curvature="0" />
    </clipPath>
  </defs>
  <sodipodi:namedview
     id="base"
     pagecolor="#ffffff"
     bordercolor="#666666"
     borderopacity="1.0"
     inkscape:pageopacity="0.0"
     inkscape:pageshadow="2"
     inkscape:zoom="0.35"
     inkscape:cx="-320.30553"
     inkscape:cy="-36.240643"
     inkscape:document-units="mm"
     inkscape:current-layer="layer1"
     showgrid="false"
     fit-margin-top="0"
     fit-margin-left="0"
     fit-margin-right="0"
     fit-margin-bottom="0"
     inkscape:window-width="1080"
     inkscape:window-height="1883"
     inkscape:window-x="0"
     inkscape:window-y="0"
     inkscape:window-maximized="1" />
  <metadata
     id="metadata3011">
    <rdf:RDF>
      <cc:Work
         rdf:about="">
        <dc:format>image/svg+xml</dc:format>
        <dc:type
           rdf:resource="http://purl.org/dc/dcmitype/StillImage" />
        <dc:title></dc:title>
      </cc:Work>
    </rdf:RDF>
  </metadata>
  <g
     inkscape:label="Layer 1"
     inkscape:groupmode="layer"
     id="layer1"
     transform="translate(-55.643337,-72.243438)">
    <g
       transform="matrix(0.35277777,0,0,-0.35277777,33.480779,320.84157)"
       id="g1557"
       inkscape:export-xdpi="425.01996"
       inkscape:export-ydpi="425.01996">
      <g
         id="g150">
        <g
           clip-path="url(#clipPath156)"
           id="g152">
          <g
             id="g158">
            <g
               id="g160">
              <path
                 inkscape:connector-curvature="0"
                 id="path168"
                 style="fill:url(#linearGradient166);stroke:none"
                 d="m 218.681,561.546 c 0,0 8.169,-20.183 -2.643,-33.158 l -4.565,0.961 c 0,0 10.812,18.742 -8.89,26.189" />
            </g>
          </g>
        </g>
      </g>
      <path
         inkscape:connector-curvature="0"
         id="path170"
         style="fill:none;stroke:#100f0d;stroke-width:0.48100001;stroke-linecap:butt;stroke-linejoin:miter;stroke-miterlimit:4;stroke-dasharray:none;stroke-opacity:1"
         d="m 218.681,561.546 c 0,0 8.169,-20.183 -2.643,-33.158 l -4.565,0.961 c 0,0 10.812,18.742 -8.89,26.189" />
      <g
         id="g172">
        <g
           clip-path="url(#clipPath178)"
           id="g174">
          <g
             id="g180">
            <g
               clip-path="url(#clipPath186)"
               id="g182">
              <g
                 id="g188">
                <path
                   inkscape:connector-curvature="0"
                   id="path196"
                   style="fill:url(#linearGradient194);stroke:none"
                   d="m 208.582,534.325 14.497,-9.573 c 0,0 -10.666,-16.001 -18.873,-16.821 -8.205,-0.82 -17.368,16.138 -14.223,20.103 3.146,3.965 18.599,6.291 18.599,6.291" />
              </g>
            </g>
          </g>
        </g>
      </g>
      <g
         id="g198">
        <g
           clip-path="url(#clipPath204)"
           id="g200">
          <path
             inkscape:connector-curvature="0"
             id="path206"
             style="fill:none;stroke:#bf7f51;stroke-width:0.48100001;stroke-linecap:butt;stroke-linejoin:miter;stroke-miterlimit:4;stroke-dasharray:none;stroke-opacity:1"
             d="m 220.052,527.581 c -0.294,0 -1.029,0.209 -1.176,0.44" />
          <path
             inkscape:connector-curvature="0"
             id="path208"
             style="fill:none;stroke:#bf7f51;stroke-width:0.48100001;stroke-linecap:round;stroke-linejoin:miter;stroke-miterlimit:4;stroke-dasharray:none;stroke-opacity:1"
             d="m 220.619,531.486 c -1.302,-0.317 -2.352,0.398 -2.73,0.943 m 4.872,2.519 c -0.169,0.085 -0.714,0.359 -1.176,0.652 -0.289,0.184 -1.491,0.483 -2.394,0.315" />
          <path
             inkscape:connector-curvature="0"
             id="path210"
             style="fill:none;stroke:#bf7f51;stroke-width:0.48100001;stroke-linecap:butt;stroke-linejoin:miter;stroke-miterlimit:4;stroke-dasharray:none;stroke-opacity:1"
             d="m 226.666,534.948 c 0.661,0.286 0.976,0.79 0.976,0.79 -0.252,0.188 -0.976,0.157 -0.976,0.157 z m -5.454,-3.503 c 0.315,0.062 1.045,-0.276 1.359,-0.401 0.316,-0.125 0.636,0.124 0.914,0.347 0.472,0.378 0.756,1.196 0.756,1.196 0,0 -1.418,-0.158 -1.795,-0.346 -0.378,-0.189 -1.134,-0.567 -1.827,-0.755 0,0 0.278,-0.104 0.593,-0.041 z m 3.438,3.033 c 0.064,0.377 0,1.166 0,1.166 -0.756,-0.128 -1.889,-0.696 -1.889,-0.696 0.819,-0.502 1.889,-0.47 1.889,-0.47 z m -3.904,5.762 c 0.251,-0.502 0.314,-2.204 0.314,-2.204 0.882,0.125 1.543,-0.22 1.984,-0.472 0.441,-0.252 1.417,-0.095 1.417,-0.095 -0.881,3.338 -4.031,3.843 -4.031,3.843 0,0 0.063,-0.568 0.316,-1.072 z m -2.898,1.324 c -1.387,0 -2.582,-0.694 -2.898,-1.324 -0.315,-0.628 0.063,-1.321 0.252,-1.575 0.189,-0.252 1.134,-0.187 1.134,-0.187 -0.189,1.385 1.512,3.086 1.512,3.086 z m -4.43,0 c 0,0 1.175,1.595 4.241,2.015 0,0 -0.945,2.016 -2.519,1.26 -1.575,-0.756 -1.722,-3.275 -1.722,-3.275 z m -8.902,-18.099 c -0.378,0.693 -1.324,0.882 -2.173,-0.03 -0.655,-0.704 -0.851,-2.826 1.081,-3.413 2.845,-0.866 5.375,2.348 3.905,5.375 -1.428,2.938 -5.669,1.889 -7.097,0.671 -1.95,-1.661 -2.939,-5.584 -0.504,-7.894 2.53,-2.398 9.195,-2.006 10.582,3.779 0.966,4.033 -1.673,6.831 -1.944,7.064 -0.881,0.759 -3.934,2.988 -6.938,2.164 -3.006,-0.824 -4.291,-2.667 -5.138,-3.878 -0.679,-0.97 -2.085,-4.168 -0.782,-7.652 0.48,-1.288 0.805,-1.607 1.49,-2.339 4.662,-4.975 12.535,-0.502 14.11,0.379 1.575,0.882 2.96,2.457 3.15,2.646 0.188,0.189 0.944,-0.189 1.196,-0.315 0.252,-0.126 0.378,-0.126 0.693,0.061 0.314,0.191 0.252,0.822 0.252,1.073 0,0.251 -0.379,0.629 -0.631,0.755 -0.251,0.127 0,0.63 0.19,0.946 0.189,0.314 0.882,0.504 1.26,0.504 0.378,0 0.756,-0.442 0.945,-0.757 0.189,-0.315 0.503,-0.063 0.818,0.44 0.315,0.505 -0.378,1.197 -0.692,1.575 -0.315,0.378 -0.253,0.946 -0.253,0.946 1.323,0.441 2.016,2.016 2.016,2.016 0,0 0,0 0.694,0 0.691,0 1.526,0.171 2.329,0.945 0.303,0.291 1.386,1.258 1.386,1.258 1.313,1.42 1.984,3.086 1.984,3.086 0.315,0.125 3.937,1.135 3.685,3.212 -0.252,2.079 -3.779,1.607 -3.779,1.607 0,0 -0.567,1.797 -1.26,2.677 -2.256,2.872 -5.29,3.15 -5.29,3.15 -1.765,3.843 -4.365,4.397 -6.426,2.645 -2.393,-2.037 -1.7,-6.675 -1.511,-7.809 0.189,-1.135 -1.008,-3.276 -2.205,-5.165 -1.197,-1.891 -1.512,-4.033 -1.512,-4.033" />
        </g>
      </g>
      <path
         inkscape:connector-curvature="0"
         id="path254"
         style="fill:#dcdcda;fill-opacity:1;fill-rule:nonzero;stroke:none"
         d="m 183.032,576.443 c 1.682,3.363 8.41,1.201 9.371,-0.962 0.961,-2.162 -1.201,-5.766 -4.565,-10.572 -3.364,-4.804 -9.852,-3.843 -15.137,-2.402 -5.287,1.441 -6.007,9.851 -1.442,11.292 4.565,1.442 6.007,-2.883 7.689,-5.046 0,0 2.162,-0.24 2.162,2.403 0,2.643 1.922,5.287 1.922,5.287" />
      <path
         inkscape:connector-curvature="0"
         id="path256"
         style="fill:none;stroke:#100f0d;stroke-width:0.48100001;stroke-linecap:butt;stroke-linejoin:miter;stroke-miterlimit:4;stroke-dasharray:none;stroke-opacity:1"
         d="m 183.032,576.443 c 1.682,3.363 8.41,1.201 9.371,-0.962 0.961,-2.162 -1.201,-5.766 -4.565,-10.572 -3.364,-4.804 -9.852,-3.843 -15.137,-2.402 -5.287,1.441 -6.007,9.851 -1.442,11.292 4.565,1.442 6.007,-2.883 7.689,-5.046 0,0 2.162,-0.24 2.162,2.403 0,2.643 1.922,5.287 1.922,5.287 z" />
      <path
         inkscape:connector-curvature="0"
         id="path258"
         style="fill:#dcdcda;fill-opacity:1;fill-rule:nonzero;stroke:none"
         d="m 105.285,585.302 c -2.439,4.877 -12.194,1.742 -13.587,-1.393 -1.394,-3.136 0.68,-11.311 5.557,-18.279 4.877,-6.969 15.347,-2.626 23.011,-0.535 7.665,2.09 8.71,14.285 2.09,16.374 -6.62,2.091 -8.709,-4.18 -11.148,-7.316 0,0 -3.136,-0.348 -3.136,3.482 0,3.834 -2.787,7.667 -2.787,7.667" />
      <path
         inkscape:connector-curvature="0"
         id="path260"
         style="fill:none;stroke:#100f0d;stroke-width:0.48100001;stroke-linecap:butt;stroke-linejoin:miter;stroke-miterlimit:4;stroke-dasharray:none;stroke-opacity:1"
         d="m 105.285,585.302 c -2.439,4.877 -12.194,1.742 -13.587,-1.393 -1.394,-3.136 0.68,-11.311 5.557,-18.279 4.877,-6.969 15.347,-2.626 23.011,-0.535 7.665,2.09 8.71,14.285 2.09,16.374 -6.62,2.091 -8.709,-4.18 -11.148,-7.316 0,0 -3.136,-0.348 -3.136,3.482 0,3.834 -2.787,7.667 -2.787,7.667 z" />
      <path
         inkscape:connector-curvature="0"
         id="path262"
         style="fill:#dcdcda;fill-opacity:1;fill-rule:nonzero;stroke:none"
         d="m 178.547,629.863 c 2.431,-0.211 3.204,6.406 8.01,5.766 4.805,-0.64 6.406,2.242 7.047,5.126 0.641,2.882 5.526,8.271 4.369,10.296 -1.234,2.159 -3.24,0.356 -7.405,-0.926 -4.164,-1.281 -6.254,-0.4 -9.137,1.522 -2.884,1.922 -6.554,1.379 -7.369,0 -1.081,-1.831 -1.904,-12.321 -0.876,-15.51 1.029,-3.187 3.008,-6.07 5.361,-6.274" />
      <path
         inkscape:connector-curvature="0"
         id="path264"
         style="fill:none;stroke:#100f0d;stroke-width:0.48100001;stroke-linecap:butt;stroke-linejoin:miter;stroke-miterlimit:4;stroke-dasharray:none;stroke-opacity:1"
         d="m 178.547,629.863 c 2.431,-0.211 3.204,6.406 8.01,5.766 4.805,-0.64 6.406,2.242 7.047,5.126 0.641,2.882 5.526,8.271 4.369,10.296 -1.234,2.159 -3.24,0.356 -7.405,-0.926 -4.164,-1.281 -6.254,-0.4 -9.137,1.522 -2.884,1.922 -6.554,1.379 -7.369,0 -1.081,-1.831 -1.904,-12.321 -0.876,-15.51 1.029,-3.187 3.008,-6.07 5.361,-6.274 z" />
      <path
         inkscape:connector-curvature="0"
         id="path266"
         style="fill:#dcdcda;fill-opacity:1;fill-rule:nonzero;stroke:none"
         d="m 107.113,629.863 c -2.43,-0.211 -3.203,6.406 -8.008,5.766 -4.806,-0.64 -6.408,2.242 -7.048,5.126 -0.641,2.882 -5.527,8.271 -4.369,10.296 1.234,2.159 3.24,0.356 7.404,-0.926 4.165,-1.281 6.255,-0.4 9.139,1.522 2.882,1.922 6.553,1.379 7.368,0 1.081,-1.831 1.904,-12.321 0.875,-15.51 -1.029,-3.187 -3.008,-6.07 -5.361,-6.274" />
      <path
         inkscape:connector-curvature="0"
         id="path268"
         style="fill:none;stroke:#100f0d;stroke-width:0.48100001;stroke-linecap:butt;stroke-linejoin:miter;stroke-miterlimit:4;stroke-dasharray:none;stroke-opacity:1"
         d="m 107.113,629.863 c -2.43,-0.211 -3.203,6.406 -8.008,5.766 -4.806,-0.64 -6.408,2.242 -7.048,5.126 -0.641,2.882 -5.527,8.271 -4.369,10.296 1.234,2.159 3.24,0.356 7.404,-0.926 4.165,-1.281 6.255,-0.4 9.139,1.522 2.882,1.922 6.553,1.379 7.368,0 1.081,-1.831 1.904,-12.321 0.875,-15.51 -1.029,-3.187 -3.008,-6.07 -5.361,-6.274 z" />
      <path
         inkscape:connector-curvature="0"
         id="path270"
         style="fill:#dcdcda;fill-opacity:1;fill-rule:nonzero;stroke:none"
         d="m 164.531,552.055 c 0,-3.384 -2.403,-7.088 -8.65,-6.128 -4.722,0.728 -8.649,2.744 -8.649,6.128 0,3.384 3.872,6.127 8.649,6.127 4.777,0 8.65,-2.743 8.65,-6.127" />
      <path
         inkscape:connector-curvature="0"
         id="path272"
         style="fill:none;stroke:#100f0d;stroke-width:0.48100001;stroke-linecap:butt;stroke-linejoin:miter;stroke-miterlimit:4;stroke-dasharray:none;stroke-opacity:1"
         d="m 164.531,552.055 c 0,-3.384 -2.403,-7.088 -8.65,-6.128 -4.722,0.728 -8.649,2.744 -8.649,6.128 0,3.384 3.872,6.127 8.649,6.127 4.777,0 8.65,-2.743 8.65,-6.127 z" />
      <path
         inkscape:connector-curvature="0"
         id="path274"
         style="fill:#dcdcda;fill-opacity:1;fill-rule:nonzero;stroke:none"
         d="m 122.003,552.055 c 0,-3.384 2.403,-7.088 8.65,-6.128 4.722,0.728 8.649,2.744 8.649,6.128 0,3.384 -3.872,6.127 -8.649,6.127 -4.777,0 -8.65,-2.743 -8.65,-6.127" />
      <path
         inkscape:connector-curvature="0"
         id="path276"
         style="fill:none;stroke:#100f0d;stroke-width:0.48100001;stroke-linecap:butt;stroke-linejoin:miter;stroke-miterlimit:4;stroke-dasharray:none;stroke-opacity:1"
         d="m 122.003,552.055 c 0,-3.384 2.403,-7.088 8.65,-6.128 4.722,0.728 8.649,2.744 8.649,6.128 0,3.384 -3.872,6.127 -8.649,6.127 -4.777,0 -8.65,-2.743 -8.65,-6.127 z" />
      <path
         inkscape:connector-curvature="0"
         id="path278"
         style="fill:#dcdcda;fill-opacity:1;fill-rule:nonzero;stroke:none"
         d="m 101.58,558.903 c -1.119,1.866 -6.007,0 -3.364,-3.365 2.643,-3.363 3.123,-4.564 6.727,-4.564 3.605,0 4.566,0.721 2.163,2.883 -2.403,2.162 -4.805,3.844 -5.526,5.046" />
      <path
         inkscape:connector-curvature="0"
         id="path280"
         style="fill:none;stroke:#100f0d;stroke-width:0.48100001;stroke-linecap:butt;stroke-linejoin:miter;stroke-miterlimit:4;stroke-dasharray:none;stroke-opacity:1"
         d="m 101.58,558.903 c -1.119,1.866 -6.007,0 -3.364,-3.365 2.643,-3.363 3.123,-4.564 6.727,-4.564 3.605,0 4.566,0.721 2.163,2.883 -2.403,2.162 -4.805,3.844 -5.526,5.046 z" />
      <path
         inkscape:connector-curvature="0"
         id="path282"
         style="fill:none;stroke:#100f0d;stroke-width:0.96100003;stroke-linecap:butt;stroke-linejoin:miter;stroke-miterlimit:4;stroke-dasharray:none;stroke-opacity:1"
         d="m 212.826,670.548 c -0.321,-5.767 -1.602,-12.494 -7.048,-14.736 -5.447,-2.243 -8.009,-7.689 -8.329,-11.854 -0.321,-4.165 5.125,-10.251 8.329,-13.135 3.203,-2.883 8.65,-11.212 8.329,-19.542 -0.32,-8.329 -0.641,-14.735 -4.165,-19.221 -3.523,-4.485 -8.969,-6.088 -11.212,-16.979 -2.243,-10.892 -10.252,-24.027 -16.018,-26.912 -5.767,-2.883 -24.348,-11.211 -40.046,-0.318" />
      <g
         id="g284">
        <g
           clip-path="url(#clipPath290)"
           id="g286">
          <g
             id="g292">
            <g
               clip-path="url(#clipPath298)"
               id="g294">
              <g
                 id="g300">
                <path
                   inkscape:connector-curvature="0"
                   id="path308"
                   style="fill:url(#linearGradient306);stroke:none"
                   d="M 62.685,423.384 H 559.437 V 719.99 H 62.685 Z" />
              </g>
            </g>
          </g>
        </g>
      </g>
      <g
         id="g310">
        <g
           clip-path="url(#clipPath316)"
           id="g312">
          <path
             inkscape:connector-curvature="0"
             id="path318"
             style="fill:none;stroke:#100f0d;stroke-width:0.48100001;stroke-linecap:butt;stroke-linejoin:miter;stroke-miterlimit:4;stroke-dasharray:none;stroke-opacity:1"
             d="m 67.221,561.546 c 0,0 -8.169,-20.183 2.643,-33.158 l 4.565,0.961 c 0,0 -10.812,18.742 8.89,26.189" />
        </g>
      </g>
      <path
         inkscape:connector-curvature="0"
         id="path320"
         style="fill:#dcdcda;fill-opacity:1;fill-rule:nonzero;stroke:none"
         d="m 93.933,557.26 c -0.321,-3.843 -5.153,-3.964 -6.755,-3.644 -1.602,0.321 -6.727,0.961 -14.736,1.922 -8.01,0.961 -8.65,11.853 -7.689,20.504 0.961,8.65 14.167,12.945 14.167,12.945 0,0 5.161,-5.456 5.63,-6.745 0.469,-1.291 3.049,-9.56 3.342,-11.317 0.294,-1.76 2.404,-6.568 3.167,-7.683 0.763,-1.114 2.932,-5.513 2.932,-5.513 l -0.058,-0.469" />
      <path
         inkscape:connector-curvature="0"
         id="path322"
         style="fill:none;stroke:#100f0d;stroke-width:0.48100001;stroke-linecap:butt;stroke-linejoin:miter;stroke-miterlimit:4;stroke-dasharray:none;stroke-opacity:1"
         d="m 93.933,557.26 c -0.321,-3.843 -5.153,-3.964 -6.755,-3.644 -1.602,0.321 -6.727,0.961 -14.736,1.922 -8.01,0.961 -8.65,11.853 -7.689,20.504 0.961,8.65 14.167,12.945 14.167,12.945 0,0 5.161,-5.456 5.63,-6.745 0.469,-1.291 3.049,-9.56 3.342,-11.317 0.294,-1.76 2.404,-6.568 3.167,-7.683 0.763,-1.114 2.932,-5.513 2.932,-5.513 z" />
      <path
         inkscape:connector-curvature="0"
         id="path324"
         style="fill:none;stroke:#100f0d;stroke-width:0.96100003;stroke-linecap:butt;stroke-linejoin:miter;stroke-miterlimit:4;stroke-dasharray:none;stroke-opacity:1"
         d="m 72.841,670.548 c 0.32,-5.767 1.602,-12.494 7.048,-14.736 5.446,-2.243 8.009,-7.689 8.329,-11.854 0.321,-4.165 -5.126,-10.251 -8.329,-13.135 -3.204,-2.883 -8.651,-11.212 -8.33,-19.542 0.32,-8.329 0.641,-14.735 4.165,-19.221 3.524,-4.485 8.97,-6.088 11.213,-16.979 2.242,-10.892 10.252,-24.027 16.018,-26.912 5.766,-2.883 24.347,-11.211 40.045,-0.318" />
      <path
         inkscape:connector-curvature="0"
         id="path326"
         style="fill:#dcdcda;fill-opacity:1;fill-rule:nonzero;stroke:none"
         d="m 191.655,557.26 c 0.321,-3.843 5.153,-3.964 6.755,-3.644 1.601,0.321 6.727,0.961 14.736,1.922 8.01,0.961 8.65,11.853 7.689,20.504 -0.961,8.65 -14.167,12.945 -14.167,12.945 0,0 -5.161,-5.456 -5.63,-6.745 -0.469,-1.291 -3.049,-9.56 -3.343,-11.317 -0.293,-1.76 -2.404,-6.568 -3.166,-7.683 -0.763,-1.114 -2.932,-5.513 -2.932,-5.513 l 0.058,-0.469" />
      <path
         inkscape:connector-curvature="0"
         id="path328"
         style="fill:none;stroke:#100f0d;stroke-width:0.48100001;stroke-linecap:butt;stroke-linejoin:miter;stroke-miterlimit:4;stroke-dasharray:none;stroke-opacity:1"
         d="m 191.655,557.26 c 0.321,-3.843 5.153,-3.964 6.755,-3.644 1.601,0.321 6.727,0.961 14.736,1.922 8.01,0.961 8.65,11.853 7.689,20.504 -0.961,8.65 -14.167,12.945 -14.167,12.945 0,0 -5.161,-5.456 -5.63,-6.745 -0.469,-1.291 -3.049,-9.56 -3.343,-11.317 -0.293,-1.76 -2.404,-6.568 -3.166,-7.683 -0.763,-1.114 -2.932,-5.513 -2.932,-5.513 z" />
      <path
         inkscape:connector-curvature="0"
         id="path330"
         style="fill:#dcdcda;fill-opacity:1;fill-rule:nonzero;stroke:none"
         d="m 119.92,704.186 c -7.606,0.346 -23.706,1.922 -39.083,-9.931 -9.592,-7.393 -11.213,-19.863 -3.524,-31.396 7.688,-11.533 21.143,-10.571 27.871,-7.047 6.728,3.524 9.932,6.727 15.057,13.455 5.126,6.727 11.213,9.61 13.135,13.775 1.922,4.165 7.689,20.183 -13.456,21.144" />
      <path
         inkscape:connector-curvature="0"
         id="path332"
         style="fill:none;stroke:#100f0d;stroke-width:0.48100001;stroke-linecap:butt;stroke-linejoin:miter;stroke-miterlimit:4;stroke-dasharray:none;stroke-opacity:1"
         d="m 119.92,704.186 c -7.606,0.346 -23.706,1.922 -39.083,-9.931 -9.592,-7.393 -11.213,-19.863 -3.524,-31.396 7.688,-11.533 21.143,-10.571 27.871,-7.047 6.728,3.524 9.932,6.727 15.057,13.455 5.126,6.727 11.213,9.61 13.135,13.775 1.922,4.165 7.689,20.183 -13.456,21.144 z" />
      <path
         inkscape:connector-curvature="0"
         id="path334"
         style="fill:#dcdcda;fill-opacity:1;fill-rule:nonzero;stroke:none"
         d="m 164.658,704.186 c 7.607,0.346 23.706,1.922 39.084,-9.931 9.591,-7.393 11.213,-19.863 3.524,-31.396 -7.689,-11.533 -21.144,-10.571 -27.872,-7.047 -6.727,3.524 -9.932,6.727 -15.057,13.455 -5.126,6.727 -11.213,9.61 -13.135,13.775 -1.922,4.165 -7.689,20.183 13.456,21.144" />
      <path
         inkscape:connector-curvature="0"
         id="path336"
         style="fill:none;stroke:#100f0d;stroke-width:0.48100001;stroke-linecap:butt;stroke-linejoin:miter;stroke-miterlimit:4;stroke-dasharray:none;stroke-opacity:1"
         d="m 164.658,704.186 c 7.607,0.346 23.706,1.922 39.084,-9.931 9.591,-7.393 11.213,-19.863 3.524,-31.396 -7.689,-11.533 -21.144,-10.571 -27.872,-7.047 -6.727,3.524 -9.932,6.727 -15.057,13.455 -5.126,6.727 -11.213,9.61 -13.135,13.775 -1.922,4.165 -7.689,20.183 13.456,21.144 z" />
      <path
         inkscape:connector-curvature="0"
         id="path344"
         style="fill:#100f0d;fill-opacity:1;fill-rule:nonzero;stroke:none"
         d="m 168.556,523.452 c 0.381,-0.369 0.592,-0.785 0.634,-1.254 h -0.728 c -0.081,0.356 -0.243,0.637 -0.485,0.845 -0.242,0.207 -0.582,0.312 -1.02,0.312 -0.533,0 -0.963,-0.191 -1.292,-0.574 -0.328,-0.38 -0.492,-0.966 -0.492,-1.755 0,-0.648 0.149,-1.171 0.445,-1.573 0.296,-0.404 0.738,-0.604 1.325,-0.604 0.541,0 0.953,0.212 1.236,0.635 0.15,0.222 0.262,0.515 0.336,0.879 h 0.728 c -0.064,-0.582 -0.277,-1.069 -0.639,-1.46 -0.433,-0.474 -1.016,-0.71 -1.751,-0.71 -0.633,0 -1.166,0.194 -1.596,0.582 -0.566,0.513 -0.85,1.306 -0.85,2.378 0,0.814 0.213,1.481 0.639,2.002 0.459,0.566 1.094,0.849 1.903,0.849 0.69,0 1.226,-0.184 1.607,-0.552" />
      <path
         inkscape:connector-curvature="0"
         id="path346"
         style="fill:#100f0d;fill-opacity:1;fill-rule:nonzero;stroke:none"
         d="m 172.611,519.286 c 0.165,0.339 0.247,0.716 0.247,1.131 0,0.374 -0.059,0.679 -0.178,0.915 -0.188,0.37 -0.512,0.555 -0.973,0.555 -0.408,0 -0.705,-0.158 -0.891,-0.473 -0.185,-0.315 -0.278,-0.695 -0.278,-1.139 0,-0.428 0.093,-0.785 0.278,-1.07 0.186,-0.284 0.48,-0.426 0.884,-0.426 0.443,0 0.747,0.169 0.911,0.507 z m 0.42,2.672 c 0.355,-0.344 0.533,-0.852 0.533,-1.522 0,-0.648 -0.157,-1.183 -0.47,-1.606 -0.313,-0.423 -0.799,-0.633 -1.457,-0.633 -0.55,0 -0.986,0.186 -1.309,0.56 -0.323,0.374 -0.484,0.876 -0.484,1.506 0,0.674 0.17,1.213 0.51,1.612 0.341,0.401 0.798,0.601 1.373,0.601 0.514,0 0.949,-0.172 1.304,-0.518" />
      <path
         inkscape:connector-curvature="0"
         id="path348"
         style="fill:#100f0d;fill-opacity:1;fill-rule:nonzero;stroke:none"
         d="m 177.05,522.146 c 0.284,-0.222 0.454,-0.6 0.512,-1.138 h -0.657 c -0.04,0.247 -0.131,0.453 -0.274,0.618 -0.142,0.164 -0.371,0.245 -0.687,0.245 -0.43,0 -0.738,-0.21 -0.924,-0.629 -0.12,-0.273 -0.18,-0.609 -0.18,-1.009 0,-0.403 0.085,-0.742 0.256,-1.016 0.17,-0.275 0.438,-0.412 0.803,-0.412 0.28,0 0.503,0.085 0.666,0.256 0.164,0.171 0.278,0.404 0.34,0.701 h 0.657 c -0.075,-0.533 -0.263,-0.923 -0.563,-1.17 -0.3,-0.246 -0.685,-0.369 -1.152,-0.369 -0.526,0 -0.945,0.192 -1.258,0.576 -0.313,0.383 -0.469,0.864 -0.469,1.44 0,0.706 0.171,1.254 0.514,1.648 0.343,0.394 0.78,0.589 1.31,0.589 0.453,0 0.822,-0.11 1.106,-0.33" />
      <path
         inkscape:connector-curvature="0"
         id="path350"
         style="fill:#100f0d;fill-opacity:1;fill-rule:nonzero;stroke:none"
         d="m 178.238,523.872 h 0.676 v -2.056 c 0.16,0.202 0.304,0.344 0.432,0.427 0.217,0.142 0.489,0.214 0.814,0.214 0.584,0 0.979,-0.203 1.187,-0.611 0.112,-0.224 0.169,-0.532 0.169,-0.929 v -2.578 h -0.695 v 2.533 c 0,0.297 -0.038,0.513 -0.113,0.651 -0.122,0.22 -0.353,0.33 -0.69,0.33 -0.281,0 -0.535,-0.097 -0.763,-0.289 -0.227,-0.194 -0.341,-0.557 -0.341,-1.093 v -2.132 h -0.676 v 5.533" />
      <path
         inkscape:connector-curvature="0"
         id="path352"
         style="fill:#100f0d;fill-opacity:1;fill-rule:nonzero;stroke:none"
         d="m 182.533,523.854 h 0.675 v -5.515 h -0.675 z" />
      <path
         inkscape:connector-curvature="0"
         id="path354"
         style="fill:#100f0d;fill-opacity:1;fill-rule:nonzero;stroke:none"
         d="m 186.948,520.669 c -0.027,0.294 -0.091,0.528 -0.19,0.703 -0.184,0.326 -0.49,0.489 -0.92,0.489 -0.307,0 -0.566,-0.112 -0.774,-0.336 -0.208,-0.226 -0.319,-0.509 -0.331,-0.856 z m -0.242,1.58 c 0.266,-0.134 0.468,-0.306 0.608,-0.52 0.134,-0.203 0.224,-0.439 0.269,-0.709 0.04,-0.187 0.06,-0.481 0.06,-0.886 h -2.925 c 0.012,-0.41 0.108,-0.738 0.286,-0.986 0.18,-0.245 0.456,-0.369 0.831,-0.369 0.35,0 0.63,0.117 0.838,0.35 0.117,0.136 0.2,0.293 0.248,0.472 h 0.665 c -0.017,-0.148 -0.075,-0.313 -0.174,-0.494 -0.1,-0.181 -0.21,-0.329 -0.331,-0.446 -0.204,-0.199 -0.456,-0.335 -0.757,-0.406 -0.161,-0.039 -0.344,-0.058 -0.548,-0.058 -0.497,0 -0.918,0.181 -1.264,0.545 -0.346,0.365 -0.519,0.874 -0.519,1.531 0,0.644 0.174,1.17 0.523,1.573 0.348,0.401 0.803,0.604 1.365,0.604 0.283,0 0.558,-0.067 0.825,-0.201" />
      <path
         inkscape:connector-curvature="0"
         id="path356"
         style="fill:#100f0d;fill-opacity:1;fill-rule:nonzero;stroke:none"
         d="m 189.23,518.948 c 0.143,-0.115 0.312,-0.169 0.507,-0.169 0.238,0 0.468,0.054 0.691,0.165 0.376,0.181 0.563,0.48 0.563,0.895 v 0.543 c -0.082,-0.053 -0.188,-0.097 -0.319,-0.131 -0.129,-0.036 -0.257,-0.06 -0.382,-0.075 l -0.408,-0.054 c -0.245,-0.032 -0.429,-0.083 -0.552,-0.153 -0.209,-0.117 -0.313,-0.305 -0.313,-0.563 0,-0.193 0.071,-0.347 0.213,-0.458 z m 1.423,1.825 c 0.156,0.019 0.26,0.085 0.312,0.194 0.03,0.061 0.045,0.148 0.045,0.26 0,0.231 -0.082,0.399 -0.245,0.503 -0.164,0.103 -0.398,0.157 -0.703,0.157 -0.352,0 -0.602,-0.096 -0.75,-0.286 -0.082,-0.107 -0.136,-0.264 -0.16,-0.473 h -0.631 c 0.013,0.497 0.173,0.843 0.482,1.037 0.308,0.194 0.667,0.292 1.074,0.292 0.473,0 0.856,-0.09 1.151,-0.27 0.292,-0.18 0.439,-0.461 0.439,-0.841 v -2.316 c 0,-0.072 0.015,-0.126 0.043,-0.169 0.029,-0.042 0.09,-0.064 0.182,-0.064 0.03,0 0.064,0.002 0.102,0.006 0.037,0.004 0.077,0.009 0.12,0.017 v -0.5 c -0.105,-0.03 -0.186,-0.048 -0.241,-0.056 -0.055,-0.009 -0.129,-0.011 -0.225,-0.011 -0.233,0 -0.401,0.082 -0.506,0.247 -0.056,0.088 -0.095,0.212 -0.117,0.372 -0.137,-0.18 -0.336,-0.337 -0.593,-0.469 -0.258,-0.132 -0.542,-0.2 -0.852,-0.2 -0.374,0 -0.678,0.115 -0.915,0.34 -0.236,0.227 -0.355,0.509 -0.355,0.848 0,0.374 0.117,0.663 0.35,0.867 0.233,0.206 0.538,0.332 0.916,0.38 l 1.077,0.135" />
      <path
         inkscape:connector-curvature="0"
         id="path358"
         style="fill:#100f0d;fill-opacity:1;fill-rule:nonzero;stroke:none"
         d="m 134.397,570.156 h 1.07 l 1.586,-4.664 1.575,4.664 h 1.063 v -5.516 h -0.714 v 3.255 c 0,0.112 0.003,0.3 0.008,0.558 0.005,0.262 0.007,0.54 0.007,0.839 l -1.574,-4.652 h -0.741 l -1.589,4.652 v -0.17 c 0,-0.134 0.003,-0.34 0.011,-0.617 0.008,-0.276 0.011,-0.48 0.011,-0.61 v -3.255 h -0.713 v 5.516" />
      <path
         inkscape:connector-curvature="0"
         id="path360"
         style="fill:#100f0d;fill-opacity:1;fill-rule:nonzero;stroke:none"
         d="m 140.82,570.156 h 0.88 l 2.751,-4.458 v 4.458 h 0.713 v -5.516 h -0.839 l -2.791,4.451 v -4.451 h -0.714 v 5.516" />
      <path
         inkscape:connector-curvature="0"
         id="path362"
         style="fill:#100f0d;fill-opacity:1;fill-rule:nonzero;stroke:none"
         d="m 150.382,570.156 v -0.658 h -1.858 v -4.858 h -0.754 v 4.858 h -1.859 v 0.658 h 4.471" />
      <path
         inkscape:connector-curvature="0"
         id="path364"
         style="fill:#100f0d;fill-opacity:1;fill-rule:nonzero;stroke:none"
         d="m 153.409,565.279 c 0.462,0 0.792,0.132 0.989,0.397 0.124,0.168 0.186,0.37 0.186,0.608 0,0.401 -0.181,0.674 -0.542,0.819 -0.192,0.078 -0.446,0.116 -0.762,0.116 h -1.497 v -1.94 z m -0.253,2.544 c 0.319,0 0.566,0.044 0.744,0.132 0.278,0.138 0.417,0.386 0.417,0.743 0,0.361 -0.148,0.604 -0.444,0.729 -0.166,0.07 -0.415,0.105 -0.743,0.105 h -1.347 v -1.709 z m -2.105,2.333 h 2.384 c 0.65,0 1.112,-0.194 1.387,-0.579 0.161,-0.228 0.242,-0.49 0.242,-0.789 0,-0.347 -0.099,-0.632 -0.296,-0.856 -0.103,-0.117 -0.25,-0.225 -0.443,-0.323 0.283,-0.107 0.494,-0.229 0.634,-0.364 0.248,-0.24 0.372,-0.572 0.372,-0.995 0,-0.354 -0.113,-0.677 -0.336,-0.964 -0.335,-0.43 -0.868,-0.646 -1.598,-0.646 h -2.346 v 5.516" />
      <path
         inkscape:connector-curvature="0"
         id="path366"
         style="fill:#100f0d;fill-opacity:1;fill-rule:nonzero;stroke:none"
         d="m 67.705,571.995 c 0.017,-0.313 0.089,-0.568 0.214,-0.761 0.238,-0.366 0.659,-0.549 1.262,-0.549 0.27,0 0.516,0.041 0.738,0.121 0.429,0.155 0.643,0.433 0.643,0.833 0,0.3 -0.091,0.514 -0.272,0.642 -0.185,0.125 -0.473,0.234 -0.866,0.327 l -0.724,0.169 c -0.473,0.11 -0.807,0.231 -1.004,0.364 -0.339,0.23 -0.509,0.574 -0.509,1.032 0,0.496 0.167,0.902 0.501,1.22 0.334,0.318 0.806,0.477 1.417,0.477 0.563,0 1.041,-0.139 1.434,-0.419 0.394,-0.279 0.59,-0.725 0.59,-1.338 h -0.702 c -0.036,0.295 -0.112,0.522 -0.23,0.679 -0.218,0.288 -0.589,0.432 -1.112,0.432 -0.423,0 -0.727,-0.092 -0.911,-0.277 -0.185,-0.187 -0.277,-0.401 -0.277,-0.646 0,-0.27 0.108,-0.468 0.327,-0.594 0.143,-0.08 0.467,-0.18 0.971,-0.301 l 0.75,-0.175 c 0.361,-0.085 0.64,-0.201 0.836,-0.349 0.34,-0.258 0.51,-0.633 0.51,-1.123 0,-0.611 -0.217,-1.047 -0.65,-1.311 -0.433,-0.262 -0.937,-0.394 -1.511,-0.394 -0.668,0 -1.192,0.176 -1.57,0.526 -0.379,0.348 -0.564,0.82 -0.556,1.415 h 0.701" />
      <path
         inkscape:connector-curvature="0"
         id="path368"
         style="fill:#100f0d;fill-opacity:1;fill-rule:nonzero;stroke:none"
         d="m 74.685,570.854 c 0.462,0 0.792,0.133 0.989,0.398 0.123,0.167 0.185,0.37 0.185,0.609 0,0.399 -0.18,0.673 -0.542,0.818 -0.191,0.076 -0.445,0.116 -0.761,0.116 h -1.497 v -1.941 z m -0.253,2.546 c 0.319,0 0.567,0.043 0.744,0.131 0.278,0.138 0.417,0.385 0.417,0.744 0,0.36 -0.148,0.602 -0.444,0.728 -0.167,0.07 -0.415,0.105 -0.743,0.105 H 73.059 V 573.4 Z m -2.105,2.331 h 2.384 c 0.65,0 1.112,-0.193 1.387,-0.578 0.161,-0.229 0.242,-0.492 0.242,-0.788 0,-0.348 -0.099,-0.633 -0.296,-0.856 -0.103,-0.118 -0.25,-0.226 -0.443,-0.323 0.282,-0.108 0.494,-0.229 0.634,-0.364 0.248,-0.241 0.372,-0.573 0.372,-0.996 0,-0.355 -0.112,-0.676 -0.336,-0.964 -0.335,-0.431 -0.868,-0.646 -1.598,-0.646 h -2.346 v 5.515" />
      <path
         inkscape:connector-curvature="0"
         id="path370"
         style="fill:#100f0d;fill-opacity:1;fill-rule:nonzero;stroke:none"
         d="m 81.375,575.328 c 0.38,-0.367 0.592,-0.786 0.634,-1.253 h -0.728 c -0.082,0.356 -0.243,0.637 -0.485,0.845 -0.242,0.208 -0.582,0.312 -1.02,0.312 -0.533,0 -0.964,-0.191 -1.292,-0.573 -0.328,-0.382 -0.492,-0.968 -0.492,-1.758 0,-0.646 0.148,-1.169 0.445,-1.571 0.296,-0.403 0.737,-0.603 1.325,-0.603 0.541,0 0.953,0.21 1.236,0.634 0.15,0.222 0.261,0.516 0.335,0.879 h 0.729 c -0.065,-0.581 -0.277,-1.068 -0.639,-1.461 -0.433,-0.473 -1.017,-0.709 -1.752,-0.709 -0.632,0 -1.165,0.194 -1.595,0.581 -0.567,0.514 -0.85,1.307 -0.85,2.379 0,0.814 0.213,1.48 0.638,2.001 0.46,0.567 1.095,0.85 1.904,0.85 0.69,0 1.225,-0.183 1.607,-0.553" />
      <path
         inkscape:connector-curvature="0"
         id="path372"
         style="fill:#100f0d;fill-opacity:1;fill-rule:nonzero;stroke:none"
         d="m 200.481,569.593 -0.849,2.437 -0.882,-2.437 z m -1.238,3.255 h 0.843 l 2.002,-5.515 h -0.819 l -0.576,1.651 h -2.163 l -0.598,-1.651 h -0.766 l 2.077,5.515" />
      <path
         inkscape:connector-curvature="0"
         id="path374"
         style="fill:#100f0d;fill-opacity:1;fill-rule:nonzero;stroke:none"
         d="m 202.632,572.848 1.584,-4.697 1.566,4.697 h 0.837 l -2.012,-5.515 h -0.792 l -2.009,5.515 h 0.826" />
      <path
         inkscape:connector-curvature="0"
         id="path376"
         style="fill:#100f0d;fill-opacity:1;fill-rule:nonzero;stroke:none"
         d="m 211.224,572.446 c 0.381,-0.368 0.592,-0.786 0.634,-1.254 h -0.728 c -0.081,0.356 -0.243,0.636 -0.485,0.844 -0.242,0.209 -0.582,0.312 -1.02,0.312 -0.533,0 -0.963,-0.191 -1.292,-0.572 -0.328,-0.383 -0.492,-0.969 -0.492,-1.757 0,-0.647 0.148,-1.17 0.445,-1.572 0.295,-0.403 0.738,-0.604 1.325,-0.604 0.541,0 0.953,0.212 1.236,0.635 0.15,0.222 0.262,0.515 0.336,0.879 h 0.728 c -0.064,-0.581 -0.277,-1.069 -0.639,-1.461 -0.433,-0.473 -1.016,-0.709 -1.752,-0.709 -0.632,0 -1.165,0.193 -1.595,0.582 -0.566,0.512 -0.85,1.306 -0.85,2.377 0,0.814 0.213,1.482 0.638,2.003 0.46,0.566 1.095,0.848 1.904,0.848 0.69,0 1.226,-0.183 1.607,-0.551" />
      <path
         inkscape:connector-curvature="0"
         id="path378"
         style="fill:#100f0d;fill-opacity:1;fill-rule:nonzero;stroke:none"
         d="m 212.875,572.848 h 0.88 l 2.751,-4.456 v 4.456 h 0.713 v -5.515 h -0.839 l -2.791,4.45 v -4.45 h -0.714 v 5.515" />
      <path
         inkscape:connector-curvature="0"
         id="path380"
         style="fill:#100f0d;fill-opacity:1;fill-rule:nonzero;stroke:none"
         d="m 205.438,563.464 c 0.54,-0.288 0.871,-0.793 0.992,-1.514 h -0.74 c -0.088,0.404 -0.271,0.698 -0.547,0.881 -0.278,0.184 -0.627,0.276 -1.049,0.276 -0.5,0 -0.921,-0.192 -1.263,-0.576 -0.342,-0.381 -0.512,-0.952 -0.512,-1.71 0,-0.656 0.14,-1.191 0.423,-1.602 0.282,-0.412 0.742,-0.617 1.38,-0.617 0.488,0 0.892,0.144 1.212,0.433 0.32,0.288 0.483,0.757 0.491,1.402 h -1.727 v 0.62 h 2.421 v -2.95 h -0.48 l -0.18,0.709 c -0.249,-0.278 -0.469,-0.471 -0.661,-0.578 -0.323,-0.186 -0.733,-0.278 -1.23,-0.278 -0.643,0 -1.195,0.211 -1.658,0.634 -0.505,0.531 -0.757,1.259 -0.757,2.186 0,0.922 0.247,1.657 0.74,2.204 0.469,0.519 1.076,0.78 1.82,0.78 0.511,0 0.952,-0.101 1.325,-0.3" />
      <path
         inkscape:connector-curvature="0"
         id="path382"
         style="fill:#100f0d;fill-opacity:1;fill-rule:nonzero;stroke:none"
         d="m 210.086,558.744 c 0.463,0 0.792,0.133 0.989,0.397 0.124,0.169 0.186,0.372 0.186,0.609 0,0.401 -0.18,0.674 -0.542,0.82 -0.192,0.077 -0.446,0.115 -0.762,0.115 h -1.497 v -1.941 z m -0.253,2.546 c 0.319,0 0.567,0.043 0.745,0.131 0.278,0.138 0.417,0.385 0.417,0.744 0,0.36 -0.148,0.603 -0.444,0.728 -0.167,0.07 -0.415,0.105 -0.743,0.105 h -1.348 v -1.708 z m -2.105,2.331 h 2.385 c 0.65,0 1.112,-0.192 1.387,-0.579 0.161,-0.226 0.242,-0.49 0.242,-0.787 0,-0.349 -0.099,-0.633 -0.297,-0.857 -0.103,-0.117 -0.25,-0.226 -0.443,-0.323 0.283,-0.107 0.495,-0.228 0.635,-0.363 0.247,-0.24 0.371,-0.572 0.371,-0.995 0,-0.355 -0.112,-0.677 -0.336,-0.965 -0.335,-0.43 -0.867,-0.645 -1.597,-0.645 h -2.347 v 5.514" />
      <path
         inkscape:connector-curvature="0"
         id="path384"
         style="fill:#100f0d;fill-opacity:1;fill-rule:nonzero;stroke:none"
         d="m 216.776,563.22 c 0.381,-0.368 0.593,-0.788 0.635,-1.254 h -0.728 c -0.082,0.356 -0.243,0.637 -0.485,0.844 -0.242,0.209 -0.582,0.312 -1.02,0.312 -0.533,0 -0.964,-0.191 -1.292,-0.573 -0.328,-0.382 -0.493,-0.968 -0.493,-1.757 0,-0.646 0.149,-1.17 0.445,-1.573 0.296,-0.401 0.738,-0.603 1.326,-0.603 0.541,0 0.952,0.212 1.235,0.635 0.15,0.223 0.262,0.516 0.336,0.879 h 0.728 c -0.064,-0.581 -0.277,-1.068 -0.638,-1.461 -0.433,-0.472 -1.017,-0.709 -1.752,-0.709 -0.633,0 -1.165,0.194 -1.596,0.582 -0.566,0.514 -0.849,1.307 -0.849,2.377 0,0.815 0.212,1.482 0.638,2.004 0.46,0.566 1.094,0.848 1.903,0.848 0.691,0 1.226,-0.184 1.607,-0.551" />
      <path
         inkscape:connector-curvature="0"
         id="path386"
         style="fill:#100f0d;fill-opacity:1;fill-rule:nonzero;stroke:none"
         d="m 94.252,685.884 c 0.247,0 0.45,0.026 0.609,0.079 0.284,0.097 0.517,0.285 0.698,0.563 0.144,0.223 0.248,0.508 0.312,0.856 0.036,0.208 0.054,0.4 0.054,0.578 0,0.683 -0.132,1.214 -0.398,1.592 -0.266,0.377 -0.693,0.566 -1.283,0.566 h -1.296 v -4.234 z m -2.058,4.876 h 2.204 c 0.749,0 1.329,-0.268 1.741,-0.807 0.368,-0.485 0.552,-1.107 0.552,-1.865 0,-0.586 -0.108,-1.116 -0.326,-1.589 -0.382,-0.835 -1.041,-1.254 -1.974,-1.254 h -2.197 v 5.515" />
      <path
         inkscape:connector-curvature="0"
         id="path388"
         style="fill:#100f0d;fill-opacity:1;fill-rule:nonzero;stroke:none"
         d="m 100.348,687.577 c -0.027,0.293 -0.091,0.527 -0.19,0.702 -0.184,0.325 -0.49,0.488 -0.919,0.488 -0.308,0 -0.567,-0.112 -0.775,-0.336 -0.208,-0.224 -0.319,-0.509 -0.331,-0.854 z m -0.242,1.579 c 0.266,-0.134 0.469,-0.308 0.608,-0.521 0.135,-0.202 0.224,-0.439 0.269,-0.709 0.04,-0.186 0.06,-0.48 0.06,-0.886 h -2.925 c 0.012,-0.409 0.108,-0.738 0.287,-0.985 0.179,-0.247 0.455,-0.37 0.83,-0.37 0.351,0 0.63,0.117 0.838,0.35 0.118,0.136 0.2,0.293 0.249,0.472 h 0.664 c -0.017,-0.148 -0.075,-0.312 -0.174,-0.494 -0.1,-0.181 -0.21,-0.33 -0.331,-0.445 -0.204,-0.2 -0.456,-0.335 -0.757,-0.405 -0.161,-0.04 -0.344,-0.06 -0.547,-0.06 -0.498,0 -0.919,0.182 -1.265,0.546 -0.346,0.364 -0.518,0.874 -0.518,1.53 0,0.646 0.173,1.17 0.522,1.573 0.348,0.403 0.803,0.604 1.365,0.604 0.284,0 0.559,-0.067 0.825,-0.2" />
      <path
         inkscape:connector-curvature="0"
         id="path390"
         style="fill:#100f0d;fill-opacity:1;fill-rule:nonzero;stroke:none"
         d="m 104.035,689.266 h 0.642 v -0.57 c 0.19,0.235 0.391,0.404 0.604,0.506 0.213,0.103 0.449,0.154 0.71,0.154 0.57,0 0.955,-0.198 1.156,-0.596 0.11,-0.218 0.165,-0.53 0.165,-0.935 v -2.58 h -0.687 v 2.535 c 0,0.245 -0.036,0.442 -0.109,0.593 -0.12,0.25 -0.338,0.375 -0.653,0.375 -0.16,0 -0.292,-0.016 -0.394,-0.048 -0.186,-0.056 -0.348,-0.166 -0.488,-0.331 -0.113,-0.133 -0.186,-0.27 -0.22,-0.411 -0.034,-0.141 -0.05,-0.343 -0.05,-0.607 v -2.106 h -0.676 v 4.021" />
      <path
         inkscape:connector-curvature="0"
         id="path392"
         style="fill:#100f0d;fill-opacity:1;fill-rule:nonzero;stroke:none"
         d="m 110.804,686.193 c 0.165,0.338 0.247,0.715 0.247,1.131 0,0.375 -0.059,0.68 -0.178,0.914 -0.188,0.37 -0.512,0.555 -0.973,0.555 -0.408,0 -0.705,-0.158 -0.891,-0.472 -0.185,-0.315 -0.278,-0.695 -0.278,-1.14 0,-0.428 0.093,-0.784 0.278,-1.069 0.186,-0.285 0.48,-0.427 0.884,-0.427 0.443,0 0.747,0.169 0.911,0.508 z m 0.42,2.672 c 0.355,-0.345 0.533,-0.853 0.533,-1.523 0,-0.647 -0.157,-1.183 -0.47,-1.605 -0.313,-0.423 -0.799,-0.634 -1.457,-0.634 -0.549,0 -0.986,0.187 -1.308,0.561 -0.324,0.374 -0.485,0.875 -0.485,1.506 0,0.675 0.17,1.212 0.51,1.613 0.341,0.4 0.798,0.6 1.373,0.6 0.514,0 0.949,-0.173 1.304,-0.518" />
      <path
         inkscape:connector-curvature="0"
         id="path394"
         style="fill:#100f0d;fill-opacity:1;fill-rule:nonzero;stroke:none"
         d="m 112.919,689.266 1.074,-3.274 1.118,3.274 h 0.74 l -1.514,-4.021 h -0.72 l -1.483,4.021 h 0.785" />
      <path
         inkscape:connector-curvature="0"
         id="path396"
         style="fill:#100f0d;fill-opacity:1;fill-rule:nonzero;stroke:none"
         d="m 118.925,686.193 c 0.164,0.338 0.247,0.715 0.247,1.131 0,0.375 -0.06,0.68 -0.179,0.914 -0.188,0.37 -0.511,0.555 -0.972,0.555 -0.409,0 -0.705,-0.158 -0.891,-0.472 -0.186,-0.315 -0.278,-0.695 -0.278,-1.14 0,-0.428 0.092,-0.784 0.278,-1.069 0.186,-0.285 0.48,-0.427 0.884,-0.427 0.443,0 0.746,0.169 0.911,0.508 z m 0.419,2.672 c 0.356,-0.345 0.534,-0.853 0.534,-1.523 0,-0.647 -0.157,-1.183 -0.47,-1.605 -0.313,-0.423 -0.8,-0.634 -1.458,-0.634 -0.549,0 -0.985,0.187 -1.308,0.561 -0.324,0.374 -0.485,0.875 -0.485,1.506 0,0.675 0.17,1.212 0.511,1.613 0.34,0.4 0.797,0.6 1.372,0.6 0.514,0 0.949,-0.173 1.304,-0.518" />
      <path
         inkscape:connector-curvature="0"
         id="path398"
         style="fill:#100f0d;fill-opacity:1;fill-rule:nonzero;stroke:none"
         d="m 92.329,681.534 h 0.755 v -5.515 h -0.755 z" />
      <path
         inkscape:connector-curvature="0"
         id="path400"
         style="fill:#100f0d;fill-opacity:1;fill-rule:nonzero;stroke:none"
         d="m 94.367,681.534 h 4.003 v -0.676 h -3.274 v -1.674 h 3.026 v -0.638 h -3.026 v -1.87 h 3.33 v -0.657 h -4.059 v 5.515" />
      <path
         inkscape:connector-curvature="0"
         id="path402"
         style="fill:#100f0d;fill-opacity:1;fill-rule:nonzero;stroke:none"
         d="m 94.572,644.076 c 0.247,0 0.45,0.027 0.61,0.08 0.283,0.097 0.516,0.285 0.697,0.563 0.144,0.222 0.249,0.508 0.312,0.856 0.037,0.208 0.055,0.4 0.055,0.578 0,0.683 -0.133,1.214 -0.398,1.591 -0.266,0.378 -0.694,0.567 -1.283,0.567 h -1.296 v -4.235 z m -2.058,4.877 h 2.204 c 0.749,0 1.329,-0.269 1.742,-0.807 0.368,-0.486 0.552,-1.107 0.552,-1.866 0,-0.585 -0.109,-1.115 -0.326,-1.588 -0.383,-0.836 -1.041,-1.254 -1.974,-1.254 h -2.198 v 5.515" />
      <path
         inkscape:connector-curvature="0"
         id="path404"
         style="fill:#100f0d;fill-opacity:1;fill-rule:nonzero;stroke:none"
         d="m 98.033,648.953 h 0.88 l 2.75,-4.456 v 4.456 h 0.714 v -5.515 h -0.839 l -2.792,4.451 v -4.451 h -0.713 v 5.515" />
      <path
         inkscape:connector-curvature="0"
         id="path406"
         style="fill:#100f0d;fill-opacity:1;fill-rule:nonzero;stroke:none"
         d="m 103.586,648.953 h 0.747 v -4.857 h 2.767 v -0.658 h -3.514 v 5.515" />
      <path
         inkscape:connector-curvature="0"
         id="path408"
         style="fill:#100f0d;fill-opacity:1;fill-rule:nonzero;stroke:none"
         d="m 107.861,648.953 h 0.748 v -4.857 h 2.767 v -0.658 h -3.515 v 5.515" />
      <path
         inkscape:connector-curvature="0"
         id="path410"
         style="fill:#100f0d;fill-opacity:1;fill-rule:nonzero;stroke:none"
         d="m 183.297,688.119 h 0.754 v -5.515 h -0.754 z" />
      <path
         inkscape:connector-curvature="0"
         id="path412"
         style="fill:#100f0d;fill-opacity:1;fill-rule:nonzero;stroke:none"
         d="m 189.164,687.718 c 0.382,-0.368 0.593,-0.787 0.635,-1.254 h -0.728 c -0.081,0.355 -0.243,0.636 -0.485,0.844 -0.242,0.208 -0.582,0.312 -1.02,0.312 -0.533,0 -0.964,-0.191 -1.292,-0.573 -0.328,-0.382 -0.492,-0.968 -0.492,-1.756 0,-0.647 0.149,-1.171 0.445,-1.573 0.296,-0.402 0.738,-0.603 1.325,-0.603 0.541,0 0.953,0.211 1.236,0.634 0.149,0.223 0.262,0.516 0.335,0.879 h 0.729 c -0.064,-0.58 -0.277,-1.068 -0.639,-1.46 -0.433,-0.473 -1.016,-0.71 -1.751,-0.71 -0.633,0 -1.166,0.194 -1.596,0.582 -0.566,0.514 -0.85,1.306 -0.85,2.378 0,0.814 0.213,1.482 0.639,2.003 0.459,0.566 1.094,0.848 1.903,0.848 0.69,0 1.226,-0.183 1.606,-0.551" />
      <path
         inkscape:connector-curvature="0"
         id="path414"
         style="fill:#100f0d;fill-opacity:1;fill-rule:nonzero;stroke:none"
         d="m 88.052,596.565 h 0.747 v -4.858 h 2.767 v -0.658 h -3.514 v 5.516" />
      <path
         inkscape:connector-curvature="0"
         id="path416"
         style="fill:#100f0d;fill-opacity:1;fill-rule:nonzero;stroke:none"
         d="m 92.816,592.83 c 0.017,-0.313 0.088,-0.567 0.213,-0.762 0.239,-0.366 0.66,-0.549 1.263,-0.549 0.269,0 0.515,0.04 0.737,0.12 0.43,0.156 0.644,0.434 0.644,0.834 0,0.3 -0.091,0.515 -0.273,0.642 -0.184,0.125 -0.473,0.234 -0.865,0.327 l -0.724,0.169 c -0.473,0.11 -0.808,0.231 -1.004,0.363 -0.339,0.231 -0.509,0.575 -0.509,1.033 0,0.496 0.166,0.902 0.501,1.22 0.333,0.318 0.806,0.476 1.417,0.476 0.562,0 1.041,-0.138 1.434,-0.418 0.393,-0.28 0.59,-0.725 0.59,-1.338 h -0.702 c -0.036,0.295 -0.113,0.522 -0.231,0.68 -0.218,0.287 -0.589,0.43 -1.112,0.43 -0.422,0 -0.726,-0.091 -0.91,-0.276 -0.185,-0.186 -0.278,-0.401 -0.278,-0.646 0,-0.27 0.11,-0.468 0.328,-0.593 0.143,-0.081 0.466,-0.18 0.971,-0.301 l 0.749,-0.176 c 0.362,-0.086 0.64,-0.201 0.837,-0.349 0.34,-0.258 0.509,-0.633 0.509,-1.123 0,-0.61 -0.216,-1.047 -0.649,-1.31 -0.434,-0.263 -0.937,-0.394 -1.511,-0.394 -0.669,0 -1.192,0.175 -1.571,0.525 -0.378,0.348 -0.563,0.82 -0.556,1.416 h 0.702" />
      <path
         inkscape:connector-curvature="0"
         id="path418"
         style="fill:#100f0d;fill-opacity:1;fill-rule:nonzero;stroke:none"
         d="m 101.34,592.26 c 0.294,0.474 0.441,1.016 0.441,1.63 0,0.649 -0.169,1.172 -0.508,1.567 -0.34,0.396 -0.804,0.594 -1.392,0.594 -0.57,0 -1.036,-0.197 -1.396,-0.588 -0.36,-0.392 -0.541,-0.97 -0.541,-1.734 0,-0.612 0.155,-1.127 0.464,-1.547 0.309,-0.419 0.81,-0.629 1.504,-0.629 0.658,0 1.134,0.236 1.428,0.707 z m 0.659,3.516 c 0.365,-0.487 0.548,-1.112 0.548,-1.872 0,-0.824 -0.209,-1.508 -0.627,-2.054 -0.49,-0.642 -1.19,-0.961 -2.099,-0.961 -0.848,0 -1.515,0.28 -2.001,0.84 -0.433,0.541 -0.649,1.224 -0.649,2.051 0,0.745 0.186,1.383 0.556,1.914 0.475,0.681 1.178,1.022 2.11,1.022 0.973,0 1.694,-0.313 2.162,-0.94" />
      <path
         inkscape:connector-curvature="0"
         id="path1050"
         style="fill:#f8a02e;fill-opacity:1;fill-rule:nonzero;stroke:none"
         d="m 187.602,662.304 c 0,-2.701 -2.188,-4.89 -4.89,-4.89 -2.7,0 -4.89,2.189 -4.89,4.89 0,2.7 2.19,4.89 4.89,4.89 2.702,0 4.89,-2.19 4.89,-4.89" />
      <path
         inkscape:connector-curvature="0"
         id="path1052"
         style="fill:#ffffff;fill-opacity:1;fill-rule:nonzero;stroke:none"
         d="m 180.663,661.432 v 0.98 h 1.54 v 1.539 h 0.987 v -1.539 h 1.539 v -0.98 h -1.539 v -1.547 h -0.987 v 1.547 h -1.54" />
      <path
         inkscape:connector-curvature="0"
         id="path1054"
         style="fill:#ee223f;fill-opacity:1;fill-rule:nonzero;stroke:none"
         d="m 113.598,678.402 c 0,-2.7 -2.189,-4.89 -4.89,-4.89 -2.7,0 -4.89,2.19 -4.89,4.89 0,2.7 2.19,4.89 4.89,4.89 2.701,0 4.89,-2.19 4.89,-4.89" />
      <path
         inkscape:connector-curvature="0"
         id="path1056"
         style="fill:#ffffff;fill-opacity:1;fill-rule:nonzero;stroke:none"
         d="m 106.659,677.53 v 0.98 h 1.54 v 1.539 h 0.987 v -1.539 h 1.539 v -0.98 h -1.539 v -1.547 h -0.987 v 1.547 h -1.54" />
      <path
         inkscape:connector-curvature="0"
         id="path1058"
         style="fill:#ee223f;fill-opacity:1;fill-rule:nonzero;stroke:none"
         d="m 102.065,577.848 c 0,-2.699 -2.188,-4.89 -4.89,-4.89 -2.7,0 -4.89,2.191 -4.89,4.89 0,2.701 2.19,4.891 4.89,4.891 2.702,0 4.89,-2.19 4.89,-4.891" />
      <path
         inkscape:connector-curvature="0"
         id="path1060"
         style="fill:#ffffff;fill-opacity:1;fill-rule:nonzero;stroke:none"
         d="m 95.127,576.977 v 0.98 h 1.539 v 1.538 h 0.987 v -1.538 h 1.539 v -0.98 h -1.539 v -1.546 h -0.987 v 1.546 h -1.539" />
      <path
         inkscape:connector-curvature="0"
         id="path1062"
         style="fill:#ee223f;fill-opacity:1;fill-rule:nonzero;stroke:none"
         d="m 144.713,558.385 c 0,-2.698 -2.189,-4.889 -4.89,-4.889 -2.7,0 -4.889,2.191 -4.889,4.889 0,2.702 2.189,4.891 4.889,4.891 2.701,0 4.89,-2.189 4.89,-4.891" />
      <path
         inkscape:connector-curvature="0"
         id="path1064"
         style="fill:#ffffff;fill-opacity:1;fill-rule:nonzero;stroke:none"
         d="m 137.774,557.515 v 0.98 h 1.54 v 1.539 h 0.987 v -1.539 h 1.539 v -0.98 h -1.539 v -1.547 h -0.987 v 1.547 h -1.54" />
      <path
         inkscape:connector-curvature="0"
         id="path1066"
         style="fill:#f8a02e;fill-opacity:1;fill-rule:nonzero;stroke:none"
         d="m 173.907,630.828 c 0,-2.7 -2.189,-4.89 -4.89,-4.89 -2.701,0 -4.89,2.19 -4.89,4.89 0,2.701 2.189,4.89 4.89,4.89 2.701,0 4.89,-2.189 4.89,-4.89" />
      <path
         inkscape:connector-curvature="0"
         id="path1068"
         style="fill:#ffffff;fill-opacity:1;fill-rule:nonzero;stroke:none"
         d="m 166.968,629.956 v 0.98 h 1.539 v 1.539 h 0.988 v -1.539 h 1.539 v -0.98 h -1.539 v -1.547 h -0.988 v 1.547 h -1.539" />
      <path
         inkscape:connector-curvature="0"
         id="path1070"
         style="fill:#f8a02e;fill-opacity:1;fill-rule:nonzero;stroke:none"
         d="m 105.429,629.387 c 0,-2.701 -2.189,-4.89 -4.89,-4.89 -2.7,0 -4.89,2.189 -4.89,4.89 0,2.7 2.19,4.89 4.89,4.89 2.701,0 4.89,-2.19 4.89,-4.89" />
      <path
         inkscape:connector-curvature="0"
         id="path1072"
         style="fill:#ffffff;fill-opacity:1;fill-rule:nonzero;stroke:none"
         d="m 98.304,629.528 h 4.321 v -0.818 h -4.321 z" />
      <path
         inkscape:connector-curvature="0"
         id="path1074"
         style="fill:#186eb7;fill-opacity:1;fill-rule:nonzero;stroke:none"
         d="m 180.554,675.438 c 0,-2.7 -2.189,-4.889 -4.89,-4.889 -2.7,0 -4.89,2.189 -4.89,4.889 0,2.7 2.19,4.89 4.89,4.89 2.701,0 4.89,-2.19 4.89,-4.89" />
      <path
         inkscape:connector-curvature="0"
         id="path1076"
         style="fill:#ffffff;fill-opacity:1;fill-rule:nonzero;stroke:none"
         d="m 173.429,675.58 h 4.321 v -0.819 h -4.321 z" />
      <path
         inkscape:connector-curvature="0"
         id="path1078"
         style="fill:#186eb7;fill-opacity:1;fill-rule:nonzero;stroke:none"
         d="m 123.128,633.631 c 0,-2.7 -2.188,-4.889 -4.889,-4.889 -2.7,0 -4.89,2.189 -4.89,4.889 0,2.7 2.19,4.89 4.89,4.89 2.701,0 4.889,-2.19 4.889,-4.89" />
      <path
         inkscape:connector-curvature="0"
         id="path1080"
         style="fill:#ffffff;fill-opacity:1;fill-rule:nonzero;stroke:none"
         d="m 116.004,633.773 h 4.321 v -0.819 h -4.321 z" />
      <path
         inkscape:connector-curvature="0"
         id="path1082"
         style="fill:#186eb7;fill-opacity:1;fill-rule:nonzero;stroke:none"
         d="m 125.703,566.591 c 0,-2.7 -2.189,-4.89 -4.89,-4.89 -2.701,0 -4.89,2.19 -4.89,4.89 0,2.701 2.189,4.89 4.89,4.89 2.701,0 4.89,-2.189 4.89,-4.89" />
      <path
         inkscape:connector-curvature="0"
         id="path1084"
         style="fill:#ffffff;fill-opacity:1;fill-rule:nonzero;stroke:none"
         d="m 118.578,566.734 h 4.321 v -0.819 h -4.321 z" />
      <path
         inkscape:connector-curvature="0"
         id="path1086"
         style="fill:#186eb7;fill-opacity:1;fill-rule:nonzero;stroke:none"
         d="m 101.264,665.107 c 0,-2.701 -2.189,-4.89 -4.89,-4.89 -2.7,0 -4.89,2.189 -4.89,4.89 0,2.7 2.19,4.89 4.89,4.89 2.701,0 4.89,-2.19 4.89,-4.89" />
      <path
         inkscape:connector-curvature="0"
         id="path1088"
         style="fill:#ffffff;fill-opacity:1;fill-rule:nonzero;stroke:none"
         d="M 94.139,665.248 H 98.46 V 664.43 H 94.139 Z" />
      <path
         inkscape:connector-curvature="0"
         id="path1090"
         style="fill:#dcdcda;fill-opacity:1;fill-rule:nonzero;stroke:none"
         d="m 183.753,558.903 c 1.119,1.866 6.007,0 3.364,-3.365 -2.643,-3.363 -3.124,-4.564 -6.728,-4.564 -3.604,0 -4.565,0.721 -2.162,2.883 2.402,2.162 4.805,3.844 5.526,5.046" />
      <path
         inkscape:connector-curvature="0"
         id="path1092"
         style="fill:none;stroke:#100f0d;stroke-width:0.48100001;stroke-linecap:butt;stroke-linejoin:miter;stroke-miterlimit:4;stroke-dasharray:none;stroke-opacity:1"
         d="m 183.753,558.903 c 1.119,1.866 6.007,0 3.364,-3.365 -2.643,-3.363 -3.124,-4.564 -6.728,-4.564 -3.604,0 -4.565,0.721 -2.162,2.883 2.402,2.162 4.805,3.844 5.526,5.046 z" />
      <path
         inkscape:connector-curvature="0"
         id="path1202"
         style="fill:#186eb7;fill-opacity:1;fill-rule:nonzero;stroke:none"
         d="m 180.638,641.563 c 0,-1.155 -0.937,-2.09 -2.091,-2.09 -1.153,0 -2.089,0.935 -2.089,2.09 0,1.154 0.936,2.089 2.089,2.089 1.154,0 2.091,-0.935 2.091,-2.089" />
      <path
         inkscape:connector-curvature="0"
         id="path1204"
         style="fill:#ee223f;fill-opacity:1;fill-rule:nonzero;stroke:none"
         d="m 214.916,577.01 c 0,-1.153 -0.937,-2.089 -2.09,-2.089 -1.154,0 -2.089,0.936 -2.089,2.089 0,1.155 0.935,2.09 2.089,2.09 1.153,0 2.09,-0.935 2.09,-2.09" />
      <path
         inkscape:connector-curvature="0"
         id="path1206"
         style="fill:#ee223f;fill-opacity:1;fill-rule:nonzero;stroke:none"
         d="m 200.179,560.825 c 0,-1.155 -0.936,-2.091 -2.09,-2.091 -1.154,0 -2.089,0.936 -2.089,2.091 0,1.153 0.935,2.089 2.089,2.089 1.154,0 2.09,-0.936 2.09,-2.089" />
      <path
         inkscape:connector-curvature="0"
         id="path1208"
         style="fill:#ee223f;fill-opacity:1;fill-rule:nonzero;stroke:none"
         d="m 83.567,566.591 c 0,-1.154 -0.936,-2.09 -2.09,-2.09 -1.153,0 -2.089,0.936 -2.089,2.09 0,1.154 0.936,2.09 2.089,2.09 1.154,0 2.09,-0.936 2.09,-2.09" />
      <path
         inkscape:connector-curvature="0"
         id="path1210"
         style="fill:#186eb7;fill-opacity:1;fill-rule:nonzero;stroke:none"
         d="m 133.304,551.815 c 0,-1.155 -0.937,-2.091 -2.091,-2.091 -1.153,0 -2.089,0.936 -2.089,2.091 0,1.153 0.936,2.089 2.089,2.089 1.154,0 2.091,-0.936 2.091,-2.089" />
      <path
         inkscape:connector-curvature="0"
         id="path1212"
         style="fill:none;stroke:#ee223f;stroke-width:0.96100003;stroke-linecap:butt;stroke-linejoin:miter;stroke-miterlimit:4;stroke-dasharray:none;stroke-opacity:1"
         d="m 107.106,670.388 c 0,0 31.956,-3.844 45.651,-36.281 8.72,-20.65 19.463,-53.821 59.348,-57.185 m -14.897,-15.616 c -2.643,0 -9.37,0 -13.455,-2.403 -4.085,-2.404 -8.65,-11.292 -24.749,-9.372 -16.098,1.923 -24.026,2.164 -24.026,2.164 m -29.954,25.148 c 0,0 -3.524,-4.965 -6.728,-5.766 -3.204,-0.802 -13.295,1.121 -16.499,-4.806 m 22.666,3.564 c 0,0 -3.256,1.207 -6.86,1.087" />
      <path
         inkscape:connector-curvature="0"
         id="path1214"
         style="fill:none;stroke:#186eb7;stroke-width:0.96100003;stroke-linecap:butt;stroke-linejoin:miter;stroke-miterlimit:4;stroke-dasharray:none;stroke-opacity:1"
         d="m 106.626,566.591 c 0,0 7.208,-2.162 12.494,-7.448 5.286,-5.286 10.331,-7.57 12.854,-7.689 m -27.11,116.211 c 0,0 6.567,-26.11 26.109,-26.11 m 40.847,26.11 c 0,0 -6.567,-26.11 -26.109,-26.11 m -35.401,0.009 h 67.917" />
      <path
         inkscape:connector-curvature="0"
         id="path1216"
         style="fill:none;stroke:#f8a02e;stroke-width:0.96100003;stroke-linecap:butt;stroke-linejoin:miter;stroke-miterlimit:4;stroke-dasharray:none;stroke-opacity:1"
         d="m 105.344,640.274 c 0,0 10.892,-18.581 12.334,-34.92 1.442,-16.338 -4.806,-33.156 -12.334,-37.322 0,0 21.625,4.485 28.032,16.499 6.407,12.014 13.39,51.954 38.699,55.638 m 1.667,25.254 c 0,0 4.035,-14.586 -10.862,-28.522" />
      <path
         inkscape:connector-curvature="0"
         id="path1218"
         style="fill:#f8a02e;fill-opacity:1;fill-rule:nonzero;stroke:none"
         d="m 173.252,640.253 c 0,-0.52 -0.421,-0.94 -0.941,-0.94 -0.519,0 -0.94,0.42 -0.94,0.94 0,0.519 0.421,0.94 0.94,0.94 0.52,0 0.941,-0.421 0.941,-0.94" />
      <path
         inkscape:connector-curvature="0"
         id="path1220"
         style="fill:#f8a02e;fill-opacity:1;fill-rule:nonzero;stroke:none"
         d="m 174.753,665.065 c 0,-0.519 -0.422,-0.941 -0.941,-0.941 -0.518,0 -0.939,0.422 -0.939,0.941 0,0.519 0.421,0.94 0.939,0.94 0.519,0 0.941,-0.421 0.941,-0.94" />
      <path
         inkscape:connector-curvature="0"
         id="path1222"
         style="fill:#186eb7;fill-opacity:1;fill-rule:nonzero;stroke:none"
         d="m 172.907,668.116 c 0,-0.519 -0.422,-0.94 -0.941,-0.94 -0.519,0 -0.94,0.421 -0.94,0.94 0,0.519 0.421,0.94 0.94,0.94 0.519,0 0.941,-0.421 0.941,-0.94" />
      <path
         inkscape:connector-curvature="0"
         id="path1224"
         style="fill:#ee223f;fill-opacity:1;fill-rule:nonzero;stroke:none"
         d="m 108.566,670.508 c 0,-0.52 -0.422,-0.941 -0.941,-0.941 -0.519,0 -0.94,0.421 -0.94,0.941 0,0.519 0.421,0.94 0.94,0.94 0.519,0 0.941,-0.421 0.941,-0.94" />
      <path
         inkscape:connector-curvature="0"
         id="path1226"
         style="fill:#ee223f;fill-opacity:1;fill-rule:nonzero;stroke:none"
         d="m 106.316,577.257 c 0,-0.52 -0.422,-0.941 -0.941,-0.941 -0.519,0 -0.94,0.421 -0.94,0.941 0,0.519 0.421,0.94 0.94,0.94 0.519,0 0.941,-0.421 0.941,-0.94" />
      <path
         inkscape:connector-curvature="0"
         id="path1228"
         style="fill:#ee223f;fill-opacity:1;fill-rule:nonzero;stroke:none"
         d="m 105.363,570.014 c 0,-0.521 -0.422,-0.941 -0.941,-0.941 -0.519,0 -0.94,0.42 -0.94,0.941 0,0.517 0.421,0.94 0.94,0.94 0.519,0 0.941,-0.423 0.941,-0.94" />
      <path
         inkscape:connector-curvature="0"
         id="path1230"
         style="fill:#186eb7;fill-opacity:1;fill-rule:nonzero;stroke:none"
         d="m 107.938,566.572 c 0,-0.521 -0.422,-0.942 -0.941,-0.942 -0.519,0 -0.94,0.421 -0.94,0.942 0,0.518 0.421,0.938 0.94,0.938 0.519,0 0.941,-0.42 0.941,-0.938" />
      <path
         inkscape:connector-curvature="0"
         id="path1232"
         style="fill:#186eb7;fill-opacity:1;fill-rule:nonzero;stroke:none"
         d="m 105.869,667.385 c 0,-0.52 -0.421,-0.941 -0.94,-0.941 -0.519,0 -0.941,0.421 -0.941,0.941 0,0.519 0.422,0.94 0.941,0.94 0.519,0 0.94,-0.421 0.94,-0.94" />
      <path
         inkscape:connector-curvature="0"
         id="path1234"
         style="fill:#186eb7;fill-opacity:1;fill-rule:nonzero;stroke:none"
         d="m 110.901,641.635 c 0,-0.519 -0.421,-0.94 -0.94,-0.94 -0.52,0 -0.941,0.421 -0.941,0.94 0,0.519 0.421,0.941 0.941,0.941 0.519,0 0.94,-0.422 0.94,-0.941" />
      <path
         inkscape:connector-curvature="0"
         id="path1236"
         style="fill:#f8a02e;fill-opacity:1;fill-rule:nonzero;stroke:none"
         d="m 106.337,640.174 c 0,-0.519 -0.422,-0.941 -0.941,-0.941 -0.519,0 -0.94,0.422 -0.94,0.941 0,0.519 0.421,0.94 0.94,0.94 0.519,0 0.941,-0.421 0.941,-0.94" />
      <path
         inkscape:connector-curvature="0"
         id="path1238"
         style="fill:none;stroke:#f8a02e;stroke-width:0.96100003;stroke-linecap:butt;stroke-linejoin:miter;stroke-miterlimit:4;stroke-dasharray:none;stroke-opacity:1"
         d="m 105.905,568.513 c 0,0 -2.163,-4.324 0.48,-7.928 m -0.803,7.832 c 0,0 -1.239,-5.91 -5.804,-4.949 m 5.558,4.417 c 0,0 2.967,3.819 1.081,7.87 m -0.746,-7.838 c 0,0 1.326,4.681 4.33,5.041" />
      <path
         inkscape:connector-curvature="0"
         id="path1240"
         style="fill:none;stroke:#ee223f;stroke-width:1.44200003;stroke-linecap:butt;stroke-linejoin:miter;stroke-miterlimit:4;stroke-dasharray:none;stroke-opacity:1"
         d="m 132.186,555.047 c 1.724,0.065 3.174,-1.28 3.238,-3.005 0.064,-1.724 -1.28,-3.173 -3.004,-3.237" />
      <g
         id="g1294">
        <g
           clip-path="url(#clipPath1300)"
           id="g1296">
          <g
             id="g1302">
            <g
               clip-path="url(#clipPath1308)"
               id="g1304">
              <g
                 id="g1310">
                <path
                   inkscape:connector-curvature="0"
                   id="path1318"
                   style="fill:url(#linearGradient1316);stroke:none"
                   d="m 77.32,534.325 -14.497,-9.573 c 0,0 10.667,-16.001 18.872,-16.821 8.206,-0.82 17.369,16.138 14.224,20.103 -3.145,3.965 -18.599,6.291 -18.599,6.291" />
              </g>
            </g>
          </g>
        </g>
      </g>
      <g
         id="g1320">
        <g
           clip-path="url(#clipPath1326)"
           id="g1322">
          <path
             inkscape:connector-curvature="0"
             id="path1328"
             style="fill:none;stroke:#bf7f51;stroke-width:0.48100001;stroke-linecap:butt;stroke-linejoin:miter;stroke-miterlimit:4;stroke-dasharray:none;stroke-opacity:1"
             d="m 65.85,527.581 c 0.294,0 1.029,0.209 1.176,0.44" />
          <path
             inkscape:connector-curvature="0"
             id="path1330"
             style="fill:none;stroke:#bf7f51;stroke-width:0.48100001;stroke-linecap:round;stroke-linejoin:miter;stroke-miterlimit:4;stroke-dasharray:none;stroke-opacity:1"
             d="m 65.283,531.486 c 1.302,-0.317 2.352,0.398 2.73,0.943 m -4.872,2.519 c 0.169,0.085 0.715,0.359 1.176,0.652 0.289,0.184 1.491,0.483 2.394,0.315" />
          <path
             inkscape:connector-curvature="0"
             id="path1332"
             style="fill:none;stroke:#bf7f51;stroke-width:0.48100001;stroke-linecap:butt;stroke-linejoin:miter;stroke-miterlimit:4;stroke-dasharray:none;stroke-opacity:1"
             d="m 59.236,535.895 c 0,0 -0.724,0.031 -0.976,-0.157 0,0 0.315,-0.504 0.976,-0.79 z m 6.047,-4.409 c -0.693,0.188 -1.449,0.566 -1.826,0.755 -0.378,0.188 -1.795,0.346 -1.795,0.346 0,0 0.283,-0.818 0.755,-1.196 0.278,-0.223 0.598,-0.472 0.914,-0.347 0.314,0.125 1.045,0.463 1.359,0.401 0.314,-0.063 0.593,0.041 0.593,0.041 z m -2.142,3.462 c 0,0 -1.133,0.568 -1.889,0.696 0,0 -0.063,-0.789 0,-1.166 0,0 1.071,-0.032 1.889,0.47 z m 2.332,6.364 c 0,0 -3.15,-0.505 -4.032,-3.843 0,0 0.976,-0.157 1.417,0.095 0.441,0.252 1.102,0.597 1.984,0.472 0,0 0.063,1.702 0.315,2.204 0.252,0.504 0.316,1.072 0.316,1.072 z m 4.093,-2.834 c 0,0 0.945,-0.065 1.134,0.187 0.189,0.254 0.567,0.947 0.252,1.575 -0.316,0.63 -1.511,1.324 -2.898,1.324 0,0 1.701,-1.701 1.512,-3.086 z m 1.197,6.361 c -1.575,0.756 -2.519,-1.26 -2.519,-1.26 3.065,-0.42 4.24,-2.015 4.24,-2.015 0,0 -0.147,2.519 -1.721,3.275 z m 6.991,-15.685 c 0,0 -0.314,2.142 -1.511,4.033 -1.197,1.889 -2.393,4.03 -2.205,5.165 0.189,1.134 0.882,5.772 -1.511,7.809 -2.062,1.752 -4.661,1.198 -6.426,-2.645 0,0 -3.034,-0.278 -5.29,-3.15 -0.693,-0.88 -1.26,-2.677 -1.26,-2.677 0,0 -3.527,0.472 -3.779,-1.607 -0.252,-2.077 3.37,-3.087 3.685,-3.212 0,0 0.672,-1.666 1.984,-3.086 0,0 1.083,-0.967 1.386,-1.258 0.802,-0.774 1.637,-0.945 2.33,-0.945 0.693,0 0.693,0 0.693,0 0,0 0.693,-1.575 2.016,-2.016 0,0 0.062,-0.568 -0.253,-0.946 -0.315,-0.378 -1.007,-1.07 -0.692,-1.575 0.314,-0.503 0.629,-0.755 0.819,-0.44 0.188,0.315 0.567,0.757 0.944,0.757 0.379,0 1.071,-0.19 1.26,-0.504 0.189,-0.316 0.441,-0.819 0.189,-0.946 -0.252,-0.126 -0.63,-0.504 -0.63,-0.755 0,-0.251 -0.062,-0.882 0.252,-1.073 0.314,-0.187 0.441,-0.187 0.693,-0.061 0.252,0.126 1.008,0.504 1.197,0.315 0.189,-0.189 1.574,-1.764 3.15,-2.646 1.574,-0.881 9.447,-5.354 14.109,-0.379 0.685,0.732 1.011,1.051 1.49,2.339 1.303,3.484 -0.103,6.682 -0.782,7.652 -0.847,1.211 -2.132,3.054 -5.137,3.878 -3.005,0.824 -6.058,-1.405 -6.939,-2.164 -0.27,-0.233 -2.91,-3.031 -1.944,-7.064 1.387,-5.785 8.053,-6.177 10.582,-3.779 2.435,2.31 1.446,6.233 -0.504,7.894 -1.428,1.218 -5.669,2.267 -7.097,-0.671 -1.47,-3.027 1.06,-6.241 3.905,-5.375 1.932,0.587 1.735,2.709 1.082,3.413 -0.85,0.912 -1.795,0.723 -2.174,0.03" />
        </g>
      </g>
    </g>
  </g>
</svg>
