<?xml version="1.0" encoding="UTF-8" standalone="no"?>
<!-- Created with Inkscape (http://www.inkscape.org/) -->

<svg
   xmlns:dc="http://purl.org/dc/elements/1.1/"
   xmlns:cc="http://creativecommons.org/ns#"
   xmlns:rdf="http://www.w3.org/1999/02/22-rdf-syntax-ns#"
   xmlns:svg="http://www.w3.org/2000/svg"
   xmlns="http://www.w3.org/2000/svg"
   xmlns:sodipodi="http://sodipodi.sourceforge.net/DTD/sodipodi-0.dtd"
   xmlns:inkscape="http://www.inkscape.org/namespaces/inkscape"
   width="201.08333mm"
   height="211.76031mm"
   viewBox="0 0 201.08333 211.76032"
   version="1.1"
   id="svg8"
   inkscape:version="0.92.3 (2405546, 2018-03-11)"
   sodipodi:docname="bmld_cartoon_n0s0.svg"
   inkscape:export-filename="/home/jundurraga/pCloudDrive/Documents/Presentations/MAPS2018/my_figures/azimuth_itd.png"
   inkscape:export-xdpi="300"
   inkscape:export-ydpi="300">
  <defs
     id="defs2">
    <filter
       style="color-interpolation-filters:sRGB"
       inkscape:label="Invert"
       id="filter5344">
      <feColorMatrix
         values="1 0 0 0 0 0 1 0 0 0 0 0 1 0 0 -0.21 -0.72 -0.07 2 0 "
         result="fbSourceGraphic"
         id="feColorMatrix5342" />
      <feColorMatrix
         result="fbSourceGraphicAlpha"
         in="fbSourceGraphic"
         values="0 0 0 -1 0 0 0 0 -1 0 0 0 0 -1 0 0 0 0 1 0"
         id="feColorMatrix5346" />
      <feColorMatrix
         id="feColorMatrix5348"
         values="1 0 0 0 0 0 1 0 0 0 0 0 1 0 0 -0.21 -0.72 -0.07 2 0 "
         result="fbSourceGraphic"
         in="fbSourceGraphic" />
      <feColorMatrix
         result="fbSourceGraphicAlpha"
         in="fbSourceGraphic"
         values="0 0 0 -1 0 0 0 0 -1 0 0 0 0 -1 0 0 0 0 1 0"
         id="feColorMatrix5350" />
      <feColorMatrix
         id="feColorMatrix5352"
         values="-1 0 0 0 1 0 -1 0 0 1 0 0 -1 0 1 -0.21 -0.72 -0.07 2 0 "
         result="color2"
         in="fbSourceGraphic" />
    </filter>
    <filter
       style="color-interpolation-filters:sRGB"
       inkscape:label="Invert"
       id="filter6063">
      <feColorMatrix
         values="-1 0 0 0 1 0 -1 0 0 1 0 0 -1 0 1 -0.21 -0.72 -0.07 2 0 "
         result="color2"
         id="feColorMatrix6061" />
    </filter>
    <filter
       style="color-interpolation-filters:sRGB"
       inkscape:label="Invert"
       id="filter5344-3">
      <feColorMatrix
         values="1 0 0 0 0 0 1 0 0 0 0 0 1 0 0 -0.21 -0.72 -0.07 2 0 "
         result="fbSourceGraphic"
         id="feColorMatrix5342-6" />
      <feColorMatrix
         result="fbSourceGraphicAlpha"
         in="fbSourceGraphic"
         values="0 0 0 -1 0 0 0 0 -1 0 0 0 0 -1 0 0 0 0 1 0"
         id="feColorMatrix5346-7" />
      <feColorMatrix
         id="feColorMatrix5348-5"
         values="1 0 0 0 0 0 1 0 0 0 0 0 1 0 0 -0.21 -0.72 -0.07 2 0 "
         result="fbSourceGraphic"
         in="fbSourceGraphic" />
      <feColorMatrix
         result="fbSourceGraphicAlpha"
         in="fbSourceGraphic"
         values="0 0 0 -1 0 0 0 0 -1 0 0 0 0 -1 0 0 0 0 1 0"
         id="feColorMatrix5350-3" />
      <feColorMatrix
         id="feColorMatrix5352-5"
         values="-1 0 0 0 1 0 -1 0 0 1 0 0 -1 0 1 -0.21 -0.72 -0.07 2 0 "
         result="color2"
         in="fbSourceGraphic" />
    </filter>
    <style
       id="style1023"
       type="text/css">
*{stroke-linecap:butt;stroke-linejoin:round;}
  </style>
    <path
       style="stroke:#000000;stroke-width:0.8;"
       id="md9f69b60d2"
       d="M 0 0  L 0 3.5  " />
    <path
       id="DejaVuSans-30"
       d="M 31.78125 66.40625  Q 24.171875 66.40625 20.328125 58.90625  Q 16.5 51.421875 16.5 36.375  Q 16.5 21.390625 20.328125 13.890625  Q 24.171875 6.390625 31.78125 6.390625  Q 39.453125 6.390625 43.28125 13.890625  Q 47.125 21.390625 47.125 36.375  Q 47.125 51.421875 43.28125 58.90625  Q 39.453125 66.40625 31.78125 66.40625  z M 31.78125 74.21875  Q 44.046875 74.21875 50.515625 64.515625  Q 56.984375 54.828125 56.984375 36.375  Q 56.984375 17.96875 50.515625 8.265625  Q 44.046875 -1.421875 31.78125 -1.421875  Q 19.53125 -1.421875 13.0625 8.265625  Q 6.59375 17.96875 6.59375 36.375  Q 6.59375 54.828125 13.0625 64.515625  Q 19.53125 74.21875 31.78125 74.21875  z " />
    <path
       id="DejaVuSans-2e"
       d="M 10.6875 12.40625  L 21 12.40625  L 21 0  L 10.6875 0  z " />
    <path
       id="DejaVuSans-31"
       d="M 12.40625 8.296875  L 28.515625 8.296875  L 28.515625 63.921875  L 10.984375 60.40625  L 10.984375 69.390625  L 28.421875 72.90625  L 38.28125 72.90625  L 38.28125 8.296875  L 54.390625 8.296875  L 54.390625 0  L 12.40625 0  z " />
    <path
       id="DejaVuSans-32"
       d="M 19.1875 8.296875  L 53.609375 8.296875  L 53.609375 0  L 7.328125 0  L 7.328125 8.296875  Q 12.9375 14.109375 22.625 23.890625  Q 32.328125 33.6875 34.8125 36.53125  Q 39.546875 41.84375 41.421875 45.53125  Q 43.3125 49.21875 43.3125 52.78125  Q 43.3125 58.59375 39.234375 62.25  Q 35.15625 65.921875 28.609375 65.921875  Q 23.96875 65.921875 18.8125 64.3125  Q 13.671875 62.703125 7.8125 59.421875  L 7.8125 69.390625  Q 13.765625 71.78125 18.9375 73  Q 24.125 74.21875 28.421875 74.21875  Q 39.75 74.21875 46.484375 68.546875  Q 53.21875 62.890625 53.21875 53.421875  Q 53.21875 48.921875 51.53125 44.890625  Q 49.859375 40.875 45.40625 35.40625  Q 44.1875 33.984375 37.640625 27.21875  Q 31.109375 20.453125 19.1875 8.296875  z " />
    <path
       id="DejaVuSans-34"
       d="M 37.796875 64.3125  L 12.890625 25.390625  L 37.796875 25.390625  z M 35.203125 72.90625  L 47.609375 72.90625  L 47.609375 25.390625  L 58.015625 25.390625  L 58.015625 17.1875  L 47.609375 17.1875  L 47.609375 0  L 37.796875 0  L 37.796875 17.1875  L 4.890625 17.1875  L 4.890625 26.703125  z " />
    <path
       id="DejaVuSans-36"
       d="M 33.015625 40.375  Q 26.375 40.375 22.484375 35.828125  Q 18.609375 31.296875 18.609375 23.390625  Q 18.609375 15.53125 22.484375 10.953125  Q 26.375 6.390625 33.015625 6.390625  Q 39.65625 6.390625 43.53125 10.953125  Q 47.40625 15.53125 47.40625 23.390625  Q 47.40625 31.296875 43.53125 35.828125  Q 39.65625 40.375 33.015625 40.375  z M 52.59375 71.296875  L 52.59375 62.3125  Q 48.875 64.0625 45.09375 64.984375  Q 41.3125 65.921875 37.59375 65.921875  Q 27.828125 65.921875 22.671875 59.328125  Q 17.53125 52.734375 16.796875 39.40625  Q 19.671875 43.65625 24.015625 45.921875  Q 28.375 48.1875 33.59375 48.1875  Q 44.578125 48.1875 50.953125 41.515625  Q 57.328125 34.859375 57.328125 23.390625  Q 57.328125 12.15625 50.6875 5.359375  Q 44.046875 -1.421875 33.015625 -1.421875  Q 20.359375 -1.421875 13.671875 8.265625  Q 6.984375 17.96875 6.984375 36.375  Q 6.984375 53.65625 15.1875 63.9375  Q 23.390625 74.21875 37.203125 74.21875  Q 40.921875 74.21875 44.703125 73.484375  Q 48.484375 72.75 52.59375 71.296875  z " />
    <path
       id="DejaVuSans-38"
       d="M 31.78125 34.625  Q 24.75 34.625 20.71875 30.859375  Q 16.703125 27.09375 16.703125 20.515625  Q 16.703125 13.921875 20.71875 10.15625  Q 24.75 6.390625 31.78125 6.390625  Q 38.8125 6.390625 42.859375 10.171875  Q 46.921875 13.96875 46.921875 20.515625  Q 46.921875 27.09375 42.890625 30.859375  Q 38.875 34.625 31.78125 34.625  z M 21.921875 38.8125  Q 15.578125 40.375 12.03125 44.71875  Q 8.5 49.078125 8.5 55.328125  Q 8.5 64.0625 14.71875 69.140625  Q 20.953125 74.21875 31.78125 74.21875  Q 42.671875 74.21875 48.875 69.140625  Q 55.078125 64.0625 55.078125 55.328125  Q 55.078125 49.078125 51.53125 44.71875  Q 48 40.375 41.703125 38.8125  Q 48.828125 37.15625 52.796875 32.3125  Q 56.78125 27.484375 56.78125 20.515625  Q 56.78125 9.90625 50.3125 4.234375  Q 43.84375 -1.421875 31.78125 -1.421875  Q 19.734375 -1.421875 13.25 4.234375  Q 6.78125 9.90625 6.78125 20.515625  Q 6.78125 27.484375 10.78125 32.3125  Q 14.796875 37.15625 21.921875 38.8125  z M 18.3125 54.390625  Q 18.3125 48.734375 21.84375 45.5625  Q 25.390625 42.390625 31.78125 42.390625  Q 38.140625 42.390625 41.71875 45.5625  Q 45.3125 48.734375 45.3125 54.390625  Q 45.3125 60.0625 41.71875 63.234375  Q 38.140625 66.40625 31.78125 66.40625  Q 25.390625 66.40625 21.84375 63.234375  Q 18.3125 60.0625 18.3125 54.390625  z " />
    <path
       id="DejaVuSans-54"
       d="M -0.296875 72.90625  L 61.375 72.90625  L 61.375 64.59375  L 35.5 64.59375  L 35.5 0  L 25.59375 0  L 25.59375 64.59375  L -0.296875 64.59375  z " />
    <path
       id="DejaVuSans-69"
       d="M 9.421875 54.6875  L 18.40625 54.6875  L 18.40625 0  L 9.421875 0  z M 9.421875 75.984375  L 18.40625 75.984375  L 18.40625 64.59375  L 9.421875 64.59375  z " />
    <path
       id="DejaVuSans-6d"
       d="M 52 44.1875  Q 55.375 50.25 60.0625 53.125  Q 64.75 56 71.09375 56  Q 79.640625 56 84.28125 50.015625  Q 88.921875 44.046875 88.921875 33.015625  L 88.921875 0  L 79.890625 0  L 79.890625 32.71875  Q 79.890625 40.578125 77.09375 44.375  Q 74.3125 48.1875 68.609375 48.1875  Q 61.625 48.1875 57.5625 43.546875  Q 53.515625 38.921875 53.515625 30.90625  L 53.515625 0  L 44.484375 0  L 44.484375 32.71875  Q 44.484375 40.625 41.703125 44.40625  Q 38.921875 48.1875 33.109375 48.1875  Q 26.21875 48.1875 22.15625 43.53125  Q 18.109375 38.875 18.109375 30.90625  L 18.109375 0  L 9.078125 0  L 9.078125 54.6875  L 18.109375 54.6875  L 18.109375 46.1875  Q 21.1875 51.21875 25.484375 53.609375  Q 29.78125 56 35.6875 56  Q 41.65625 56 45.828125 52.96875  Q 50 49.953125 52 44.1875  z " />
    <path
       id="DejaVuSans-65"
       d="M 56.203125 29.59375  L 56.203125 25.203125  L 14.890625 25.203125  Q 15.484375 15.921875 20.484375 11.0625  Q 25.484375 6.203125 34.421875 6.203125  Q 39.59375 6.203125 44.453125 7.46875  Q 49.3125 8.734375 54.109375 11.28125  L 54.109375 2.78125  Q 49.265625 0.734375 44.1875 -0.34375  Q 39.109375 -1.421875 33.890625 -1.421875  Q 20.796875 -1.421875 13.15625 6.1875  Q 5.515625 13.8125 5.515625 26.8125  Q 5.515625 40.234375 12.765625 48.109375  Q 20.015625 56 32.328125 56  Q 43.359375 56 49.78125 48.890625  Q 56.203125 41.796875 56.203125 29.59375  z M 47.21875 32.234375  Q 47.125 39.59375 43.09375 43.984375  Q 39.0625 48.390625 32.421875 48.390625  Q 24.90625 48.390625 20.390625 44.140625  Q 15.875 39.890625 15.1875 32.171875  z " />
    <clipPath
       id="p134a8bdbe0">
      <rect
         id="rect1203"
         y="41.472"
         x="57.6"
         width="357.12"
         height="266.112" />
    </clipPath>
    <clipPath
       id="p134a8bdbe0-3">
      <rect
         id="rect1203-6"
         y="41.472"
         x="57.599998"
         width="357.12"
         height="266.112" />
    </clipPath>
    <clipPath
       id="p134a8bdbe0-3-0">
      <rect
         id="rect1203-6-6"
         y="41.472"
         x="57.599998"
         width="357.12"
         height="266.112" />
    </clipPath>
    <style
       id="style1612"
       type="text/css">
*{stroke-linecap:butt;stroke-linejoin:round;}
  </style>
    <path
       style="stroke:#000000;stroke-width:0.8;"
       id="m55d1c6096e"
       d="M 0 0  L 0 3.5  " />
    <path
       id="DejaVuSans-30-1"
       d="M 31.78125 66.40625  Q 24.171875 66.40625 20.328125 58.90625  Q 16.5 51.421875 16.5 36.375  Q 16.5 21.390625 20.328125 13.890625  Q 24.171875 6.390625 31.78125 6.390625  Q 39.453125 6.390625 43.28125 13.890625  Q 47.125 21.390625 47.125 36.375  Q 47.125 51.421875 43.28125 58.90625  Q 39.453125 66.40625 31.78125 66.40625  z M 31.78125 74.21875  Q 44.046875 74.21875 50.515625 64.515625  Q 56.984375 54.828125 56.984375 36.375  Q 56.984375 17.96875 50.515625 8.265625  Q 44.046875 -1.421875 31.78125 -1.421875  Q 19.53125 -1.421875 13.0625 8.265625  Q 6.59375 17.96875 6.59375 36.375  Q 6.59375 54.828125 13.0625 64.515625  Q 19.53125 74.21875 31.78125 74.21875  z " />
    <path
       id="DejaVuSans-2e-8"
       d="M 10.6875 12.40625  L 21 12.40625  L 21 0  L 10.6875 0  z " />
    <path
       id="DejaVuSans-31-7"
       d="M 12.40625 8.296875  L 28.515625 8.296875  L 28.515625 63.921875  L 10.984375 60.40625  L 10.984375 69.390625  L 28.421875 72.90625  L 38.28125 72.90625  L 38.28125 8.296875  L 54.390625 8.296875  L 54.390625 0  L 12.40625 0  z " />
    <path
       id="DejaVuSans-32-9"
       d="M 19.1875 8.296875  L 53.609375 8.296875  L 53.609375 0  L 7.328125 0  L 7.328125 8.296875  Q 12.9375 14.109375 22.625 23.890625  Q 32.328125 33.6875 34.8125 36.53125  Q 39.546875 41.84375 41.421875 45.53125  Q 43.3125 49.21875 43.3125 52.78125  Q 43.3125 58.59375 39.234375 62.25  Q 35.15625 65.921875 28.609375 65.921875  Q 23.96875 65.921875 18.8125 64.3125  Q 13.671875 62.703125 7.8125 59.421875  L 7.8125 69.390625  Q 13.765625 71.78125 18.9375 73  Q 24.125 74.21875 28.421875 74.21875  Q 39.75 74.21875 46.484375 68.546875  Q 53.21875 62.890625 53.21875 53.421875  Q 53.21875 48.921875 51.53125 44.890625  Q 49.859375 40.875 45.40625 35.40625  Q 44.1875 33.984375 37.640625 27.21875  Q 31.109375 20.453125 19.1875 8.296875  z " />
    <path
       id="DejaVuSans-34-2"
       d="M 37.796875 64.3125  L 12.890625 25.390625  L 37.796875 25.390625  z M 35.203125 72.90625  L 47.609375 72.90625  L 47.609375 25.390625  L 58.015625 25.390625  L 58.015625 17.1875  L 47.609375 17.1875  L 47.609375 0  L 37.796875 0  L 37.796875 17.1875  L 4.890625 17.1875  L 4.890625 26.703125  z " />
    <path
       id="DejaVuSans-36-0"
       d="M 33.015625 40.375  Q 26.375 40.375 22.484375 35.828125  Q 18.609375 31.296875 18.609375 23.390625  Q 18.609375 15.53125 22.484375 10.953125  Q 26.375 6.390625 33.015625 6.390625  Q 39.65625 6.390625 43.53125 10.953125  Q 47.40625 15.53125 47.40625 23.390625  Q 47.40625 31.296875 43.53125 35.828125  Q 39.65625 40.375 33.015625 40.375  z M 52.59375 71.296875  L 52.59375 62.3125  Q 48.875 64.0625 45.09375 64.984375  Q 41.3125 65.921875 37.59375 65.921875  Q 27.828125 65.921875 22.671875 59.328125  Q 17.53125 52.734375 16.796875 39.40625  Q 19.671875 43.65625 24.015625 45.921875  Q 28.375 48.1875 33.59375 48.1875  Q 44.578125 48.1875 50.953125 41.515625  Q 57.328125 34.859375 57.328125 23.390625  Q 57.328125 12.15625 50.6875 5.359375  Q 44.046875 -1.421875 33.015625 -1.421875  Q 20.359375 -1.421875 13.671875 8.265625  Q 6.984375 17.96875 6.984375 36.375  Q 6.984375 53.65625 15.1875 63.9375  Q 23.390625 74.21875 37.203125 74.21875  Q 40.921875 74.21875 44.703125 73.484375  Q 48.484375 72.75 52.59375 71.296875  z " />
    <path
       id="DejaVuSans-38-2"
       d="M 31.78125 34.625  Q 24.75 34.625 20.71875 30.859375  Q 16.703125 27.09375 16.703125 20.515625  Q 16.703125 13.921875 20.71875 10.15625  Q 24.75 6.390625 31.78125 6.390625  Q 38.8125 6.390625 42.859375 10.171875  Q 46.921875 13.96875 46.921875 20.515625  Q 46.921875 27.09375 42.890625 30.859375  Q 38.875 34.625 31.78125 34.625  z M 21.921875 38.8125  Q 15.578125 40.375 12.03125 44.71875  Q 8.5 49.078125 8.5 55.328125  Q 8.5 64.0625 14.71875 69.140625  Q 20.953125 74.21875 31.78125 74.21875  Q 42.671875 74.21875 48.875 69.140625  Q 55.078125 64.0625 55.078125 55.328125  Q 55.078125 49.078125 51.53125 44.71875  Q 48 40.375 41.703125 38.8125  Q 48.828125 37.15625 52.796875 32.3125  Q 56.78125 27.484375 56.78125 20.515625  Q 56.78125 9.90625 50.3125 4.234375  Q 43.84375 -1.421875 31.78125 -1.421875  Q 19.734375 -1.421875 13.25 4.234375  Q 6.78125 9.90625 6.78125 20.515625  Q 6.78125 27.484375 10.78125 32.3125  Q 14.796875 37.15625 21.921875 38.8125  z M 18.3125 54.390625  Q 18.3125 48.734375 21.84375 45.5625  Q 25.390625 42.390625 31.78125 42.390625  Q 38.140625 42.390625 41.71875 45.5625  Q 45.3125 48.734375 45.3125 54.390625  Q 45.3125 60.0625 41.71875 63.234375  Q 38.140625 66.40625 31.78125 66.40625  Q 25.390625 66.40625 21.84375 63.234375  Q 18.3125 60.0625 18.3125 54.390625  z " />
    <path
       id="DejaVuSans-54-3"
       d="M -0.296875 72.90625  L 61.375 72.90625  L 61.375 64.59375  L 35.5 64.59375  L 35.5 0  L 25.59375 0  L 25.59375 64.59375  L -0.296875 64.59375  z " />
    <path
       id="DejaVuSans-69-7"
       d="M 9.421875 54.6875  L 18.40625 54.6875  L 18.40625 0  L 9.421875 0  z M 9.421875 75.984375  L 18.40625 75.984375  L 18.40625 64.59375  L 9.421875 64.59375  z " />
    <path
       id="DejaVuSans-6d-5"
       d="M 52 44.1875  Q 55.375 50.25 60.0625 53.125  Q 64.75 56 71.09375 56  Q 79.640625 56 84.28125 50.015625  Q 88.921875 44.046875 88.921875 33.015625  L 88.921875 0  L 79.890625 0  L 79.890625 32.71875  Q 79.890625 40.578125 77.09375 44.375  Q 74.3125 48.1875 68.609375 48.1875  Q 61.625 48.1875 57.5625 43.546875  Q 53.515625 38.921875 53.515625 30.90625  L 53.515625 0  L 44.484375 0  L 44.484375 32.71875  Q 44.484375 40.625 41.703125 44.40625  Q 38.921875 48.1875 33.109375 48.1875  Q 26.21875 48.1875 22.15625 43.53125  Q 18.109375 38.875 18.109375 30.90625  L 18.109375 0  L 9.078125 0  L 9.078125 54.6875  L 18.109375 54.6875  L 18.109375 46.1875  Q 21.1875 51.21875 25.484375 53.609375  Q 29.78125 56 35.6875 56  Q 41.65625 56 45.828125 52.96875  Q 50 49.953125 52 44.1875  z " />
    <path
       id="DejaVuSans-65-9"
       d="M 56.203125 29.59375  L 56.203125 25.203125  L 14.890625 25.203125  Q 15.484375 15.921875 20.484375 11.0625  Q 25.484375 6.203125 34.421875 6.203125  Q 39.59375 6.203125 44.453125 7.46875  Q 49.3125 8.734375 54.109375 11.28125  L 54.109375 2.78125  Q 49.265625 0.734375 44.1875 -0.34375  Q 39.109375 -1.421875 33.890625 -1.421875  Q 20.796875 -1.421875 13.15625 6.1875  Q 5.515625 13.8125 5.515625 26.8125  Q 5.515625 40.234375 12.765625 48.109375  Q 20.015625 56 32.328125 56  Q 43.359375 56 49.78125 48.890625  Q 56.203125 41.796875 56.203125 29.59375  z M 47.21875 32.234375  Q 47.125 39.59375 43.09375 43.984375  Q 39.0625 48.390625 32.421875 48.390625  Q 24.90625 48.390625 20.390625 44.140625  Q 15.875 39.890625 15.1875 32.171875  z " />
    <clipPath
       id="p03bd9d4bef">
      <rect
         id="rect1792"
         y="41.472"
         x="57.6"
         width="357.12"
         height="266.112" />
    </clipPath>
  </defs>
  <sodipodi:namedview
     id="base"
     pagecolor="#ffffff"
     bordercolor="#666666"
     borderopacity="1.0"
     inkscape:pageopacity="0.0"
     inkscape:pageshadow="2"
     inkscape:zoom="0.7"
     inkscape:cx="166.08997"
     inkscape:cy="352.62515"
     inkscape:document-units="mm"
     inkscape:current-layer="layer1"
     showgrid="true"
     inkscape:window-width="1920"
     inkscape:window-height="1020"
     inkscape:window-x="0"
     inkscape:window-y="27"
     inkscape:window-maximized="1"
     fit-margin-top="0"
     fit-margin-left="0"
     fit-margin-right="0"
     fit-margin-bottom="0">
    <inkscape:grid
       type="xygrid"
       id="grid827"
       originx="10.583334"
       originy="-79.281347" />
  </sodipodi:namedview>
  <metadata
     id="metadata5">
    <rdf:RDF>
      <cc:Work
         rdf:about="">
        <dc:format>image/svg+xml</dc:format>
        <dc:type
           rdf:resource="http://purl.org/dc/dcmitype/StillImage" />
        <dc:title></dc:title>
      </cc:Work>
    </rdf:RDF>
  </metadata>
  <g
     inkscape:label="Layer 1"
     inkscape:groupmode="layer"
     id="layer1"
     transform="translate(10.583333,-5.9583287)">
    <g
       id="g833-3-5-6"
       transform="matrix(6.1762658e-5,1.3076924,1.3076924,-6.1762658e-5,39.9217,-52.215468)"
       style="fill:#0bb600;fill-opacity:1;stroke:#413aff;stroke-linecap:butt;stroke-linejoin:round;stroke-opacity:1">
      <g
         id="g964"
         style="fill:#0bb600;fill-opacity:1;stroke:#413aff;stroke-linecap:butt;stroke-linejoin:round;stroke-opacity:1">
        <rect
           style="fill:#0bb600;fill-opacity:1;stroke:#413aff;stroke-width:0.3318516;stroke-linecap:butt;stroke-linejoin:round;stroke-miterlimit:4;stroke-dasharray:none;stroke-dashoffset:0;stroke-opacity:1"
           id="rect815-6-3-2"
           width="3.9687464"
           height="13.04018"
           x="68.791664"
           y="31.282738" />
        <path
           style="fill:#0bb600;fill-opacity:1;fill-rule:evenodd;stroke:#413aff;stroke-width:0.26458332px;stroke-linecap:butt;stroke-linejoin:miter;stroke-opacity:1"
           d="m 72.760416,31.093751 5.291667,-3.968751 -10e-7,21.166667 -5.291666,-3.96875"
           id="path829-7-5-9"
           inkscape:connector-curvature="0"
           sodipodi:nodetypes="cccc" />
      </g>
    </g>
    <rect
       style="fill:none;fill-opacity:1;stroke:none;stroke-width:0.26499999;stroke-miterlimit:4;stroke-dasharray:none;stroke-dashoffset:0;stroke-opacity:1"
       id="rect1600"
       width="201.08333"
       height="158.75"
       x="-10.583333"
       y="5.9583335"
       inkscape:export-xdpi="300"
       inkscape:export-ydpi="300" />
    <g
       id="g5361"
       transform="matrix(1.1917484,0,0,1.1917484,-35.362338,-70.086476)">
      <ellipse
         ry="12.48071"
         rx="11.232639"
         cy="154.35179"
         cx="104.35847"
         id="path5324"
         style="fill:#000000;fill-opacity:1;stroke:#000000;stroke-width:0.2500073;stroke-miterlimit:4;stroke-dasharray:none;stroke-dashoffset:0;stroke-opacity:1" />
      <ellipse
         ry="1.6535684"
         rx="1.3496169"
         cy="142.23161"
         cx="104.41017"
         id="path5326"
         style="fill:#000000;fill-opacity:1;stroke:#000000;stroke-width:0.21159953;stroke-miterlimit:4;stroke-dasharray:none;stroke-dashoffset:0;stroke-opacity:1" />
      <g
         style="filter:url(#filter5344)"
         id="g12"
         transform="matrix(0.01987145,0,0,0.01987145,94.493847,144.08183)">
        <path
           id="path4"
           d="M 941.3,619.3 C 961.4,584.9 947.4,530.9 941.9,513 966.8,452.4 918.7,296.8 897.6,245 881.2,205 848.2,168.6 824.1,142.1 813.4,130.3 804.1,120 800.5,114 785.7,88.9 766.9,76.9 739.5,75 c -6,-0.4 -6,-0.6 -10,-8.2 -3,-5.9 -7.2,-14 -16,-22.3 -10.5,-10 -21.7,-12 -34.4,-10.1 -4.3,0.7 -7.5,3.4 -18.7,-3 -26,-15 -40.9,-21.5 -75,-21.5 -39.7,0 -52.8,75.2 -55.6,97 -7.9,34.6 -7.9,146.6 -8,236.6 0,34.1 0,63.3 -0.5,80.2 -1.1,39.3 10.1,64.3 19.4,78.1 -22.4,23.4 -28.5,79.9 -26.8,99.9 1.1,13.4 5.5,21.6 8.6,27.5 3.8,7.2 5.8,10.8 -0.4,27.1 -14.6,39.1 -6.4,162.4 -0.2,182.1 2.8,8.7 7.2,13.6 10.7,17.6 5.1,5.7 10.3,11.6 11,42.1 1.5,63.5 102.2,92 128,92 26.1,0 68.2,-20.7 72,-22.7 90.9,-37.9 123.9,-116.3 143.6,-163.2 5.5,-13.1 11.8,-28 15.6,-31.2 22.8,-19.4 21.9,-51.4 20.6,-63.7 20.1,-38.4 19.1,-76.3 17.9,-90 z M 872.9,255.1 c 23.4,57.2 55.5,173.7 48.7,229.9 -1.9,-3.2 -3.9,-6.4 -5.8,-9.6 -11.5,-18.6 -23.4,-37.9 -28.3,-70.1 -9.8,-63.9 -48.8,-79.4 -50.4,-80 -5.1,-1.9 -10.8,0.6 -12.8,5.7 -2,5.1 0.5,10.9 5.6,12.9 1.2,0.5 30,12.7 37.8,64.3 5.5,36.2 19.1,58.2 31.1,77.6 8,13 14.9,24.3 18.7,38.2 6.3,21.7 14,63.6 -0.7,84.1 -16.3,11.2 -57.3,27.9 -119,-26.3 -39.6,-34.9 -54.1,-60.3 -54.2,-60.5 -2.7,-4.8 -8.9,-6.6 -13.6,-3.9 -4.8,2.7 -6.6,8.8 -3.9,13.6 0.6,1.1 16,28.4 58.5,65.8 37.2,32.7 68.9,42.7 93.7,42.7 14.8,0 27.2,-3.6 36.9,-8 0,15.5 -2.5,42 -16.9,67.9 -33.5,8.2 -166.1,23.1 -271.8,-210.3 0,-0.1 -0.1,-0.2 -0.1,-0.2 -0.1,-0.1 -0.2,-0.2 -0.3,-0.3 -0.3,-0.6 -0.8,-1.1 -1.2,-1.6 -0.3,-0.4 -0.5,-0.8 -0.9,-1.2 -0.1,-0.1 -0.3,-0.2 -0.4,-0.3 -0.1,-0.1 -0.2,-0.3 -0.3,-0.4 -0.4,-0.3 -0.9,-0.4 -1.3,-0.6 -0.4,-0.2 -0.8,-0.6 -1.2,-0.7 -0.2,-0.1 -0.3,-0.1 -0.5,-0.1 -0.7,-0.2 -1.3,-0.3 -2,-0.3 -0.4,0 -0.8,-0.2 -1.2,-0.2 -0.2,0 -0.3,0.1 -0.5,0.1 -0.7,0.1 -1.4,0.3 -2.1,0.5 -0.4,0.1 -0.8,-1.2 -1.2,-1 0,0 -0.1,-1.2 -0.1,-1.2 0,0 0,0 -0.1,0 -0.1,0 -0.2,1.5 -0.3,1.6 -0.6,0.3 -1.1,1.4 -1.6,1.9 -0.4,0.3 -0.9,0.9 -1.2,1.2 -0.1,0.1 -0.2,0.4 -0.2,0.6 -0.1,0.1 -0.3,0.3 -0.4,0.4 -10.7,14.4 -24.8,14.4 -34.1,12.3 l -5.8,-4.9 c -0.9,-0.8 -22.7,-19.7 -21.2,-70.1 0.5,-17 0.5,-46.5 0.5,-80.9 0,-28.3 0,-61.8 0.4,-94.7 16.6,-7.3 54.2,-19 77.3,12.2 12.5,16.9 17.1,33 13.6,47.8 -3.6,15.4 -15,26.1 -23.8,30.5 -4.9,2.5 -6.8,8.6 -4.3,13.5 1.8,3.5 5.3,5.4 8.9,5.4 1.5,0 3.1,-0.4 4.6,-1.1 12.3,-6.3 27,-20.1 32.9,-40 8.1,0.2 31.2,3.4 46.3,32.4 1.7,3.4 5.2,5.4 8.9,5.4 0.7,0 1.4,-0.1 2.1,-0.2 4.4,-0.9 7.6,-4.7 7.9,-9.2 0.1,-1.3 2.5,-33 40.7,-35.5 32.8,-2.1 54.7,-13.2 60.2,-30.3 2.2,-7 3.2,-20.9 -14.8,-35.5 -10.2,-8.2 -10.4,-14.2 -10.6,-23.2 -0.3,-8.9 -0.6,-19.7 -10.7,-31.1 7.3,-11.1 10.8,-23.3 12.2,-34.5 1.4,1.5 2.6,2.9 4.1,4.5 22.4,25 53.6,59.4 68.2,95 z M 585.5,36.7 c 28.2,0 38.2,4.4 61.7,17.9 12.4,7.1 25.4,7.9 36.1,6.2 1.8,-0.3 3.5,-0.6 5.2,-0.6 1.1,0 2.9,0 6.6,3.6 5.5,5.2 8,10.1 10.7,15.2 1.6,3 3.4,6.4 5.8,9.6 1.9,9.7 2.9,23.4 -3.3,34.2 -5.5,9.8 -16.5,16.1 -32.5,18.7 -5.5,0.9 -9.2,6 -8.3,11.5 0.8,4.9 5,8.4 9.9,8.4 0.5,0 1,0 1.6,-0.1 22.4,-3.6 38.2,-13.2 46.9,-28.7 5.7,-10.2 7.4,-21.5 7.2,-31.7 1.5,0.2 2.9,0.5 4.6,0.7 18.4,1.3 29.6,8.6 39.8,26 0.8,1.4 2,3 3.1,4.6 1.2,12 1,33.5 -11.4,49.8 -11,14.4 -29.9,22.1 -56.2,22.9 -5.5,0.2 -9.8,2.5 -9.7,8 0.2,5.4 4.6,7.4 10,7.4 0.1,0 0.2,0 0.3,0 25.8,0 46.1,-5.3 60.9,-17.6 3.8,5.2 4,11.2 4.2,17.7 0.3,10.2 0.7,24.8 18.1,38.8 3,2.4 9.9,9 8.3,14.1 -2.1,6.7 -16.3,14.8 -42.4,16.5 -28.9,1.9 -44.9,17 -52.8,32.1 -17.4,-19.9 -38.1,-24 -49.1,-24.7 -0.4,-13.2 -4.8,-29.5 -18.5,-48.1 -25.6,-34.6 -65.5,-31.9 -93.1,-22 0.3,-15.8 0.6,-31.1 1.1,-45.3 5.4,-14.2 17.7,-38.7 39.2,-43 5.4,-1.1 8.9,-6.4 7.8,-11.8 -1.1,-5.4 -6.3,-9 -11.8,-7.8 -13.8,2.8 -24.6,10.5 -33,19.8 0.9,-11.7 2.1,-21.1 3.5,-27.3 5.3,-38.5 19.6,-75 29.5,-75 z m 147.1,906.4 c -10.3,5.2 -27,12.3 -41.4,16.5 17.5,-21.8 27.6,-52.4 30.9,-63.5 40.7,-26.3 53.2,-76 53.4,-76.7 1.3,-5.4 -2.1,-10.8 -7.4,-12.1 -5.5,-1.3 -10.8,3.6 -12.1,8.9 -0.2,0.8 -19.3,78.9 -89.5,78.9 v 0 c -5.5,0 -10,5.4 -10,10.9 0,5.5 4.5,10.9 10,10.9 v 0 c 11.2,0 21.3,-4 30.4,-6.7 -8,20.3 -21.3,44.8 -37.7,52 -0.4,0.2 -0.9,-0.3 -1.3,-0.2 -30.2,-6.4 -86.6,-29.7 -87.4,-64.4 -0.9,-37.3 -8.6,-49 -17.8,-59.3 -2.7,-3 -4.1,-4.7 -5.2,-8 -4.9,-15.4 -12.5,-131.8 -0.2,-164.7 9.6,-25.5 5.4,-36.9 -1.1,-49 -2.6,-4.9 -4.9,-9.2 -5.6,-17.1 -2.4,-29.9 12.7,-79.6 22.3,-81.3 l 3.1,-0.5 c 5.3,1.6 11.4,2.8 17.9,2.8 9.9,0 20.6,-2.7 30.3,-10 17.5,39.4 47.3,114.8 42.4,143.2 -3.2,18.2 -17.8,30.2 -32,41.9 -14.9,12.2 -30.3,24.9 -31.6,44.7 -1.1,16.6 7.9,34.5 28.5,56.6 17,18.3 14.8,33.1 7.8,40.2 -3.5,3.5 -8.6,5.7 -14.4,5.4 -10.9,-3.5 -18.4,-8.6 -18.5,-8.7 -0.4,-0.3 -0.8,-0.3 -1.3,-0.6 -0.6,-0.3 -1.2,-0.6 -1.8,-0.8 -0.6,-0.2 -1.2,-0.2 -1.9,-0.3 -0.7,-0.1 -1.3,-0.1 -1.9,-0.1 -0.7,0.1 -1.2,0.2 -1.8,0.4 -0.6,0.2 -1.2,0.4 -1.8,0.7 -0.6,0.3 -1,0.7 -1.6,1.1 -0.4,0.3 -0.8,0.5 -1.2,0.9 -0.2,0.2 -0.2,0.4 -0.3,0.6 -0.1,0.1 -0.3,0.2 -0.3,0.3 -0.2,0.3 -0.3,0.7 -0.5,1.1 -0.4,0.7 -0.7,1.4 -0.9,2.1 -0.2,0.5 -0.2,1.1 -0.2,1.6 -0.1,0.7 -0.2,1.4 -0.1,2.1 0.1,0.6 0.2,1.1 0.4,1.6 0.2,0.7 0.4,1.3 0.7,2 0.3,0.6 0.7,1 1.1,1.5 0.3,0.4 0.5,0.9 0.9,1.2 0.3,0.2 0.5,0.4 0.8,0.6 0,0 0.1,0.1 0.1,0.1 0,0 0.3,0.2 0.4,0.3 8.4,7.3 17.3,10.9 25.8,11.9 6.7,2 14.3,3.4 22.6,3.4 8.1,0 16.7,-1.4 25.5,-4.8 34.4,-13.6 58.6,-54.7 71.7,-122.1 1,-5.4 -2.5,-10.7 -7.9,-11.7 -5.3,-1.1 -10.7,2.5 -11.7,7.9 -11.6,59.3 -32,96.4 -59.2,107.3 -0.8,0.3 -1.5,0.5 -2.2,0.7 8.5,-15.2 7.3,-37.4 -13.5,-59.7 C 620,766 612.2,752 612.9,741.6 c 0.7,-11.2 11.7,-20.2 24.4,-30.6 16.2,-13.3 34.5,-28.4 39,-53.9 2.2,-12.8 -0.7,-31.6 -6,-51.9 73.4,98.8 150.7,117.1 197.8,117.1 11.9,0 21.7,-1.2 29.2,-2.5 0.1,9.9 -1.8,24.3 -11.8,32.7 -1.1,0.9 -2.1,1.9 -3.1,3.1 -11.2,5.5 -30.4,11.1 -58.3,5.6 -5.6,-1.1 -10.7,2.5 -11.8,7.9 -1.1,5.4 2.5,10.7 7.9,11.7 9.4,1.8 18,2.6 25.9,2.6 8.2,0 15.3,-1 21.8,-2.3 -1.7,3.9 -3.5,8.1 -5.4,12.6 -19.2,46 -48.3,115.3 -129.9,149.4 z"
           inkscape:connector-curvature="0" />
        <path
           id="path6"
           d="m 774,410.4 c 4.6,-15.5 -1.5,-26.5 -1.9,-27.1 -2.7,-4.7 -8.5,-6.3 -13.3,-3.7 -4.8,2.5 -6.6,8.6 -4.1,13.4 0.2,0.5 5.4,11.4 -9.5,27 -6.7,7 -11.4,12.7 -15.2,17.4 -7.6,9.4 -9.2,11.4 -17.4,12.1 -9.7,0.8 -26.5,-10.4 -51.6,-33 -4.1,-3.7 -10.4,-3.4 -14.1,0.7 -3.7,4.1 -3.4,10.4 0.7,14.1 21,19 45,38.2 64.4,38.2 0.8,0 1.6,0 2.4,-0.1 16.6,-1.4 22.7,-9 31.2,-19.4 3.5,-4.3 7.8,-9.6 14,-16.1 1.7,-1.8 3.3,-3.6 4.7,-5.3 11.9,2.7 40.6,13.8 50.4,57.8 1,4.7 5.2,7.8 9.8,7.8 0.7,0 1.4,-0.1 2.2,-0.2 5.4,-1.2 8.8,-6.5 7.6,-11.9 -10.3,-45.2 -39,-65 -60.3,-71.7 z"
           inkscape:connector-curvature="0" />
        <path
           id="path8"
           d="m 478.6,423.8 c -0.5,-16.8 -0.5,-46 -0.5,-80.2 0,-90 0,-202 -7.7,-235.4 -3.1,-23 -16.2,-98.2 -55.9,-98.2 -34.2,0 -49.1,6.5 -75,21.5 -11.2,6.4 -14.4,3.7 -18.7,3 -12.7,-1.9 -23.9,0.1 -34.4,10.1 -8.7,8.3 -12.9,16.4 -16,22.3 -4,7.7 -4.1,7.8 -10,8.2 -27.3,1.9 -46.2,14 -61,39 -3.5,6 -12.8,16.2 -23.6,28.1 -24.1,26.6 -57.1,63 -73.5,102.9 -21.2,51.7 -69.2,207.3 -44.3,268 -5.6,17.9 -19.6,71.9 0.5,106.3 -1.2,13.7 -2.1,51.6 18,89.9 -1.3,12.4 -2.2,44.4 20.6,63.7 3.8,3.2 10.1,18.1 15.6,31.2 19.7,46.9 52.7,125.3 142.7,162.8 4.7,2.4 46.8,23.1 72.9,23.1 25.8,0 126.4,-28.5 128,-92 0.7,-30.5 6,-36.4 11,-42.1 3.5,-3.9 7.9,-8.8 10.7,-17.6 6.2,-19.7 14.4,-142.9 -0.2,-182.1 -6.1,-16.3 -4.2,-19.9 -0.4,-27.1 3.2,-5.9 7.5,-14.1 8.6,-27.5 1.6,-20 -4.5,-76.5 -26.8,-99.9 9.3,-13.8 20.5,-38.7 19.4,-78 z M 262.3,101.6 c 1.7,-0.1 3.1,-0.4 4.6,-0.7 -0.2,10.2 1.4,21.5 7.2,31.7 8.7,15.5 24.5,25.1 46.9,28.7 0.5,0.1 1.1,0.1 1.6,0.1 4.8,0 9.1,-3.5 9.9,-8.4 0.9,-5.5 -2.8,-10.6 -8.3,-11.5 -16,-2.6 -27,-8.8 -32.5,-18.7 -6.1,-10.9 -5.2,-24.5 -3.3,-34.2 2.4,-3.2 4.3,-6.6 5.8,-9.6 2.7,-5.1 5.2,-10 10.7,-15.2 3.8,-3.6 5.5,-3.6 6.7,-3.6 1.7,0 3.4,0.3 5.2,0.6 10.7,1.7 23.6,0.9 36.1,-6.3 23.5,-13.5 33.5,-17.9 61.7,-17.9 9.9,0 24.2,36.5 29.6,76.3 1.4,5.9 2.5,15 3.4,26.2 -8.4,-9.4 -19.3,-17.2 -33.1,-19.9 -5.4,-1.1 -10.7,2.4 -11.8,7.8 -1.1,5.4 2.4,10.7 7.8,11.8 21.6,4.4 33.9,29 39.3,43.2 0.5,14.1 0.8,29.3 1.1,45.1 -27.6,-9.8 -67.5,-12.6 -93.1,22 -13.7,18.5 -18.1,35 -18.5,48.1 -11,0.7 -31.7,4.9 -49.1,24.7 -7.9,-15.1 -23.8,-30.1 -52.8,-32 -26.1,-1.7 -40.3,-9.7 -42.4,-16.4 -1.6,-5.2 5.2,-11.4 8.3,-13.9 17.4,-14 17.8,-28 18.1,-38.2 0.2,-6.5 0.3,-13.6 4.2,-18.9 14.8,12.4 35.1,17.6 60.9,17.6 0.1,0 0.2,0 0.3,0 5.4,0 9.8,-2 10,-7.4 0.2,-5.5 -4.2,-9 -9.7,-9.2 -26.2,-0.8 -45.1,-7.9 -56.1,-22.3 -12.5,-16.3 -12.6,-37.7 -11.5,-49.7 1.1,-1.6 2.3,-3 3.1,-4.4 10.1,-17 21.3,-24.2 39.7,-25.5 z M 127.1,255.1 c 14.6,-35.6 45.7,-70 68.5,-95.1 1.4,-1.6 2.7,-3 4.1,-4.5 1.4,11.1 4.9,23.3 12.2,34.5 -10.1,11.4 -10.4,22.2 -10.7,31.1 -0.3,9 -0.4,15 -10.6,23.2 -18.1,14.5 -17,28.5 -14.8,35.5 5.4,17.1 27.3,28.1 60.2,30.3 37.1,2.4 40.4,32.2 40.7,35.5 0.3,4.5 3.5,8.2 7.9,9.2 0.7,0.2 1.4,0.2 2.1,0.2 3.7,0 7.1,-2 8.9,-5.4 15,-28.9 38.1,-32.2 46.3,-32.4 6,19.9 20.6,33.7 33,40 1.5,0.8 3,1.1 4.6,1.1 3.6,0 7.1,-2 8.9,-5.4 2.5,-4.9 0.6,-10.9 -4.3,-13.5 -8.7,-4.5 -20.2,-15.2 -23.8,-30.5 -3.5,-14.8 1.1,-30.9 13.6,-47.8 23.2,-31.3 60.8,-19.5 77.3,-12.2 0.3,32.8 0.3,66.3 0.3,94.7 0,34.5 0,64 0.5,81 1.5,50.4 -20.3,69.3 -21,70 l -6.3,5.1 c -9.3,2.1 -23.2,1.9 -33.8,-12.3 -0.1,-0.1 -0.2,-0.2 -0.3,-0.3 -0.1,-0.1 -0.2,-0.3 -0.3,-0.4 -0.3,-0.4 -0.8,-0.6 -1.2,-0.9 -0.5,-0.4 -1,-2.2 -1.6,-2.5 -0.1,-0.1 -0.2,-1.6 -0.3,-1.6 0,0 0,0 0,0 0,0 0,1.3 -0.1,1.3 -0.4,-0.2 -0.8,0.5 -1.3,0.4 -0.7,-0.2 -1.3,-0.1 -2,-0.1 -0.2,0 -0.3,0.1 -0.5,0.1 -0.5,0 -0.9,0.2 -1.4,0.3 -0.6,0.1 -1.3,0.2 -1.9,0.3 -0.2,0.1 -0.3,0.1 -0.5,0.1 -0.5,0.2 -0.9,0.5 -1.3,0.8 -0.4,0.2 -0.9,0.3 -1.3,0.6 -0.1,0.1 -0.2,0.3 -0.3,0.4 -0.1,0.1 -0.3,0.2 -0.4,0.3 -0.4,0.3 -0.6,0.8 -0.9,1.2 -0.4,0.5 -0.9,1 -1.2,1.6 -0.1,0.1 -0.2,0.2 -0.3,0.3 0,0 0,0.1 0,0.1 0,0 0,0 0,0 -105.9,233.3 -238.5,218.4 -272,210.2 -14.4,-25.9 -16.9,-52.4 -16.9,-67.9 9.7,4.4 22,8 36.9,8 24.9,0 56.6,-10 93.7,-42.7 42.5,-37.4 57.8,-64.6 58.5,-65.8 2.7,-4.8 0.9,-10.9 -3.9,-13.6 -4.8,-2.7 -10.9,-0.9 -13.6,3.9 -0.1,0.2 -14.6,25.6 -54.2,60.5 -61.6,54.2 -102.7,37.6 -119,26.3 v 0 C 68.5,587.6 76.6,545 82.9,523.4 c 3.9,-13.6 10.6,-24.8 18.5,-37.5 12,-19.4 25.5,-41.4 31.1,-77.6 7.8,-51.4 36.4,-63.7 37.8,-64.3 5.1,-2 7.7,-7.7 5.7,-12.9 -2,-5.2 -7.8,-7.8 -12.9,-5.8 -1.7,0.6 -40.7,16.1 -50.4,80 -4.9,32.2 -16.8,51.5 -28.3,70.1 -2,3.2 -4,6.4 -5.9,9.6 -6.9,-56.1 25.2,-172.7 48.6,-229.9 z m 332.3,344.4 c -0.7,7.9 -2.9,12.2 -5.5,17.2 -6.5,12.1 -10.6,23.4 -1.1,48.9 12.3,32.8 4.7,149.2 -0.2,164.6 -1.1,3.3 -2.5,5 -5.2,7.9 -9.2,10.3 -16.9,21.9 -17.8,59.2 -0.8,34.7 -57.3,57.6 -87.4,64.1 -0.4,-0.2 -0.9,-0.2 -1.3,-0.4 -16.5,-7.3 -29.7,-32.9 -37.7,-53.3 9.1,2.7 19.2,4.3 30.4,4.3 4.6,-0.2 10,-2.9 10,-8.5 0,-5.5 -4.5,-8.5 -10,-8.5 0,0 0,0 0,0 -16.7,0 -30.5,-5.8 -41.8,-12.3 -0.2,-0.1 -0.3,-0.9 -0.5,-1 -35.7,-20.8 -46.7,-64.3 -47.3,-66.7 -1.3,-5.4 -6.7,-8.9 -12.1,-7.6 -5.4,1.3 -8.7,6.6 -7.4,11.9 0.2,0.7 12.7,50.4 53.4,76.7 3.3,11.2 13.4,41.8 30.9,63.5 -16,-4.7 -34,-12.8 -42.3,-17 -80.8,-33.7 -110,-103 -129.2,-148.9 -1.9,-4.5 -3.6,-8.7 -5.4,-12.6 6.6,1.3 13.7,2.3 21.8,2.3 7.9,0 16.5,-0.8 25.9,-2.6 5.4,-1.1 9,-6.3 7.9,-11.7 -1.1,-5.4 -6.5,-9 -11.7,-7.9 -28,5.5 -47.2,-0.1 -58.3,-5.6 -1,-1.1 -2,-2.1 -3.1,-3.1 -10,-8.5 -11.8,-22.9 -11.8,-32.7 7.5,1.3 17.3,2.5 29.2,2.5 47.2,0 124.5,-18.4 197.9,-117.1 -5.3,20.3 -8.2,39 -6,51.9 4.4,25.5 22.8,40.6 39,53.9 12.7,10.4 23.6,19.4 24.4,30.6 0.7,10.4 -7.1,24.4 -23.2,41.6 -20.8,22.4 -22,44.6 -13.5,59.7 -0.7,-0.3 -1.5,-0.4 -2.2,-0.7 C 321,831.2 300.5,794.2 289,734.8 c -1.1,-5.5 -6.4,-9.1 -11.7,-7.9 -5.4,1.1 -9,6.3 -7.9,11.7 13.1,67.4 37.2,108.5 71.7,122.1 8.8,3.5 17.5,4.8 25.5,4.8 8.3,0 15.9,-1.5 22.6,-3.4 8.6,-1 17.5,-4.7 25.9,-11.9 0.1,-0.1 0.3,-0.2 0.4,-0.2 0,0 0.1,-0.1 0.1,-0.1 0.3,-0.2 0.5,-0.4 0.8,-0.6 0.4,-0.3 0.6,-0.8 0.9,-1.2 0.4,-0.5 0.8,-1 1.1,-1.5 0.3,-0.6 0.5,-1.2 0.7,-1.8 0.2,-0.6 0.4,-1.2 0.4,-1.8 0.1,-0.7 0,-1.3 -0.1,-1.9 -0.1,-0.6 -0.1,-1.2 -0.3,-1.8 -0.2,-0.7 -0.5,-1.3 -0.8,-1.9 -0.2,-0.4 -0.3,-0.8 -0.6,-1.2 -0.1,-0.2 -0.3,-0.2 -0.4,-0.4 -0.1,-0.2 -0.2,-0.4 -0.3,-0.5 -0.3,-0.4 -0.8,-0.6 -1.2,-0.9 -0.5,-0.4 -0.9,-0.8 -1.5,-1.1 -0.6,-0.3 -1.2,-0.5 -1.9,-0.7 -0.6,-0.2 -1.1,-0.3 -1.7,-0.4 -0.7,-0.1 -1.3,0 -2,0.1 -0.6,0.1 -1.2,0.1 -1.8,0.3 -0.7,0.2 -1.3,0.5 -1.9,0.8 -0.4,0.2 -0.9,0.3 -1.3,0.6 -0.1,0.1 -7.5,5.2 -18.4,8.7 -5.9,0.2 -11,-2 -14.5,-5.4 -7.1,-7.1 -9.3,-21.9 7.8,-40.2 20.5,-22.1 29.6,-40.1 28.5,-56.6 -1.3,-19.8 -16.7,-32.5 -31.6,-44.7 -14.2,-11.7 -28.8,-23.7 -32,-41.9 -4.9,-28.3 24.9,-103.8 42.4,-143.2 9.7,7.3 20.4,10 30.3,10 6.6,0 12.7,-1.2 18.1,-2.9 l 3,0.5 c 9.4,1.6 24.6,51.3 22.1,81.2 z"
           inkscape:connector-curvature="0" />
        <path
           id="path10"
           d="m 173.6,494 c 0.7,0.2 1.5,0.2 2.2,0.2 4.6,0 8.7,-3.2 9.8,-7.8 9.8,-44 38.5,-55.1 50.4,-57.8 1.4,1.8 2.9,3.5 4.7,5.3 6.2,6.5 10.5,11.8 14,16.1 8.5,10.4 14.6,18 31.2,19.4 0.8,0.1 1.6,0.1 2.4,0.1 19.4,0 43.3,-19.2 64.4,-38.2 4.1,-3.7 4.4,-10 0.7,-14.1 -3.7,-4.1 -10,-4.4 -14.1,-0.7 -25.1,22.7 -42.5,33.8 -51.6,33 -8.2,-0.7 -9.7,-2.7 -17.4,-12.1 -3.8,-4.7 -8.4,-10.4 -15.2,-17.4 -14.7,-15.3 -9.9,-26.1 -9.5,-27 2.6,-4.8 0.9,-10.8 -3.8,-13.5 -4.8,-2.7 -10.9,-1.1 -13.7,3.7 -0.4,0.7 -6.5,11.6 -1.9,27.1 -21.3,6.6 -50.1,26.5 -60.1,71.6 -1.4,5.6 2.1,10.9 7.5,12.1 z"
           inkscape:connector-curvature="0" />
      </g>
    </g>
    <flowRoot
       xml:space="preserve"
       id="flowRoot6065-2"
       style="font-style:normal;font-weight:normal;font-size:25px;line-height:125%;font-family:sans-serif;letter-spacing:0px;word-spacing:0px;fill:#000000;fill-opacity:1;stroke:none;stroke-width:1px;stroke-linecap:butt;stroke-linejoin:miter;stroke-opacity:1"
       transform="matrix(0.26458333,0,0,0.26458333,-121.2956,109.11017)"><flowRegion
         id="flowRegion6067-6"><rect
           id="rect6069-1"
           width="30"
           height="50"
           x="710.50079"
           y="380.50076" /></flowRegion><flowPara
         id="flowPara6071-8">18°0</flowPara></flowRoot>    <rect
       style="fill:none;fill-opacity:1;stroke:none;stroke-width:0.26499999;stroke-miterlimit:4;stroke-dasharray:none;stroke-dashoffset:0;stroke-opacity:1"
       id="rect866"
       width="201.08333"
       height="211.66666"
       x="-10.583332"
       y="5.9583287" />
    <g
       id="matplotlib.axis_2"
       style="stroke-linecap:butt;stroke-linejoin:round"
       transform="matrix(0.35277777,0,0,0.35277777,87.93478,69.542794)" />
    <g
       id="line2d_7-2"
       style="stroke:#008100;stroke-linecap:butt;stroke-linejoin:round;stroke-opacity:1"
       transform="matrix(0.1624507,0,0,0.1624507,48.430124,39.323725)">
      <path
         id="path1186-6"
         style="fill:none;stroke:#008100;stroke-width:1.5;stroke-linecap:square;stroke-linejoin:round;stroke-opacity:1"
         d="m 56.790204,170.2246 4.858776,25.43118 2.429387,11.59802 1.619592,6.94789 1.619592,6.15315 1.619592,5.2325 1.619592,4.20442 0.809796,1.68872 0.809796,1.40089 0.809795,1.10576 0.809796,0.8048 0.809796,0.49954 0.809796,0.19154 0.809796,-0.11766 0.809796,-0.42647 0.809796,-0.73335 0.809796,-1.03671 0.809796,-1.33502 0.809796,-1.62679 1.619592,-4.09518 1.619591,-5.1471 1.619592,-6.0961 1.619592,-6.92281 2.429388,-11.62576 3.239183,-16.98497 4.858776,-25.85398 2.429388,-11.81999 1.619592,-7.09296 1.61959,-6.29249 1.61959,-5.36328 1.61959,-4.324 0.8098,-1.74353 0.8098,-1.45203 0.80979,-1.15295 0.8098,-0.8478 0.80979,-0.53815 0.8098,-0.22555 0.8098,0.0884 0.80979,0.40216 0.8098,0.71407 0.80979,1.02257 0.8098,1.3261 0.8098,1.62312 1.61959,4.10367 1.61959,5.1765 1.61959,6.14582 1.61959,6.99186 2.42939,11.76243 3.23918,17.21891 4.85878,26.27615 2.42939,12.04256 1.61959,7.23878 1.61959,6.43282 1.61959,5.49528 1.6196,4.44499 0.80979,1.79915 0.8098,1.50398 0.80979,1.201 0.8098,0.8917 0.80979,0.57767 0.8098,0.2605 0.8098,-0.0582 0.80979,-0.37686 0.8098,-0.69381 0.80979,-1.00745 0.8098,-1.31619 0.8098,-1.61847 1.61959,-4.11023 1.61959,-5.20406 1.61959,-6.19383 1.61959,-7.05934 2.42939,-11.8971 3.23918,-17.45099 5.66858,-30.91735 2.42938,-11.83081 1.6196,-6.99758 1.61959,-6.11696 1.61959,-5.11107 1.61959,-4.00018 0.8098,-1.55675 0.80979,-1.2499 0.8098,-0.93648 0.8098,-0.61811 0.80979,-0.29639 0.8098,0.0271 0.80979,0.35059 0.8098,0.67257 0.80979,0.99133 0.8098,1.30529 0.8098,1.61283 0.80979,1.9124 1.61959,4.684 1.6196,5.74933 1.61959,6.69949 1.61959,7.51507 2.42939,12.46697 4.04898,22.53779 4.04898,22.26782 2.42939,12.05401 1.61959,7.14262 1.61959,6.25556 1.61959,5.24045 1.61959,4.11771 0.8098,1.61033 0.80979,1.29964 0.8098,0.98214 0.8098,0.65945 0.80979,0.33321 0.8098,0.005 0.80979,-0.32336 0.8098,-0.65033 0.8098,-0.97422 0.80979,-1.29339 0.8098,-1.60621 0.80979,-1.91107 1.61959,-4.69726 1.6196,-5.78355 1.61959,-6.75397 1.61959,-7.58873 2.42939,-12.61005 4.04898,-22.84623 4.04898,-22.62943 2.42938,-12.27778 1.6196,-7.2884 1.61959,-6.39516 1.61959,-5.37105 1.61959,-4.23668 0.8098,-1.66469 0.80979,-1.35021 0.8098,-1.02867 0.8098,-0.7017 0.80979,-0.37096 0.8098,-0.0381 0.80979,0.29514 0.8098,0.62711 0.8098,0.95612 0.80979,1.28049 0.8098,1.59857 0.80979,1.90875 1.6196,4.70857 1.61959,5.81589 1.61959,6.80671 1.61959,7.66078 2.42939,12.75109 3.23918,18.43981 4.85878,27.70311 2.42939,12.50209 1.61959,7.43486 1.61959,6.53571 1.61959,5.50284 1.61959,4.35706 0.8098,1.71982 0.80979,1.4016 0.8098,1.07606 0.8098,0.74484 0.80979,0.40963 0.8098,0.0721 0.80979,-0.26595 0.8098,-0.6029 0.8098,-0.93702 0.80979,-1.26658 0.8098,-1.58993 0.80979,-1.90543 1.6196,-4.7179 1.61959,-5.84633 1.61959,-6.85765 1.61959,-7.73119 2.42939,-12.89002 3.23918,-18.67702 4.85878,-28.13011 2.42939,-12.72684 1.61959,-7.58197 1.61959,-6.67716 1.61959,-5.63579 1.61959,-4.4788 0.8098,-1.77573 0.80979,-1.4538 0.8098,-1.12429 0.8098,-0.78887 0.80979,-0.44923 0.8098,-0.1071 0.80979,0.23579 0.8098,0.57771 0.8098,0.9169 0.80979,1.25167 0.8098,1.58028 0.80979,1.90109 1.6196,4.72524 1.61959,5.87484 1.61959,6.90677 1.61959,7.79993 2.42939,13.02677 3.23918,18.91209 4.85878,28.55594 2.42939,12.95195 1.61959,7.72967 1.61959,6.81948 1.61959,5.76985 1.61959,4.6019 0.8098,1.83238 0.8098,1.50679 0.80979,1.17337 0.8098,0.83377 0.80979,0.48974 0.8098,0.14301 0.80979,-0.20467 0.8098,-0.55152 0.8098,-0.89579 0.80979,-1.23574 0.8098,-1.56961 0.80979,-1.89574 1.6196,-4.73055 1.61959,-5.90141 1.61959,-6.95403 1.61959,-7.86694 2.42939,-13.16129 3.23918,-19.14494 4.85878,-28.98041 2.42939,-13.17736 1.61959,-7.87792 1.61959,-6.96262 1.61959,-5.90499 1.61959,-4.72631 0.8098,-1.88976 0.8098,-1.56057 0.80979,-1.22327 0.8098,-0.87955 0.80979,-0.53116 0.8098,-0.17985 0.8098,0.17258 0.80979,0.52435 0.8098,0.87368 0.80979,1.21879 0.8098,1.55793 0.80979,1.88935 1.6196,4.73385 1.61959,5.92598 1.61959,6.99941 1.61959,7.93221 2.42939,13.29348 3.23918,19.37548 1.6196,9.95673 v 0"
         clip-path="url(#p134a8bdbe0-3-0)"
         inkscape:connector-curvature="0" />
    </g>
    <g
       id="matplotlib.axis_2-2"
       style="stroke-linecap:butt;stroke-linejoin:round"
       transform="matrix(0.35277777,0,0,0.35277777,130.38667,45.255669)" />
    <g
       id="line2d_7"
       style="stroke-linecap:butt;stroke-linejoin:round"
       transform="matrix(0.23566562,0,0,0.22268195,35.5792,-9.3430651)">
      <path
         id="path1775"
         style="fill:none;stroke:#000000;stroke-width:1.5;stroke-linecap:square;stroke-linejoin:round"
         d="m 56.790204,148.0672 1.619592,10.01788 1.619592,7.87757 1.619592,6.37211 0.809796,2.5335 0.809795,1.50414 0.809796,0.24179 0.809796,-0.95737 0.809796,-2.01531 0.809796,-2.85908 1.619592,-6.29245 0.809796,-1.72236 0.809796,0.51818 0.809796,3.28407 0.809796,6.02952 0.809796,8.24251 3.239183,37.63592 0.809796,7.05104 0.809796,4.62429 0.809796,1.61411 0.809796,-1.56441 0.809796,-4.58151 0.809796,-7.28072 0.809796,-9.5808 1.619591,-24.251 2.429388,-39.22572 1.619592,-21.27594 0.809796,-8.90682 0.809796,-7.64709 0.809796,-6.14155 0.809796,-4.590877 0.809796,-3.154001 0.809796,-1.615751 0.809795,0.369561 0.809796,2.882312 0.809796,5.648856 0.809796,8.24074 0.809796,10.33177 1.619592,24.46836 2.429388,39.29046 0.809792,11.1666 0.8098,8.93417 0.8098,6.24963 0.80979,3.4473 0.8098,0.83025 0.80979,-1.37905 0.8098,-2.95549 1.61959,-7.03604 0.8098,-2.10692 0.80979,-0.10169 0.8098,2.32874 0.80979,4.65313 2.42939,18.90438 0.8098,4.05953 0.80979,1.30206 0.8098,-1.51383 0.8098,-3.83103 1.61959,-11.44506 0.80979,-5.71324 0.8098,-4.5805 0.8098,-2.98849 0.80979,-1.34143 0.8098,-0.0545 0.80979,0.49558 0.8098,0.22505 0.8098,-0.594 0.80979,-1.68142 0.8098,-2.91009 0.80979,-4.17632 1.61959,-11.11336 1.6196,-11.18111 1.61959,-8.96914 0.80979,-3.24783 0.8098,-2.09954 0.8098,-0.75876 0.80979,0.81021 0.8098,2.58972 0.80979,4.39939 0.8098,6.10009 0.8098,7.67223 1.61959,18.95141 0.80979,9.59515 0.8098,7.81322 0.8098,4.99192 0.80979,1.92107 0.8098,-0.96663 0.80979,-3.63483 0.8098,-6.06293 0.80979,-8.19511 1.6196,-20.8771 1.61959,-21.3296 0.80979,-8.75876 0.8098,-6.73746 0.8098,-4.58994 0.80979,-2.7745 0.8098,-1.49982 0.80979,-0.56361 0.8098,0.38268 0.8098,1.43502 0.80979,2.37428 1.61959,6.35129 0.8098,3.62246 0.8098,4.15756 0.80979,5.16342 0.8098,6.44549 4.04898,37.11948 0.80979,3.95516 0.8098,1.47515 0.80979,-0.64505 0.8098,-1.95929 0.8098,-2.66021 0.80979,-3.42665 0.8098,-4.73833 0.80979,-6.32977 3.23919,-29.04652 0.80979,-3.95967 0.8098,-1.39954 0.8098,0.97722 0.80979,2.79196 1.61959,8.33242 0.8098,4.20838 0.8098,3.47908 0.80979,2.51269 0.8098,1.61755 0.80979,0.87983 0.8098,0.30246 0.80979,0.099 0.8098,0.4883 0.8098,1.28467 0.80979,2.06237 2.42939,7.36018 0.8098,1.83615 0.80979,1.29719 0.8098,0.61093 0.80979,-0.22967 0.8098,-1.12999 0.8098,-1.9302 2.42938,-7.66186 1.6196,-4.68387 0.80979,-1.55642 0.8098,-0.84821 0.80979,-0.31695 1.61959,-0.0886 0.8098,0.0511 0.8098,0.18099 0.80979,0.34206 0.8098,0.61836 0.8098,1.11144 0.80979,1.78295 0.8098,2.5402 0.80979,3.32988 1.61959,8.50917 1.6196,8.43957 0.80979,2.80359 0.8098,1.14475 0.80979,-0.69169 0.8098,-2.36746 0.8098,-3.70904 0.80979,-4.75704 0.8098,-5.82184 0.80979,-7.22893 0.8098,-8.89581 3.23918,-41.96695 0.8098,-6.79928 0.80979,-3.49077 0.8098,0.0524 0.8098,3.29357 0.80979,5.68137 1.61959,13.5263 1.6196,11.12241 1.61959,10.08273 3.23918,23.43094 0.8098,4.13536 0.80979,2.48643 0.8098,0.41525 0.8098,-1.78535 0.80979,-3.73312 0.8098,-5.2102 3.23918,-23.83639 0.8098,-4.26652 0.80979,-3.36427 0.8098,-2.61808 0.80979,-1.96398 0.8098,-1.35444 0.8098,-0.84398 0.80979,-0.5902 0.8098,-0.81998 0.80979,-1.58031 0.8098,-2.5066 1.61959,-5.79617 0.8098,-1.88393 0.80979,-0.67252 0.8098,0.68354 0.8098,2.22542 0.80979,3.93139 0.8098,5.52394 1.61959,13.1125 0.8098,5.5613 0.80979,3.78305 0.8098,1.58061 0.80979,-0.78011 0.8098,-3.03826 0.80979,-4.90201 1.6196,-12.98088 1.61959,-12.85192 0.80979,-4.50294 0.8098,-2.08685 0.8098,0.67866 0.80979,3.03709 0.8098,4.61995 1.61959,11.67946 1.61959,12.34024 1.61959,10.36841 1.6196,8.40147 0.80979,3.36811 0.8098,2.66686 0.80979,1.89718 0.8098,1.11569 0.8098,0.33911 0.80979,-0.50945 0.8098,-1.47157 0.80979,-2.40834 2.42939,-8.97399 0.8098,-1.16273 0.80979,0.77787 0.8098,2.53192 0.80979,3.74097 0.8098,4.49787 0.8098,5.16824 0.80979,6.13013 1.61959,15.68114 1.6196,15.61825 0.80979,5.88148 0.8098,4.3923 0.80979,3.03108 0.8098,1.64356 0.8098,-0.0606 0.80979,-2.14142 0.8098,-4.29492 0.80979,-6.04764 2.42939,-20.57742 0.8098,-5.24235 0.80979,-3.61698 0.8098,-1.55592 0.80979,0.71475 0.8098,2.7474 1.61959,8.87054 0.8098,4.47425 0.80979,3.72122 0.8098,2.69656 0.8098,1.45175 0.80979,0.12154 0.8098,-1.00897 0.80979,-1.8142 0.8098,-2.51075 0.8098,-3.47036 0.80979,-4.85781 0.8098,-6.37155 3.23918,-28.92747 0.8098,-5.53506 0.80979,-4.27757 0.8098,-2.71147 0.80979,-1.07959 0.8098,0.27254 0.8098,1.26116 0.80979,2.07583 0.8098,2.82693 4.85877,20.20942 0.8098,2.33094 0.8098,1.53265 0.80979,0.5901 0.8098,-0.52354 0.80979,-1.67861 0.8098,-2.55821 1.61959,-6.2531 0.8098,-3.47588 0.80979,-3.97159 0.8098,-4.93382 0.8098,-6.38032 0.80979,-8.01949 1.61959,-19.58628 1.61959,-19.12177 0.8098,-6.9891 0.8098,-4.35875 0.80979,-1.727262 0.8098,0.483982 0.80979,2.20775 0.8098,3.62193 0.8098,4.87426 1.61959,12.24559 2.42939,18.78142 2.42938,17.91505 1.61959,12.85577 0.8098,5.16634 0.8098,3.2515 0.80979,0.72227 0.8098,-2.04605 0.80979,-4.59178 0.8098,-6.56587 3.23918,-30.20088 0.8098,-4.41357 0.8098,-2.14291 0.80979,0.39471 0.8098,3.25597 0.80979,6.22426 0.8098,8.76313 1.61959,20.11067 0.8098,8.20833 0.80979,5.44698 0.8098,2.07706 0.8098,-1.49007 0.80979,-4.65261 3.23918,-26.58841 0.8098,-2.91718 0.8098,0.11484 0.80979,3.31158 0.8098,6.14639 3.23918,31.58848 0.8098,4.78383 0.80979,2.6786 0.8098,0.3537 0.8098,-2.18285 0.80979,-4.74679 0.8098,-6.95271 1.61959,-16.65931 0.8098,-6.92116 0.80979,-4.02979 0.8098,-0.0257 0.80979,4.27289 0.8098,7.87433 1.61959,21.55905 1.61959,21.53189 0.8098,8.78247 0.8098,6.6946 0.80979,3.75838 0.8098,-0.038 0.80979,-4.20335 0.8098,-7.9967 1.61959,-22.94054 1.61959,-24.62498 0.8098,-11.07783 0.80979,-9.54279 0.8098,-7.69998 0.8098,-5.69453 v 0"
         clip-path="url(#p03bd9d4bef)"
         inkscape:connector-curvature="0" />
    </g>
  </g>
</svg>
