<?xml version="1.0" encoding="utf-8" standalone="no"?>
<!DOCTYPE svg PUBLIC "-//W3C//DTD SVG 1.1//EN"
  "http://www.w3.org/Graphics/SVG/1.1/DTD/svg11.dtd">
<!-- Created with matplotlib (http://matplotlib.org/) -->
<svg height="345.6pt" version="1.1" viewBox="0 0 460.8 345.6" width="460.8pt" xmlns="http://www.w3.org/2000/svg" xmlns:xlink="http://www.w3.org/1999/xlink">
 <defs>
  <style type="text/css">
*{stroke-linecap:butt;stroke-linejoin:round;}
  </style>
 </defs>
 <g id="figure_1">
  <g id="patch_1">
   <path d="M 0 345.6 
L 460.8 345.6 
L 460.8 0 
L 0 0 
z
" style="fill:#ffffff;"/>
  </g>
  <g id="axes_1">
   <g id="patch_2">
    <path d="M 57.6 307.584 
L 414.72 307.584 
L 414.72 41.472 
L 57.6 41.472 
z
" style="fill:#ffffff;"/>
   </g>
   <g id="matplotlib.axis_1">
    <g id="xtick_1">
     <g id="line2d_1">
      <defs>
       <path d="M 0 0 
L 0 3.5 
" id="m402efc2086" style="stroke:#000000;stroke-width:0.8;"/>
      </defs>
      <g>
       <use style="stroke:#000000;stroke-width:0.8;" x="57.6" xlink:href="#m402efc2086" y="307.584"/>
      </g>
     </g>
     <g id="text_1">
      <!-- 0.250 -->
      <defs>
       <path d="M 31.78125 66.40625 
Q 24.171875 66.40625 20.328125 58.90625 
Q 16.5 51.421875 16.5 36.375 
Q 16.5 21.390625 20.328125 13.890625 
Q 24.171875 6.390625 31.78125 6.390625 
Q 39.453125 6.390625 43.28125 13.890625 
Q 47.125 21.390625 47.125 36.375 
Q 47.125 51.421875 43.28125 58.90625 
Q 39.453125 66.40625 31.78125 66.40625 
z
M 31.78125 74.21875 
Q 44.046875 74.21875 50.515625 64.515625 
Q 56.984375 54.828125 56.984375 36.375 
Q 56.984375 17.96875 50.515625 8.265625 
Q 44.046875 -1.421875 31.78125 -1.421875 
Q 19.53125 -1.421875 13.0625 8.265625 
Q 6.59375 17.96875 6.59375 36.375 
Q 6.59375 54.828125 13.0625 64.515625 
Q 19.53125 74.21875 31.78125 74.21875 
z
" id="DejaVuSans-30"/>
       <path d="M 10.6875 12.40625 
L 21 12.40625 
L 21 0 
L 10.6875 0 
z
" id="DejaVuSans-2e"/>
       <path d="M 19.1875 8.296875 
L 53.609375 8.296875 
L 53.609375 0 
L 7.328125 0 
L 7.328125 8.296875 
Q 12.9375 14.109375 22.625 23.890625 
Q 32.328125 33.6875 34.8125 36.53125 
Q 39.546875 41.84375 41.421875 45.53125 
Q 43.3125 49.21875 43.3125 52.78125 
Q 43.3125 58.59375 39.234375 62.25 
Q 35.15625 65.921875 28.609375 65.921875 
Q 23.96875 65.921875 18.8125 64.3125 
Q 13.671875 62.703125 7.8125 59.421875 
L 7.8125 69.390625 
Q 13.765625 71.78125 18.9375 73 
Q 24.125 74.21875 28.421875 74.21875 
Q 39.75 74.21875 46.484375 68.546875 
Q 53.21875 62.890625 53.21875 53.421875 
Q 53.21875 48.921875 51.53125 44.890625 
Q 49.859375 40.875 45.40625 35.40625 
Q 44.1875 33.984375 37.640625 27.21875 
Q 31.109375 20.453125 19.1875 8.296875 
z
" id="DejaVuSans-32"/>
       <path d="M 10.796875 72.90625 
L 49.515625 72.90625 
L 49.515625 64.59375 
L 19.828125 64.59375 
L 19.828125 46.734375 
Q 21.96875 47.46875 24.109375 47.828125 
Q 26.265625 48.1875 28.421875 48.1875 
Q 40.625 48.1875 47.75 41.5 
Q 54.890625 34.8125 54.890625 23.390625 
Q 54.890625 11.625 47.5625 5.09375 
Q 40.234375 -1.421875 26.90625 -1.421875 
Q 22.3125 -1.421875 17.546875 -0.640625 
Q 12.796875 0.140625 7.71875 1.703125 
L 7.71875 11.625 
Q 12.109375 9.234375 16.796875 8.0625 
Q 21.484375 6.890625 26.703125 6.890625 
Q 35.15625 6.890625 40.078125 11.328125 
Q 45.015625 15.765625 45.015625 23.390625 
Q 45.015625 31 40.078125 35.4375 
Q 35.15625 39.890625 26.703125 39.890625 
Q 22.75 39.890625 18.8125 39.015625 
Q 14.890625 38.140625 10.796875 36.28125 
z
" id="DejaVuSans-35"/>
      </defs>
      <g transform="translate(43.285938 322.182437)scale(0.1 -0.1)">
       <use xlink:href="#DejaVuSans-30"/>
       <use x="63.623047" xlink:href="#DejaVuSans-2e"/>
       <use x="95.410156" xlink:href="#DejaVuSans-32"/>
       <use x="159.033203" xlink:href="#DejaVuSans-35"/>
       <use x="222.65625" xlink:href="#DejaVuSans-30"/>
      </g>
     </g>
    </g>
    <g id="xtick_2">
     <g id="line2d_2">
      <g>
       <use style="stroke:#000000;stroke-width:0.8;" x="129.024" xlink:href="#m402efc2086" y="307.584"/>
      </g>
     </g>
     <g id="text_2">
      <!-- 0.252 -->
      <g transform="translate(114.709938 322.182437)scale(0.1 -0.1)">
       <use xlink:href="#DejaVuSans-30"/>
       <use x="63.623047" xlink:href="#DejaVuSans-2e"/>
       <use x="95.410156" xlink:href="#DejaVuSans-32"/>
       <use x="159.033203" xlink:href="#DejaVuSans-35"/>
       <use x="222.65625" xlink:href="#DejaVuSans-32"/>
      </g>
     </g>
    </g>
    <g id="xtick_3">
     <g id="line2d_3">
      <g>
       <use style="stroke:#000000;stroke-width:0.8;" x="200.448" xlink:href="#m402efc2086" y="307.584"/>
      </g>
     </g>
     <g id="text_3">
      <!-- 0.254 -->
      <defs>
       <path d="M 37.796875 64.3125 
L 12.890625 25.390625 
L 37.796875 25.390625 
z
M 35.203125 72.90625 
L 47.609375 72.90625 
L 47.609375 25.390625 
L 58.015625 25.390625 
L 58.015625 17.1875 
L 47.609375 17.1875 
L 47.609375 0 
L 37.796875 0 
L 37.796875 17.1875 
L 4.890625 17.1875 
L 4.890625 26.703125 
z
" id="DejaVuSans-34"/>
      </defs>
      <g transform="translate(186.133938 322.182437)scale(0.1 -0.1)">
       <use xlink:href="#DejaVuSans-30"/>
       <use x="63.623047" xlink:href="#DejaVuSans-2e"/>
       <use x="95.410156" xlink:href="#DejaVuSans-32"/>
       <use x="159.033203" xlink:href="#DejaVuSans-35"/>
       <use x="222.65625" xlink:href="#DejaVuSans-34"/>
      </g>
     </g>
    </g>
    <g id="xtick_4">
     <g id="line2d_4">
      <g>
       <use style="stroke:#000000;stroke-width:0.8;" x="271.872" xlink:href="#m402efc2086" y="307.584"/>
      </g>
     </g>
     <g id="text_4">
      <!-- 0.256 -->
      <defs>
       <path d="M 33.015625 40.375 
Q 26.375 40.375 22.484375 35.828125 
Q 18.609375 31.296875 18.609375 23.390625 
Q 18.609375 15.53125 22.484375 10.953125 
Q 26.375 6.390625 33.015625 6.390625 
Q 39.65625 6.390625 43.53125 10.953125 
Q 47.40625 15.53125 47.40625 23.390625 
Q 47.40625 31.296875 43.53125 35.828125 
Q 39.65625 40.375 33.015625 40.375 
z
M 52.59375 71.296875 
L 52.59375 62.3125 
Q 48.875 64.0625 45.09375 64.984375 
Q 41.3125 65.921875 37.59375 65.921875 
Q 27.828125 65.921875 22.671875 59.328125 
Q 17.53125 52.734375 16.796875 39.40625 
Q 19.671875 43.65625 24.015625 45.921875 
Q 28.375 48.1875 33.59375 48.1875 
Q 44.578125 48.1875 50.953125 41.515625 
Q 57.328125 34.859375 57.328125 23.390625 
Q 57.328125 12.15625 50.6875 5.359375 
Q 44.046875 -1.421875 33.015625 -1.421875 
Q 20.359375 -1.421875 13.671875 8.265625 
Q 6.984375 17.96875 6.984375 36.375 
Q 6.984375 53.65625 15.1875 63.9375 
Q 23.390625 74.21875 37.203125 74.21875 
Q 40.921875 74.21875 44.703125 73.484375 
Q 48.484375 72.75 52.59375 71.296875 
z
" id="DejaVuSans-36"/>
      </defs>
      <g transform="translate(257.557938 322.182437)scale(0.1 -0.1)">
       <use xlink:href="#DejaVuSans-30"/>
       <use x="63.623047" xlink:href="#DejaVuSans-2e"/>
       <use x="95.410156" xlink:href="#DejaVuSans-32"/>
       <use x="159.033203" xlink:href="#DejaVuSans-35"/>
       <use x="222.65625" xlink:href="#DejaVuSans-36"/>
      </g>
     </g>
    </g>
    <g id="xtick_5">
     <g id="line2d_5">
      <g>
       <use style="stroke:#000000;stroke-width:0.8;" x="343.296" xlink:href="#m402efc2086" y="307.584"/>
      </g>
     </g>
     <g id="text_5">
      <!-- 0.258 -->
      <defs>
       <path d="M 31.78125 34.625 
Q 24.75 34.625 20.71875 30.859375 
Q 16.703125 27.09375 16.703125 20.515625 
Q 16.703125 13.921875 20.71875 10.15625 
Q 24.75 6.390625 31.78125 6.390625 
Q 38.8125 6.390625 42.859375 10.171875 
Q 46.921875 13.96875 46.921875 20.515625 
Q 46.921875 27.09375 42.890625 30.859375 
Q 38.875 34.625 31.78125 34.625 
z
M 21.921875 38.8125 
Q 15.578125 40.375 12.03125 44.71875 
Q 8.5 49.078125 8.5 55.328125 
Q 8.5 64.0625 14.71875 69.140625 
Q 20.953125 74.21875 31.78125 74.21875 
Q 42.671875 74.21875 48.875 69.140625 
Q 55.078125 64.0625 55.078125 55.328125 
Q 55.078125 49.078125 51.53125 44.71875 
Q 48 40.375 41.703125 38.8125 
Q 48.828125 37.15625 52.796875 32.3125 
Q 56.78125 27.484375 56.78125 20.515625 
Q 56.78125 9.90625 50.3125 4.234375 
Q 43.84375 -1.421875 31.78125 -1.421875 
Q 19.734375 -1.421875 13.25 4.234375 
Q 6.78125 9.90625 6.78125 20.515625 
Q 6.78125 27.484375 10.78125 32.3125 
Q 14.796875 37.15625 21.921875 38.8125 
z
M 18.3125 54.390625 
Q 18.3125 48.734375 21.84375 45.5625 
Q 25.390625 42.390625 31.78125 42.390625 
Q 38.140625 42.390625 41.71875 45.5625 
Q 45.3125 48.734375 45.3125 54.390625 
Q 45.3125 60.0625 41.71875 63.234375 
Q 38.140625 66.40625 31.78125 66.40625 
Q 25.390625 66.40625 21.84375 63.234375 
Q 18.3125 60.0625 18.3125 54.390625 
z
" id="DejaVuSans-38"/>
      </defs>
      <g transform="translate(328.981938 322.182437)scale(0.1 -0.1)">
       <use xlink:href="#DejaVuSans-30"/>
       <use x="63.623047" xlink:href="#DejaVuSans-2e"/>
       <use x="95.410156" xlink:href="#DejaVuSans-32"/>
       <use x="159.033203" xlink:href="#DejaVuSans-35"/>
       <use x="222.65625" xlink:href="#DejaVuSans-38"/>
      </g>
     </g>
    </g>
    <g id="xtick_6">
     <g id="line2d_6">
      <g>
       <use style="stroke:#000000;stroke-width:0.8;" x="414.72" xlink:href="#m402efc2086" y="307.584"/>
      </g>
     </g>
     <g id="text_6">
      <!-- 0.260 -->
      <g transform="translate(400.405938 322.182437)scale(0.1 -0.1)">
       <use xlink:href="#DejaVuSans-30"/>
       <use x="63.623047" xlink:href="#DejaVuSans-2e"/>
       <use x="95.410156" xlink:href="#DejaVuSans-32"/>
       <use x="159.033203" xlink:href="#DejaVuSans-36"/>
       <use x="222.65625" xlink:href="#DejaVuSans-30"/>
      </g>
     </g>
    </g>
    <g id="text_7">
     <!-- Time -->
     <defs>
      <path d="M -0.296875 72.90625 
L 61.375 72.90625 
L 61.375 64.59375 
L 35.5 64.59375 
L 35.5 0 
L 25.59375 0 
L 25.59375 64.59375 
L -0.296875 64.59375 
z
" id="DejaVuSans-54"/>
      <path d="M 9.421875 54.6875 
L 18.40625 54.6875 
L 18.40625 0 
L 9.421875 0 
z
M 9.421875 75.984375 
L 18.40625 75.984375 
L 18.40625 64.59375 
L 9.421875 64.59375 
z
" id="DejaVuSans-69"/>
      <path d="M 52 44.1875 
Q 55.375 50.25 60.0625 53.125 
Q 64.75 56 71.09375 56 
Q 79.640625 56 84.28125 50.015625 
Q 88.921875 44.046875 88.921875 33.015625 
L 88.921875 0 
L 79.890625 0 
L 79.890625 32.71875 
Q 79.890625 40.578125 77.09375 44.375 
Q 74.3125 48.1875 68.609375 48.1875 
Q 61.625 48.1875 57.5625 43.546875 
Q 53.515625 38.921875 53.515625 30.90625 
L 53.515625 0 
L 44.484375 0 
L 44.484375 32.71875 
Q 44.484375 40.625 41.703125 44.40625 
Q 38.921875 48.1875 33.109375 48.1875 
Q 26.21875 48.1875 22.15625 43.53125 
Q 18.109375 38.875 18.109375 30.90625 
L 18.109375 0 
L 9.078125 0 
L 9.078125 54.6875 
L 18.109375 54.6875 
L 18.109375 46.1875 
Q 21.1875 51.21875 25.484375 53.609375 
Q 29.78125 56 35.6875 56 
Q 41.65625 56 45.828125 52.96875 
Q 50 49.953125 52 44.1875 
z
" id="DejaVuSans-6d"/>
      <path d="M 56.203125 29.59375 
L 56.203125 25.203125 
L 14.890625 25.203125 
Q 15.484375 15.921875 20.484375 11.0625 
Q 25.484375 6.203125 34.421875 6.203125 
Q 39.59375 6.203125 44.453125 7.46875 
Q 49.3125 8.734375 54.109375 11.28125 
L 54.109375 2.78125 
Q 49.265625 0.734375 44.1875 -0.34375 
Q 39.109375 -1.421875 33.890625 -1.421875 
Q 20.796875 -1.421875 13.15625 6.1875 
Q 5.515625 13.8125 5.515625 26.8125 
Q 5.515625 40.234375 12.765625 48.109375 
Q 20.015625 56 32.328125 56 
Q 43.359375 56 49.78125 48.890625 
Q 56.203125 41.796875 56.203125 29.59375 
z
M 47.21875 32.234375 
Q 47.125 39.59375 43.09375 43.984375 
Q 39.0625 48.390625 32.421875 48.390625 
Q 24.90625 48.390625 20.390625 44.140625 
Q 15.875 39.890625 15.1875 32.171875 
z
" id="DejaVuSans-65"/>
     </defs>
     <g transform="translate(223.7725 335.860562)scale(0.1 -0.1)">
      <use xlink:href="#DejaVuSans-54"/>
      <use x="61.037109" xlink:href="#DejaVuSans-69"/>
      <use x="88.820312" xlink:href="#DejaVuSans-6d"/>
      <use x="186.232422" xlink:href="#DejaVuSans-65"/>
     </g>
    </g>
   </g>
   <g id="matplotlib.axis_2"/>
   <g id="line2d_7">
    <path clip-path="url(#pefd29ed4fd)" d="M 56.790204 160.596925 
L 58.409796 165.327418 
L 59.219592 166.948401 
L 60.029388 167.566827 
L 60.839184 166.995836 
L 61.64898 165.193909 
L 62.458776 162.320054 
L 64.078367 155.093571 
L 64.888163 152.148867 
L 65.697959 150.611728 
L 66.507755 150.767242 
L 67.317551 152.49729 
L 68.127347 155.545485 
L 68.937143 159.717191 
L 70.556735 170.613926 
L 72.176327 181.988413 
L 72.986122 186.211383 
L 73.795918 188.921886 
L 74.605714 190.138768 
L 75.41551 190.102935 
L 76.225306 189.193582 
L 77.844898 186.141274 
L 79.46449 183.202478 
L 81.893878 179.847248 
L 83.513469 176.633662 
L 84.323265 175.042577 
L 86.752653 170.896482 
L 89.182041 164.606404 
L 89.991837 163.115539 
L 91.611429 160.723073 
L 93.23102 157.546437 
L 94.040816 156.610358 
L 94.850612 157.124037 
L 95.660408 159.664006 
L 96.470204 164.547657 
L 97.28 171.68303 
L 100.519184 206.646351 
L 101.32898 211.127678 
L 102.138776 211.82856 
L 102.948571 208.667308 
L 103.758367 202.127596 
L 104.568163 192.989877 
L 107.807347 150.1851 
L 108.617143 142.732447 
L 109.426939 137.917359 
L 110.236735 135.654227 
L 111.046531 135.444319 
L 111.856327 136.670013 
L 112.666122 138.8399 
L 113.475918 141.65805 
L 115.09551 148.756285 
L 116.715102 156.016518 
L 117.524898 158.740788 
L 118.334694 160.543237 
L 119.14449 161.242336 
L 119.954286 161.012431 
L 120.764082 160.579037 
L 121.573878 160.723371 
L 122.383673 161.644918 
L 124.003265 164.572525 
L 125.622857 168.34037 
L 126.432653 170.206945 
L 127.242449 171.320677 
L 128.052245 171.259272 
L 128.862041 170.045319 
L 129.671837 168.019727 
L 132.91102 158.282502 
L 133.720816 156.784656 
L 134.530612 156.604241 
L 135.340408 158.144277 
L 136.150204 161.430992 
L 139.389388 179.457359 
L 140.199184 182.107818 
L 141.00898 183.787749 
L 141.818776 184.434647 
L 142.628571 183.841782 
L 143.438367 181.774433 
L 144.248163 178.091715 
L 145.057959 172.970757 
L 147.487347 155.386418 
L 148.297143 150.905477 
L 149.106939 147.788881 
L 149.916735 145.955731 
L 150.726531 144.978131 
L 151.536327 144.429656 
L 152.346122 144.104256 
L 153.155918 143.967438 
L 153.965714 144.044594 
L 154.77551 144.353165 
L 155.585306 144.917098 
L 156.395102 145.813441 
L 157.204898 147.125432 
L 158.014694 148.942037 
L 158.82449 151.540797 
L 159.634286 155.360158 
L 160.444082 160.567502 
L 163.683265 185.884099 
L 164.493061 190.448048 
L 165.302857 193.42409 
L 166.112653 194.708496 
L 166.922449 194.399283 
L 167.732245 192.874224 
L 169.351837 188.147998 
L 170.161633 185.189056 
L 170.971429 181.248194 
L 171.781224 175.613455 
L 172.59102 167.729361 
L 173.400816 157.586735 
L 175.830204 122.763584 
L 176.64 113.756544 
L 177.449796 107.622783 
L 178.259592 104.75848 
L 179.069388 105.240187 
L 179.879184 108.804062 
L 180.68898 114.881763 
L 183.928163 146.149862 
L 184.737959 152.089345 
L 185.547755 157.018156 
L 186.357551 160.712462 
L 187.167347 162.767098 
L 187.977143 163.006528 
L 188.786939 161.611722 
L 189.596735 158.937049 
L 192.026122 148.285929 
L 192.835918 145.639945 
L 193.645714 143.798828 
L 194.45551 142.741267 
L 195.265306 142.583478 
L 196.075102 143.516001 
L 196.884898 145.516282 
L 197.694694 148.251699 
L 199.314286 154.839781 
L 201.743673 166.414601 
L 203.363265 174.084031 
L 204.173061 177.079768 
L 204.982857 178.756467 
L 205.792653 178.916135 
L 206.602449 177.737272 
L 207.412245 175.486364 
L 208.222041 172.404922 
L 210.651429 161.710656 
L 211.461224 158.843122 
L 212.27102 156.507986 
L 213.080816 154.653225 
L 213.890612 153.496975 
L 214.700408 153.597768 
L 215.510204 155.415558 
L 216.32 158.80082 
L 217.939592 167.096973 
L 218.749388 170.04432 
L 219.559184 170.878262 
L 220.36898 168.944257 
L 221.178776 164.200124 
L 221.988571 157.199008 
L 223.608163 140.612734 
L 224.417959 133.601017 
L 225.227755 128.901374 
L 226.037551 126.968508 
L 226.847347 127.787547 
L 227.657143 131.146381 
L 228.466939 136.746039 
L 229.276735 144.121492 
L 232.515918 177.619225 
L 233.325714 184.648223 
L 234.13551 190.073126 
L 234.945306 192.890289 
L 235.755102 192.519364 
L 236.564898 189.079455 
L 237.374694 183.229388 
L 239.804082 160.981856 
L 240.613878 155.658989 
L 241.423673 152.717673 
L 242.233469 152.315809 
L 243.043265 154.414802 
L 243.853061 158.856909 
L 244.662857 165.223686 
L 247.902041 195.02938 
L 248.711837 200.662985 
L 249.521633 204.676343 
L 250.331429 206.630371 
L 251.141224 206.336685 
L 251.95102 204.005724 
L 252.760816 200.220904 
L 254.380408 191.671238 
L 255.190204 188.291878 
L 256 185.773192 
L 256.809796 183.991618 
L 257.619592 182.780381 
L 260.04898 180.268266 
L 260.858776 178.602518 
L 261.668571 176.119746 
L 262.478367 172.742001 
L 263.288163 168.181783 
L 264.097959 162.074716 
L 264.907755 154.184085 
L 265.717551 144.350963 
L 267.337143 119.31449 
L 268.956735 92.568256 
L 269.766531 81.546775 
L 270.576327 73.729064 
L 271.386122 70.013648 
L 272.195918 70.72854 
L 273.005714 75.67871 
L 273.81551 84.305933 
L 274.625306 95.727499 
L 277.86449 147.948747 
L 278.674286 157.940919 
L 279.484082 165.190771 
L 280.293878 169.459054 
L 281.103673 170.780943 
L 281.913469 169.511585 
L 284.342857 160.619978 
L 285.152653 158.97735 
L 286.772245 156.890572 
L 287.582041 155.551189 
L 290.011429 149.975516 
L 290.821224 149.050709 
L 291.63102 149.192366 
L 292.440816 150.092486 
L 294.060408 152.383419 
L 294.870204 153.097031 
L 295.68 153.373989 
L 296.489796 153.458202 
L 297.299592 153.697899 
L 298.919184 154.892217 
L 299.72898 155.13315 
L 300.538776 154.546872 
L 301.348571 153.047088 
L 302.968163 149.053932 
L 303.777959 147.699605 
L 304.587755 147.151367 
L 305.397551 147.527948 
L 306.207347 148.820244 
L 308.636735 154.709067 
L 310.256327 159.109373 
L 311.066122 161.345068 
L 311.875918 162.973117 
L 312.685714 163.410229 
L 313.49551 162.213131 
L 314.305306 159.360039 
L 317.54449 143.794982 
L 318.354286 142.425903 
L 319.164082 143.290303 
L 319.973878 146.739746 
L 320.783673 152.449175 
L 322.403265 165.338135 
L 323.213061 169.157137 
L 324.022857 169.642623 
L 324.832653 166.629609 
L 325.642449 160.739691 
L 328.071837 137.988259 
L 328.881633 132.858771 
L 329.691429 130.135771 
L 330.501224 129.801622 
L 331.31102 131.377355 
L 332.120816 134.135821 
L 333.740408 141.329097 
L 336.169796 153.355686 
L 336.979592 156.715591 
L 337.789388 158.963979 
L 338.599184 159.833073 
L 339.40898 159.523039 
L 342.648163 155.599604 
L 343.457959 154.281242 
L 344.267755 152.351856 
L 345.077551 149.804577 
L 347.506939 140.603126 
L 349.126531 134.152534 
L 349.936327 131.48529 
L 352.365714 125.081963 
L 353.17551 122.190091 
L 353.985306 118.477054 
L 354.795102 113.566795 
L 355.604898 107.163592 
L 358.034286 85.299168 
L 358.844082 80.830148 
L 359.653878 79.268803 
L 360.463673 81.245283 
L 361.273469 87.218324 
L 362.083265 97.228061 
L 362.893061 110.63006 
L 365.322449 157.14218 
L 366.132245 169.20945 
L 366.942041 177.232691 
L 367.751837 180.624182 
L 368.561633 179.264296 
L 369.371429 173.507816 
L 370.181224 164.348388 
L 372.610612 132.466728 
L 373.420408 125.1338 
L 374.230204 120.68724 
L 375.04 119.187886 
L 375.849796 120.156293 
L 377.469388 124.855754 
L 378.279184 126.276999 
L 379.08898 126.42459 
L 379.898776 125.466741 
L 381.518367 122.311489 
L 382.328163 121.353202 
L 383.137959 121.341 
L 383.947755 122.360078 
L 384.757551 124.310533 
L 386.377143 129.60425 
L 387.186939 131.659285 
L 387.996735 132.607392 
L 388.806531 132.568553 
L 389.616327 132.121919 
L 390.426122 131.91015 
L 391.235918 132.388727 
L 392.045714 133.747078 
L 394.475102 140.168085 
L 395.284898 141.4327 
L 396.094694 141.622747 
L 396.90449 140.494973 
L 397.714286 137.883576 
L 398.524082 133.818316 
L 400.953469 118.04913 
L 401.763265 114.384281 
L 402.573061 112.665933 
L 403.382857 113.116409 
L 404.192653 115.520089 
L 405.002449 119.406048 
L 405.812245 124.444441 
L 406.622041 130.606444 
L 407.431837 138.01875 
L 409.051429 156.112845 
L 410.67102 174.735737 
L 412.290612 191.373952 
L 413.910204 205.494009 
L 414.72 210.605984 
L 415.529796 213.966072 
L 415.529796 213.966072 
" style="fill:none;stroke:#000000;stroke-linecap:square;stroke-width:1.5;"/>
   </g>
   <g id="patch_3">
    <path d="M 57.6 307.584 
L 57.6 41.472 
" style="fill:none;stroke:#000000;stroke-linecap:square;stroke-linejoin:miter;stroke-width:0.8;"/>
   </g>
   <g id="patch_4">
    <path d="M 414.72 307.584 
L 414.72 41.472 
" style="fill:none;stroke:#000000;stroke-linecap:square;stroke-linejoin:miter;stroke-width:0.8;"/>
   </g>
   <g id="patch_5">
    <path d="M 57.6 307.584 
L 414.72 307.584 
" style="fill:none;stroke:#000000;stroke-linecap:square;stroke-linejoin:miter;stroke-width:0.8;"/>
   </g>
   <g id="patch_6">
    <path d="M 57.6 41.472 
L 414.72 41.472 
" style="fill:none;stroke:#000000;stroke-linecap:square;stroke-linejoin:miter;stroke-width:0.8;"/>
   </g>
  </g>
 </g>
 <defs>
  <clipPath id="pefd29ed4fd">
   <rect height="266.112" width="357.12" x="57.6" y="41.472"/>
  </clipPath>
 </defs>
</svg>
