<?xml version="1.0" encoding="utf-8" standalone="no"?>
<!DOCTYPE svg PUBLIC "-//W3C//DTD SVG 1.1//EN"
  "http://www.w3.org/Graphics/SVG/1.1/DTD/svg11.dtd">
<!-- Created with matplotlib (http://matplotlib.org/) -->
<svg height="345.6pt" version="1.1" viewBox="0 0 460.8 345.6" width="460.8pt" xmlns="http://www.w3.org/2000/svg" xmlns:xlink="http://www.w3.org/1999/xlink">
 <defs>
  <style type="text/css">
*{stroke-linecap:butt;stroke-linejoin:round;}
  </style>
 </defs>
 <g id="figure_1">
  <g id="patch_1">
   <path d="M 0 345.6 
L 460.8 345.6 
L 460.8 0 
L 0 0 
z
" style="fill:#ffffff;"/>
  </g>
  <g id="axes_1">
   <g id="patch_2">
    <path d="M 57.6 307.584 
L 414.72 307.584 
L 414.72 41.472 
L 57.6 41.472 
z
" style="fill:#ffffff;"/>
   </g>
   <g id="matplotlib.axis_1">
    <g id="xtick_1">
     <g id="line2d_1">
      <defs>
       <path d="M 0 0 
L 0 3.5 
" id="m591ee13124" style="stroke:#000000;stroke-width:0.8;"/>
      </defs>
      <g>
       <use style="stroke:#000000;stroke-width:0.8;" x="57.6" xlink:href="#m591ee13124" y="307.584"/>
      </g>
     </g>
     <g id="text_1">
      <!-- 0.250 -->
      <defs>
       <path d="M 31.78125 66.40625 
Q 24.171875 66.40625 20.328125 58.90625 
Q 16.5 51.421875 16.5 36.375 
Q 16.5 21.390625 20.328125 13.890625 
Q 24.171875 6.390625 31.78125 6.390625 
Q 39.453125 6.390625 43.28125 13.890625 
Q 47.125 21.390625 47.125 36.375 
Q 47.125 51.421875 43.28125 58.90625 
Q 39.453125 66.40625 31.78125 66.40625 
z
M 31.78125 74.21875 
Q 44.046875 74.21875 50.515625 64.515625 
Q 56.984375 54.828125 56.984375 36.375 
Q 56.984375 17.96875 50.515625 8.265625 
Q 44.046875 -1.421875 31.78125 -1.421875 
Q 19.53125 -1.421875 13.0625 8.265625 
Q 6.59375 17.96875 6.59375 36.375 
Q 6.59375 54.828125 13.0625 64.515625 
Q 19.53125 74.21875 31.78125 74.21875 
z
" id="DejaVuSans-30"/>
       <path d="M 10.6875 12.40625 
L 21 12.40625 
L 21 0 
L 10.6875 0 
z
" id="DejaVuSans-2e"/>
       <path d="M 19.1875 8.296875 
L 53.609375 8.296875 
L 53.609375 0 
L 7.328125 0 
L 7.328125 8.296875 
Q 12.9375 14.109375 22.625 23.890625 
Q 32.328125 33.6875 34.8125 36.53125 
Q 39.546875 41.84375 41.421875 45.53125 
Q 43.3125 49.21875 43.3125 52.78125 
Q 43.3125 58.59375 39.234375 62.25 
Q 35.15625 65.921875 28.609375 65.921875 
Q 23.96875 65.921875 18.8125 64.3125 
Q 13.671875 62.703125 7.8125 59.421875 
L 7.8125 69.390625 
Q 13.765625 71.78125 18.9375 73 
Q 24.125 74.21875 28.421875 74.21875 
Q 39.75 74.21875 46.484375 68.546875 
Q 53.21875 62.890625 53.21875 53.421875 
Q 53.21875 48.921875 51.53125 44.890625 
Q 49.859375 40.875 45.40625 35.40625 
Q 44.1875 33.984375 37.640625 27.21875 
Q 31.109375 20.453125 19.1875 8.296875 
z
" id="DejaVuSans-32"/>
       <path d="M 10.796875 72.90625 
L 49.515625 72.90625 
L 49.515625 64.59375 
L 19.828125 64.59375 
L 19.828125 46.734375 
Q 21.96875 47.46875 24.109375 47.828125 
Q 26.265625 48.1875 28.421875 48.1875 
Q 40.625 48.1875 47.75 41.5 
Q 54.890625 34.8125 54.890625 23.390625 
Q 54.890625 11.625 47.5625 5.09375 
Q 40.234375 -1.421875 26.90625 -1.421875 
Q 22.3125 -1.421875 17.546875 -0.640625 
Q 12.796875 0.140625 7.71875 1.703125 
L 7.71875 11.625 
Q 12.109375 9.234375 16.796875 8.0625 
Q 21.484375 6.890625 26.703125 6.890625 
Q 35.15625 6.890625 40.078125 11.328125 
Q 45.015625 15.765625 45.015625 23.390625 
Q 45.015625 31 40.078125 35.4375 
Q 35.15625 39.890625 26.703125 39.890625 
Q 22.75 39.890625 18.8125 39.015625 
Q 14.890625 38.140625 10.796875 36.28125 
z
" id="DejaVuSans-35"/>
      </defs>
      <g transform="translate(43.285938 322.182437)scale(0.1 -0.1)">
       <use xlink:href="#DejaVuSans-30"/>
       <use x="63.623047" xlink:href="#DejaVuSans-2e"/>
       <use x="95.410156" xlink:href="#DejaVuSans-32"/>
       <use x="159.033203" xlink:href="#DejaVuSans-35"/>
       <use x="222.65625" xlink:href="#DejaVuSans-30"/>
      </g>
     </g>
    </g>
    <g id="xtick_2">
     <g id="line2d_2">
      <g>
       <use style="stroke:#000000;stroke-width:0.8;" x="129.024" xlink:href="#m591ee13124" y="307.584"/>
      </g>
     </g>
     <g id="text_2">
      <!-- 0.252 -->
      <g transform="translate(114.709938 322.182437)scale(0.1 -0.1)">
       <use xlink:href="#DejaVuSans-30"/>
       <use x="63.623047" xlink:href="#DejaVuSans-2e"/>
       <use x="95.410156" xlink:href="#DejaVuSans-32"/>
       <use x="159.033203" xlink:href="#DejaVuSans-35"/>
       <use x="222.65625" xlink:href="#DejaVuSans-32"/>
      </g>
     </g>
    </g>
    <g id="xtick_3">
     <g id="line2d_3">
      <g>
       <use style="stroke:#000000;stroke-width:0.8;" x="200.448" xlink:href="#m591ee13124" y="307.584"/>
      </g>
     </g>
     <g id="text_3">
      <!-- 0.254 -->
      <defs>
       <path d="M 37.796875 64.3125 
L 12.890625 25.390625 
L 37.796875 25.390625 
z
M 35.203125 72.90625 
L 47.609375 72.90625 
L 47.609375 25.390625 
L 58.015625 25.390625 
L 58.015625 17.1875 
L 47.609375 17.1875 
L 47.609375 0 
L 37.796875 0 
L 37.796875 17.1875 
L 4.890625 17.1875 
L 4.890625 26.703125 
z
" id="DejaVuSans-34"/>
      </defs>
      <g transform="translate(186.133938 322.182437)scale(0.1 -0.1)">
       <use xlink:href="#DejaVuSans-30"/>
       <use x="63.623047" xlink:href="#DejaVuSans-2e"/>
       <use x="95.410156" xlink:href="#DejaVuSans-32"/>
       <use x="159.033203" xlink:href="#DejaVuSans-35"/>
       <use x="222.65625" xlink:href="#DejaVuSans-34"/>
      </g>
     </g>
    </g>
    <g id="xtick_4">
     <g id="line2d_4">
      <g>
       <use style="stroke:#000000;stroke-width:0.8;" x="271.872" xlink:href="#m591ee13124" y="307.584"/>
      </g>
     </g>
     <g id="text_4">
      <!-- 0.256 -->
      <defs>
       <path d="M 33.015625 40.375 
Q 26.375 40.375 22.484375 35.828125 
Q 18.609375 31.296875 18.609375 23.390625 
Q 18.609375 15.53125 22.484375 10.953125 
Q 26.375 6.390625 33.015625 6.390625 
Q 39.65625 6.390625 43.53125 10.953125 
Q 47.40625 15.53125 47.40625 23.390625 
Q 47.40625 31.296875 43.53125 35.828125 
Q 39.65625 40.375 33.015625 40.375 
z
M 52.59375 71.296875 
L 52.59375 62.3125 
Q 48.875 64.0625 45.09375 64.984375 
Q 41.3125 65.921875 37.59375 65.921875 
Q 27.828125 65.921875 22.671875 59.328125 
Q 17.53125 52.734375 16.796875 39.40625 
Q 19.671875 43.65625 24.015625 45.921875 
Q 28.375 48.1875 33.59375 48.1875 
Q 44.578125 48.1875 50.953125 41.515625 
Q 57.328125 34.859375 57.328125 23.390625 
Q 57.328125 12.15625 50.6875 5.359375 
Q 44.046875 -1.421875 33.015625 -1.421875 
Q 20.359375 -1.421875 13.671875 8.265625 
Q 6.984375 17.96875 6.984375 36.375 
Q 6.984375 53.65625 15.1875 63.9375 
Q 23.390625 74.21875 37.203125 74.21875 
Q 40.921875 74.21875 44.703125 73.484375 
Q 48.484375 72.75 52.59375 71.296875 
z
" id="DejaVuSans-36"/>
      </defs>
      <g transform="translate(257.557938 322.182437)scale(0.1 -0.1)">
       <use xlink:href="#DejaVuSans-30"/>
       <use x="63.623047" xlink:href="#DejaVuSans-2e"/>
       <use x="95.410156" xlink:href="#DejaVuSans-32"/>
       <use x="159.033203" xlink:href="#DejaVuSans-35"/>
       <use x="222.65625" xlink:href="#DejaVuSans-36"/>
      </g>
     </g>
    </g>
    <g id="xtick_5">
     <g id="line2d_5">
      <g>
       <use style="stroke:#000000;stroke-width:0.8;" x="343.296" xlink:href="#m591ee13124" y="307.584"/>
      </g>
     </g>
     <g id="text_5">
      <!-- 0.258 -->
      <defs>
       <path d="M 31.78125 34.625 
Q 24.75 34.625 20.71875 30.859375 
Q 16.703125 27.09375 16.703125 20.515625 
Q 16.703125 13.921875 20.71875 10.15625 
Q 24.75 6.390625 31.78125 6.390625 
Q 38.8125 6.390625 42.859375 10.171875 
Q 46.921875 13.96875 46.921875 20.515625 
Q 46.921875 27.09375 42.890625 30.859375 
Q 38.875 34.625 31.78125 34.625 
z
M 21.921875 38.8125 
Q 15.578125 40.375 12.03125 44.71875 
Q 8.5 49.078125 8.5 55.328125 
Q 8.5 64.0625 14.71875 69.140625 
Q 20.953125 74.21875 31.78125 74.21875 
Q 42.671875 74.21875 48.875 69.140625 
Q 55.078125 64.0625 55.078125 55.328125 
Q 55.078125 49.078125 51.53125 44.71875 
Q 48 40.375 41.703125 38.8125 
Q 48.828125 37.15625 52.796875 32.3125 
Q 56.78125 27.484375 56.78125 20.515625 
Q 56.78125 9.90625 50.3125 4.234375 
Q 43.84375 -1.421875 31.78125 -1.421875 
Q 19.734375 -1.421875 13.25 4.234375 
Q 6.78125 9.90625 6.78125 20.515625 
Q 6.78125 27.484375 10.78125 32.3125 
Q 14.796875 37.15625 21.921875 38.8125 
z
M 18.3125 54.390625 
Q 18.3125 48.734375 21.84375 45.5625 
Q 25.390625 42.390625 31.78125 42.390625 
Q 38.140625 42.390625 41.71875 45.5625 
Q 45.3125 48.734375 45.3125 54.390625 
Q 45.3125 60.0625 41.71875 63.234375 
Q 38.140625 66.40625 31.78125 66.40625 
Q 25.390625 66.40625 21.84375 63.234375 
Q 18.3125 60.0625 18.3125 54.390625 
z
" id="DejaVuSans-38"/>
      </defs>
      <g transform="translate(328.981938 322.182437)scale(0.1 -0.1)">
       <use xlink:href="#DejaVuSans-30"/>
       <use x="63.623047" xlink:href="#DejaVuSans-2e"/>
       <use x="95.410156" xlink:href="#DejaVuSans-32"/>
       <use x="159.033203" xlink:href="#DejaVuSans-35"/>
       <use x="222.65625" xlink:href="#DejaVuSans-38"/>
      </g>
     </g>
    </g>
    <g id="xtick_6">
     <g id="line2d_6">
      <g>
       <use style="stroke:#000000;stroke-width:0.8;" x="414.72" xlink:href="#m591ee13124" y="307.584"/>
      </g>
     </g>
     <g id="text_6">
      <!-- 0.260 -->
      <g transform="translate(400.405938 322.182437)scale(0.1 -0.1)">
       <use xlink:href="#DejaVuSans-30"/>
       <use x="63.623047" xlink:href="#DejaVuSans-2e"/>
       <use x="95.410156" xlink:href="#DejaVuSans-32"/>
       <use x="159.033203" xlink:href="#DejaVuSans-36"/>
       <use x="222.65625" xlink:href="#DejaVuSans-30"/>
      </g>
     </g>
    </g>
    <g id="text_7">
     <!-- Time -->
     <defs>
      <path d="M -0.296875 72.90625 
L 61.375 72.90625 
L 61.375 64.59375 
L 35.5 64.59375 
L 35.5 0 
L 25.59375 0 
L 25.59375 64.59375 
L -0.296875 64.59375 
z
" id="DejaVuSans-54"/>
      <path d="M 9.421875 54.6875 
L 18.40625 54.6875 
L 18.40625 0 
L 9.421875 0 
z
M 9.421875 75.984375 
L 18.40625 75.984375 
L 18.40625 64.59375 
L 9.421875 64.59375 
z
" id="DejaVuSans-69"/>
      <path d="M 52 44.1875 
Q 55.375 50.25 60.0625 53.125 
Q 64.75 56 71.09375 56 
Q 79.640625 56 84.28125 50.015625 
Q 88.921875 44.046875 88.921875 33.015625 
L 88.921875 0 
L 79.890625 0 
L 79.890625 32.71875 
Q 79.890625 40.578125 77.09375 44.375 
Q 74.3125 48.1875 68.609375 48.1875 
Q 61.625 48.1875 57.5625 43.546875 
Q 53.515625 38.921875 53.515625 30.90625 
L 53.515625 0 
L 44.484375 0 
L 44.484375 32.71875 
Q 44.484375 40.625 41.703125 44.40625 
Q 38.921875 48.1875 33.109375 48.1875 
Q 26.21875 48.1875 22.15625 43.53125 
Q 18.109375 38.875 18.109375 30.90625 
L 18.109375 0 
L 9.078125 0 
L 9.078125 54.6875 
L 18.109375 54.6875 
L 18.109375 46.1875 
Q 21.1875 51.21875 25.484375 53.609375 
Q 29.78125 56 35.6875 56 
Q 41.65625 56 45.828125 52.96875 
Q 50 49.953125 52 44.1875 
z
" id="DejaVuSans-6d"/>
      <path d="M 56.203125 29.59375 
L 56.203125 25.203125 
L 14.890625 25.203125 
Q 15.484375 15.921875 20.484375 11.0625 
Q 25.484375 6.203125 34.421875 6.203125 
Q 39.59375 6.203125 44.453125 7.46875 
Q 49.3125 8.734375 54.109375 11.28125 
L 54.109375 2.78125 
Q 49.265625 0.734375 44.1875 -0.34375 
Q 39.109375 -1.421875 33.890625 -1.421875 
Q 20.796875 -1.421875 13.15625 6.1875 
Q 5.515625 13.8125 5.515625 26.8125 
Q 5.515625 40.234375 12.765625 48.109375 
Q 20.015625 56 32.328125 56 
Q 43.359375 56 49.78125 48.890625 
Q 56.203125 41.796875 56.203125 29.59375 
z
M 47.21875 32.234375 
Q 47.125 39.59375 43.09375 43.984375 
Q 39.0625 48.390625 32.421875 48.390625 
Q 24.90625 48.390625 20.390625 44.140625 
Q 15.875 39.890625 15.1875 32.171875 
z
" id="DejaVuSans-65"/>
     </defs>
     <g transform="translate(223.7725 335.860562)scale(0.1 -0.1)">
      <use xlink:href="#DejaVuSans-54"/>
      <use x="61.037109" xlink:href="#DejaVuSans-69"/>
      <use x="88.820312" xlink:href="#DejaVuSans-6d"/>
      <use x="186.232422" xlink:href="#DejaVuSans-65"/>
     </g>
    </g>
   </g>
   <g id="matplotlib.axis_2"/>
   <g id="line2d_7">
    <path clip-path="url(#p3df3ccc19b)" d="M 56.790204 142.678377 
L 57.6 143.640204 
L 58.409796 145.217481 
L 59.219592 147.30191 
L 60.029388 149.695029 
L 60.839184 152.472617 
L 61.64898 156.078546 
L 62.458776 160.980248 
L 63.268571 167.255672 
L 66.507755 196.643374 
L 67.317551 202.285853 
L 68.127347 206.583763 
L 68.937143 209.298211 
L 69.746939 210.156341 
L 70.556735 209.145902 
L 71.366531 206.667696 
L 72.986122 199.739871 
L 74.605714 191.917726 
L 76.225306 181.896235 
L 77.035102 176.924563 
L 77.844898 173.099637 
L 78.654694 170.991308 
L 79.46449 170.929826 
L 80.274286 172.992722 
L 81.084082 176.787525 
L 82.703673 186.042677 
L 83.513469 189.639382 
L 84.323265 191.484545 
L 85.133061 191.020568 
L 85.942857 188.133883 
L 86.752653 183.21692 
L 88.372245 170.029055 
L 89.991837 154.875189 
L 92.421224 131.421819 
L 93.23102 124.561124 
L 94.040816 118.803297 
L 94.850612 114.728737 
L 95.660408 112.777566 
L 96.470204 113.039175 
L 97.28 115.234737 
L 98.089796 118.891064 
L 98.899592 123.563645 
L 100.519184 134.641633 
L 102.138776 145.665996 
L 102.948571 149.811252 
L 103.758367 152.866221 
L 105.377959 158.08012 
L 106.187755 161.351371 
L 106.997551 165.345582 
L 109.426939 179.20965 
L 110.236735 182.077466 
L 111.046531 182.945457 
L 111.856327 181.681069 
L 112.666122 178.296965 
L 113.475918 172.955583 
L 115.09551 158.610596 
L 116.715102 144.558503 
L 117.524898 139.336326 
L 118.334694 135.760383 
L 119.14449 133.877653 
L 119.954286 133.616095 
L 120.764082 134.903008 
L 121.573878 137.727533 
L 122.383673 142.03512 
L 124.003265 153.635688 
L 125.622857 165.796681 
L 126.432653 170.998344 
L 127.242449 174.968417 
L 128.052245 177.471831 
L 128.862041 178.756134 
L 129.671837 179.396427 
L 130.481633 179.844841 
L 131.291429 180.058056 
L 132.101224 179.570944 
L 132.91102 177.933768 
L 133.720816 175.044456 
L 134.530612 171.11317 
L 136.150204 161.14943 
L 139.389388 138.717923 
L 140.199184 134.425174 
L 141.00898 131.299032 
L 141.818776 129.487347 
L 142.628571 128.780052 
L 143.438367 128.655141 
L 144.248163 128.694381 
L 145.057959 128.872486 
L 145.867755 129.450193 
L 146.677551 130.744114 
L 147.487347 133.020589 
L 148.297143 136.386514 
L 149.916735 145.538293 
L 151.536327 154.888154 
L 152.346122 158.468903 
L 153.155918 161.057974 
L 153.965714 162.809082 
L 155.585306 165.656654 
L 156.395102 167.813048 
L 158.014694 172.871976 
L 158.82449 174.244818 
L 159.634286 174.201015 
L 160.444082 172.8964 
L 161.253878 170.710963 
L 162.063673 167.864995 
L 162.873469 164.400783 
L 166.112653 148.577703 
L 166.922449 146.038581 
L 167.732245 145.013319 
L 168.542041 145.932835 
L 169.351837 148.752544 
L 170.161633 153.014193 
L 172.59102 167.833986 
L 173.400816 171.42183 
L 174.210612 174.032077 
L 175.830204 178.542117 
L 177.449796 184.319127 
L 179.069388 191.445468 
L 179.879184 195.749686 
L 183.928163 220.047711 
L 184.737959 223.836219 
L 185.547755 226.565778 
L 186.357551 227.407671 
L 187.167347 225.727662 
L 187.977143 221.361088 
L 188.786939 214.543703 
L 189.596735 205.737164 
L 191.216327 184.286786 
L 192.835918 161.757987 
L 193.645714 152.330946 
L 194.45551 145.059067 
L 195.265306 139.836686 
L 196.075102 136.26942 
L 196.884898 134.162842 
L 197.694694 133.614711 
L 198.50449 134.741374 
L 199.314286 137.325687 
L 201.743673 147.865488 
L 202.553469 150.457883 
L 203.363265 151.833005 
L 204.173061 152.008558 
L 204.982857 151.576305 
L 205.792653 151.419691 
L 206.602449 152.317355 
L 207.412245 154.527233 
L 209.031837 160.344528 
L 209.841633 161.920654 
L 210.651429 161.643082 
L 211.461224 159.29746 
L 212.27102 155.146898 
L 213.890612 144.972223 
L 214.700408 140.825021 
L 215.510204 138.066114 
L 216.32 136.92367 
L 217.129796 137.271551 
L 217.939592 138.775119 
L 218.749388 141.229057 
L 219.559184 144.583562 
L 220.36898 148.78124 
L 221.178776 153.762927 
L 222.798367 165.94653 
L 224.417959 180.697002 
L 226.847347 204.451816 
L 227.657143 211.025611 
L 228.466939 215.804392 
L 229.276735 218.472822 
L 230.086531 219.115052 
L 230.896327 218.035755 
L 231.706122 215.557884 
L 232.515918 211.850266 
L 233.325714 206.980015 
L 234.945306 194.596778 
L 237.374694 174.939722 
L 238.18449 169.837085 
L 238.994286 166.255854 
L 239.804082 164.639126 
L 240.613878 165.202057 
L 241.423673 167.790876 
L 242.233469 171.980794 
L 243.853061 182.891369 
L 245.472653 193.769943 
L 247.092245 203.225156 
L 248.711837 211.324186 
L 249.521633 214.657256 
L 250.331429 217.327109 
L 251.141224 219.100242 
L 251.95102 219.810248 
L 252.760816 219.481881 
L 253.570612 218.203345 
L 254.380408 215.954677 
L 255.190204 212.626855 
L 256 208.173004 
L 257.619592 196.587694 
L 259.239184 185.090757 
L 260.04898 181.052899 
L 260.858776 178.621136 
L 261.668571 177.879954 
L 262.478367 178.840777 
L 263.288163 181.33223 
L 265.717551 191.512436 
L 266.527347 193.442079 
L 267.337143 194.135063 
L 268.146939 193.577883 
L 268.956735 191.624299 
L 269.766531 188.06309 
L 270.576327 182.874703 
L 272.195918 168.983965 
L 273.81551 154.202819 
L 274.625306 148.20588 
L 275.435102 143.839283 
L 276.244898 141.338681 
L 277.054694 140.827323 
L 277.86449 142.31681 
L 278.674286 145.637455 
L 281.913469 163.795003 
L 282.723265 166.008267 
L 283.533061 167.266562 
L 284.342857 168.182102 
L 285.152653 169.279662 
L 285.962449 170.790674 
L 286.772245 172.697727 
L 289.201633 179.497763 
L 290.011429 181.175845 
L 290.821224 181.861323 
L 291.63102 181.353157 
L 292.440816 179.662098 
L 293.250612 176.78957 
L 294.060408 172.657873 
L 297.299592 151.892194 
L 298.109388 148.82469 
L 298.919184 147.352645 
L 299.72898 147.714617 
L 300.538776 150.055237 
L 301.348571 154.366989 
L 302.158367 160.399303 
L 305.397551 188.45911 
L 306.207347 193.166698 
L 307.017143 196.164542 
L 307.826939 197.184175 
L 308.636735 195.980685 
L 309.446531 192.58422 
L 310.256327 187.448858 
L 312.685714 169.177921 
L 313.49551 164.503928 
L 314.305306 161.432674 
L 315.115102 160.249492 
L 315.924898 161.019081 
L 316.734694 163.602916 
L 317.54449 167.685897 
L 319.973878 182.282128 
L 320.783673 185.426088 
L 321.593469 187.242026 
L 322.403265 187.899362 
L 323.213061 187.467072 
L 324.022857 186.039815 
L 326.452245 179.8562 
L 329.691429 173.162589 
L 330.501224 171.008267 
L 331.31102 169.348861 
L 332.120816 168.940524 
L 332.930612 170.325037 
L 333.740408 173.640884 
L 334.550204 178.642354 
L 336.979592 196.550824 
L 337.789388 200.872668 
L 338.599184 203.694217 
L 339.40898 205.035216 
L 340.218776 205.101918 
L 341.028571 204.230773 
L 341.838367 202.691597 
L 342.648163 200.470904 
L 343.457959 197.399585 
L 344.267755 193.468243 
L 345.887347 183.925706 
L 347.506939 172.978414 
L 349.936327 155.367857 
L 350.746122 150.558404 
L 351.555918 146.820772 
L 352.365714 144.073985 
L 354.795102 138.033436 
L 355.604898 135.065222 
L 356.414694 131.182745 
L 358.844082 117.561422 
L 359.653878 114.447245 
L 360.463673 112.94063 
L 361.273469 113.113136 
L 362.083265 114.708238 
L 362.893061 117.490043 
L 363.702857 121.502863 
L 364.512653 126.80453 
L 368.561633 157.54072 
L 370.181224 166.57535 
L 371.800816 174.300728 
L 373.420408 180.906436 
L 375.849796 189.804855 
L 376.659592 192.047284 
L 377.469388 193.23649 
L 378.279184 192.919277 
L 379.08898 190.775396 
L 379.898776 186.863302 
L 382.328163 171.699524 
L 383.137959 167.562701 
L 384.757551 160.87773 
L 387.186939 151.95901 
L 387.996735 149.398501 
L 388.806531 147.600827 
L 389.616327 146.855855 
L 390.426122 147.30064 
L 391.235918 148.941333 
L 392.045714 151.686915 
L 392.85551 155.334408 
L 394.475102 164.205673 
L 396.094694 173.226261 
L 396.90449 176.975142 
L 397.714286 179.695821 
L 398.524082 181.054535 
L 399.333878 180.945539 
L 400.143673 179.508015 
L 400.953469 177.12127 
L 402.573061 171.704746 
L 403.382857 169.429683 
L 404.192653 167.541097 
L 406.622041 162.947819 
L 407.431837 161.621525 
L 408.241633 161.097288 
L 409.051429 161.875194 
L 409.861224 163.807416 
L 411.480816 168.523458 
L 412.290612 170.209998 
L 413.100408 171.218149 
L 413.910204 171.5203 
L 414.72 170.832965 
L 415.529796 168.684115 
L 415.529796 168.684115 
" style="fill:none;stroke:#0000ff;stroke-linecap:square;stroke-width:1.5;"/>
   </g>
   <g id="patch_3">
    <path d="M 57.6 307.584 
L 57.6 41.472 
" style="fill:none;stroke:#000000;stroke-linecap:square;stroke-linejoin:miter;stroke-width:0.8;"/>
   </g>
   <g id="patch_4">
    <path d="M 414.72 307.584 
L 414.72 41.472 
" style="fill:none;stroke:#000000;stroke-linecap:square;stroke-linejoin:miter;stroke-width:0.8;"/>
   </g>
   <g id="patch_5">
    <path d="M 57.6 307.584 
L 414.72 307.584 
" style="fill:none;stroke:#000000;stroke-linecap:square;stroke-linejoin:miter;stroke-width:0.8;"/>
   </g>
   <g id="patch_6">
    <path d="M 57.6 41.472 
L 414.72 41.472 
" style="fill:none;stroke:#000000;stroke-linecap:square;stroke-linejoin:miter;stroke-width:0.8;"/>
   </g>
  </g>
 </g>
 <defs>
  <clipPath id="p3df3ccc19b">
   <rect height="266.112" width="357.12" x="57.6" y="41.472"/>
  </clipPath>
 </defs>
</svg>
