<?xml version="1.0" encoding="utf-8" standalone="no"?>
<!DOCTYPE svg PUBLIC "-//W3C//DTD SVG 1.1//EN"
  "http://www.w3.org/Graphics/SVG/1.1/DTD/svg11.dtd">
<!-- Created with matplotlib (http://matplotlib.org/) -->
<svg height="345.6pt" version="1.1" viewBox="0 0 460.8 345.6" width="460.8pt" xmlns="http://www.w3.org/2000/svg" xmlns:xlink="http://www.w3.org/1999/xlink">
 <defs>
  <style type="text/css">
*{stroke-linecap:butt;stroke-linejoin:round;}
  </style>
 </defs>
 <g id="figure_1">
  <g id="patch_1">
   <path d="M 0 345.6 
L 460.8 345.6 
L 460.8 0 
L 0 0 
z
" style="fill:#ffffff;"/>
  </g>
  <g id="axes_1">
   <g id="patch_2">
    <path d="M 57.6 307.584 
L 414.72 307.584 
L 414.72 41.472 
L 57.6 41.472 
z
" style="fill:#ffffff;"/>
   </g>
   <g id="matplotlib.axis_1">
    <g id="xtick_1">
     <g id="line2d_1">
      <defs>
       <path d="M 0 0 
L 0 3.5 
" id="md9e7de680d" style="stroke:#000000;stroke-width:0.8;"/>
      </defs>
      <g>
       <use style="stroke:#000000;stroke-width:0.8;" x="57.6" xlink:href="#md9e7de680d" y="307.584"/>
      </g>
     </g>
     <g id="text_1">
      <!-- 0.250 -->
      <defs>
       <path d="M 31.78125 66.40625 
Q 24.171875 66.40625 20.328125 58.90625 
Q 16.5 51.421875 16.5 36.375 
Q 16.5 21.390625 20.328125 13.890625 
Q 24.171875 6.390625 31.78125 6.390625 
Q 39.453125 6.390625 43.28125 13.890625 
Q 47.125 21.390625 47.125 36.375 
Q 47.125 51.421875 43.28125 58.90625 
Q 39.453125 66.40625 31.78125 66.40625 
z
M 31.78125 74.21875 
Q 44.046875 74.21875 50.515625 64.515625 
Q 56.984375 54.828125 56.984375 36.375 
Q 56.984375 17.96875 50.515625 8.265625 
Q 44.046875 -1.421875 31.78125 -1.421875 
Q 19.53125 -1.421875 13.0625 8.265625 
Q 6.59375 17.96875 6.59375 36.375 
Q 6.59375 54.828125 13.0625 64.515625 
Q 19.53125 74.21875 31.78125 74.21875 
z
" id="DejaVuSans-30"/>
       <path d="M 10.6875 12.40625 
L 21 12.40625 
L 21 0 
L 10.6875 0 
z
" id="DejaVuSans-2e"/>
       <path d="M 19.1875 8.296875 
L 53.609375 8.296875 
L 53.609375 0 
L 7.328125 0 
L 7.328125 8.296875 
Q 12.9375 14.109375 22.625 23.890625 
Q 32.328125 33.6875 34.8125 36.53125 
Q 39.546875 41.84375 41.421875 45.53125 
Q 43.3125 49.21875 43.3125 52.78125 
Q 43.3125 58.59375 39.234375 62.25 
Q 35.15625 65.921875 28.609375 65.921875 
Q 23.96875 65.921875 18.8125 64.3125 
Q 13.671875 62.703125 7.8125 59.421875 
L 7.8125 69.390625 
Q 13.765625 71.78125 18.9375 73 
Q 24.125 74.21875 28.421875 74.21875 
Q 39.75 74.21875 46.484375 68.546875 
Q 53.21875 62.890625 53.21875 53.421875 
Q 53.21875 48.921875 51.53125 44.890625 
Q 49.859375 40.875 45.40625 35.40625 
Q 44.1875 33.984375 37.640625 27.21875 
Q 31.109375 20.453125 19.1875 8.296875 
z
" id="DejaVuSans-32"/>
       <path d="M 10.796875 72.90625 
L 49.515625 72.90625 
L 49.515625 64.59375 
L 19.828125 64.59375 
L 19.828125 46.734375 
Q 21.96875 47.46875 24.109375 47.828125 
Q 26.265625 48.1875 28.421875 48.1875 
Q 40.625 48.1875 47.75 41.5 
Q 54.890625 34.8125 54.890625 23.390625 
Q 54.890625 11.625 47.5625 5.09375 
Q 40.234375 -1.421875 26.90625 -1.421875 
Q 22.3125 -1.421875 17.546875 -0.640625 
Q 12.796875 0.140625 7.71875 1.703125 
L 7.71875 11.625 
Q 12.109375 9.234375 16.796875 8.0625 
Q 21.484375 6.890625 26.703125 6.890625 
Q 35.15625 6.890625 40.078125 11.328125 
Q 45.015625 15.765625 45.015625 23.390625 
Q 45.015625 31 40.078125 35.4375 
Q 35.15625 39.890625 26.703125 39.890625 
Q 22.75 39.890625 18.8125 39.015625 
Q 14.890625 38.140625 10.796875 36.28125 
z
" id="DejaVuSans-35"/>
      </defs>
      <g transform="translate(43.285938 322.182437)scale(0.1 -0.1)">
       <use xlink:href="#DejaVuSans-30"/>
       <use x="63.623047" xlink:href="#DejaVuSans-2e"/>
       <use x="95.410156" xlink:href="#DejaVuSans-32"/>
       <use x="159.033203" xlink:href="#DejaVuSans-35"/>
       <use x="222.65625" xlink:href="#DejaVuSans-30"/>
      </g>
     </g>
    </g>
    <g id="xtick_2">
     <g id="line2d_2">
      <g>
       <use style="stroke:#000000;stroke-width:0.8;" x="129.024" xlink:href="#md9e7de680d" y="307.584"/>
      </g>
     </g>
     <g id="text_2">
      <!-- 0.252 -->
      <g transform="translate(114.709938 322.182437)scale(0.1 -0.1)">
       <use xlink:href="#DejaVuSans-30"/>
       <use x="63.623047" xlink:href="#DejaVuSans-2e"/>
       <use x="95.410156" xlink:href="#DejaVuSans-32"/>
       <use x="159.033203" xlink:href="#DejaVuSans-35"/>
       <use x="222.65625" xlink:href="#DejaVuSans-32"/>
      </g>
     </g>
    </g>
    <g id="xtick_3">
     <g id="line2d_3">
      <g>
       <use style="stroke:#000000;stroke-width:0.8;" x="200.448" xlink:href="#md9e7de680d" y="307.584"/>
      </g>
     </g>
     <g id="text_3">
      <!-- 0.254 -->
      <defs>
       <path d="M 37.796875 64.3125 
L 12.890625 25.390625 
L 37.796875 25.390625 
z
M 35.203125 72.90625 
L 47.609375 72.90625 
L 47.609375 25.390625 
L 58.015625 25.390625 
L 58.015625 17.1875 
L 47.609375 17.1875 
L 47.609375 0 
L 37.796875 0 
L 37.796875 17.1875 
L 4.890625 17.1875 
L 4.890625 26.703125 
z
" id="DejaVuSans-34"/>
      </defs>
      <g transform="translate(186.133938 322.182437)scale(0.1 -0.1)">
       <use xlink:href="#DejaVuSans-30"/>
       <use x="63.623047" xlink:href="#DejaVuSans-2e"/>
       <use x="95.410156" xlink:href="#DejaVuSans-32"/>
       <use x="159.033203" xlink:href="#DejaVuSans-35"/>
       <use x="222.65625" xlink:href="#DejaVuSans-34"/>
      </g>
     </g>
    </g>
    <g id="xtick_4">
     <g id="line2d_4">
      <g>
       <use style="stroke:#000000;stroke-width:0.8;" x="271.872" xlink:href="#md9e7de680d" y="307.584"/>
      </g>
     </g>
     <g id="text_4">
      <!-- 0.256 -->
      <defs>
       <path d="M 33.015625 40.375 
Q 26.375 40.375 22.484375 35.828125 
Q 18.609375 31.296875 18.609375 23.390625 
Q 18.609375 15.53125 22.484375 10.953125 
Q 26.375 6.390625 33.015625 6.390625 
Q 39.65625 6.390625 43.53125 10.953125 
Q 47.40625 15.53125 47.40625 23.390625 
Q 47.40625 31.296875 43.53125 35.828125 
Q 39.65625 40.375 33.015625 40.375 
z
M 52.59375 71.296875 
L 52.59375 62.3125 
Q 48.875 64.0625 45.09375 64.984375 
Q 41.3125 65.921875 37.59375 65.921875 
Q 27.828125 65.921875 22.671875 59.328125 
Q 17.53125 52.734375 16.796875 39.40625 
Q 19.671875 43.65625 24.015625 45.921875 
Q 28.375 48.1875 33.59375 48.1875 
Q 44.578125 48.1875 50.953125 41.515625 
Q 57.328125 34.859375 57.328125 23.390625 
Q 57.328125 12.15625 50.6875 5.359375 
Q 44.046875 -1.421875 33.015625 -1.421875 
Q 20.359375 -1.421875 13.671875 8.265625 
Q 6.984375 17.96875 6.984375 36.375 
Q 6.984375 53.65625 15.1875 63.9375 
Q 23.390625 74.21875 37.203125 74.21875 
Q 40.921875 74.21875 44.703125 73.484375 
Q 48.484375 72.75 52.59375 71.296875 
z
" id="DejaVuSans-36"/>
      </defs>
      <g transform="translate(257.557938 322.182437)scale(0.1 -0.1)">
       <use xlink:href="#DejaVuSans-30"/>
       <use x="63.623047" xlink:href="#DejaVuSans-2e"/>
       <use x="95.410156" xlink:href="#DejaVuSans-32"/>
       <use x="159.033203" xlink:href="#DejaVuSans-35"/>
       <use x="222.65625" xlink:href="#DejaVuSans-36"/>
      </g>
     </g>
    </g>
    <g id="xtick_5">
     <g id="line2d_5">
      <g>
       <use style="stroke:#000000;stroke-width:0.8;" x="343.296" xlink:href="#md9e7de680d" y="307.584"/>
      </g>
     </g>
     <g id="text_5">
      <!-- 0.258 -->
      <defs>
       <path d="M 31.78125 34.625 
Q 24.75 34.625 20.71875 30.859375 
Q 16.703125 27.09375 16.703125 20.515625 
Q 16.703125 13.921875 20.71875 10.15625 
Q 24.75 6.390625 31.78125 6.390625 
Q 38.8125 6.390625 42.859375 10.171875 
Q 46.921875 13.96875 46.921875 20.515625 
Q 46.921875 27.09375 42.890625 30.859375 
Q 38.875 34.625 31.78125 34.625 
z
M 21.921875 38.8125 
Q 15.578125 40.375 12.03125 44.71875 
Q 8.5 49.078125 8.5 55.328125 
Q 8.5 64.0625 14.71875 69.140625 
Q 20.953125 74.21875 31.78125 74.21875 
Q 42.671875 74.21875 48.875 69.140625 
Q 55.078125 64.0625 55.078125 55.328125 
Q 55.078125 49.078125 51.53125 44.71875 
Q 48 40.375 41.703125 38.8125 
Q 48.828125 37.15625 52.796875 32.3125 
Q 56.78125 27.484375 56.78125 20.515625 
Q 56.78125 9.90625 50.3125 4.234375 
Q 43.84375 -1.421875 31.78125 -1.421875 
Q 19.734375 -1.421875 13.25 4.234375 
Q 6.78125 9.90625 6.78125 20.515625 
Q 6.78125 27.484375 10.78125 32.3125 
Q 14.796875 37.15625 21.921875 38.8125 
z
M 18.3125 54.390625 
Q 18.3125 48.734375 21.84375 45.5625 
Q 25.390625 42.390625 31.78125 42.390625 
Q 38.140625 42.390625 41.71875 45.5625 
Q 45.3125 48.734375 45.3125 54.390625 
Q 45.3125 60.0625 41.71875 63.234375 
Q 38.140625 66.40625 31.78125 66.40625 
Q 25.390625 66.40625 21.84375 63.234375 
Q 18.3125 60.0625 18.3125 54.390625 
z
" id="DejaVuSans-38"/>
      </defs>
      <g transform="translate(328.981938 322.182437)scale(0.1 -0.1)">
       <use xlink:href="#DejaVuSans-30"/>
       <use x="63.623047" xlink:href="#DejaVuSans-2e"/>
       <use x="95.410156" xlink:href="#DejaVuSans-32"/>
       <use x="159.033203" xlink:href="#DejaVuSans-35"/>
       <use x="222.65625" xlink:href="#DejaVuSans-38"/>
      </g>
     </g>
    </g>
    <g id="xtick_6">
     <g id="line2d_6">
      <g>
       <use style="stroke:#000000;stroke-width:0.8;" x="414.72" xlink:href="#md9e7de680d" y="307.584"/>
      </g>
     </g>
     <g id="text_6">
      <!-- 0.260 -->
      <g transform="translate(400.405938 322.182437)scale(0.1 -0.1)">
       <use xlink:href="#DejaVuSans-30"/>
       <use x="63.623047" xlink:href="#DejaVuSans-2e"/>
       <use x="95.410156" xlink:href="#DejaVuSans-32"/>
       <use x="159.033203" xlink:href="#DejaVuSans-36"/>
       <use x="222.65625" xlink:href="#DejaVuSans-30"/>
      </g>
     </g>
    </g>
    <g id="text_7">
     <!-- Time -->
     <defs>
      <path d="M -0.296875 72.90625 
L 61.375 72.90625 
L 61.375 64.59375 
L 35.5 64.59375 
L 35.5 0 
L 25.59375 0 
L 25.59375 64.59375 
L -0.296875 64.59375 
z
" id="DejaVuSans-54"/>
      <path d="M 9.421875 54.6875 
L 18.40625 54.6875 
L 18.40625 0 
L 9.421875 0 
z
M 9.421875 75.984375 
L 18.40625 75.984375 
L 18.40625 64.59375 
L 9.421875 64.59375 
z
" id="DejaVuSans-69"/>
      <path d="M 52 44.1875 
Q 55.375 50.25 60.0625 53.125 
Q 64.75 56 71.09375 56 
Q 79.640625 56 84.28125 50.015625 
Q 88.921875 44.046875 88.921875 33.015625 
L 88.921875 0 
L 79.890625 0 
L 79.890625 32.71875 
Q 79.890625 40.578125 77.09375 44.375 
Q 74.3125 48.1875 68.609375 48.1875 
Q 61.625 48.1875 57.5625 43.546875 
Q 53.515625 38.921875 53.515625 30.90625 
L 53.515625 0 
L 44.484375 0 
L 44.484375 32.71875 
Q 44.484375 40.625 41.703125 44.40625 
Q 38.921875 48.1875 33.109375 48.1875 
Q 26.21875 48.1875 22.15625 43.53125 
Q 18.109375 38.875 18.109375 30.90625 
L 18.109375 0 
L 9.078125 0 
L 9.078125 54.6875 
L 18.109375 54.6875 
L 18.109375 46.1875 
Q 21.1875 51.21875 25.484375 53.609375 
Q 29.78125 56 35.6875 56 
Q 41.65625 56 45.828125 52.96875 
Q 50 49.953125 52 44.1875 
z
" id="DejaVuSans-6d"/>
      <path d="M 56.203125 29.59375 
L 56.203125 25.203125 
L 14.890625 25.203125 
Q 15.484375 15.921875 20.484375 11.0625 
Q 25.484375 6.203125 34.421875 6.203125 
Q 39.59375 6.203125 44.453125 7.46875 
Q 49.3125 8.734375 54.109375 11.28125 
L 54.109375 2.78125 
Q 49.265625 0.734375 44.1875 -0.34375 
Q 39.109375 -1.421875 33.890625 -1.421875 
Q 20.796875 -1.421875 13.15625 6.1875 
Q 5.515625 13.8125 5.515625 26.8125 
Q 5.515625 40.234375 12.765625 48.109375 
Q 20.015625 56 32.328125 56 
Q 43.359375 56 49.78125 48.890625 
Q 56.203125 41.796875 56.203125 29.59375 
z
M 47.21875 32.234375 
Q 47.125 39.59375 43.09375 43.984375 
Q 39.0625 48.390625 32.421875 48.390625 
Q 24.90625 48.390625 20.390625 44.140625 
Q 15.875 39.890625 15.1875 32.171875 
z
" id="DejaVuSans-65"/>
     </defs>
     <g transform="translate(223.7725 335.860562)scale(0.1 -0.1)">
      <use xlink:href="#DejaVuSans-54"/>
      <use x="61.037109" xlink:href="#DejaVuSans-69"/>
      <use x="88.820312" xlink:href="#DejaVuSans-6d"/>
      <use x="186.232422" xlink:href="#DejaVuSans-65"/>
     </g>
    </g>
   </g>
   <g id="matplotlib.axis_2"/>
   <g id="line2d_7">
    <path clip-path="url(#p819cc1d0ac)" d="M 56.790204 125.075637 
L 57.6 127.8705 
L 58.409796 131.309632 
L 60.029388 139.536606 
L 60.839184 144.178064 
L 61.64898 149.65083 
L 62.458776 156.435609 
L 64.078367 173.78198 
L 65.697959 192.668111 
L 66.507755 201.086578 
L 67.317551 208.214853 
L 68.127347 213.839458 
L 68.937143 217.704605 
L 69.746939 219.519468 
L 70.556735 219.266573 
L 71.366531 217.361409 
L 72.176327 214.461155 
L 73.795918 207.544098 
L 74.605714 203.458607 
L 76.225306 192.980591 
L 77.035102 187.591638 
L 77.844898 183.276927 
L 78.654694 180.634571 
L 79.46449 180.012492 
L 80.274286 181.494679 
L 81.084082 184.67372 
L 82.703673 192.443556 
L 83.513469 195.093172 
L 84.323265 195.812496 
L 85.133061 194.023969 
L 85.942857 189.615312 
L 86.752653 183.004367 
L 88.372245 166.070719 
L 90.801633 136.741649 
L 92.421224 117.046429 
L 94.040816 100.261132 
L 94.850612 94.215536 
L 95.660408 90.409953 
L 96.470204 88.946904 
L 97.28 89.543315 
L 98.089796 91.712474 
L 98.899592 94.99747 
L 100.519184 103.569703 
L 102.138776 112.38736 
L 102.948571 115.495857 
L 103.758367 117.558555 
L 104.568163 119.172309 
L 105.377959 121.055105 
L 106.187755 123.663313 
L 106.997551 127.143726 
L 109.426939 140.279372 
L 110.236735 143.071659 
L 111.046531 143.89748 
L 111.856327 142.61849 
L 112.666122 139.247721 
L 113.475918 133.954345 
L 115.09551 119.906169 
L 115.905306 112.774788 
L 116.715102 106.643582 
L 117.524898 102.07144 
L 118.334694 99.330634 
L 119.14449 98.465257 
L 119.954286 99.394287 
L 120.764082 102.035516 
L 121.573878 106.371015 
L 122.383673 112.336683 
L 124.003265 127.596287 
L 125.622857 143.660159 
L 126.432653 150.832735 
L 127.242449 156.744849 
L 128.052245 161.141516 
L 128.862041 164.272865 
L 130.481633 168.982742 
L 131.291429 170.971112 
L 132.101224 172.201113 
L 132.91102 172.193121 
L 133.720816 170.831634 
L 134.530612 168.328215 
L 135.340408 164.963975 
L 136.96 156.408014 
L 139.389388 142.578642 
L 140.199184 139.129277 
L 141.00898 136.7951 
L 141.818776 135.726124 
L 142.628571 135.698247 
L 145.057959 137.209479 
L 145.867755 138.036705 
L 146.677551 139.48676 
L 147.487347 141.83797 
L 148.297143 145.2024 
L 149.916735 154.086637 
L 151.536327 162.687224 
L 152.346122 165.665115 
L 153.155918 167.491915 
L 153.965714 168.333019 
L 155.585306 169.025096 
L 156.395102 169.997243 
L 157.204898 171.399871 
L 158.014694 172.473567 
L 158.82449 172.390727 
L 159.634286 170.761587 
L 160.444082 167.757308 
L 161.253878 163.783985 
L 162.063673 159.080775 
L 163.683265 147.743666 
L 165.302857 135.457978 
L 166.112653 130.004463 
L 166.922449 125.579239 
L 167.732245 122.763123 
L 168.542041 122.016049 
L 169.351837 123.300018 
L 170.161633 126.143779 
L 172.59102 137.187711 
L 173.400816 139.606325 
L 174.210612 141.089559 
L 175.020408 142.215279 
L 175.830204 143.601161 
L 176.64 145.49401 
L 177.449796 147.860686 
L 178.259592 150.665235 
L 179.069388 153.990583 
L 179.879184 158.01178 
L 181.498776 168.075696 
L 183.118367 178.260186 
L 184.737959 187.147833 
L 185.547755 190.403325 
L 186.357551 191.805903 
L 187.167347 190.688989 
L 187.977143 186.876955 
L 188.786939 180.612742 
L 189.596735 172.375201 
L 191.216327 152.189598 
L 192.835918 131.244525 
L 193.645714 122.817479 
L 194.45551 116.718293 
L 195.265306 112.828682 
L 196.075102 110.727792 
L 196.884898 110.203806 
L 197.694694 111.350535 
L 198.50449 114.281043 
L 199.314286 118.759138 
L 201.743673 135.150658 
L 202.553469 139.633593 
L 203.363265 142.818789 
L 204.173061 144.715922 
L 204.982857 145.935774 
L 205.792653 147.394676 
L 206.602449 149.899492 
L 207.412245 153.7123 
L 209.031837 162.573836 
L 209.841633 165.482096 
L 210.651429 166.356138 
L 211.461224 164.965666 
L 212.27102 161.580707 
L 213.890612 152.515502 
L 214.700408 148.792009 
L 215.510204 146.40074 
L 216.32 145.578029 
L 217.129796 146.189936 
L 217.939592 147.884899 
L 218.749388 150.447371 
L 219.559184 153.825251 
L 220.36898 157.959135 
L 221.988571 168.283641 
L 223.608163 181.090941 
L 226.847347 209.883089 
L 227.657143 215.497347 
L 228.466939 219.145866 
L 229.276735 220.505412 
L 230.086531 219.671349 
L 230.896327 216.970258 
L 231.706122 212.748186 
L 232.515918 207.190123 
L 233.325714 200.374833 
L 234.945306 183.892308 
L 237.374694 157.956476 
L 238.18449 150.843901 
L 238.994286 145.346547 
L 239.804082 141.937128 
L 240.613878 140.849586 
L 241.423673 141.931454 
L 242.233469 144.746312 
L 243.853061 153.227581 
L 245.472653 161.994161 
L 247.092245 169.642663 
L 248.711837 176.288997 
L 249.521633 179.030694 
L 250.331429 181.195715 
L 251.141224 182.542818 
L 251.95102 182.900388 
L 252.760816 182.296292 
L 253.570612 180.824185 
L 254.380408 178.463849 
L 255.190204 175.101189 
L 256 170.68652 
L 257.619592 159.428775 
L 258.429388 153.632813 
L 259.239184 148.747238 
L 260.04898 145.370363 
L 260.858776 143.784687 
L 261.668571 144.073783 
L 262.478367 146.244209 
L 263.288163 150.110657 
L 265.717551 165.03885 
L 266.527347 168.62397 
L 267.337143 170.972253 
L 268.146939 172.061328 
L 268.956735 171.729626 
L 269.766531 169.747343 
L 270.576327 166.085157 
L 271.386122 161.039002 
L 273.81551 143.20165 
L 274.625306 138.674989 
L 275.435102 135.824449 
L 276.244898 134.887989 
L 277.054694 135.986103 
L 277.86449 139.122646 
L 278.674286 144.111987 
L 281.103673 163.484587 
L 281.913469 168.38369 
L 282.723265 171.785951 
L 283.533061 174.084535 
L 285.152653 177.823307 
L 286.772245 182.564451 
L 289.201633 190.500387 
L 290.011429 192.276164 
L 290.821224 192.88547 
L 291.63102 192.118401 
L 292.440816 189.987404 
L 293.250612 186.495798 
L 294.060408 181.564705 
L 295.68 168.506177 
L 296.489796 161.921229 
L 297.299592 156.259734 
L 298.109388 151.893685 
L 298.919184 149.103472 
L 299.72898 148.145161 
L 300.538776 149.176938 
L 301.348571 152.19813 
L 302.158367 156.954007 
L 304.587755 174.894339 
L 305.397551 179.590022 
L 306.207347 182.750842 
L 307.017143 184.106462 
L 307.826939 183.384889 
L 308.636735 180.338816 
L 309.446531 175.008866 
L 310.256327 167.879379 
L 312.685714 143.70479 
L 313.49551 137.228648 
L 314.305306 132.493614 
L 315.115102 129.806093 
L 315.924898 129.241164 
L 316.734694 130.660767 
L 317.54449 133.741565 
L 319.973878 146.050304 
L 320.783673 148.570953 
L 321.593469 149.818279 
L 322.403265 149.972953 
L 323.213061 149.109885 
L 324.022857 147.330251 
L 325.642449 142.717265 
L 326.452245 140.761661 
L 327.262041 139.288116 
L 328.881633 136.902713 
L 330.501224 133.848893 
L 331.31102 132.939326 
L 332.120816 133.450217 
L 332.930612 135.943956 
L 333.740408 140.560213 
L 334.550204 147.035962 
L 336.979592 170.007772 
L 337.789388 176.0846 
L 338.599184 180.650223 
L 339.40898 183.717133 
L 340.218776 185.492805 
L 341.028571 186.32079 
L 341.838367 186.474712 
L 342.648163 185.9315 
L 343.457959 184.505088 
L 344.267755 182.176567 
L 345.077551 179.167193 
L 346.697143 171.903563 
L 348.316735 163.086387 
L 349.936327 154.000882 
L 350.746122 150.422599 
L 351.555918 147.888663 
L 352.365714 146.307312 
L 353.985306 144.570836 
L 354.795102 143.294842 
L 355.604898 141.082205 
L 356.414694 137.799942 
L 358.844082 125.174808 
L 359.653878 122.212927 
L 360.463673 120.807562 
L 361.273469 121.03275 
L 362.083265 122.619727 
L 362.893061 125.321977 
L 363.702857 129.186949 
L 364.512653 134.276887 
L 367.751837 157.944648 
L 368.561633 162.391892 
L 370.181224 169.483389 
L 371.800816 174.847586 
L 372.610612 176.956172 
L 374.230204 180.332109 
L 375.04 181.83304 
L 375.849796 183.086495 
L 376.659592 183.697018 
L 377.469388 183.178862 
L 378.279184 181.066553 
L 379.08898 177.033878 
L 379.898776 171.151099 
L 382.328163 150.010593 
L 383.947755 138.637071 
L 386.377143 124.481342 
L 387.996735 116.041119 
L 388.806531 112.947028 
L 389.616327 111.051666 
L 390.426122 110.504166 
L 391.235918 111.316103 
L 392.045714 113.396793 
L 392.85551 116.537777 
L 394.475102 124.831422 
L 396.094694 133.779246 
L 396.90449 137.646326 
L 397.714286 140.564484 
L 398.524082 142.183973 
L 399.333878 142.393097 
L 400.143673 141.335915 
L 401.763265 137.195758 
L 402.573061 135.231011 
L 403.382857 133.765967 
L 404.192653 132.81254 
L 405.002449 132.261934 
L 406.622041 131.662732 
L 407.431837 131.669151 
L 408.241633 132.5914 
L 409.051429 134.945519 
L 409.861224 138.568948 
L 411.480816 146.85736 
L 412.290612 150.356682 
L 413.100408 153.172874 
L 413.910204 155.268102 
L 414.72 156.336579 
L 415.529796 155.875106 
L 415.529796 155.875106 
" style="fill:none;stroke:#ff0000;stroke-linecap:square;stroke-width:1.5;"/>
   </g>
   <g id="patch_3">
    <path d="M 57.6 307.584 
L 57.6 41.472 
" style="fill:none;stroke:#000000;stroke-linecap:square;stroke-linejoin:miter;stroke-width:0.8;"/>
   </g>
   <g id="patch_4">
    <path d="M 414.72 307.584 
L 414.72 41.472 
" style="fill:none;stroke:#000000;stroke-linecap:square;stroke-linejoin:miter;stroke-width:0.8;"/>
   </g>
   <g id="patch_5">
    <path d="M 57.6 307.584 
L 414.72 307.584 
" style="fill:none;stroke:#000000;stroke-linecap:square;stroke-linejoin:miter;stroke-width:0.8;"/>
   </g>
   <g id="patch_6">
    <path d="M 57.6 41.472 
L 414.72 41.472 
" style="fill:none;stroke:#000000;stroke-linecap:square;stroke-linejoin:miter;stroke-width:0.8;"/>
   </g>
  </g>
 </g>
 <defs>
  <clipPath id="p819cc1d0ac">
   <rect height="266.112" width="357.12" x="57.6" y="41.472"/>
  </clipPath>
 </defs>
</svg>
