<?xml version="1.0" encoding="UTF-8" standalone="no"?>
<!-- Created with Inkscape (http://www.inkscape.org/) -->

<svg
   xmlns:dc="http://purl.org/dc/elements/1.1/"
   xmlns:cc="http://creativecommons.org/ns#"
   xmlns:rdf="http://www.w3.org/1999/02/22-rdf-syntax-ns#"
   xmlns:svg="http://www.w3.org/2000/svg"
   xmlns="http://www.w3.org/2000/svg"
   xmlns:sodipodi="http://sodipodi.sourceforge.net/DTD/sodipodi-0.dtd"
   xmlns:inkscape="http://www.inkscape.org/namespaces/inkscape"
   version="1.1"
   id="svg2"
   xml:space="preserve"
   width="882.08002"
   height="882.08002"
   viewBox="0 0 882.08002 882.08002"
   sodipodi:docname="people.svg"
   inkscape:version="0.92.3 (2405546, 2018-03-11)"><metadata
     id="metadata8"><rdf:RDF><cc:Work
         rdf:about=""><dc:format>image/svg+xml</dc:format><dc:type
           rdf:resource="http://purl.org/dc/dcmitype/StillImage" /><dc:title></dc:title></cc:Work></rdf:RDF></metadata><defs
     id="defs6" /><sodipodi:namedview
     pagecolor="#ffffff"
     bordercolor="#666666"
     borderopacity="1"
     objecttolerance="10"
     gridtolerance="10"
     guidetolerance="10"
     inkscape:pageopacity="0"
     inkscape:pageshadow="2"
     inkscape:window-width="1920"
     inkscape:window-height="1020"
     id="namedview4"
     showgrid="false"
     inkscape:zoom="0.75674405"
     inkscape:cx="664.72804"
     inkscape:cy="370.96529"
     inkscape:window-x="0"
     inkscape:window-y="27"
     inkscape:window-maximized="1"
     inkscape:current-layer="g10" /><g
     id="g10"
     inkscape:groupmode="layer"
     inkscape:label="ink_ext_XXXXXX"
     transform="matrix(1.3333333,0,0,-1.3333333,0,882.08)"><path
       inkscape:connector-curvature="0"
       id="path14"
       style="fill:#ffffff;fill-opacity:1;fill-rule:nonzero;stroke:none;stroke-width:0.1"
       d="M 661.564,0 H 0 V 661.564 H 661.564 V 0" /><path
       inkscape:connector-curvature="0"
       id="path16"
       style="fill:#4c3f3a;fill-opacity:1;fill-rule:nonzero;stroke:none;stroke-width:0.1"
       d="m 115.649,555.702 c -2.942,-0.49 -7.617,-1.809 -8.991,-4.548 l 6.172,1.432 c 0.059,0.017 1.597,0.471 2.819,3.116 z m 14.82,29.471 c -18.664,0 -32.5135,-14.992 -34.1514,-19.544 -1.2117,-3.363 0.4344,-15.054 1.2254,-20.672 0.1988,-1.413 0.355,-2.525 0.4226,-3.167 0.193,-1.834 2.6434,-4.798 4.5544,-6.813 0.106,4.339 0.543,13.393 2.327,17.027 2.482,5.058 11.853,5.866 12.25,5.897 l 1.477,0.119 -0.442,-1.414 c -0.572,-1.826 -1.329,-3.104 -2.075,-3.993 8.706,0.554 16.574,5.631 16.657,5.685 l 4.367,2.852 -3.002,-4.265 c -0.604,-0.858 -1.23,-1.589 -1.839,-2.205 13.827,3.416 20.139,8.297 20.208,8.35 l 1.318,1.04 0.287,-1.654 c 1.857,-10.729 10.112,-22.865 13.408,-27.377 0.515,2.15 1.629,5.325 3.971,7.549 2.86,2.718 0.505,24.737 -0.191,26.969 -0.127,0.191 -0.274,0.459 -0.477,0.831 -0.65,1.183 -2.375,4.328 -3.783,4.328 -2.684,0 -10.873,2.726 -12.279,3.731 -0.16,0.115 -0.363,0.298 -0.623,0.541 -1.64,1.529 -6.629,6.185 -23.61,6.185 z m 38.347,-55.147 -1.554,1.955 c -0.502,0.63 -11.895,15.068 -14.879,28.57 -2.887,-1.866 -10.641,-6.152 -24.379,-8.857 l -0.511,1.705 c -3.506,-1.447 -8.125,-2.835 -12.95,-2.835 h -0.001 c -0.516,0 -1.032,0.016 -1.551,0.05 l -6.394,0.415 c -2.087,-4.448 -2.112,-18.286 -2.112,-18.426 v -2.292 l -1.68,1.559 c -0.659,0.611 -6.4456,6.076 -6.8284,9.711 -0.0661,0.628 -0.2192,1.715 -0.4141,3.097 -1.2125,8.612 -2.3992,18.095 -1.127,21.629 1.8106,5.03 16.0915,20.866 36.0335,20.866 17.769,0 23.004,-4.884 24.974,-6.723 0.178,-0.166 0.312,-0.297 0.422,-0.376 0.976,-0.697 8.794,-3.358 11.116,-3.358 2.592,0 4.507,-3.491 5.536,-5.366 0.181,-0.33 0.315,-0.586 0.403,-0.705 0.882,-1.178 3.911,-25.685 -0.11,-29.507 -3.235,-3.072 -3.765,-8.57 -3.769,-8.625 l -0.225,-2.487" /><path
       inkscape:connector-curvature="0"
       id="path18"
       style="fill:#4c3f3a;fill-opacity:1;fill-rule:nonzero;stroke:none;stroke-width:0.1"
       d="m 133.607,485.048 c -6.881,-10e-4 -18.274,6.386 -22.274,11.586 -0.459,0.597 -0.965,1.217 -1.502,1.874 -4.054,4.962 -10.1626,12.438 -11.4322,29.205 -0.8929,0.768 -3.139,2.989 -4.4519,6.826 -1.4242,4.164 1.0043,7.047 2.4879,7.99 l 1.073,-1.687 -0.5367,0.844 0.5418,-0.841 c -0.1207,-0.079 -2.9359,-1.969 -1.6734,-5.659 1.4277,-4.172 4.0867,-6.142 4.1132,-6.161 l 0.3773,-0.274 0.032,-0.465 c 1.152,-16.437 6.854,-23.416 11.017,-28.513 0.551,-0.673 1.068,-1.307 1.539,-1.919 3.752,-4.878 15.429,-11.295 21.355,-10.779 6.537,0.547 18.448,4.883 24.471,14.585 6.423,10.348 9.186,23.569 9.186,24.961 v 0.492 l 0.391,0.301 c 0.05,0.039 4.984,3.891 4.506,8.225 l -0.012,0.108 0.076,0.709 c 0.172,1.618 0.351,3.292 0.13,3.576 -0.058,0.046 -0.332,0.154 -1.547,0.095 l -0.096,1.999 c 1.219,0.058 2.373,0.047 3.1,-0.723 0.855,-0.907 0.713,-2.24 0.401,-5.159 l -0.053,-0.497 c 0.445,-4.679 -3.659,-8.55 -4.929,-9.627 -0.345,-3.232 -3.404,-15.767 -9.454,-25.514 -6.412,-10.33 -19.063,-14.943 -26.003,-15.524 -0.269,-0.023 -0.547,-0.034 -0.833,-0.034" /><path
       inkscape:connector-curvature="0"
       id="path20"
       style="fill:#4c3f3a;fill-opacity:1;fill-rule:nonzero;stroke:none;stroke-width:0.1"
       d="m 208.833,437.089 -148.7869,0.27 0.0352,1.032 c 0.0824,2.421 0.8773,23.772 3.3324,27.863 2.4086,4.014 44.1243,16.187 54.3333,19.116 v 6.241 h 2 v -7.75 l -0.726,-0.207 C 94.0867,476.526 66.7246,467.644 65.127,465.223 63.3668,462.289 62.398,446.442 62.1184,439.355 L 206.83,439.093 c -0.044,6.393 -0.499,20.561 -2.247,23.473 -1.596,2.437 -29.811,12.69 -55.547,21.099 l -0.688,0.225 -0.015,6.859 2,0.003 0.012,-5.411 c 10.416,-3.412 53.551,-17.74 55.953,-21.745 2.464,-4.108 2.535,-23.327 2.535,-25.505 v -1.002" /><path
       inkscape:connector-curvature="0"
       id="path22"
       style="fill:#4c3f3a;fill-opacity:1;fill-rule:nonzero;stroke:none;stroke-width:0.1"
       d="m 134.333,439.876 -16.523,44.391 1.874,0.697 14.615,-39.266 14.106,39.256 1.882,-0.677 -15.954,-44.401" /><path
       inkscape:connector-curvature="0"
       id="path24"
       style="fill:#4c3f3a;fill-opacity:1;fill-rule:nonzero;stroke:none;stroke-width:0.1"
       d="m 134.042,460.751 c -5.167,0 -8.594,3.342 -8.646,3.393 l 1.413,1.416 c 0.263,-0.26 6.519,-6.281 14.826,0.085 l 1.217,-1.588 c -3.232,-2.477 -6.237,-3.306 -8.81,-3.306" /><path
       inkscape:connector-curvature="0"
       id="path26"
       style="fill:#4c3f3a;fill-opacity:1;fill-rule:nonzero;stroke:none;stroke-width:0.1"
       d="m 109.88,534.66 c -0.341,0 -0.62,-0.277 -0.62,-0.618 v -9.934 c 0,-0.341 0.279,-0.619 0.62,-0.619 h 19.205 c 0.342,0 0.62,0.278 0.62,0.619 v 9.934 c 0,0.341 -0.278,0.618 -0.62,0.618 z m 19.205,-13.171 H 109.88 c -1.444,0 -2.62,1.175 -2.62,2.619 v 9.934 c 0,1.443 1.176,2.618 2.62,2.618 h 19.205 c 1.445,0 2.62,-1.175 2.62,-2.618 v -9.934 c 0,-1.444 -1.175,-2.619 -2.62,-2.619" /><path
       inkscape:connector-curvature="0"
       id="path28"
       style="fill:#4c3f3a;fill-opacity:1;fill-rule:nonzero;stroke:none;stroke-width:0.1"
       d="m 139.83,534.66 c -0.342,0 -0.62,-0.277 -0.62,-0.618 v -9.934 c 0,-0.341 0.278,-0.619 0.62,-0.619 h 19.205 c 0.341,0 0.62,0.278 0.62,0.619 v 9.934 c 0,0.341 -0.279,0.618 -0.62,0.618 z m 19.205,-13.171 H 139.83 c -1.445,0 -2.62,1.175 -2.62,2.619 v 9.934 c 0,1.443 1.175,2.618 2.62,2.618 h 19.205 c 1.444,0 2.62,-1.175 2.62,-2.618 v -9.934 c 0,-1.444 -1.176,-2.619 -2.62,-2.619" /><path
       inkscape:connector-curvature="0"
       id="path30"
       style="fill:#4c3f3a;fill-opacity:1;fill-rule:nonzero;stroke:none;stroke-width:0.1"
       d="m 138.21,533.042 h -7.505 v 2 h 7.505 v -2" /><path
       inkscape:connector-curvature="0"
       id="path32"
       style="fill:#41b93c;fill-opacity:1;fill-rule:nonzero;stroke:none;stroke-width:0.1"
       d="m 136.573,308.607 c -4.448,0 -9.737,0.91 -15.781,3.436 -16.895,7.062 -22.0592,31.684 -22.8326,35.934 -4.366,1.699 -4.5192,5.439 -4.7656,11.473 -0.1157,2.826 0.4835,4.739 1.7804,5.687 1.0168,0.743 2.2168,0.676 2.8844,0.49 0.448,0.005 2.6044,0.128 6.5174,1.868 2.922,1.298 5.248,16.145 5.967,26.274 l 1.995,-0.142 c -0.303,-4.273 -2.072,-25.704 -7.149,-27.96 -4.878,-2.167 -7.3144,-2.053 -7.5714,-2.034 l -0.266,0.058 c -0.0164,0.006 -0.6828,0.22 -1.211,-0.179 -0.4027,-0.303 -1.0609,-1.223 -0.9488,-3.98 0.2645,-6.46 0.5301,-8.75 3.9605,-9.857 l 0.5836,-0.189 0.0965,-0.605 c 0.0446,-0.277 4.6446,-27.851 21.7306,-34.992 17.187,-7.184 27.59,-0.779 29.436,1.331 0.398,0.456 1.011,0.833 1.859,1.354 3.912,2.407 13.071,8.042 18.118,33.277 l 0.188,0.94 0.946,-0.148 c 0.028,-0.003 0.971,-0.119 1.8,0.565 0.804,0.663 1.285,1.924 1.391,3.647 0.03,0.493 0.064,0.979 0.096,1.453 0.22,3.175 0.41,5.917 -0.684,7.089 -0.45,0.482 -1.168,0.733 -2.19,0.763 -1.289,-0.58 -5.573,-2.271 -7.44,-0.092 -1.729,2.017 -9.707,20.909 -7.886,31.017 l 1.969,-0.354 c -1.687,-9.364 5.855,-27.518 7.435,-29.361 0.747,-0.869 3.593,-0.098 5.283,0.697 l 0.203,0.095 0.224,0.001 c 1.721,0 2.985,-0.458 3.864,-1.401 1.687,-1.808 1.47,-4.952 1.218,-8.592 -0.033,-0.47 -0.066,-0.95 -0.096,-1.438 -0.145,-2.35 -0.87,-4.066 -2.157,-5.102 -0.835,-0.671 -1.716,-0.902 -2.366,-0.971 -5.253,-25.411 -14.777,-31.271 -18.868,-33.788 -0.645,-0.397 -1.203,-0.74 -1.403,-0.968 -1.369,-1.565 -6.921,-5.295 -15.93,-5.296" /><path
       inkscape:connector-curvature="0"
       id="path34"
       style="fill:#41b93c;fill-opacity:1;fill-rule:nonzero;stroke:none;stroke-width:0.1"
       d="m 97.902,364.603 c -0.0282,0.239 -2.5915,24.061 15.194,31.175 17.853,7.142 34.117,4.988 38.795,2.91 0.63,-0.28 1.363,-0.579 2.163,-0.905 5.544,-2.26 13.922,-5.676 15.166,-13.138 0.466,-2.791 1.071,-5.134 1.606,-7.201 1.017,-3.935 1.82,-7.044 1.187,-10.936 l -1.974,0.321 c 0.565,3.478 -0.191,6.406 -1.15,10.114 -0.544,2.107 -1.162,4.495 -1.641,7.372 -1.061,6.362 -8.816,9.524 -13.949,11.616 -0.821,0.335 -1.573,0.642 -2.22,0.929 -4.437,1.972 -19.975,3.967 -37.24,-2.939 -16.3581,-6.544 -13.9769,-28.863 -13.9507,-29.087 l -1.9863,-0.231" /><path
       inkscape:connector-curvature="0"
       id="path36"
       style="fill:#41b93c;fill-opacity:1;fill-rule:nonzero;stroke:none;stroke-width:0.1"
       d="M 211.667,253.743 H 57.673 l -0.1363,0.84 c -0.1633,1.01 -3.8711,24.814 7.3238,32.702 10.1747,7.172 47.5375,16.564 53.5645,18.048 v 8.455 h 2 v -10.027 l -0.765,-0.185 C 119.23,303.472 76.5453,293.075 66.0129,285.65 56.9324,279.252 58.8457,260.007 59.3941,255.743 H 209.856 c 0.329,4.188 1.23,21.924 -6.423,27.727 -9.113,6.909 -42.251,18.482 -52.922,18.482 h -0.997 l -0.042,11.504 2,0.008 0.035,-9.539 c 12.059,-0.625 43.857,-11.827 53.134,-18.861 9.559,-7.249 7.228,-29.487 7.125,-30.43 l -0.099,-0.891" /><path
       inkscape:connector-curvature="0"
       id="path38"
       style="fill:#41b93c;fill-opacity:1;fill-rule:nonzero;stroke:none;stroke-width:0.1"
       d="m 129.186,277.244 -19.721,24.324 1.554,1.26 17.57,-21.672 4.665,11.731 -14.455,11.59 1.251,1.56 15.61,-12.515 -6.474,-16.278" /><path
       inkscape:connector-curvature="0"
       id="path40"
       style="fill:#41b93c;fill-opacity:1;fill-rule:nonzero;stroke:none;stroke-width:0.1"
       d="m 140.349,278.627 -7.186,14.961 16.829,10.219 1.038,-1.709 -15.279,-9.278 5.07,-10.558 17.241,20.197 1.521,-1.299 -19.234,-22.533" /><path
       inkscape:connector-curvature="0"
       id="path42"
       style="fill:#41b93c;fill-opacity:1;fill-rule:nonzero;stroke:none;stroke-width:0.1"
       d="m 133.822,382.007 c -0.261,0 -0.522,0.004 -0.783,0.012 -13.256,0.394 -22.09,10.596 -22.46,11.03 l 1.522,1.298 c 0.086,-0.1 8.657,-9.972 21.016,-10.33 8.22,-0.252 16.288,3.714 23.996,11.746 l 1.444,-1.385 c -7.881,-8.211 -16.2,-12.371 -24.735,-12.371" /><path
       inkscape:connector-curvature="0"
       id="path44"
       style="fill:#41b93c;fill-opacity:1;fill-rule:nonzero;stroke:none;stroke-width:0.1"
       d="m 120.864,327.482 c 0.984,-1.259 2.261,-2.321 3.723,-2.321 v -1 l 0.003,1 c 5.229,0.007 10.368,0.624 10.886,7.829 -0.556,0.736 -1.885,2.001 -3.176,1.556 -0.994,-0.343 -2.844,-1.998 -4.477,-3.458 -2.858,-2.558 -4.667,-4.046 -6.004,-3.855 -0.319,0.046 -0.64,0.133 -0.955,0.249 z m 3.728,-4.321 h -0.005 c -4.894,0 -7.447,6.823 -7.553,7.113 l -1.55,4.234 3.195,-3.182 c 0.529,-0.527 2.175,-1.933 3.424,-2.112 0.668,0.037 2.996,2.12 4.387,3.364 1.945,1.74 3.783,3.385 5.159,3.859 0.412,0.141 0.834,0.213 1.257,0.213 2.617,0 4.362,-2.725 4.435,-2.841 l 0.168,-0.268 -0.016,-0.315 c -0.508,-10.049 -8.878,-10.06 -12.901,-10.065" /><path
       inkscape:connector-curvature="0"
       id="path46"
       style="fill:#41b93c;fill-opacity:1;fill-rule:nonzero;stroke:none;stroke-width:0.1"
       d="m 137.514,332.986 c 0.519,-7.202 5.656,-7.818 10.885,-7.825 l 0.002,-1 v 1 c 1.504,0 2.769,1.087 3.721,2.32 -0.314,-0.115 -0.633,-0.202 -0.952,-0.248 -1.36,-0.187 -3.148,1.299 -6.005,3.855 -1.632,1.46 -3.482,3.115 -4.477,3.458 -1.374,0.472 -2.715,-0.958 -3.174,-1.56 z m 10.887,-9.825 h -0.005 c -4.022,0.005 -12.393,0.016 -12.9,10.065 l -0.016,0.315 0.168,0.268 c 0.073,0.116 1.817,2.841 4.435,2.841 0.422,0 0.845,-0.072 1.257,-0.213 1.376,-0.474 3.213,-2.119 5.159,-3.859 1.391,-1.244 3.718,-3.327 4.418,-3.362 1.218,0.177 2.864,1.583 3.393,2.11 l 3.194,3.182 -1.549,-4.234 c -0.106,-0.29 -2.66,-7.113 -7.554,-7.113" /><path
       inkscape:connector-curvature="0"
       id="path48"
       style="fill:#ec1d27;fill-opacity:1;fill-rule:nonzero;stroke:none;stroke-width:0.1"
       d="m 350.571,580.137 c -0.55,0 -1.082,-0.031 -1.581,-0.091 -1.304,-0.158 -2.626,-0.273 -4.026,-0.396 -9.424,-0.823 -20.105,-1.756 -28.347,-16.316 -0.333,-0.659 -0.462,-2.139 -0.36,-3.081 l 1.243,-14.98 c 0.698,3.535 1.806,7.413 3.559,10.554 2.373,4.251 7.407,6.997 12.826,6.997 4.927,0 9.348,-2.278 12.305,-6.293 2.291,2.148 8.659,7.562 14.633,7.562 1.103,0 2.151,-0.186 3.115,-0.554 5.675,-2.162 11.683,-7.811 13.277,-17.26 0.96,5.768 1.73,12.877 0.644,16.955 -1.939,7.266 -17.495,16.903 -27.288,16.903 z m -34.244,-44.909 -2.061,24.835 c -0.108,0.996 -0.043,2.968 0.589,4.216 8.782,15.515 20.511,16.541 29.935,17.364 1.358,0.119 2.683,0.234 3.961,0.388 0.578,0.07 1.19,0.106 1.82,0.106 10.68,0 27.065,-10.311 29.22,-18.388 2.167,-8.132 -2.287,-26.314 -2.477,-27.084 l -1.963,0.364 c 1.763,14.108 -5.431,22.091 -12.125,24.641 -0.736,0.281 -1.544,0.423 -2.403,0.423 -6.444,0 -13.993,-7.726 -14.069,-7.804 l -0.884,-0.914 -0.68,1.075 c -3.503,5.546 -8.586,6.374 -11.305,6.374 -4.705,0 -9.055,-2.344 -11.08,-5.972 -4.086,-7.323 -4.479,-19.449 -4.482,-19.57 l -1.996,-0.054" /><path
       inkscape:connector-curvature="0"
       id="path50"
       style="fill:#ec1d27;fill-opacity:1;fill-rule:nonzero;stroke:none;stroke-width:0.1"
       d="m 347.337,487.421 c -2.441,0 -4.9,0.228 -7.156,0.648 -8.289,1.543 -17.616,15.694 -19.481,19.114 -1.998,3.663 -4.374,15.857 -4.84,18.316 -2.036,1.693 -4.517,8.254 -4.676,11.894 -0.172,3.966 3.505,5.417 5.474,5.63 l 0.216,-1.988 -0.108,0.994 0.11,-0.993 c -0.156,-0.018 -3.828,-0.477 -3.694,-3.555 0.169,-3.855 2.943,-9.896 3.955,-10.459 l 0.535,-0.197 0.077,-0.549 c 0.026,-0.143 2.68,-14.42 4.707,-18.135 2.388,-4.38 11.111,-16.806 18.091,-18.106 7.881,-1.466 16.111,-0.29 19.138,2.737 0.178,0.178 17.741,18.229 17.43,35.431 l -0.007,0.414 0.287,0.299 c 0.048,0.049 4.712,4.952 3.486,8.936 l -0.342,1.129 c -0.41,1.362 -0.872,2.898 -1.208,3.234 -0.123,-0.041 -0.464,-0.21 -1.175,-0.902 l -1.395,1.433 c 0.89,0.867 1.949,1.712 3.072,1.424 1.337,-0.346 1.793,-1.861 2.622,-4.612 l 0.338,-1.118 c 1.383,-4.494 -2.547,-9.337 -3.674,-10.604 0.038,-15.092 -12.961,-31.42 -18.02,-36.478 -2.762,-2.761 -8.215,-3.936 -13.762,-3.937" /><path
       inkscape:connector-curvature="0"
       id="path52"
       style="fill:#ec1d27;fill-opacity:1;fill-rule:nonzero;stroke:none;stroke-width:0.1"
       d="M 420.366,435.588 H 273.281 l -0.028,0.972 c -0.173,6.086 0.288,23.125 4.448,28.8 3.925,5.352 43.843,15.65 49.724,17.143 l 4.121,4.458 v 6.713 h 2 v -7.496 l -5.055,-5.468 -0.288,-0.072 c -18.17,-4.596 -46.184,-12.773 -48.889,-16.461 -3.369,-4.595 -4.188,-19.261 -4.082,-26.589 h 143.213 c 0.087,3.59 0.138,16.339 -3.31,21.293 -4.1,5.893 -31.133,18.534 -49.065,21.652 l -0.202,0.035 -0.171,0.112 c -0.211,0.136 -5.165,3.462 -4.796,13.033 l 1.998,-0.077 c -0.291,-7.557 2.985,-10.578 3.743,-11.173 18.688,-3.316 45.766,-16.159 50.136,-22.44 4.397,-6.32 3.667,-22.785 3.634,-23.482 l -0.046,-0.953" /><path
       inkscape:connector-curvature="0"
       id="path54"
       style="fill:#ec1d27;fill-opacity:1;fill-rule:nonzero;stroke:none;stroke-width:0.1"
       d="m 347.6,474.88 6.279,-9.319 10.718,15.867 -2.005,3.476 z m -8.831,-13.236 -11.668,19.448 1.714,1.03 10.13,-16.885 7.162,9.651 -14.17,10.888 1.218,1.586 13.733,-10.551 16.368,10.943 3.699,-6.41 -13.078,-19.359 -7.069,10.492 -8.039,-10.833" /><path
       inkscape:connector-curvature="0"
       id="path56"
       style="fill:#ec1d27;fill-opacity:1;fill-rule:nonzero;stroke:none;stroke-width:0.1"
       d="m 357.597,435.588 h -22.114 l 8.131,27.682 -2.527,3.73 1.655,1.122 3.057,-4.511 -7.644,-26.023 h 16.878 l -6.496,25.904 1.671,4.668 1.882,-0.674 -1.465,-4.097 6.972,-27.801" /><path
       inkscape:connector-curvature="0"
       id="path58"
       style="fill:#5e2791;fill-opacity:1;fill-rule:nonzero;stroke:none;stroke-width:0.1"
       d="m 366.914,373 c 2.162,0 3.878,-0.522 5.169,-1.814 2.621,-2.622 5.123,-14.116 5.678,-20.89 1.175,2.571 2.451,5.991 2.451,8.712 0,0.481 0.011,1.065 0.023,1.735 0.12,6.601 0.4,22.058 -8.36,28.052 -9.335,6.387 -28.703,9.368 -42.655,3.623 -10.299,-4.241 -19.701,-11.984 -13.445,-36.561 -0.164,5.156 -0.204,11.286 0.4,13.55 1.229,4.612 11.325,3.414 13.337,3.125 l 0.179,-0.025 0.16,-0.087 c 0.108,-0.06 10.944,-5.881 20.782,-3.106 0.953,0.27 1.877,0.534 2.772,0.79 5.646,1.615 10.124,2.896 13.509,2.896 z m 10.64,-27.487 -1.789,0.88 c 0.955,2.39 -2.214,20.496 -5.097,23.379 -2.482,2.482 -8.451,0.773 -16.713,-1.591 -0.897,-0.257 -1.823,-0.522 -2.779,-0.791 -10.069,-2.843 -20.618,2.398 -22.119,3.187 -4.268,0.58 -10.383,0.442 -10.95,-1.686 -0.837,-3.142 -0.261,-16.187 0.032,-20.948 l -1.996,-0.123 c -0.006,0.101 -0.032,0.528 -0.069,1.198 l -0.356,-0.116 c -7.949,24.473 -4.02,38.464 12.74,45.365 13.184,5.429 33.584,3.68 44.546,-3.821 9.65,-6.603 9.356,-22.816 9.231,-29.739 -0.012,-0.656 -0.023,-1.228 -0.023,-1.699 0,-5.565 -4.467,-13.174 -4.658,-13.495" /><path
       inkscape:connector-curvature="0"
       id="path60"
       style="fill:#5e2791;fill-opacity:1;fill-rule:nonzero;stroke:none;stroke-width:0.1"
       d="m 347.015,302.216 -0.06,0.004 c -15.521,1.079 -25.211,14.013 -29.35,19.536 l -0.2,0.268 c -3.766,5.022 -3.944,16.956 -3.937,19.545 -1.176,1.032 -4.555,4.401 -5.032,9.407 -0.185,1.932 0.257,3.536 1.314,4.768 1.75,2.042 4.546,2.226 4.664,2.234 l 0.12,-1.997 c -0.021,-10e-4 -2.088,-0.153 -3.275,-1.55 -0.682,-0.802 -0.963,-1.901 -0.832,-3.265 0.485,-5.09 4.612,-8.307 4.654,-8.338 l 0.4,-0.307 -0.009,-0.505 c -0.002,-0.138 -0.203,-13.811 3.532,-18.792 l 0.202,-0.269 c 3.968,-5.296 13.251,-17.686 27.82,-18.735 1.166,0.087 20.224,1.833 27.667,21.681 0.045,0.118 4.318,11.45 4.19,16.773 l -0.01,0.464 0.348,0.309 c 1.491,1.321 5.342,5.403 5.246,8.39 -0.029,0.905 -0.287,1.557 -0.764,1.938 -0.844,0.671 -2.225,0.439 -2.24,0.435 l -0.384,1.963 c 0.231,0.046 2.308,0.41 3.869,-0.834 0.958,-0.762 1.469,-1.919 1.517,-3.437 0.128,-3.963 -4.293,-8.428 -5.58,-9.642 -0.087,-5.839 -4.143,-16.598 -4.321,-17.065 -8.11,-21.628 -29.276,-22.964 -29.488,-22.976 l -0.061,-0.003" /><path
       inkscape:connector-curvature="0"
       id="path62"
       style="fill:#5e2791;fill-opacity:1;fill-rule:nonzero;stroke:none;stroke-width:0.1"
       d="M 421.438,253.743 H 271.687 l 0.057,1.055 c 0,0 0.71,12.943 1.063,18.795 0.39,6.419 5.905,8.582 6.14,8.671 l 47.286,15.557 4.306,5.731 v 5.344 h 2 v -6.012 l -5.084,-6.766 -0.298,-0.098 -47.543,-15.641 c -0.14,-0.056 -4.5,-1.804 -4.811,-6.907 -0.292,-4.838 -0.827,-14.527 -1.004,-17.729 h 145.864 c 0.375,3.891 1.424,19.716 -5.576,25.294 -7.85,6.253 -42.581,13.48 -48.644,14.55 l -0.455,0.08 -4.267,7.272 -0.076,5.256 2,0.03 0.068,-4.729 3.537,-6.027 c 4.498,-0.87 40.497,-8.028 49.083,-14.867 8.848,-7.051 6.331,-27.137 6.218,-27.989 l -0.113,-0.87" /><path
       inkscape:connector-curvature="0"
       id="path64"
       style="fill:#5e2791;fill-opacity:1;fill-rule:nonzero;stroke:none;stroke-width:0.1"
       d="m 341.571,278.277 -15.486,18.041 1.518,1.303 13.495,-15.721 4.495,9.321 -14.661,11.202 1.214,1.59 15.957,-12.193 -6.532,-13.543" /><path
       inkscape:connector-curvature="0"
       id="path66"
       style="fill:#5e2791;fill-opacity:1;fill-rule:nonzero;stroke:none;stroke-width:0.1"
       d="m 348.055,291.198 3.697,-9.21 12.64,14.694 -2.957,5.042 z m 3.067,-13.009 -5.481,13.654 16.359,12.869 4.841,-8.251 -15.719,-18.272" /><path
       inkscape:connector-curvature="0"
       id="path68"
       style="fill:#5e2791;fill-opacity:1;fill-rule:nonzero;stroke:none;stroke-width:0.1"
       d="m 327.343,255.743 h 11.06 l -11.508,39.19 -7.426,-1.498 -3.968,-8.444 4.925,-3.039 -7.772,-6.68 z m 13.732,-2 h -14.73 l -16.416,21.823 7.119,6.121 -4.116,2.539 5.155,10.97 10.21,2.06 12.778,-43.513" /><path
       inkscape:connector-curvature="0"
       id="path70"
       style="fill:#5e2791;fill-opacity:1;fill-rule:nonzero;stroke:none;stroke-width:0.1"
       d="m 356.612,255.743 h 12.123 l 11.625,22.088 -9.198,4.041 5.192,2.035 -1.861,9.811 -8.135,1.679 z m 13.33,-2 h -15.881 l 10.814,44.002 11.333,-2.34 2.419,-12.756 -2.252,-0.882 6.754,-2.967 -13.187,-25.057" /><path
       inkscape:connector-curvature="0"
       id="path72"
       style="fill:#5e2791;fill-opacity:1;fill-rule:nonzero;stroke:none;stroke-width:0.1"
       d="m 355.318,253.743 h -15.695 l 4.181,25.258 -2.304,2.075 1.337,1.487 3.12,-2.808 -3.976,-24.012 h 10.891 l -5.005,24.684 2.18,2.111 1.391,-1.437 -1.394,-1.35 5.274,-26.008" /><path
       inkscape:connector-curvature="0"
       id="path74"
       style="fill:#9d349f;fill-opacity:1;fill-rule:nonzero;stroke:none;stroke-width:0.1"
       d="m 553.647,548.21 0.837,-0.548 z m -36.1,-35.441 0.459,-0.971 c 0.894,-1.892 2.504,-3.536 4.298,-4.902 -1.669,1.689 -3.347,3.665 -4.757,5.873 z m 2.11,-6.275 c 2.573,-6.308 8.983,-16.582 23.962,-19.402 2.482,0.676 27.792,8.3 32.465,38.341 0.01,0.12 1.524,17.207 -8.398,26.438 -2.282,-3.176 -10.344,-13.116 -23.31,-15.473 l -0.486,1.935 c 0.021,0.007 1.515,0.543 3.824,2.644 -4.386,-2.302 -10.958,-4.412 -20.431,-4.595 l -0.173,1.988 c 0.092,0.014 7.811,1.28 13.22,6.384 -5.205,-2.287 -14.41,-5.815 -21.657,-5.816 0,0 -10e-4,0 -0.002,0 -0.86,0 -1.677,0.051 -2.442,0.151 -0.563,-2.548 -1.932,-10.391 0.217,-18.986 2.581,-10.323 14.784,-17.92 14.907,-17.996 l 7.574,-4.653 -8.419,2.854 c -0.34,0.115 -6.475,2.233 -10.851,6.186 z m 24.025,-21.448 -0.206,0.038 c -23.175,4.23 -27.319,25.892 -27.358,26.11 l -1.329,7.41 c -0.103,0.335 -0.198,0.672 -0.283,1.014 -2.742,10.971 -0.105,20.483 0.008,20.882 l 0.253,0.888 0.905,-0.181 c 0.895,-0.179 1.904,-0.269 2.999,-0.269 10e-4,0 10e-4,0 0.002,0 10.01,10e-4 24.652,7.42 24.798,7.495 l 3.237,1.653 -1.935,-3.076 c -2.377,-3.779 -5.881,-6.266 -9.12,-7.875 13.369,2.259 17.781,8.75 17.994,9.075 l 0.534,-0.348 -0.531,0.352 0.24,-0.152 -0.236,0.159 1.685,-1.076 -0.327,0.197 0.321,-0.207 -0.737,0.458 0.728,-0.474 c -2.114,-3.267 -4.094,-5.563 -5.768,-7.165 10.86,4.288 17.028,13.838 17.099,13.949 l 0.61,0.961 0.875,-0.728 c 11.652,-9.71 10.004,-28.172 9.928,-28.953 -5.11,-32.857 -33.893,-40.02 -34.183,-40.088 l -0.203,-0.049" /><path
       inkscape:connector-curvature="0"
       id="path76"
       style="fill:#9d349f;fill-opacity:1;fill-rule:nonzero;stroke:none;stroke-width:0.1"
       d="m 522.382,443.029 -1.937,0.544 c -10.295,2.892 -17.227,7.988 -20.602,15.146 -5.156,10.935 -0.128,22.58 0.088,23.07 0.124,0.23 8.085,14.692 3.936,27.835 -2.909,9.205 -9.223,32.715 -5.083,52.171 3.679,17.288 23.583,25.998 24.428,26.361 l 0.098,0.036 c 1.067,0.331 26.328,7.962 42.089,-4.135 0.226,-0.145 28.593,-19.245 18.425,-60.283 -7.448,-30.056 -14.357,-39.21 -17.307,-43.119 -0.814,-1.079 -1.352,-1.792 -1.286,-2.162 l 0.047,-0.256 c 0.49,-2.718 0.785,-4.359 5.685,-5.152 l -0.32,-1.974 c -6.297,1.019 -6.801,3.813 -7.334,6.771 l -0.045,0.254 c -0.224,1.232 0.484,2.17 1.656,3.723 2.877,3.812 9.614,12.737 16.962,42.396 9.817,39.617 -17.364,57.991 -17.639,58.172 -14.673,11.257 -39.007,4.252 -40.29,3.87 -1.086,-0.483 -19.835,-9.045 -23.212,-24.918 -4.042,-18.991 2.173,-42.099 5.032,-51.152 4.415,-13.981 -3.707,-28.711 -4.055,-29.331 -0.006,-0.026 -4.83,-11.241 -0.059,-21.339 2.92,-6.179 8.802,-10.719 17.5,-13.51 -1.212,4.139 -3.155,14.04 3.831,19.508 8.362,6.544 11.321,13.357 10.214,23.513 l 1.988,0.217 c 1.193,-10.942 -1.984,-18.274 -10.97,-25.305 -7.617,-5.962 -2.628,-18.947 -2.576,-19.078 l 0.736,-1.873" /><path
       inkscape:connector-curvature="0"
       id="path78"
       style="fill:#9d349f;fill-opacity:1;fill-rule:nonzero;stroke:none;stroke-width:0.1"
       d="M 610.671,435.588 H 480.699 v 16.534 c 0,8.501 16.799,16.032 17.514,16.348 l 0.809,-1.829 c -4.54,-2.011 -16.323,-8.538 -16.323,-14.519 v -14.534 h 125.777 c -0.397,3.361 -1.959,13.899 -6.628,22.361 -3.787,6.864 -16.832,8.891 -26.356,10.372 -4.384,0.681 -8.169,1.269 -10.367,2.195 -0.603,0.254 -1.188,0.487 -1.752,0.714 -5.937,2.376 -10.227,4.092 -9.081,18.167 l 1.995,-0.163 c -1.028,-12.604 2.118,-13.862 7.829,-16.148 0.575,-0.23 1.171,-0.468 1.784,-0.727 1.973,-0.83 5.645,-1.401 9.899,-2.062 9.934,-1.544 23.538,-3.658 27.801,-11.382 5.817,-10.544 6.94,-23.692 6.984,-24.247 l 0.087,-1.08" /><path
       inkscape:connector-curvature="0"
       id="path80"
       style="fill:#9d349f;fill-opacity:1;fill-rule:nonzero;stroke:none;stroke-width:0.1"
       d="m 560.92,456.274 c -22.209,0 -33.84,11.19 -34.006,11.354 l 1.409,1.42 c 0.23,-0.227 23.597,-22.574 67.866,-2.236 l 0.834,-1.817 c -14.099,-6.477 -26.161,-8.721 -36.103,-8.721" /><path
       inkscape:connector-curvature="0"
       id="path82"
       style="fill:#f68714;fill-opacity:1;fill-rule:nonzero;stroke:none;stroke-width:0.1"
       d="m 524.807,343.143 c -0.236,0 -0.429,-0.191 -0.429,-0.427 v -8.76 c 0,-0.236 0.193,-0.428 0.429,-0.428 h 16.937 c 0.235,0 0.426,0.192 0.426,0.428 v 8.76 c 0,0.236 -0.191,0.427 -0.426,0.427 z m 16.937,-11.615 h -16.937 c -1.339,0 -2.429,1.089 -2.429,2.428 v 8.76 c 0,1.338 1.09,2.427 2.429,2.427 h 16.937 c 1.338,0 2.426,-1.089 2.426,-2.427 v -8.76 c 0,-1.339 -1.088,-2.428 -2.426,-2.428" /><path
       inkscape:connector-curvature="0"
       id="path84"
       style="fill:#f68714;fill-opacity:1;fill-rule:nonzero;stroke:none;stroke-width:0.1"
       d="m 551.217,343.143 c -0.236,0 -0.427,-0.191 -0.427,-0.427 v -8.76 c 0,-0.236 0.191,-0.428 0.427,-0.428 h 16.936 c 0.235,0 0.427,0.192 0.427,0.428 v 8.76 c 0,0.236 -0.192,0.427 -0.427,0.427 z m 16.936,-11.615 h -16.936 c -1.339,0 -2.427,1.089 -2.427,2.428 v 8.76 c 0,1.338 1.088,2.427 2.427,2.427 h 16.936 c 1.338,0 2.427,-1.089 2.427,-2.427 v -8.76 c 0,-1.339 -1.089,-2.428 -2.427,-2.428" /><path
       inkscape:connector-curvature="0"
       id="path86"
       style="fill:#f68714;fill-opacity:1;fill-rule:nonzero;stroke:none;stroke-width:0.1"
       d="m 549.79,341.716 h -6.62 v 2 h 6.62 v -2" /><path
       inkscape:connector-curvature="0"
       id="path88"
       style="fill:#f68714;fill-opacity:1;fill-rule:nonzero;stroke:none;stroke-width:0.1"
       d="m 499.92,280.093 c -0.016,0.333 -1.652,33.648 2.377,65.542 4.078,32.285 25.328,45.311 25.542,45.439 l 0.14,0.069 c 1.11,0.446 27.345,10.748 41.738,-4.3 14.829,-15.506 20.35,-41.534 21.273,-54.47 1.008,-14.11 0.012,-51.876 0.003,-52.256 l -2,0.053 c 0.01,0.379 1.003,38.048 0.003,52.061 -0.906,12.668 -6.288,38.135 -20.724,53.229 -13.104,13.703 -37.903,4.46 -39.471,3.857 -1.275,-0.804 -20.679,-13.538 -24.519,-43.933 -4.006,-31.713 -2.381,-64.859 -2.364,-65.19 l -1.998,-0.101" /><path
       inkscape:connector-curvature="0"
       id="path90"
       style="fill:#f68714;fill-opacity:1;fill-rule:nonzero;stroke:none;stroke-width:0.1"
       d="M 606.96,253.743 H 484.327 l 0.013,1.014 c 0.004,0.249 0.623,24.945 24.239,28.071 24.256,3.211 25.758,15.852 25.278,21.137 l 1.992,0.182 c 0.415,-4.573 -0.306,-19.766 -27.009,-23.301 -19.259,-2.55 -22.042,-20.601 -22.436,-25.103 h 118.491 c -0.346,4.553 -2.946,22.521 -22.448,25.103 -25.56,3.384 -27.075,17.446 -26.54,23.336 L 557.899,304 c -0.6,-6.601 1.826,-18.129 24.809,-21.172 23.616,-3.126 24.235,-27.822 24.239,-28.071 l 0.013,-1.014" /><path
       inkscape:connector-curvature="0"
       id="path92"
       style="fill:#f68714;fill-opacity:1;fill-rule:nonzero;stroke:none;stroke-width:0.1"
       d="m 520.528,353.146 c -0.464,-4.378 -2.341,-23.676 0.013,-28.81 2.91,-6.349 16.063,-24.701 25.106,-24.701 0.419,0 0.83,0.04 1.222,0.118 9.954,1.99 25.122,19.801 25.359,29.777 0.213,8.928 0.066,20.852 0.016,24.355 l -32.673,-0.76 -0.982,8.556 -1.825,-13.176 -2.836,12.772 -2.648,-8.131 z m 25.119,-55.511 c -10.532,0 -24.065,19.632 -26.925,25.867 -2.877,6.278 -0.199,29.762 -0.084,30.759 l 0.103,0.885 h 11.088 l 4.464,13.713 2.014,-9.072 2.468,17.813 2.575,-22.433 32.86,0.764 0.018,-1.006 c 0.002,-0.148 0.251,-14.876 0,-25.442 -0.259,-10.867 -16.137,-29.526 -26.967,-31.691 -0.52,-0.104 -1.063,-0.157 -1.614,-0.157" /><path
       inkscape:connector-curvature="0"
       id="path94"
       style="fill:#f68714;fill-opacity:1;fill-rule:nonzero;stroke:none;stroke-width:0.1"
       d="m 547.958,262.455 c -0.052,0 -0.102,0 -0.154,0 -22.559,0.082 -39.138,17.947 -39.833,18.707 l 1.477,1.35 c 0.164,-0.18 16.705,-17.987 38.379,-18.057 0.043,0 0.087,0 0.131,0 12.65,0 24.612,5.985 35.556,17.792 l 1.467,-1.359 c -11.337,-12.232 -23.794,-18.433 -37.023,-18.433" /><path
       inkscape:connector-curvature="0"
       id="path96"
       style="fill:#6f4420;fill-opacity:1;fill-rule:nonzero;stroke:none;stroke-width:0.1"
       d="m 97.166,171.928 4.089,-4.089 c 0.349,4.887 2.159,15.819 11.312,18.521 2.604,0.769 5.689,1.175 8.92,1.175 7.727,0 17.29,-2.439 23.344,-7.696 -0.474,0.741 -1.046,1.471 -1.735,2.124 l -5.211,4.938 6.362,-3.327 c 0.196,-0.102 2.961,-1.569 5.731,-4.107 -0.314,0.502 -0.66,1.021 -1.039,1.557 l -2.566,3.618 3.87,-2.166 c 0.241,-0.136 3.889,-2.208 6.956,-5.558 -0.829,2.096 -1.981,4.456 -3.573,6.843 l -0.759,1.139 1.317,0.377 c 0.06,0.017 0.608,0.167 1.45,0.167 2.904,0 9.632,-1.767 11.527,-17.557 l 3.557,4.048 c 0.449,2.2 3.529,18.594 -2.411,26.62 -5.375,7.262 -19.243,18.068 -35.418,18.068 -2.666,0 -5.314,-0.303 -7.872,-0.9 C 104.94,211.032 94.8031,195.08 97.166,171.928 Z m 6.063,-8.89 -7.977,7.977 -0.0375,0.35 c -2.6211,24.458 8.0755,41.336 29.3475,46.305 2.707,0.633 5.508,0.953 8.327,0.953 16.915,0 31.41,-11.29 37.026,-18.879 6.887,-9.305 2.878,-27.712 2.704,-28.49 l -0.056,-0.25 -6.967,-7.928 -0.196,2.344 c -1.257,15.108 -6.459,17.7 -9.185,17.992 4.315,-7.149 4.997,-13.543 5.026,-13.829 l -1.975,-0.301 c -0.739,3.608 -3.687,6.708 -6.192,8.769 1.774,-3.52 2.006,-5.818 2.017,-5.945 l 0.705,-7.747 -2.641,7.316 c -1.064,2.945 -3.389,5.405 -5.512,7.163 0.989,-2.189 1.273,-4.017 1.292,-4.144 l 0.797,-5.371 -2.658,4.736 c -4.427,7.884 -16.367,11.476 -25.587,11.476 -3.042,0 -5.931,-0.378 -8.354,-1.093 -10.166,-3.001 -9.959,-18.759 -9.956,-18.918 l 0.052,-2.486" /><path
       inkscape:connector-curvature="0"
       id="path98"
       style="fill:#6f4420;fill-opacity:1;fill-rule:nonzero;stroke:none;stroke-width:0.1"
       d="m 130.998,111.285 c -1.07,0 -10.682,0.273 -18.791,9.733 -7.186,8.382 -11.888,22.318 -12.6047,24.525 -3.832,3.614 -9.4984,12.306 -10.0847,19.143 -0.1883,2.203 0.3246,4.023 1.5254,5.412 1.9437,2.246 4.9738,2.45 5.1015,2.458 l 0.1282,-2.168 -0.0641,1.084 0.0684,-1.083 c -0.0227,-0.002 -2.2704,-0.17 -3.6032,-1.724 -0.7953,-0.928 -1.1293,-2.204 -0.9929,-3.794 0.5296,-6.179 5.9476,-14.602 9.5981,-17.923 l 0.218,-0.197 0.088,-0.28 c 0.048,-0.154 4.909,-15.452 12.27,-24.041 7.606,-8.872 16.757,-8.975 17.143,-8.975 v -2.17" /><path
       inkscape:connector-curvature="0"
       id="path100"
       style="fill:#6f4420;fill-opacity:1;fill-rule:nonzero;stroke:none;stroke-width:0.1"
       d="m 136.35,111.317 v 2 c 0.39,0 9.649,0.103 17.325,9.057 7.373,8.603 12.239,23.917 12.287,24.071 l 0.081,0.258 0.201,0.183 c 3.661,3.329 9.094,11.779 9.625,17.977 0.139,1.622 -0.205,2.924 -1.024,3.87 -1.352,1.564 -3.624,1.739 -3.647,1.741 l 0.118,1.996 c 0.127,-0.007 3.122,-0.208 5.042,-2.428 1.185,-1.37 1.691,-3.17 1.504,-5.35 -0.585,-6.824 -6.252,-15.506 -10.073,-19.102 -0.691,-2.134 -5.396,-16.119 -12.596,-24.517 -8.268,-9.644 -18.415,-9.756 -18.843,-9.756" /><path
       inkscape:connector-curvature="0"
       id="path102"
       style="fill:#6f4420;fill-opacity:1;fill-rule:nonzero;stroke:none;stroke-width:0.1"
       d="M 211.43,68.6262 H 57.484 l -0.0801,0.9129 c -1.5785,18 6.6918,23.8929 12.1649,27.7922 0.9781,0.6957 1.9019,1.3546 2.6519,1.9968 3.4981,2.9989 15.6367,5.1529 26.3469,7.0539 5.4594,0.969 10.1754,1.806 12.4144,2.544 5.77,1.902 5.598,8.276 5.588,8.547 l 1.998,0.082 c 0.003,-0.081 0.261,-8.148 -6.96,-10.529 -2.375,-0.783 -7.155,-1.631 -12.6908,-2.614 -9.416,-1.671 -22.3113,-3.959 -25.3945,-6.6011 -0.818,-0.7027 -1.7778,-1.3847 -2.793,-2.1089 C 65.4211,91.9199 58.1871,86.7672 59.3238,70.6262 H 209.59 c 1.137,16.141 -6.097,21.2937 -11.405,25.0758 -1.016,0.7242 -1.976,1.4062 -2.793,2.1089 -3.084,2.6421 -15.979,4.9301 -25.395,6.6011 -5.536,0.983 -10.316,1.831 -12.691,2.613 -7.194,2.373 -7.225,11.01 -7.223,11.376 l 2,-0.009 c -0.001,-0.308 0.047,-7.553 5.849,-9.467 2.239,-0.737 6.955,-1.574 12.415,-2.543 10.71,-1.901 22.848,-4.055 26.346,-7.0539 0.75,-0.6422 1.674,-1.3011 2.652,-1.9968 5.473,-3.8993 13.744,-9.7922 12.165,-27.7922 l -0.08,-0.9129" /><path
       inkscape:connector-curvature="0"
       id="path104"
       style="fill:#6f4420;fill-opacity:1;fill-rule:nonzero;stroke:none;stroke-width:0.1"
       d="m 130.789,141.463 c -0.216,0 -0.446,-0.016 -0.689,-0.051 -1.594,-0.226 -6.962,-1.5 -9.142,-8.359 l -0.416,-1.44 c 1.135,0.956 2.837,2.201 4.48,2.677 0.425,0.122 0.987,0.248 1.626,0.39 2.41,0.536 6.051,1.346 7.013,3.192 0.326,0.623 0.318,1.331 -0.024,2.161 -0.011,0.013 -0.814,1.43 -2.848,1.43 z m -12.252,-13.188 1.463,5.068 c 2.362,7.428 8.219,8.811 9.958,9.059 3.276,0.465 4.535,-1.853 4.582,-1.943 0.476,-1.149 0.472,-2.16 0.008,-3.05 -1.177,-2.258 -5.092,-3.129 -7.683,-3.705 -0.615,-0.137 -1.157,-0.257 -1.565,-0.375 -2.511,-0.726 -5.345,-3.603 -5.374,-3.633 l -1.389,-1.421" /><path
       inkscape:connector-curvature="0"
       id="path106"
       style="fill:#6f4420;fill-opacity:1;fill-rule:nonzero;stroke:none;stroke-width:0.1"
       d="m 137.956,141.463 c -2.034,0 -2.837,-1.417 -2.871,-1.478 -0.323,-0.793 -0.331,-1.508 -0.003,-2.141 0.963,-1.855 4.58,-2.674 6.974,-3.216 0.609,-0.139 1.146,-0.261 1.557,-0.379 1.672,-0.485 3.445,-1.752 4.609,-2.7 l -0.438,1.516 c -2.178,6.847 -7.545,8.121 -9.138,8.347 -0.244,0.035 -0.474,0.051 -0.69,0.051 z m 12.225,-13.087 -1.352,1.312 c -0.03,0.028 -2.981,2.872 -5.494,3.6 -0.395,0.114 -0.913,0.232 -1.5,0.364 -2.574,0.583 -6.463,1.464 -7.64,3.732 -0.466,0.896 -0.47,1.917 -0.011,3.03 0.071,0.14 1.324,2.454 4.603,1.988 1.739,-0.248 7.596,-1.631 9.954,-9.046 l 1.44,-4.98" /><path
       inkscape:connector-curvature="0"
       id="path108"
       style="fill:#6f4420;fill-opacity:1;fill-rule:nonzero;stroke:none;stroke-width:0.1"
       d="m 127.497,126.065 5.852,-19.706 7.991,19.706 z m 5.694,-22.985 -7.149,24.071 h 16.91 l -9.761,-24.071" /><path
       inkscape:connector-curvature="0"
       id="path110"
       style="fill:#6f4420;fill-opacity:1;fill-rule:nonzero;stroke:none;stroke-width:0.1"
       d="m 119.575,69.3691 -9.334,38.3499 2.109,0.513 9.334,-38.3492 -2.109,-0.5137" /><path
       inkscape:connector-curvature="0"
       id="path112"
       style="fill:#6f4420;fill-opacity:1;fill-rule:nonzero;stroke:none;stroke-width:0.1"
       d="m 150.454,69.398 -2.122,0.4559 8.226,38.3491 2.122,-0.455 -8.226,-38.35" /><path
       inkscape:connector-curvature="0"
       id="path114"
       style="fill:#9b165e;fill-opacity:1;fill-rule:nonzero;stroke:none;stroke-width:0.1"
       d="m 312.557,167.191 c 0.599,-0.461 1.865,-1.519 2.982,-2.999 0.888,5.46 3.607,16.549 11.169,18.183 1.209,0.261 2.492,0.394 3.814,0.394 8.293,0 15.919,-5.082 16.24,-5.299 l 0.016,-0.011 c 0.215,0.013 0.692,0.069 1.578,0.732 1.879,1.41 9.978,3.489 14.764,3.489 1.6,0 2.775,-0.213 3.59,-0.653 4.222,-2.274 11.254,-8.389 11.203,-16.669 1.032,1.278 2.211,2.807 3.004,4.054 1.345,2.113 4.028,19.639 -9.336,31.518 -7.741,6.88 -17.821,8.324 -24.915,8.324 -7.84,0 -14.082,-1.731 -17.045,-3.213 -5.998,-2.997 -21.882,-10.935 -17.064,-37.85 z m 4.232,-10.534 -1.574,4.096 c -1.127,2.934 -4.112,5.024 -4.142,5.046 l -0.34,0.234 -0.075,0.406 c -5.316,28.709 11.672,37.198 18.067,40.394 3.158,1.579 9.752,3.425 17.941,3.425 7.441,0 18.036,-1.532 26.245,-8.83 13.834,-12.297 11.82,-30.755 9.696,-34.092 -1.774,-2.786 -5.204,-6.717 -5.35,-6.883 l -2.698,-3.086 0.971,3.983 c 2.696,11.052 -9.645,17.846 -9.77,17.914 -0.285,0.154 -1.01,0.413 -2.64,0.413 -4.878,0 -12.276,-2.124 -13.562,-3.089 -1.009,-0.755 -1.927,-1.138 -2.73,-1.138 -0.625,0 -1.024,0.23 -1.221,0.382 -0.558,0.365 -7.685,4.934 -15.085,4.934 -1.18,0 -2.321,-0.119 -3.39,-0.35 -8.444,-1.823 -9.969,-19.21 -9.983,-19.386 l -0.36,-4.373" /><path
       inkscape:connector-curvature="0"
       id="path116"
       style="fill:#9b165e;fill-opacity:1;fill-rule:nonzero;stroke:none;stroke-width:0.1"
       d="m 346.848,102.569 c -6.515,0 -8.979,1.694 -15.567,6.217 -0.955,0.656 -2.003,1.376 -3.17,2.164 -9.393,6.347 -12.461,18.791 -12.461,22.365 0,0.298 0.007,0.57 0.014,0.827 0.055,2.105 0.08,3.066 -5.846,11.625 -5.674,8.196 -4.904,12.924 -4.395,16.054 0.113,0.693 0.21,1.29 0.21,1.795 0,3.163 3.778,4.008 6.01,4.008 l 0.001,-2.004 c -0.04,0 -4.008,-0.066 -4.008,-2.004 0,-0.667 -0.114,-1.371 -0.236,-2.117 -0.485,-2.979 -1.149,-7.06 4.065,-14.592 5.994,-8.657 6.274,-10.053 6.201,-12.818 -0.006,-0.24 -0.013,-0.494 -0.013,-0.774 0,-2.84 2.773,-14.755 11.579,-20.705 1.172,-0.792 2.225,-1.514 3.184,-2.172 6.559,-4.505 8.539,-5.865 14.432,-5.865 6.329,0 30.572,12.019 30.572,31.998 -0.018,0.188 -0.486,6.606 4.94,12.374 4.784,5.083 3.307,15.567 2,17.003 -0.19,0.208 -0.392,0.306 -0.656,0.316 -0.83,0.035 -1.992,-0.798 -2.424,-1.205 l -1.373,1.459 c 0.199,0.186 1.985,1.847 3.875,1.748 0.799,-0.032 1.511,-0.367 2.06,-0.97 1.991,-2.19 3.561,-13.79 -2.023,-19.724 -4.791,-5.093 -4.402,-10.863 -4.399,-10.921 0.004,-21.703 -25.597,-34.082 -32.572,-34.082" /><path
       inkscape:connector-curvature="0"
       id="path118"
       style="fill:#9b165e;fill-opacity:1;fill-rule:nonzero;stroke:none;stroke-width:0.1"
       d="M 420.478,68.6242 H 274.403 l -0.299,0.4129 c -0.305,0.418 -2.826,4.5301 2.196,19.9309 4.133,12.675 26.817,14.718 39.004,15.815 3.285,0.296 5.881,0.53 7.089,0.864 5.217,1.452 5.277,6.086 5.277,6.133 h 2.003 c 0,-2.139 -1.409,-6.579 -6.743,-8.062 -1.385,-0.385 -3.928,-0.613 -7.447,-0.931 C 303.756,101.731 281.928,99.766 278.204,88.3469 274.391,76.652 275.149,71.973 275.569,70.6281 H 418.47 c -0.161,4.0289 -1.52,19.2598 -12.755,24.466 -7.822,3.625 -18.714,5.3019 -26.667,6.5249 -7.115,1.096 -10.894,1.726 -12.308,2.983 -3.347,2.975 -2.999,7.098 -2.983,7.272 l 1.994,-0.187 c -0.01,-0.13 -0.251,-3.303 2.32,-5.587 1.038,-0.923 6.013,-1.69 11.282,-2.5 8.071,-1.243 19.125,-2.945 27.204,-6.6879 14.117,-6.543 13.951,-26.4582 13.938,-27.3031 l -0.017,-0.9848" /><path
       inkscape:connector-curvature="0"
       id="path120"
       style="fill:#9b165e;fill-opacity:1;fill-rule:nonzero;stroke:none;stroke-width:0.1"
       d="m 345.791,89.6691 c -13.23,0 -23.496,13.8169 -23.938,14.4219 l 1.616,1.183 c 0.106,-0.143 10.656,-14.3459 23.32,-13.572 12.662,0.7492 19.657,13.976 19.726,14.11 l 1.779,-0.922 c -0.303,-0.586 -7.6,-14.372 -21.387,-15.188 -0.374,-0.0219 -0.747,-0.0329 -1.116,-0.0329" /><path
       inkscape:connector-curvature="0"
       id="path122"
       style="fill:#94806d;fill-opacity:1;fill-rule:nonzero;stroke:none;stroke-width:0.1"
       d="m 522.217,169.493 c -0.248,0 -0.45,-0.2 -0.45,-0.447 v -9.203 c 0,-0.248 0.202,-0.449 0.45,-0.449 h 17.792 c 0.247,0 0.449,0.201 0.449,0.449 v 9.203 c 0,0.247 -0.202,0.447 -0.449,0.447 z m 17.792,-12.201 h -17.792 c -1.407,0 -2.551,1.145 -2.551,2.551 v 9.203 c 0,1.405 1.144,2.549 2.551,2.549 h 17.792 c 1.407,0 2.55,-1.144 2.55,-2.549 v -9.203 c 0,-1.406 -1.143,-2.551 -2.55,-2.551" /><path
       inkscape:connector-curvature="0"
       id="path124"
       style="fill:#94806d;fill-opacity:1;fill-rule:nonzero;stroke:none;stroke-width:0.1"
       d="m 549.961,169.493 c -0.248,0 -0.449,-0.2 -0.449,-0.447 v -9.203 c 0,-0.248 0.201,-0.449 0.449,-0.449 h 17.791 c 0.248,0 0.449,0.201 0.449,0.449 v 9.203 c 0,0.247 -0.201,0.447 -0.449,0.447 z m 17.791,-12.201 h -17.791 c -1.406,0 -2.55,1.145 -2.55,2.551 v 9.203 c 0,1.405 1.144,2.549 2.55,2.549 h 17.791 c 1.407,0 2.55,-1.144 2.55,-2.549 v -9.203 c 0,-1.406 -1.143,-2.551 -2.55,-2.551" /><path
       inkscape:connector-curvature="0"
       id="path126"
       style="fill:#94806d;fill-opacity:1;fill-rule:nonzero;stroke:none;stroke-width:0.1"
       d="m 548.461,167.995 h -6.953 v 2.102 h 6.953 v -2.102" /><path
       inkscape:connector-curvature="0"
       id="path128"
       style="fill:#94806d;fill-opacity:1;fill-rule:nonzero;stroke:none;stroke-width:0.1"
       d="m 536.707,114.757 c 0.173,-0.106 1.236,-0.646 4.638,-0.646 2.602,0 5.94,0.311 9.92,0.923 12.056,1.854 20.806,20.998 23.2,26.822 0.981,2.379 1.313,10.209 1.361,13.033 l 0.004,0.21 0.087,0.189 c 1.455,3.177 3.762,8.821 3.762,10.447 0,1.413 -1.697,1.455 -1.891,1.455 l -1.219,0.001 0.239,1.196 c 0.262,1.31 1.82,17.083 1.82,24.198 0,6.592 -12.083,16.022 -28.254,18.776 -1.621,0.276 -3.291,0.415 -4.964,0.415 -14.108,0 -26.635,-9.69 -31.217,-15.798 -4.895,-6.529 0.105,-23.122 0.156,-23.289 l 0.396,-1.293 -1.878,0.008 c -0.713,0 -2.04,0 -2.521,-2.525 -0.517,-2.719 2.396,-8.52 3.562,-10.525 l 0.199,-0.342 -0.089,-0.386 c -1.001,-4.34 -0.164,-12.557 -0.155,-12.639 4.545,-23.044 22.305,-29.937 22.484,-30.005 l 0.248,-0.092 z m 4.638,-2.646 c -3.801,0 -5.295,0.633 -5.872,1.068 -1.93,0.799 -19.052,8.502 -23.587,31.511 -0.048,0.428 -0.847,8.276 0.1,12.998 -0.936,1.665 -4.29,7.967 -3.605,11.565 0.466,2.448 1.709,3.823 3.702,4.1 -1.123,4.175 -4.196,17.548 0.51,23.824 4.814,6.418 17.981,16.599 32.817,16.599 1.786,0 3.569,-0.149 5.299,-0.444 15.939,-2.714 29.919,-12.408 29.919,-20.747 0,-6.419 -1.217,-19.559 -1.71,-23.541 1.36,-0.348 2.761,-1.343 2.761,-3.309 0,-2.461 -3.184,-9.607 -3.857,-11.089 -0.033,-1.537 -0.276,-10.561 -1.474,-13.471 -3.231,-7.858 -12.045,-26.159 -24.778,-28.117 -4.081,-0.628 -7.522,-0.947 -10.225,-0.947" /><path
       inkscape:connector-curvature="0"
       id="path130"
       style="fill:#94806d;fill-opacity:1;fill-rule:nonzero;stroke:none;stroke-width:0.1"
       d="m 575.959,167.166 c -0.137,0.238 -3.395,5.918 -5.675,11.88 -2.119,5.543 -7.136,10.59 -12.269,9.037 -6.165,-1.868 -16.802,2.213 -18.169,3.58 -1.055,1.056 -5.065,3.761 -9.509,2.381 -3.396,-1.054 -10.781,-14.422 -14.637,-22.601 l -1.809,0.854 c 1.06,2.246 10.505,21.999 15.854,23.657 5.414,1.68 10.147,-1.507 11.516,-2.878 1.018,-0.924 10.791,-4.713 16.174,-3.079 6.356,1.927 12.214,-3.691 14.716,-10.236 2.224,-5.817 5.509,-11.539 5.541,-11.597 l -1.733,-0.998" /><path
       inkscape:connector-curvature="0"
       id="path132"
       style="fill:#94806d;fill-opacity:1;fill-rule:nonzero;stroke:none;stroke-width:0.1"
       d="m 562.655,131.263 -0.642,0.834 c -0.049,0.062 -5.188,6.501 -17.112,7.5 -11.897,0.98 -18.561,-7.418 -18.627,-7.504 l -0.524,-0.675 -0.749,0.412 c -10.849,5.968 -12.872,25.109 -12.953,25.922 l 1.991,0.198 c 0.018,-0.184 1.907,-18.028 11.232,-23.957 1.956,2.146 8.768,8.535 19.796,7.596 10.395,-0.87 15.947,-5.549 17.811,-7.464 2.473,2.329 10.575,10.597 12.973,20.973 l 1.949,-0.451 c -2.98,-12.89 -13.883,-22.307 -14.345,-22.702 l -0.8,-0.682" /><path
       inkscape:connector-curvature="0"
       id="path134"
       style="fill:#94806d;fill-opacity:1;fill-rule:nonzero;stroke:none;stroke-width:0.1"
       d="m 533.427,129.874 c 3.241,-2.619 6.417,-2.923 7.703,-2.924 l 0.529,2.61 7.013,0.237 0.187,-2.801 c 0.025,-10e-4 0.052,-10e-4 0.078,-10e-4 1.872,0 5.062,1.246 7.007,2.118 -1.265,1.241 -4.292,3.461 -10.268,4.266 -0.798,0.107 -1.593,0.162 -2.366,0.162 -5.2,0 -8.533,-2.437 -9.883,-3.667 z m 7.708,-4.924 c -1.62,0 -5.823,0.403 -9.846,4.132 l -0.69,0.64 0.596,0.727 c 0.17,0.208 4.258,5.092 12.115,5.092 0.861,0 1.747,-0.06 2.634,-0.18 9.478,-1.276 12.347,-5.886 12.464,-6.082 l 0.555,-0.925 -0.965,-0.484 c -0.235,-0.117 -5.787,-2.875 -9.061,-2.875 -0.514,0 -0.952,0.063 -1.34,0.193 l -0.637,0.211 -0.155,2.333 -3.5,-0.118 -0.509,-2.51 -0.698,-0.101 c -0.037,-0.005 -0.386,-0.053 -0.963,-0.053" /><path
       inkscape:connector-curvature="0"
       id="path136"
       style="fill:#94806d;fill-opacity:1;fill-rule:nonzero;stroke:none;stroke-width:0.1"
       d="M 616.649,68.6262 H 473.347 l -0.109,0.8758 c -0.111,0.882 -2.557,21.707 9.848,31.146 11.206,8.527 39.572,12.62 45.051,13.342 v 4.06 h 2 v -5.825 l -0.879,-0.107 c -0.331,-0.041 -33.224,-4.132 -44.961,-13.061 -10.117,-7.6988 -9.471,-24.4199 -9.157,-28.4308 h 139.986 c 0.902,3.7199 4.3,20.782 -7.544,26.4847 -15.386,7.4091 -32.312,12.3551 -46.438,13.5721 l -0.734,0.063 -1.542,7.092 1.955,0.424 1.228,-5.654 c 14.206,-1.34 31.068,-6.313 46.398,-13.6939 14.787,-7.12 8.476,-29.3461 8.411,-29.5692 l -0.211,-0.7187" /><path
       inkscape:connector-curvature="0"
       id="path138"
       style="fill:#94806d;fill-opacity:1;fill-rule:nonzero;stroke:none;stroke-width:0.1"
       d="m 546.631,92.775 c -0.334,0 -0.671,0.0039 -1.011,0.0121 -8.116,0.1809 -14.271,2.4777 -18.297,6.8258 -5.17,5.5831 -4.857,12.4541 -4.841,12.7441 l 2.098,-0.115 -1.049,0.058 1.049,-0.056 c -0.003,-0.062 -0.263,-6.311 4.306,-11.226 3.626,-3.9008 9.272,-5.9629 16.781,-6.1309 7.566,-0.1621 13.27,1.6301 16.887,5.3479 4.429,4.553 4.185,10.529 4.182,10.588 l 2.097,0.112 c 0.016,-0.28 0.314,-6.913 -4.749,-12.1389 -3.871,-3.9973 -9.74,-6.0211 -17.453,-6.0211" /></g></svg>