<?xml version="1.0" encoding="utf-8" standalone="no"?>
<!DOCTYPE svg PUBLIC "-//W3C//DTD SVG 1.1//EN"
  "http://www.w3.org/Graphics/SVG/1.1/DTD/svg11.dtd">
<!-- Created with matplotlib (http://matplotlib.org/) -->
<svg height="345.6pt" version="1.1" viewBox="0 0 460.8 345.6" width="460.8pt" xmlns="http://www.w3.org/2000/svg" xmlns:xlink="http://www.w3.org/1999/xlink">
 <defs>
  <style type="text/css">
*{stroke-linecap:butt;stroke-linejoin:round;}
  </style>
 </defs>
 <g id="figure_1">
  <g id="patch_1">
   <path d="M 0 345.6 
L 460.8 345.6 
L 460.8 0 
L 0 0 
z
" style="fill:#ffffff;"/>
  </g>
  <g id="axes_1">
   <g id="patch_2">
    <path d="M 57.6 307.584 
L 414.72 307.584 
L 414.72 41.472 
L 57.6 41.472 
z
" style="fill:#ffffff;"/>
   </g>
   <g id="matplotlib.axis_1">
    <g id="xtick_1">
     <g id="line2d_1">
      <defs>
       <path d="M 0 0 
L 0 3.5 
" id="m6020fbd8e8" style="stroke:#000000;stroke-width:0.8;"/>
      </defs>
      <g>
       <use style="stroke:#000000;stroke-width:0.8;" x="57.6" xlink:href="#m6020fbd8e8" y="307.584"/>
      </g>
     </g>
     <g id="text_1">
      <!-- 0.250 -->
      <defs>
       <path d="M 31.78125 66.40625 
Q 24.171875 66.40625 20.328125 58.90625 
Q 16.5 51.421875 16.5 36.375 
Q 16.5 21.390625 20.328125 13.890625 
Q 24.171875 6.390625 31.78125 6.390625 
Q 39.453125 6.390625 43.28125 13.890625 
Q 47.125 21.390625 47.125 36.375 
Q 47.125 51.421875 43.28125 58.90625 
Q 39.453125 66.40625 31.78125 66.40625 
z
M 31.78125 74.21875 
Q 44.046875 74.21875 50.515625 64.515625 
Q 56.984375 54.828125 56.984375 36.375 
Q 56.984375 17.96875 50.515625 8.265625 
Q 44.046875 -1.421875 31.78125 -1.421875 
Q 19.53125 -1.421875 13.0625 8.265625 
Q 6.59375 17.96875 6.59375 36.375 
Q 6.59375 54.828125 13.0625 64.515625 
Q 19.53125 74.21875 31.78125 74.21875 
z
" id="DejaVuSans-30"/>
       <path d="M 10.6875 12.40625 
L 21 12.40625 
L 21 0 
L 10.6875 0 
z
" id="DejaVuSans-2e"/>
       <path d="M 19.1875 8.296875 
L 53.609375 8.296875 
L 53.609375 0 
L 7.328125 0 
L 7.328125 8.296875 
Q 12.9375 14.109375 22.625 23.890625 
Q 32.328125 33.6875 34.8125 36.53125 
Q 39.546875 41.84375 41.421875 45.53125 
Q 43.3125 49.21875 43.3125 52.78125 
Q 43.3125 58.59375 39.234375 62.25 
Q 35.15625 65.921875 28.609375 65.921875 
Q 23.96875 65.921875 18.8125 64.3125 
Q 13.671875 62.703125 7.8125 59.421875 
L 7.8125 69.390625 
Q 13.765625 71.78125 18.9375 73 
Q 24.125 74.21875 28.421875 74.21875 
Q 39.75 74.21875 46.484375 68.546875 
Q 53.21875 62.890625 53.21875 53.421875 
Q 53.21875 48.921875 51.53125 44.890625 
Q 49.859375 40.875 45.40625 35.40625 
Q 44.1875 33.984375 37.640625 27.21875 
Q 31.109375 20.453125 19.1875 8.296875 
z
" id="DejaVuSans-32"/>
       <path d="M 10.796875 72.90625 
L 49.515625 72.90625 
L 49.515625 64.59375 
L 19.828125 64.59375 
L 19.828125 46.734375 
Q 21.96875 47.46875 24.109375 47.828125 
Q 26.265625 48.1875 28.421875 48.1875 
Q 40.625 48.1875 47.75 41.5 
Q 54.890625 34.8125 54.890625 23.390625 
Q 54.890625 11.625 47.5625 5.09375 
Q 40.234375 -1.421875 26.90625 -1.421875 
Q 22.3125 -1.421875 17.546875 -0.640625 
Q 12.796875 0.140625 7.71875 1.703125 
L 7.71875 11.625 
Q 12.109375 9.234375 16.796875 8.0625 
Q 21.484375 6.890625 26.703125 6.890625 
Q 35.15625 6.890625 40.078125 11.328125 
Q 45.015625 15.765625 45.015625 23.390625 
Q 45.015625 31 40.078125 35.4375 
Q 35.15625 39.890625 26.703125 39.890625 
Q 22.75 39.890625 18.8125 39.015625 
Q 14.890625 38.140625 10.796875 36.28125 
z
" id="DejaVuSans-35"/>
      </defs>
      <g transform="translate(43.285938 322.182437)scale(0.1 -0.1)">
       <use xlink:href="#DejaVuSans-30"/>
       <use x="63.623047" xlink:href="#DejaVuSans-2e"/>
       <use x="95.410156" xlink:href="#DejaVuSans-32"/>
       <use x="159.033203" xlink:href="#DejaVuSans-35"/>
       <use x="222.65625" xlink:href="#DejaVuSans-30"/>
      </g>
     </g>
    </g>
    <g id="xtick_2">
     <g id="line2d_2">
      <g>
       <use style="stroke:#000000;stroke-width:0.8;" x="129.024" xlink:href="#m6020fbd8e8" y="307.584"/>
      </g>
     </g>
     <g id="text_2">
      <!-- 0.252 -->
      <g transform="translate(114.709938 322.182437)scale(0.1 -0.1)">
       <use xlink:href="#DejaVuSans-30"/>
       <use x="63.623047" xlink:href="#DejaVuSans-2e"/>
       <use x="95.410156" xlink:href="#DejaVuSans-32"/>
       <use x="159.033203" xlink:href="#DejaVuSans-35"/>
       <use x="222.65625" xlink:href="#DejaVuSans-32"/>
      </g>
     </g>
    </g>
    <g id="xtick_3">
     <g id="line2d_3">
      <g>
       <use style="stroke:#000000;stroke-width:0.8;" x="200.448" xlink:href="#m6020fbd8e8" y="307.584"/>
      </g>
     </g>
     <g id="text_3">
      <!-- 0.254 -->
      <defs>
       <path d="M 37.796875 64.3125 
L 12.890625 25.390625 
L 37.796875 25.390625 
z
M 35.203125 72.90625 
L 47.609375 72.90625 
L 47.609375 25.390625 
L 58.015625 25.390625 
L 58.015625 17.1875 
L 47.609375 17.1875 
L 47.609375 0 
L 37.796875 0 
L 37.796875 17.1875 
L 4.890625 17.1875 
L 4.890625 26.703125 
z
" id="DejaVuSans-34"/>
      </defs>
      <g transform="translate(186.133938 322.182437)scale(0.1 -0.1)">
       <use xlink:href="#DejaVuSans-30"/>
       <use x="63.623047" xlink:href="#DejaVuSans-2e"/>
       <use x="95.410156" xlink:href="#DejaVuSans-32"/>
       <use x="159.033203" xlink:href="#DejaVuSans-35"/>
       <use x="222.65625" xlink:href="#DejaVuSans-34"/>
      </g>
     </g>
    </g>
    <g id="xtick_4">
     <g id="line2d_4">
      <g>
       <use style="stroke:#000000;stroke-width:0.8;" x="271.872" xlink:href="#m6020fbd8e8" y="307.584"/>
      </g>
     </g>
     <g id="text_4">
      <!-- 0.256 -->
      <defs>
       <path d="M 33.015625 40.375 
Q 26.375 40.375 22.484375 35.828125 
Q 18.609375 31.296875 18.609375 23.390625 
Q 18.609375 15.53125 22.484375 10.953125 
Q 26.375 6.390625 33.015625 6.390625 
Q 39.65625 6.390625 43.53125 10.953125 
Q 47.40625 15.53125 47.40625 23.390625 
Q 47.40625 31.296875 43.53125 35.828125 
Q 39.65625 40.375 33.015625 40.375 
z
M 52.59375 71.296875 
L 52.59375 62.3125 
Q 48.875 64.0625 45.09375 64.984375 
Q 41.3125 65.921875 37.59375 65.921875 
Q 27.828125 65.921875 22.671875 59.328125 
Q 17.53125 52.734375 16.796875 39.40625 
Q 19.671875 43.65625 24.015625 45.921875 
Q 28.375 48.1875 33.59375 48.1875 
Q 44.578125 48.1875 50.953125 41.515625 
Q 57.328125 34.859375 57.328125 23.390625 
Q 57.328125 12.15625 50.6875 5.359375 
Q 44.046875 -1.421875 33.015625 -1.421875 
Q 20.359375 -1.421875 13.671875 8.265625 
Q 6.984375 17.96875 6.984375 36.375 
Q 6.984375 53.65625 15.1875 63.9375 
Q 23.390625 74.21875 37.203125 74.21875 
Q 40.921875 74.21875 44.703125 73.484375 
Q 48.484375 72.75 52.59375 71.296875 
z
" id="DejaVuSans-36"/>
      </defs>
      <g transform="translate(257.557938 322.182437)scale(0.1 -0.1)">
       <use xlink:href="#DejaVuSans-30"/>
       <use x="63.623047" xlink:href="#DejaVuSans-2e"/>
       <use x="95.410156" xlink:href="#DejaVuSans-32"/>
       <use x="159.033203" xlink:href="#DejaVuSans-35"/>
       <use x="222.65625" xlink:href="#DejaVuSans-36"/>
      </g>
     </g>
    </g>
    <g id="xtick_5">
     <g id="line2d_5">
      <g>
       <use style="stroke:#000000;stroke-width:0.8;" x="343.296" xlink:href="#m6020fbd8e8" y="307.584"/>
      </g>
     </g>
     <g id="text_5">
      <!-- 0.258 -->
      <defs>
       <path d="M 31.78125 34.625 
Q 24.75 34.625 20.71875 30.859375 
Q 16.703125 27.09375 16.703125 20.515625 
Q 16.703125 13.921875 20.71875 10.15625 
Q 24.75 6.390625 31.78125 6.390625 
Q 38.8125 6.390625 42.859375 10.171875 
Q 46.921875 13.96875 46.921875 20.515625 
Q 46.921875 27.09375 42.890625 30.859375 
Q 38.875 34.625 31.78125 34.625 
z
M 21.921875 38.8125 
Q 15.578125 40.375 12.03125 44.71875 
Q 8.5 49.078125 8.5 55.328125 
Q 8.5 64.0625 14.71875 69.140625 
Q 20.953125 74.21875 31.78125 74.21875 
Q 42.671875 74.21875 48.875 69.140625 
Q 55.078125 64.0625 55.078125 55.328125 
Q 55.078125 49.078125 51.53125 44.71875 
Q 48 40.375 41.703125 38.8125 
Q 48.828125 37.15625 52.796875 32.3125 
Q 56.78125 27.484375 56.78125 20.515625 
Q 56.78125 9.90625 50.3125 4.234375 
Q 43.84375 -1.421875 31.78125 -1.421875 
Q 19.734375 -1.421875 13.25 4.234375 
Q 6.78125 9.90625 6.78125 20.515625 
Q 6.78125 27.484375 10.78125 32.3125 
Q 14.796875 37.15625 21.921875 38.8125 
z
M 18.3125 54.390625 
Q 18.3125 48.734375 21.84375 45.5625 
Q 25.390625 42.390625 31.78125 42.390625 
Q 38.140625 42.390625 41.71875 45.5625 
Q 45.3125 48.734375 45.3125 54.390625 
Q 45.3125 60.0625 41.71875 63.234375 
Q 38.140625 66.40625 31.78125 66.40625 
Q 25.390625 66.40625 21.84375 63.234375 
Q 18.3125 60.0625 18.3125 54.390625 
z
" id="DejaVuSans-38"/>
      </defs>
      <g transform="translate(328.981938 322.182437)scale(0.1 -0.1)">
       <use xlink:href="#DejaVuSans-30"/>
       <use x="63.623047" xlink:href="#DejaVuSans-2e"/>
       <use x="95.410156" xlink:href="#DejaVuSans-32"/>
       <use x="159.033203" xlink:href="#DejaVuSans-35"/>
       <use x="222.65625" xlink:href="#DejaVuSans-38"/>
      </g>
     </g>
    </g>
    <g id="xtick_6">
     <g id="line2d_6">
      <g>
       <use style="stroke:#000000;stroke-width:0.8;" x="414.72" xlink:href="#m6020fbd8e8" y="307.584"/>
      </g>
     </g>
     <g id="text_6">
      <!-- 0.260 -->
      <g transform="translate(400.405938 322.182437)scale(0.1 -0.1)">
       <use xlink:href="#DejaVuSans-30"/>
       <use x="63.623047" xlink:href="#DejaVuSans-2e"/>
       <use x="95.410156" xlink:href="#DejaVuSans-32"/>
       <use x="159.033203" xlink:href="#DejaVuSans-36"/>
       <use x="222.65625" xlink:href="#DejaVuSans-30"/>
      </g>
     </g>
    </g>
    <g id="text_7">
     <!-- Time -->
     <defs>
      <path d="M -0.296875 72.90625 
L 61.375 72.90625 
L 61.375 64.59375 
L 35.5 64.59375 
L 35.5 0 
L 25.59375 0 
L 25.59375 64.59375 
L -0.296875 64.59375 
z
" id="DejaVuSans-54"/>
      <path d="M 9.421875 54.6875 
L 18.40625 54.6875 
L 18.40625 0 
L 9.421875 0 
z
M 9.421875 75.984375 
L 18.40625 75.984375 
L 18.40625 64.59375 
L 9.421875 64.59375 
z
" id="DejaVuSans-69"/>
      <path d="M 52 44.1875 
Q 55.375 50.25 60.0625 53.125 
Q 64.75 56 71.09375 56 
Q 79.640625 56 84.28125 50.015625 
Q 88.921875 44.046875 88.921875 33.015625 
L 88.921875 0 
L 79.890625 0 
L 79.890625 32.71875 
Q 79.890625 40.578125 77.09375 44.375 
Q 74.3125 48.1875 68.609375 48.1875 
Q 61.625 48.1875 57.5625 43.546875 
Q 53.515625 38.921875 53.515625 30.90625 
L 53.515625 0 
L 44.484375 0 
L 44.484375 32.71875 
Q 44.484375 40.625 41.703125 44.40625 
Q 38.921875 48.1875 33.109375 48.1875 
Q 26.21875 48.1875 22.15625 43.53125 
Q 18.109375 38.875 18.109375 30.90625 
L 18.109375 0 
L 9.078125 0 
L 9.078125 54.6875 
L 18.109375 54.6875 
L 18.109375 46.1875 
Q 21.1875 51.21875 25.484375 53.609375 
Q 29.78125 56 35.6875 56 
Q 41.65625 56 45.828125 52.96875 
Q 50 49.953125 52 44.1875 
z
" id="DejaVuSans-6d"/>
      <path d="M 56.203125 29.59375 
L 56.203125 25.203125 
L 14.890625 25.203125 
Q 15.484375 15.921875 20.484375 11.0625 
Q 25.484375 6.203125 34.421875 6.203125 
Q 39.59375 6.203125 44.453125 7.46875 
Q 49.3125 8.734375 54.109375 11.28125 
L 54.109375 2.78125 
Q 49.265625 0.734375 44.1875 -0.34375 
Q 39.109375 -1.421875 33.890625 -1.421875 
Q 20.796875 -1.421875 13.15625 6.1875 
Q 5.515625 13.8125 5.515625 26.8125 
Q 5.515625 40.234375 12.765625 48.109375 
Q 20.015625 56 32.328125 56 
Q 43.359375 56 49.78125 48.890625 
Q 56.203125 41.796875 56.203125 29.59375 
z
M 47.21875 32.234375 
Q 47.125 39.59375 43.09375 43.984375 
Q 39.0625 48.390625 32.421875 48.390625 
Q 24.90625 48.390625 20.390625 44.140625 
Q 15.875 39.890625 15.1875 32.171875 
z
" id="DejaVuSans-65"/>
     </defs>
     <g transform="translate(223.7725 335.860562)scale(0.1 -0.1)">
      <use xlink:href="#DejaVuSans-54"/>
      <use x="61.037109" xlink:href="#DejaVuSans-69"/>
      <use x="88.820312" xlink:href="#DejaVuSans-6d"/>
      <use x="186.232422" xlink:href="#DejaVuSans-65"/>
     </g>
    </g>
   </g>
   <g id="matplotlib.axis_2"/>
   <g id="line2d_7">
    <path clip-path="url(#p132d4ea0d0)" d="M 56.790204 165.918292 
L 61.64898 216.707695 
L 64.078367 239.792472 
L 65.697959 253.592347 
L 67.317551 265.789978 
L 68.937143 276.13818 
L 70.556735 284.427247 
L 71.366531 287.745382 
L 72.176327 290.489199 
L 72.986122 292.644781 
L 73.795918 294.201191 
L 74.605714 295.150536 
L 75.41551 295.488 
L 76.225306 295.21187 
L 77.035102 294.323548 
L 77.844898 292.827539 
L 78.654694 290.731432 
L 79.46449 288.04586 
L 80.274286 284.784447 
L 81.084082 280.963737 
L 82.703673 271.724687 
L 84.323265 260.515941 
L 85.942857 247.564645 
L 88.372245 225.452907 
L 90.801633 201.024086 
L 98.899592 117.436256 
L 101.32898 96.117796 
L 102.948571 83.83389 
L 104.568163 73.387906 
L 106.187755 64.991531 
L 106.997551 61.616843 
L 107.807347 58.814918 
L 108.617143 56.599972 
L 109.426939 54.983238 
L 110.236735 53.972919 
L 111.046531 53.574139 
L 111.856327 53.788921 
L 112.666122 54.616176 
L 113.475918 56.051707 
L 114.285714 58.088232 
L 115.09551 60.715422 
L 115.905306 63.919947 
L 116.715102 67.685554 
L 118.334694 76.820855 
L 119.954286 87.936197 
L 121.573878 100.806326 
L 123.193469 115.170428 
L 125.622857 138.874188 
L 129.671837 181.417865 
L 132.91102 215.088243 
L 135.340408 238.334876 
L 136.96 252.280082 
L 138.579592 264.649639 
L 140.199184 275.192875 
L 141.818776 283.696133 
L 142.628571 287.127203 
L 143.438367 289.987092 
L 144.248163 292.261291 
L 145.057959 293.938266 
L 145.867755 295.009508 
L 146.677551 295.469585 
L 147.487347 295.316161 
L 148.297143 294.550016 
L 149.106939 293.175035 
L 149.916735 291.198194 
L 150.726531 288.629521 
L 151.536327 285.482045 
L 152.346122 281.771732 
L 153.965714 272.740644 
L 155.585306 261.719271 
L 157.204898 248.930963 
L 158.82449 234.634874 
L 161.253878 211.004317 
L 165.302857 168.498603 
L 169.351837 126.749792 
L 171.781224 104.268188 
L 173.400816 90.998836 
L 175.020408 79.422207 
L 176.64 69.772903 
L 178.259592 62.246466 
L 179.069388 59.328758 
L 179.879184 56.99542 
L 180.68898 55.25829 
L 181.498776 54.126179 
L 182.308571 53.604829 
L 183.118367 53.696887 
L 183.928163 54.401884 
L 184.737959 55.716244 
L 185.547755 57.6333 
L 186.357551 60.143328 
L 187.167347 63.233594 
L 187.977143 66.888423 
L 189.596735 75.814841 
L 191.216327 86.741685 
L 192.835918 99.447525 
L 194.45551 113.674874 
L 196.884898 137.231029 
L 200.933878 179.696623 
L 204.982857 221.513371 
L 207.412245 244.084601 
L 209.031837 257.431794 
L 210.651429 269.098936 
L 212.27102 278.849593 
L 213.890612 286.486168 
L 214.700408 289.461547 
L 215.510204 291.853904 
L 216.32 293.651101 
L 217.129796 294.844024 
L 217.939592 295.42662 
L 218.749388 295.395933 
L 219.559184 294.752121 
L 220.36898 293.498448 
L 221.178776 291.641273 
L 221.988571 289.190019 
L 222.798367 286.157119 
L 223.608163 282.557959 
L 225.227755 273.736665 
L 226.847347 262.904903 
L 228.466939 250.282178 
L 230.086531 236.12429 
L 232.515918 212.643732 
L 236.564898 170.220414 
L 240.613878 128.33785 
L 243.043265 105.678139 
L 244.662857 92.253784 
L 246.282449 80.49672 
L 247.902041 70.645205 
L 249.521633 62.898881 
L 250.331429 59.865981 
L 251.141224 57.414727 
L 251.95102 55.557552 
L 252.760816 54.303879 
L 253.570612 53.660067 
L 254.380408 53.62938 
L 255.190204 54.211976 
L 256 55.404899 
L 256.809796 57.202096 
L 257.619592 59.594453 
L 258.429388 62.569832 
L 259.239184 66.113142 
L 260.858776 74.828864 
L 262.478367 85.564994 
L 264.097959 98.103964 
L 265.717551 112.191672 
L 268.146939 135.595441 
L 272.195918 177.974331 
L 276.244898 219.920585 
L 278.674286 242.667626 
L 280.293878 256.168464 
L 281.913469 268.014852 
L 283.533061 277.966725 
L 285.152653 285.822406 
L 285.962449 288.912672 
L 286.772245 291.4227 
L 287.582041 293.339756 
L 288.391837 294.654116 
L 289.201633 295.359113 
L 290.011429 295.451171 
L 290.821224 294.929821 
L 291.63102 293.79771 
L 292.440816 292.06058 
L 293.250612 289.727242 
L 294.060408 286.809534 
L 294.870204 283.322256 
L 296.489796 274.712548 
L 298.109388 264.072595 
L 299.72898 251.618015 
L 301.348571 237.601202 
L 303.777959 214.27541 
L 307.017143 180.557397 
L 311.875918 129.935284 
L 314.305306 107.102066 
L 315.924898 93.525432 
L 317.54449 81.59032 
L 319.164082 71.538595 
L 320.783673 63.573955 
L 321.593469 60.426479 
L 322.403265 57.857806 
L 323.213061 55.880965 
L 324.022857 54.505984 
L 324.832653 53.739839 
L 325.642449 53.586415 
L 326.452245 54.046492 
L 327.262041 55.117734 
L 328.071837 56.794709 
L 328.881633 59.068908 
L 329.691429 61.928797 
L 330.501224 65.359867 
L 332.120816 73.863125 
L 333.740408 84.406361 
L 335.36 96.775918 
L 336.979592 110.721124 
L 339.40898 133.967757 
L 342.648163 167.638135 
L 347.506939 218.318584 
L 349.936327 241.23682 
L 351.555918 254.888561 
L 353.17551 266.911792 
L 354.795102 277.062859 
L 356.414694 285.136053 
L 357.22449 288.340578 
L 358.034286 290.967768 
L 358.844082 293.004293 
L 359.653878 294.439824 
L 360.463673 295.267079 
L 361.273469 295.481861 
L 362.083265 295.083081 
L 362.893061 294.072762 
L 363.702857 292.456028 
L 364.512653 290.241082 
L 365.322449 287.439157 
L 366.132245 284.064469 
L 367.751837 275.668094 
L 369.371429 265.22211 
L 370.99102 252.938204 
L 372.610612 239.065312 
L 375.04 215.899019 
L 378.279184 182.277983 
L 383.137959 131.54177 
L 385.567347 108.53968 
L 387.186939 94.813523 
L 388.806531 82.702785 
L 390.426122 72.45289 
L 392.045714 64.271553 
L 392.85551 61.01014 
L 393.665306 58.324568 
L 394.475102 56.228461 
L 395.284898 54.732452 
L 396.094694 53.84413 
L 396.90449 53.568 
L 397.714286 53.905464 
L 398.524082 54.854809 
L 399.333878 56.411219 
L 400.143673 58.566801 
L 400.953469 61.310618 
L 401.763265 64.628753 
L 403.382857 72.91782 
L 405.002449 83.266022 
L 406.622041 95.463653 
L 408.241633 109.263528 
L 410.67102 132.348305 
L 413.910204 165.918292 
L 415.529796 183.137708 
L 415.529796 183.137708 
" style="fill:none;stroke:#ff0000;stroke-linecap:square;stroke-width:1.5;"/>
   </g>
   <g id="patch_3">
    <path d="M 57.6 307.584 
L 57.6 41.472 
" style="fill:none;stroke:#000000;stroke-linecap:square;stroke-linejoin:miter;stroke-width:0.8;"/>
   </g>
   <g id="patch_4">
    <path d="M 414.72 307.584 
L 414.72 41.472 
" style="fill:none;stroke:#000000;stroke-linecap:square;stroke-linejoin:miter;stroke-width:0.8;"/>
   </g>
   <g id="patch_5">
    <path d="M 57.6 307.584 
L 414.72 307.584 
" style="fill:none;stroke:#000000;stroke-linecap:square;stroke-linejoin:miter;stroke-width:0.8;"/>
   </g>
   <g id="patch_6">
    <path d="M 57.6 41.472 
L 414.72 41.472 
" style="fill:none;stroke:#000000;stroke-linecap:square;stroke-linejoin:miter;stroke-width:0.8;"/>
   </g>
  </g>
 </g>
 <defs>
  <clipPath id="p132d4ea0d0">
   <rect height="266.112" width="357.12" x="57.6" y="41.472"/>
  </clipPath>
 </defs>
</svg>
